<svg width="242" height="39" viewBox="0 0 242 39" fill="none" xmlns="http://www.w3.org/2000/svg">
<path fill-rule="evenodd" clip-rule="evenodd" d="M19.6105 29.5674V30.6465H24.263V38.9233H25.8989V30.6465H30.4969V29.5674H19.6105Z" fill="black"/>
<path fill-rule="evenodd" clip-rule="evenodd" d="M39.7233 38.9236H41.3835V35.1449C41.3835 32.955 39.7129 31.9938 37.333 31.9938C35.8339 31.9938 34.5128 32.4497 33.7126 33.4277V29.5679H32.0524V38.9235H33.7126V35.8433C33.7126 33.7331 35.3832 32.9003 37.0837 32.9003C38.6532 32.9003 39.7232 33.5686 39.7232 35.2067L39.7233 38.9236Z" fill="black"/>
<path fill-rule="evenodd" clip-rule="evenodd" d="M46.1692 34.8749C46.422 33.433 47.5907 32.7936 49.2468 32.7936C50.65 32.7936 52.0706 33.3723 52.11 34.8749H46.1692ZM53.8242 35.3756C53.8242 33.1563 52.2075 31.9065 49.2851 31.9065C46.2951 31.9065 44.4932 33.1773 44.4932 35.5454C44.4932 37.6123 46.2277 38.9236 49.2468 38.9236C51.3116 38.9236 53.3068 38.3218 53.63 36.7266H51.9147C51.5542 37.6521 50.5515 38.0595 49.1491 38.0595C47.2395 38.0595 46.266 37.0886 46.1009 35.7628H53.8243L53.8242 35.3756Z" fill="black"/>
<path fill-rule="evenodd" clip-rule="evenodd" d="M119.398 33.0428C119.714 33.0428 120.112 33.0664 120.698 33.1484V31.9404C120.459 31.9237 120.217 31.9062 119.629 31.9062C117.982 31.9062 116.88 32.5961 116.199 33.4242L116.145 32.0461H114.478C114.53 32.5962 114.562 33.0831 114.562 33.6096V38.9231H116.302V35.5977C116.302 33.9111 117.32 33.0427 119.398 33.0427L119.398 33.0428Z" fill="black"/>
<path fill-rule="evenodd" clip-rule="evenodd" d="M169.168 33.0428C169.485 33.0428 169.883 33.0664 170.471 33.1484V31.9404C170.23 31.9237 169.99 31.9062 169.4 31.9062C167.753 31.9062 166.652 32.5961 165.972 33.4242L165.918 32.0461H164.25C164.304 32.5962 164.335 33.0831 164.335 33.6096V38.9231H166.076V35.5977C166.076 33.9111 167.093 33.0427 169.168 33.0427L169.168 33.0428Z" fill="black"/>
<path fill-rule="evenodd" clip-rule="evenodd" d="M87.9938 37.9117L85.2611 31.9062H83.3741L86.7912 38.9231H89.0406L91.9129 33.0053L94.9354 38.9231H97.0962L100.481 31.9062H98.7255L96.0249 37.9117L93.0412 31.9062H90.8749L87.9938 37.9117Z" fill="black"/>
<path fill-rule="evenodd" clip-rule="evenodd" d="M65.7283 34.3209H61.915V30.6066H65.597C68.0954 30.6066 68.9319 31.2973 68.9319 32.369C68.9319 33.6199 68.0842 34.3208 65.7282 34.3208L65.7283 34.3209ZM65.5858 29.5674L60.0455 29.5762V38.9233L61.9151 38.916V35.3588H65.8902C69.3463 35.3588 70.9319 34.0991 70.9319 32.3618C70.9319 30.7792 69.5844 29.5601 65.586 29.5674H65.5858Z" fill="black"/>
<path fill-rule="evenodd" clip-rule="evenodd" d="M77.9215 38.0371C75.5541 38.0371 74.2981 36.8956 74.2981 35.4153C74.2981 33.8729 75.5541 32.7936 77.9215 32.7936C80.3911 32.7936 81.5738 33.8729 81.5738 35.4153C81.5738 36.8956 80.3082 38.0371 77.9215 38.0371ZM77.9215 31.9065C74.4022 31.9065 72.4879 33.3102 72.4879 35.4154C72.4879 37.6521 74.4022 38.9236 77.9215 38.9236C81.4706 38.9236 83.3744 37.6521 83.3744 35.4154C83.3744 33.2018 81.5419 31.9065 77.9215 31.9065Z" fill="black"/>
<path fill-rule="evenodd" clip-rule="evenodd" d="M103.724 34.8749C103.948 33.433 105.157 32.7936 106.814 32.7936C108.228 32.7936 109.642 33.3723 109.672 34.8749H103.724ZM111.368 35.3756C111.368 33.1563 109.77 31.9065 106.844 31.9065C103.841 31.9065 102.037 33.1773 102.037 35.5454C102.037 37.6123 103.763 38.9236 106.786 38.9236C108.862 38.9236 110.861 38.3218 111.173 36.7266H109.476C109.106 37.6521 108.112 38.0595 106.717 38.0595C104.796 38.0595 103.812 37.0886 103.646 35.7628H111.368L111.368 35.3756Z" fill="black"/>
<path fill-rule="evenodd" clip-rule="evenodd" d="M173.7 34.8749C173.926 33.433 175.133 32.7936 176.791 32.7936C178.203 32.7936 179.617 33.3723 179.646 34.8749H173.7ZM181.344 35.3756C181.344 33.1563 179.746 31.9065 176.819 31.9065C173.818 31.9065 172.012 33.1773 172.012 35.5454C172.012 37.6123 173.739 38.9236 176.761 38.9236C178.838 38.9236 180.837 38.3218 181.147 36.7266H179.453C179.081 37.6521 178.087 38.0595 176.692 38.0595C174.772 38.0595 173.789 37.0886 173.623 35.7628H181.343L181.344 35.3756Z" fill="black"/>
<path fill-rule="evenodd" clip-rule="evenodd" d="M142.117 30.4718C142.584 30.4718 143.177 30.5267 144.026 30.6496V29.7233C143.441 29.6387 142.671 29.5679 141.782 29.5679C139.241 29.5679 138.437 30.5477 138.437 32.1074V32.3771H136.25V33.2723H138.437V38.9233H140.173V33.2723H143.745V32.3771H140.173V31.8514C140.173 30.8181 140.756 30.4717 142.117 30.4717V30.4718Z" fill="black"/>
<path fill-rule="evenodd" clip-rule="evenodd" d="M130.807 38.0371C128.445 38.0371 127.171 36.887 127.171 35.4153C127.171 33.8729 128.445 32.7936 130.807 32.7936C133.273 32.7936 134.464 33.8729 134.464 35.4153C134.464 36.887 133.169 38.0371 130.807 38.0371ZM130.807 31.9065C127.294 31.9065 125.363 33.3102 125.363 35.4154C125.363 37.6521 127.274 38.9236 130.807 38.9236C134.329 38.9236 136.249 37.6521 136.249 35.4154C136.249 33.2018 134.433 31.9065 130.807 31.9065Z" fill="black"/>
<path fill-rule="evenodd" clip-rule="evenodd" d="M203.679 33.5958C203.108 32.4724 201.805 31.9062 200.464 31.9062C199.206 31.9062 197.903 32.3925 197.098 33.3813L197.012 32.1616H195.354C195.406 32.7031 195.418 33.1811 195.418 33.6995V38.9232H197.174V35.6541C197.174 33.6435 198.706 32.8242 200.073 32.8242C201.533 32.8242 202.274 33.5957 202.274 35.454V38.9233H204.028V35.6542C204.028 33.2776 206.015 32.8243 206.873 32.8243C208.642 32.8243 209.147 33.7258 209.147 35.5183V38.9233H210.906V34.9992C210.906 32.7675 209.306 31.9064 207.15 31.9064C205.287 31.9064 204.122 32.8385 203.679 33.5959L203.679 33.5958Z" fill="black"/>
<path fill-rule="evenodd" clip-rule="evenodd" d="M216.922 38.9236C220.223 38.9236 221.792 38.2157 221.792 36.8272C221.792 35.8563 221.018 35.3766 219.389 35.1295L216.488 34.6989C215.198 34.506 214.629 34.2973 214.629 33.7959C214.629 33.14 215.653 32.7946 217.179 32.7946C218.418 32.7946 219.555 33.0244 219.678 33.8501H221.453C221.453 32.3077 219.159 31.9067 217.229 31.9067C214.931 31.9067 212.929 32.5078 212.929 33.9512C212.929 34.9756 213.959 35.4162 215.299 35.6235L218.045 36.0548C219.037 36.2101 219.987 36.364 219.987 36.9564C219.987 37.6521 219.037 38.0602 217.128 38.0602C215.579 38.0602 214.455 37.7301 214.289 36.827H212.461C212.595 38.3462 214.474 38.9234 216.922 38.9234L216.922 38.9236Z" fill="black"/>
<path fill-rule="evenodd" clip-rule="evenodd" d="M155.453 37.8832H152.109V30.6075H155.178C159.68 30.6075 160.774 31.8461 160.774 34.245C160.774 36.1616 159.748 37.8832 155.453 37.8832H155.453ZM155.614 29.5674H150.25V38.9233H155.688C160.164 38.9233 162.692 37.2452 162.692 34.2384C162.692 31.2353 160.512 29.5674 155.614 29.5674Z" fill="black"/>
<path fill-rule="evenodd" clip-rule="evenodd" d="M192.008 35.8007C192.008 37.3813 190.806 38.0597 188.667 38.0597C186.995 38.0597 186.296 37.5359 186.296 36.8041C186.296 35.3376 189.785 35.4929 191.098 35.4929H192.008L192.008 35.8007ZM193.705 37.4427V34.2193C193.705 32.6373 191.956 31.9062 189.471 31.9062C187.518 31.9062 185.293 32.3072 185.087 33.8733H186.923C187.026 33.2174 187.905 32.7941 189.471 32.7941C190.993 32.7941 192.008 33.2015 192.008 34.3739V34.621H191.014C189.011 34.621 184.458 34.5126 184.458 36.8041C184.458 38.0748 185.985 38.9229 188.218 38.9229C189.95 38.9229 191.068 38.7704 192.059 37.7815L192.164 38.6931H193.79C193.729 38.3218 193.705 37.9368 193.705 37.4426L193.705 37.4427Z" fill="black"/>
<path fill-rule="evenodd" clip-rule="evenodd" d="M208.103 12.3757L213.328 5.88281L218.654 12.3757H208.103ZM238.161 19.3234C236.938 19.1998 236.192 18.2888 235.233 17.1313L223.029 2.65724C222.547 2.12056 221.802 1.49976 220.629 1.49976H199.737V4.3536L204.553 4.79377C205.512 4.87712 206.238 5.67703 205.495 6.5873L196.327 18.1656C196.166 18.3726 195.633 19.2762 194.355 19.3998L190.678 19.7259V22.5505H208.051V19.6953L205.066 19.4065C203.841 19.2822 203.042 18.7031 203.841 17.7108L205.118 16.0987H221.801L222.921 17.4214C224.091 18.7865 222.921 19.2823 221.481 19.4065L218.496 19.6953V22.5505H242V19.655L238.161 19.3234Z" fill="black"/>
<path fill-rule="evenodd" clip-rule="evenodd" d="M171.686 18.4962H164.678V5.51015H171.686C178.372 5.51015 181.175 6.70928 181.175 12.0033C181.175 17.3389 178.372 18.4956 171.686 18.4956V18.4962ZM175.891 1.49928H148.705L148.702 4.35312L152.106 4.62221C153.383 4.76626 153.895 5.46967 153.895 6.42021V17.7524C153.895 18.5392 153.465 19.2821 152.331 19.4064L148.686 19.7698V22.5418L175.891 22.5498C188.397 22.5498 193.787 17.8759 193.787 11.7141C193.787 6.17315 188.397 1.49927 175.891 1.49927L175.891 1.49928Z" fill="black"/>
<path fill-rule="evenodd" clip-rule="evenodd" d="M0.948486 22.5508H22.8754V19.7379L19.1144 19.4074C18.2535 19.3248 17.3955 18.9109 17.3955 17.5048V14.1134H34.2709V17.3403C34.2709 18.2901 34.0552 19.2004 32.6042 19.3247L28.7881 19.6559V22.5507H50.715V19.6559L46.8447 19.3247C46.0939 19.2421 45.2331 18.7865 45.2331 17.5874V6.62815C45.2331 5.5116 45.77 4.76727 46.8979 4.68386L50.715 4.35409V1.50024H28.7881V4.31244L32.6042 4.6839C33.8946 4.80893 34.2709 5.59425 34.2709 6.62818V9.89516H17.3955V6.58722C17.3955 5.34564 18.0397 4.7673 19.1686 4.6839L22.8754 4.35412V1.50028H1.00188V4.35412L4.65738 4.6839C6.10837 4.80893 6.48467 5.63665 6.43234 6.71079V17.3812C6.43234 18.5797 6.00189 19.2824 4.60322 19.4074L0.948639 19.7379L0.948486 22.5508Z" fill="black"/>
<path fill-rule="evenodd" clip-rule="evenodd" d="M74.8196 18.6099C68.5322 18.6099 64.9543 16.8639 64.9543 11.4197C64.9543 6.05818 68.5322 4.31142 74.8196 4.31142C81.109 4.31142 84.6868 6.05818 84.6868 11.4197C84.6868 16.8639 81.109 18.6099 74.8196 18.6099ZM74.8731 0.330078C59.2625 0.330078 52.2704 4.88002 52.2704 11.38C52.2704 18.0409 59.2633 22.5505 74.8731 22.5505C90.3785 22.5505 97.3706 18.0408 97.3706 11.38C97.3706 4.88002 90.3779 0.330078 74.8731 0.330078Z" fill="black"/>
<path fill-rule="evenodd" clip-rule="evenodd" d="M97.3707 22.5511H114.931V19.7382L111.161 19.4077C110.082 19.325 109.436 18.6297 109.436 17.6703V6.95964L124.036 21.724C124.52 22.222 125.435 22.5518 126.298 22.5518H140.087V6.58845C140.087 5.84042 140.347 4.81383 141.758 4.68511L145.582 4.35533V1.50146H128.021V4.31369L131.845 4.68514C133.196 4.81091 133.514 5.67813 133.514 6.67109V17.0922L119.025 2.41157C118.486 1.87486 117.786 1.50195 116.762 1.50195H97.3704V4.35581L101.033 4.68559C102.325 4.83403 102.81 5.33782 102.81 6.7125V17.383C102.81 18.6472 102.361 19.2549 100.978 19.4093L97.3704 19.7397L97.3707 22.5511Z" fill="black"/>
</svg>
