<svg width="232" height="91" viewBox="0 0 232 91" fill="none" xmlns="http://www.w3.org/2000/svg">
<g clip-path="url(#clip0)">
<path d="M19.6233 22.3786L0.966675 76.3786H23.5222L31.3522 54.7465L43.7256 76.0572H63.1556L98.1489 37.6465L94.7011 67.1858L76.0767 67.2179L70.8245 75.2215L113.39 75.6393L121.123 23.8893L104.078 23.6322C104.078 23.6322 100.598 24.7893 97.6978 26.3643C94.7978 27.9393 91.8011 30.5429 91.8011 30.5429L59.2889 66.7036L51.1045 52.5929L100.662 0.61792L37.12 39.5751L43.4678 22.0893L19.6233 22.3786Z" fill="black"/>
<path d="M102.273 89.5575H121.8L181.25 22.7003H159.5L136.88 48.961L139.49 22.7003H128.889L122.767 65.1289L102.273 89.5575ZM230.937 49.7325C230.292 26.0432 210.25 20.9646 200.648 21.2218C194.107 21.4146 172.743 25.9468 171.422 48.5432C170.681 61.4968 181.25 76.411 202.13 76.8289C215.728 77.1182 231.323 63.9718 230.937 49.7325ZM202.033 65.0325C192.592 65.0325 186.792 56.4182 187.211 48.8968C187.984 35.7825 197.78 32.7289 201.131 32.7289C206.383 32.7289 215.083 35.3968 215.728 49.5396C216.114 57.8325 209.444 65.0325 202.033 65.0325Z" fill="black"/>
</g>
<defs>
<clipPath id="clip0">
<rect width="232" height="90" fill="white" transform="translate(0 0.200195)"/>
</clipPath>
</defs>
</svg>
