<?xml version="1.0" standalone="no"?>
<!DOCTYPE svg PUBLIC "-//W3C//DTD SVG 20010904//EN"
 "http://www.w3.org/TR/2001/REC-SVG-20010904/DTD/svg10.dtd">
<svg version="1.0" xmlns="http://www.w3.org/2000/svg"
 width="640.000000pt" height="640.000000pt" viewBox="0 0 640.000000 640.000000"
 preserveAspectRatio="xMidYMid meet">
<metadata>
Created by potrace 1.11, written by Peter Selinger 2001-2013
</metadata>
<g transform="translate(0.000000,640.000000) scale(0.100000,-0.100000)"
fill="#000000" stroke="none">
<path d="M3160 6382 c-19 -8 -44 -16 -56 -18 -42 -8 -114 -45 -144 -75 -68
-68 -73 -96 -75 -396 -2 -248 -2 -252 18 -241 14 7 16 12 7 18 -6 4 -10 18 -8
31 2 20 10 25 41 27 33 3 43 -2 79 -37 22 -23 43 -41 46 -41 10 0 42 -43 42
-57 0 -37 -58 -131 -119 -193 -36 -37 -81 -91 -99 -121 -37 -59 -119 -134
-197 -178 -67 -38 -203 -184 -261 -280 -62 -102 -122 -175 -162 -197 -28 -15
-56 -17 -195 -16 -167 2 -209 -5 -260 -40 -61 -43 -98 -139 -72 -188 17 -32
93 -89 113 -85 56 11 113 29 118 36 11 19 73 10 88 -13 12 -17 26 -22 58 -23
33 0 42 -4 40 -15 -2 -8 -8 -39 -14 -70 -6 -30 -12 -62 -13 -70 -2 -8 -4 -18
-4 -22 -1 -4 -49 -6 -108 -5 -169 5 -324 -30 -434 -96 -30 -18 -65 -40 -79
-48 -14 -8 -29 -20 -33 -26 -4 -7 -12 -13 -17 -13 -24 0 -266 -199 -386 -316
-119 -117 -164 -172 -157 -190 9 -23 72 -16 137 15 34 16 93 43 131 61 39 17
89 41 113 52 36 17 48 18 72 8 32 -13 62 -7 103 22 15 11 27 16 27 13 0 -3 12
2 28 13 15 10 61 37 102 59 41 22 105 57 143 78 60 32 71 35 100 26 17 -5 50
-12 72 -15 22 -3 65 -8 95 -12 30 -4 64 -8 75 -10 11 -1 30 -3 42 -3 26 -1 28
16 -32 -216 -25 -99 -48 -191 -51 -205 -3 -14 -14 -59 -25 -100 -11 -41 -22
-84 -24 -94 -2 -10 -9 -34 -15 -52 -7 -19 -10 -42 -8 -51 5 -25 71 188 103
332 2 11 16 65 31 120 14 55 27 111 29 125 3 35 37 150 44 154 4 3 28 -5 54
-16 53 -23 55 -31 32 -118 -8 -30 -17 -67 -20 -82 -3 -15 -9 -38 -15 -52 -5
-15 -7 -26 -5 -26 2 0 0 -11 -5 -25 -5 -14 -12 -36 -14 -48 -3 -12 -21 -85
-41 -162 -20 -77 -38 -147 -39 -155 -14 -58 -28 -100 -35 -104 -5 -3 -35 3
-67 14 -51 18 -59 19 -67 5 -6 -11 -13 -13 -26 -6 -27 15 -128 16 -145 2 -12
-10 -21 -9 -45 3 -41 22 -83 20 -114 -4 -14 -11 -38 -20 -54 -20 -15 0 -44
-10 -63 -22 -22 -14 -54 -22 -85 -24 -27 -1 -67 -9 -89 -18 -33 -14 -38 -20
-34 -41 5 -24 4 -25 -51 -25 -48 0 -62 -4 -94 -31 -28 -23 -35 -34 -27 -43 14
-18 2 -27 -26 -20 -35 9 -101 -42 -115 -88 -8 -25 -21 -40 -39 -48 -36 -15
-66 -48 -74 -82 -3 -15 -19 -36 -34 -45 -45 -30 -71 -66 -78 -110 -5 -33 -10
-41 -24 -38 -22 4 -53 -27 -57 -58 -10 -75 -14 -84 -48 -102 -39 -22 -42 -30
-40 -108 1 -36 -2 -57 -9 -57 -31 -1 -39 -20 -40 -93 -1 -69 -4 -78 -33 -115
-34 -41 -42 -79 -22 -99 8 -8 3 -22 -16 -51 -22 -33 -27 -51 -25 -94 1 -29 2
-64 2 -78 1 -29 -4 -53 -28 -133 -16 -54 -16 -61 -1 -92 9 -18 25 -36 36 -40
15 -4 18 -12 15 -33 -3 -14 -9 -31 -13 -37 -5 -5 -12 -25 -16 -44 -9 -43 10
-81 42 -81 34 0 37 -19 14 -86 -35 -98 -24 -154 29 -154 l29 0 0 -87 c0 -47 5
-91 10 -96 6 -6 23 -11 38 -13 15 -1 31 -2 34 -3 3 -1 4 -25 4 -53 -2 -61 11
-98 34 -99 26 -1 52 -7 59 -13 5 -6 9 -32 11 -70 1 -11 19 -36 41 -58 40 -37
42 -37 65 -22 14 9 26 12 26 8 1 -5 3 -24 5 -43 5 -43 27 -68 68 -77 17 -3 36
-10 41 -14 6 -4 27 -13 47 -19 21 -7 44 -21 51 -32 21 -29 77 -37 94 -14 13
18 15 18 66 -8 44 -22 64 -26 120 -24 46 2 68 -2 72 -10 6 -18 106 -18 102 -1
-4 20 43 22 57 2 12 -16 18 -16 60 -4 45 12 55 28 47 73 -1 5 9 1 21 -7 30
-21 50 -20 81 4 14 11 37 20 51 20 40 0 91 25 112 55 48 67 74 90 102 87 26
-3 49 14 117 86 6 6 27 26 48 45 30 27 40 46 49 91 8 36 17 56 26 56 20 0 67
51 92 99 14 28 27 41 41 41 14 0 25 10 32 30 6 17 15 30 19 30 4 0 8 9 8 19 0
11 5 23 10 26 7 4 7 12 1 23 -8 13 -3 23 18 42 18 16 34 48 46 90 11 36 28 77
38 92 11 14 20 41 21 60 0 18 11 47 23 63 12 17 25 49 28 70 4 22 12 45 17 52
5 6 9 35 10 63 0 28 6 63 13 76 9 18 10 36 3 66 -5 24 -5 52 0 67 10 30 8 186
-2 219 -5 13 -1 40 9 66 15 40 15 46 1 74 -13 25 -14 36 -4 59 15 38 18 55 10
67 -3 6 -7 29 -8 51 -1 44 -22 110 -62 198 -22 48 -24 63 -16 86 16 40 9 99
-15 132 -12 15 -21 33 -21 39 0 14 -39 91 -55 110 -9 10 -15 54 -17 133 -2 96
0 119 12 127 8 5 11 10 6 10 -5 0 -3 6 3 14 6 7 11 42 10 77 0 35 0 66 1 69 1
3 3 14 5 25 2 11 7 35 10 53 8 43 19 41 33 -7 7 -21 23 -46 36 -55 13 -8 40
-46 59 -83 228 -453 279 -510 589 -664 64 -32 152 -9 196 53 7 9 43 34 80 55
59 33 76 38 142 39 41 1 95 7 120 14 25 7 52 14 60 16 118 28 230 59 251 70
15 7 29 10 33 7 3 -4 6 -2 6 3 0 23 107 38 261 36 178 -2 209 7 244 71 20 38
35 47 35 24 0 -7 13 -23 29 -34 21 -16 27 -28 24 -46 -4 -19 3 -31 31 -53 19
-16 38 -40 41 -55 6 -26 35 -48 70 -53 11 -1 28 -18 37 -37 22 -43 54 -69 84
-69 15 0 39 -15 63 -40 39 -40 64 -50 76 -29 5 7 15 3 30 -11 16 -15 29 -19
49 -14 17 4 35 0 52 -10 25 -17 62 -14 75 6 4 6 18 4 35 -5 18 -9 36 -12 44
-7 8 4 37 10 64 13 36 3 54 10 66 27 10 13 24 21 32 17 19 -7 28 0 62 46 16
21 31 35 34 32 12 -12 31 19 26 42 -6 22 -4 24 21 21 23 -2 31 3 47 35 11 20
26 37 33 37 15 0 24 39 15 65 -4 11 4 38 18 68 25 49 25 50 7 83 -14 26 -15
39 -7 62 6 19 6 34 0 47 -7 12 -7 28 0 51 7 25 6 37 -4 53 -10 13 -11 27 -5
43 9 24 4 49 -11 59 -5 3 -11 23 -13 45 -3 21 -13 46 -23 54 -9 9 -18 22 -20
30 -2 8 -14 25 -28 38 -16 15 -24 33 -22 50 1 15 -6 42 -16 60 -13 26 -22 33
-38 29 -44 -12 -94 43 -66 71 5 5 8 25 6 43 -2 27 -9 36 -33 44 -33 11 -45 23
-39 39 7 19 -11 36 -42 42 -51 9 -63 15 -58 28 3 8 -13 24 -40 40 -24 14 -51
32 -58 39 -7 8 -31 20 -53 27 -22 7 -60 24 -85 37 -38 21 -53 23 -100 17 -75
-9 -80 -9 -121 0 -28 6 -46 3 -77 -13 -37 -19 -41 -19 -34 -4 18 44 65 128 73
131 5 2 9 8 9 14 0 6 19 43 41 82 75 128 86 150 102 201 9 28 14 61 12 75 -18
112 -22 97 55 195 40 50 76 100 81 113 10 26 12 72 3 72 -43 0 -175 -54 -382
-156 -139 -68 -255 -124 -257 -124 -3 0 -35 -14 -72 -31 -70 -32 -257 -97
-301 -105 -14 -3 -35 -10 -46 -16 -33 -17 -7 5 63 52 82 55 131 100 190 175
60 78 81 123 70 153 -6 15 -15 22 -26 20 -10 -2 -62 -55 -115 -118 -181 -212
-255 -275 -242 -204 14 76 41 110 141 177 69 47 108 80 152 129 l23 27 -68 19
c-147 42 -300 56 -440 39 l-49 -6 84 40 c132 62 198 78 316 79 86 0 117 -5
166 -30 21 -11 43 -20 48 -20 26 0 -12 285 -43 319 -9 10 -16 25 -16 34 0 19
-41 87 -52 87 -11 0 -10 -2 7 -43 23 -56 20 -67 -17 -64 l-33 2 1 78 c0 77 0
78 -23 72 -15 -3 -23 -1 -24 7 -1 7 -3 31 -6 53 -2 22 -5 46 -5 53 -2 22 -46
62 -70 63 -46 3 -113 -2 -152 -11 -22 -5 -42 -8 -43 -6 -2 2 5 24 16 49 43
100 47 242 11 353 -14 42 -29 36 -25 -8 2 -18 7 -63 10 -99 6 -51 3 -82 -14
-145 -23 -83 -58 -162 -91 -204 l-19 -25 4 26 c3 15 12 44 21 65 29 70 53 223
50 314 -5 101 -5 102 -31 154 -32 64 -40 55 -39 -44 1 -63 -5 -111 -18 -158
-26 -86 -37 -146 -37 -200 -1 -53 -15 -48 -42 16 -29 68 -26 122 14 252 29 96
48 163 52 190 0 3 3 10 6 15 3 6 3 21 0 34 l-7 24 -17 -26 c-9 -14 -17 -29
-17 -32 0 -4 -7 -13 -15 -21 -8 -8 -22 -37 -32 -64 -19 -54 -41 -64 -70 -34
-24 24 -20 74 10 121 39 61 36 80 -9 75 -41 -5 -100 -57 -110 -97 -9 -37 -29
-30 -24 8 0 1 -8 27 -19 57 -25 74 -61 138 -90 164 -13 11 -56 52 -95 89 -84
82 -104 93 -176 101 -29 3 -67 14 -84 24 -28 17 -35 17 -66 4z m257 -134 c40
-32 93 -92 94 -107 0 -9 2 -25 4 -36 8 -41 -8 -48 -57 -24 l-46 22 -4 61 c-3
34 -8 69 -13 79 -8 20 0 22 22 5z m-53 -225 c17 -21 17 -21 -1 -17 -20 6 -50
-19 -95 -76 -15 -19 -41 -51 -58 -70 -25 -27 -29 -30 -19 -10 26 53 148 211
153 198 1 -2 9 -13 20 -25z m150 -81 c3 -5 5 -24 5 -43 1 -19 1 -53 1 -77 1
-36 -5 -49 -34 -78 -30 -30 -40 -34 -85 -34 -34 0 -51 -4 -51 -12 0 -7 -5 -5
-11 5 -15 26 -1 37 51 42 24 2 48 9 53 14 9 9 34 106 42 166 1 11 3 21 4 23 3
5 20 1 25 -6z m186 -92 c-6 -11 -13 -20 -16 -20 -2 0 0 9 6 20 6 11 13 20 16
20 2 0 0 -9 -6 -20z m-552 -107 l-3 -57 47 -24 c62 -32 114 -36 139 -11 19 19
19 19 19 -11 0 -17 -5 -30 -12 -31 -7 0 -20 -2 -29 -4 -16 -3 -30 2 -127 46
-30 13 -48 16 -60 10 -11 -6 -25 -5 -40 3 l-22 12 40 54 c22 29 40 57 40 62 0
4 3 8 6 8 3 0 4 -26 2 -57z m187 -214 c117 -41 190 -58 243 -59 29 0 41 -4 36
-11 -6 -10 -35 -9 -114 5 -69 11 -224 63 -260 86 -27 17 3 11 95 -21z m836
-234 c5 -4 19 -8 31 -10 50 -10 104 -68 113 -122 l5 -31 -88 -30 c-178 -62
-307 -108 -317 -114 -6 -3 -26 -10 -46 -16 l-36 -10 7 35 c5 18 8 67 7 108 -1
80 1 84 29 90 37 7 97 37 133 65 54 42 125 57 162 35z m-686 -72 c-20 -52 -32
-139 -29 -201 4 -68 3 -71 -25 -91 -68 -49 -287 -121 -342 -113 l-30 4 33 24
c18 13 38 27 43 31 60 46 160 107 186 112 35 7 64 40 75 85 l7 29 -64 -45
c-230 -163 -367 -254 -403 -267 -26 -10 -26 -10 -26 34 0 41 3 46 48 77 26 17
52 37 59 43 18 15 31 25 98 74 33 25 62 47 65 51 13 16 125 90 137 90 7 0 13
4 13 9 0 4 26 20 58 33 98 44 107 45 97 21z m-390 -94 c13 -14 -63 17 -84 34
-41 32 -51 42 -51 49 0 8 117 -64 135 -83z m695 19 c-1 -13 -39 -128 -40 -118
0 3 -8 28 -19 57 -11 29 -15 55 -10 60 14 14 69 15 69 1z m-980 -73 c13 -25
48 -72 77 -105 53 -58 54 -60 32 -68 -25 -10 -126 24 -217 71 l-53 28 44 37
c23 21 54 47 67 60 13 12 24 22 25 22 1 0 12 -20 25 -45z m870 -165 c-20 -13
-33 -13 -25 0 3 6 14 10 23 10 15 0 15 -2 2 -10z m-817 -97 c-4 -29 0 -44 17
-63 l21 -24 -38 -33 c-63 -55 -68 -56 -70 -15 -1 24 -9 42 -22 52 -20 15 -19
16 32 67 29 28 55 52 59 52 3 1 4 -16 1 -36z m804 15 c6 -13 14 -30 17 -38 11
-28 31 -55 69 -93 61 -63 62 -67 17 -133 -41 -61 -52 -104 -25 -104 8 0 42 25
77 56 41 36 64 51 67 43 7 -23 29 -39 86 -64 52 -23 68 -46 45 -60 -9 -6 -70
-118 -70 -129 0 -2 23 -2 52 0 51 4 88 -12 88 -39 0 -6 8 -19 17 -29 16 -18
16 -18 -3 -12 -10 4 -32 16 -48 25 -16 10 -33 16 -38 13 -14 -9 -8 -36 12 -54
19 -17 16 -17 -74 -16 -87 1 -93 2 -85 18 5 10 14 18 19 18 13 0 24 40 21 78
-2 46 -50 142 -70 143 -122 7 -190 -24 -234 -106 -16 -30 -21 -57 -20 -107 l1
-68 -54 0 c-54 0 -54 0 -40 23 40 65 103 198 95 203 -15 9 -24 -2 -64 -81 -31
-60 -47 -80 -72 -90 -18 -8 -33 -19 -33 -26 0 -8 -13 -9 -42 -4 -24 3 -100 9
-169 11 l-127 6 -59 -41 c-32 -22 -71 -45 -86 -50 -24 -9 -29 -7 -44 16 -11
17 -18 49 -19 91 -2 56 2 72 28 118 20 36 30 69 31 101 2 47 1 48 -40 67 -24
11 -43 23 -43 27 0 4 25 30 55 57 137 121 353 177 412 105 l21 -26 31 31 c17
17 31 38 31 46 0 17 35 22 45 7 6 -11 49 -5 53 7 1 5 13 22 25 38 22 29 41 35
64 21 13 -8 43 1 43 14 0 18 27 8 37 -13z m-1019 -209 c-18 -35 -35 -66 -38
-69 -3 -3 -27 -50 -55 -105 l-50 -100 -6 42 c-3 24 -9 46 -12 50 -4 4 -27 1
-50 -5 -23 -7 -52 -15 -65 -17 -36 -8 -135 -54 -156 -73 -18 -16 -18 -16 -8 4
6 12 13 44 15 72 2 28 12 63 21 77 24 37 89 76 133 80 45 5 88 20 208 74 49
22 91 39 92 37 2 -2 -11 -32 -29 -67z m2650 -41 c-13 -18 -42 -58 -63 -88 -22
-30 -48 -64 -57 -74 -10 -11 -18 -23 -18 -27 0 -3 -14 -5 -32 -3 -46 6 -99
-12 -137 -46 -39 -35 -57 -38 -66 -10 -8 26 -38 42 -67 36 -58 -12 -70 -16
-105 -32 -21 -10 -45 -23 -53 -29 -17 -13 -50 -27 -50 -20 0 8 107 75 146 90
21 9 134 63 249 120 116 57 219 105 230 108 45 10 48 7 23 -25z m-3150 -155
c-30 -30 -46 -26 -28 6 6 12 21 21 33 21 21 0 21 -1 -5 -27z m668 -54 c3 -5
-1 -23 -9 -39 -9 -17 -14 -49 -12 -76 2 -37 10 -53 40 -84 24 -25 35 -44 32
-54 -7 -17 -100 -80 -141 -96 -13 -5 -34 -6 -46 -3 -22 6 -22 9 -16 92 5 71
14 120 36 199 8 28 24 60 37 74 12 13 20 14 44 6 16 -5 32 -14 35 -19z m-143
-116 c-8 -27 -16 -55 -18 -63 -1 -8 -8 -35 -15 -58 -6 -24 -10 -53 -9 -65 4
-36 -11 -66 -40 -81 -34 -18 -54 -16 -80 8 -20 19 -20 19 -1 44 11 13 20 35
20 48 0 12 6 29 13 36 6 7 25 32 40 54 28 42 96 124 102 124 2 0 -4 -21 -12
-47z m2261 -70 c12 -57 -1 -128 -29 -160 l-23 -27 -78 28 c-44 15 -101 35
-129 43 -27 8 -57 21 -66 29 -8 8 -22 14 -29 14 -25 0 2 17 77 48 39 17 74 28
77 25 3 -3 12 0 21 7 8 7 15 10 15 7 0 -3 24 3 53 13 79 29 100 24 111 -27z
m-754 15 c0 -4 -9 -8 -20 -8 -11 0 -20 4 -20 8 0 4 9 8 20 8 11 0 20 -4 20 -8z
m-6 -94 c20 -18 36 -42 36 -52 0 -24 17 -38 50 -40 26 -1 80 -52 80 -76 0 -9
-17 -16 -44 -20 -25 -4 -74 -26 -117 -52 -93 -57 -147 -84 -172 -84 -11 0 -45
24 -77 53 -31 29 -77 66 -102 83 -63 40 -85 56 -73 51 30 -13 283 -91 298 -93
9 -1 17 4 17 11 0 6 -48 33 -107 60 -139 61 -148 67 -98 61 22 -3 51 -8 65
-11 33 -7 106 -14 206 -19 45 -3 85 -6 90 -8 5 -2 11 2 13 7 4 10 -49 20 -204
39 -16 2 -46 7 -65 10 -34 6 -96 15 -135 21 -11 2 -26 4 -33 4 -13 1 -12 13 9
68 8 21 13 21 167 21 l160 -1 36 -33z m479 -94 c81 -29 147 -56 147 -59 0 -4
-9 -14 -20 -24 -14 -11 -19 -25 -15 -40 3 -12 -1 -42 -8 -67 -11 -34 -24 -52
-56 -73 -36 -25 -54 -29 -126 -33 l-85 -4 0 30 c0 20 -10 42 -28 61 -25 27
-31 29 -43 16 -8 -8 -33 -34 -56 -58 -50 -52 -62 -62 -91 -78 -22 -12 -29 -45
-13 -69 11 -17 57 -6 97 24 33 26 95 54 118 54 24 0 28 -31 6 -47 -27 -19 -25
-28 9 -43 24 -10 33 -9 55 5 25 17 26 17 26 -3 0 -11 3 -28 6 -37 5 -13 1 -15
-20 -11 -29 5 -41 -4 -86 -62 -14 -18 -46 -42 -72 -53 -54 -24 -82 -70 -57
-94 12 -12 21 -11 59 9 25 13 72 41 104 64 56 39 86 45 86 17 0 -18 -54 -56
-132 -94 -66 -32 -75 -45 -53 -81 12 -19 56 -10 83 18 25 25 34 27 113 29 l86
3 34 -47 c55 -78 63 -83 123 -83 58 0 73 10 78 53 6 40 102 172 146 202 43 28
122 41 153 24 29 -15 168 -122 204 -156 26 -25 88 -105 109 -141 6 -10 -40
-12 -226 -10 -378 4 -455 1 -462 -18 -5 -14 1 -15 61 -8 90 12 466 9 487 -3
15 -8 14 -10 -6 -21 -13 -6 -88 -35 -168 -65 -103 -37 -158 -52 -190 -51 -58
1 -152 13 -158 19 -2 2 3 22 12 45 9 22 12 40 7 40 -4 0 -28 -16 -53 -35 -58
-43 -158 -94 -183 -93 -70 4 -177 -40 -202 -82 -9 -17 -23 -30 -30 -30 -7 0
-22 -9 -33 -20 -17 -17 -33 -20 -110 -20 -49 0 -90 4 -90 9 0 10 59 33 71 28
16 -5 50 38 45 57 -3 12 8 46 26 81 27 53 32 71 34 152 1 51 5 96 8 101 8 14
-36 68 -147 178 -56 56 -120 122 -142 147 -22 26 -77 69 -127 98 -63 37 -85
55 -76 62 7 4 9 7 3 5 -5 -2 -43 -28 -84 -58 -62 -46 -71 -56 -53 -58 l23 -3
-23 -25 c-13 -13 -37 -34 -55 -45 -36 -23 -52 -57 -32 -70 25 -15 56 10 126
103 29 37 40 45 53 38 28 -15 180 -130 180 -136 0 -3 -12 4 -26 15 -31 24 -49
19 -33 -11 35 -65 140 -142 276 -201 13 -6 28 -28 38 -55 23 -70 20 -74 -33
-41 -53 32 -122 43 -180 27 -18 -5 -52 -28 -76 -51 -47 -45 -67 -96 -71 -177
-2 -36 -6 -44 -19 -42 -9 2 -16 -2 -16 -8 0 -15 -48 -32 -100 -35 -25 -2 -48
-3 -52 -4 -3 -1 -4 -10 -1 -20 3 -13 -2 -21 -16 -26 -40 -12 -38 -81 3 -69 24
7 56 40 56 59 0 25 29 24 54 -2 37 -37 34 -52 -11 -50 -29 2 -39 -2 -41 -16
-4 -20 -8 -19 122 -21 81 -1 103 2 121 16 22 17 23 16 48 -12 26 -29 26 -30 7
-40 -11 -6 -62 -10 -115 -9 -85 1 -101 -2 -148 -26 -50 -25 -74 -32 -106 -34
-7 -1 6 -19 30 -41 35 -31 39 -38 22 -35 -14 2 -33 -6 -53 -25 -16 -15 -30
-27 -31 -27 0 1 -2 14 -4 29 -6 47 -17 72 -39 91 -19 17 -21 28 -19 160 1 167
3 178 41 257 28 58 80 107 164 158 90 53 168 131 168 168 0 30 -33 45 -86 38
-73 -10 -127 -11 -178 -5 -60 8 -127 -4 -170 -30 -43 -26 -138 -121 -183 -185
-41 -57 -53 -63 -80 -39 -10 9 -42 36 -70 62 -54 46 -64 67 -39 76 8 3 12 16
11 32 -3 22 -1 24 11 14 12 -10 14 -5 10 37 -3 27 -8 66 -12 86 l-6 37 98 -30
c55 -17 111 -30 125 -31 14 -1 55 14 90 32 63 32 164 108 155 117 -3 3 -26 6
-53 7 l-48 1 2 48 c3 82 44 126 143 156 19 6 48 20 64 30 l29 19 47 -29 c49
-30 65 -52 53 -71 -3 -7 -1 -8 5 -4 7 4 12 14 12 22 0 8 5 14 10 14 10 0 80
-69 80 -80 0 -3 4 -11 9 -18 6 -11 25 -4 87 29 85 46 176 105 237 153 30 24
37 36 35 61 -1 24 10 46 52 98 47 59 55 65 69 53 9 -7 82 -37 164 -66z m-2209
-24 c22 -18 64 -54 91 -80 47 -44 53 -46 95 -42 49 5 115 -8 126 -25 3 -6 7
-43 8 -82 1 -65 5 -78 39 -130 20 -31 37 -61 37 -66 0 -5 4 -11 8 -13 7 -3
119 -186 196 -320 l27 -47 -38 -24 c-21 -13 -47 -29 -58 -36 -19 -11 -18 -12
5 -6 71 19 74 18 173 -47 81 -53 96 -67 96 -90 1 -16 -7 -33 -19 -41 -11 -8
-25 -28 -31 -46 l-11 -32 -29 27 c-22 21 -33 25 -55 20 -29 -8 -47 -22 -56
-48 -4 -9 24 -89 68 -194 41 -97 74 -184 74 -192 0 -19 -107 92 -190 198 -78
99 -206 301 -229 362 l-9 24 81 0 c77 -1 82 0 85 21 2 12 -3 37 -12 55 -8 18
-38 92 -67 163 -28 72 -57 144 -65 160 -7 17 -20 55 -28 85 -24 93 -30 101
-37 55 -6 -33 -17 -93 -34 -175 -2 -8 -4 -15 -5 -15 -1 0 -3 -9 -4 -20 -1 -11
-8 -42 -14 -70 -7 -27 -14 -61 -16 -75 -2 -14 -14 -67 -26 -118 -12 -51 -23
-99 -24 -105 -3 -25 -17 -36 -39 -31 -12 2 -48 6 -81 9 -32 3 -62 8 -66 10 -4
2 -1 37 7 77 8 40 20 109 28 153 8 44 17 91 20 105 3 14 8 48 10 76 5 54 44
209 65 261 11 25 11 39 1 72 -10 34 -21 46 -64 71 -53 31 -159 68 -212 75 -16
2 -43 7 -60 11 -64 15 -170 6 -235 -20 -70 -29 -66 -12 7 24 43 22 153 64 193
75 8 2 44 13 80 24 89 26 141 20 194 -23z m1266 -6 c0 -16 -28 1 -46 27 l-17
26 32 -22 c17 -12 31 -26 31 -31z m-368 -21 c66 -14 65 -25 -4 -60 -50 -26
-148 -31 -148 -8 0 23 62 90 79 85 9 -3 42 -10 73 -17z m-455 -193 c18 -25 54
-61 80 -79 75 -51 90 -69 97 -121 4 -27 10 -56 13 -65 3 -9 -10 9 -27 39 -18
30 -56 78 -85 105 -66 62 -155 179 -155 202 0 21 23 -3 77 -81z m-488 -221 c6
-43 14 -63 31 -77 32 -26 32 -59 -4 -233 -8 -38 -16 -83 -19 -100 -16 -92 -26
-130 -35 -133 -30 -10 -43 -31 -47 -81 -3 -30 -12 -66 -22 -80 l-17 -26 -14
35 c-14 36 -42 61 -77 70 -20 6 -27 25 -16 45 3 6 6 12 6 15 1 3 4 19 8 35 4
17 9 39 12 50 8 36 63 247 100 390 39 145 43 163 44 180 1 5 10 0 22 -11 13
-14 23 -42 28 -79z m2314 -91 c-9 -15 -19 -21 -21 -15 -4 13 16 41 29 41 5 0
2 -12 -8 -26z m-618 -32 c-3 -3 -11 0 -18 7 -9 10 -8 11 6 5 10 -3 15 -9 12
-12z m70 -50 c-3 -3 -11 0 -18 7 -9 10 -8 11 6 5 10 -3 15 -9 12 -12z m-1015
-57 c0 -8 -2 -15 -4 -15 -2 0 -6 7 -10 15 -3 8 -1 15 4 15 6 0 10 -7 10 -15z
m2455 -263 c-2 -2 -26 -4 -54 -5 -40 -1 -54 3 -66 19 -22 29 -18 40 18 57 59
27 61 27 84 -22 12 -25 20 -47 18 -49z m12 -112 c18 -97 10 -248 -16 -298 -47
-91 -157 -136 -246 -100 -39 15 -175 106 -175 117 0 4 22 3 48 -2 39 -8 54 -7
84 7 51 25 96 111 100 194 2 34 0 62 -5 62 -4 0 -5 4 -2 10 3 5 1 18 -5 29
-12 23 -2 28 79 36 30 3 56 7 58 8 1 2 17 3 35 3 32 -1 33 -2 45 -66z m98 14
c4 -16 8 -65 10 -109 4 -70 3 -74 -5 -35 -6 25 -12 65 -15 90 -3 25 -8 61 -11
80 -6 42 11 21 21 -26z m-375 -4 c1 -14 2 -39 1 -56 -1 -28 -4 -31 -27 -26
-23 4 -25 8 -19 39 15 82 40 106 45 43z m-510 20 c12 -8 11 -10 -7 -10 -35 0
-36 -1 -71 -47 -32 -42 -40 -45 -107 -45 -39 0 -36 5 15 31 30 15 73 39 95 54
45 29 53 31 75 17z m-2354 -58 c15 -9 44 -67 44 -87 0 -16 -10 -18 -76 -15
-23 1 -45 -4 -52 -12 -11 -13 -46 -134 -57 -193 -2 -16 -7 -41 -10 -55 -3 -14
-8 -41 -11 -60 -2 -19 -9 -61 -15 -93 -5 -32 -12 -74 -15 -93 -4 -37 -44 -230
-65 -322 -15 -63 -12 -66 62 -76 72 -10 80 -22 64 -98 -8 -35 -18 -76 -24 -91
-10 -26 -14 -28 -53 -22 -73 10 -76 12 -76 55 -1 50 -8 62 -35 59 -45 -3 -48
0 -44 39 3 31 -4 47 -42 102 -54 76 -60 85 -84 111 -23 26 -37 63 -32 86 3 10
16 63 30 118 14 55 27 109 30 120 2 11 12 49 21 85 9 36 16 71 17 78 1 19 18
15 104 -22 48 -20 80 -29 80 -22 2 25 15 91 24 113 5 13 6 23 4 23 -3 0 1 16
9 35 9 20 15 38 15 40 -1 11 14 71 19 80 4 6 8 21 10 35 2 14 6 26 10 28 4 1
32 15 62 32 59 31 69 34 86 22z m2631 -34 c40 -28 46 -68 10 -68 -24 0 -46 28
-53 66 -5 30 1 30 43 2z m157 -14 c48 -18 39 -92 -11 -89 -25 1 -28 4 -28 41
-1 56 4 62 39 48z m-677 -23 c4 -15 14 -18 54 -18 89 0 80 -26 -9 -28 -32 -1
-63 -5 -70 -9 -16 -10 -15 -48 3 -72 8 -10 15 -23 15 -28 0 -11 -177 -1 -193
12 -7 5 -42 8 -79 8 -38 -1 -68 -1 -68 0 0 9 191 105 249 125 96 33 92 32 98
10z m-1357 -152 c0 -11 -4 -18 -10 -14 -5 3 -7 12 -3 20 7 21 13 19 13 -6z
m-695 -81 c-2 -24 -10 -63 -19 -87 -9 -24 -16 -51 -16 -60 0 -10 -7 -26 -15
-37 -14 -18 -14 -17 -5 11 5 17 11 44 13 60 3 17 10 50 17 75 7 25 14 52 15
60 5 20 4 20 9 20 2 0 3 -19 1 -42z m-704 -135 c-17 -70 -33 -146 -36 -168 -9
-58 -29 -83 -77 -95 -87 -22 -138 -53 -226 -139 -67 -67 -95 -103 -124 -161
-33 -68 -70 -186 -86 -280 -13 -74 -7 -244 11 -311 16 -57 27 -75 82 -131 35
-35 86 -76 114 -92 90 -49 230 -64 318 -35 35 11 91 63 197 180 27 29 61 66
74 81 l25 27 -31 26 c-21 18 -29 33 -27 50 1 14 4 27 6 30 18 17 152 68 184
69 36 1 40 4 43 29 2 15 9 27 17 27 14 0 27 28 30 63 1 10 15 29 31 42 28 22
29 26 30 117 2 112 9 170 25 200 7 13 13 47 14 78 2 30 3 64 4 75 2 19 3 19
11 -1 5 -12 11 -34 14 -50 3 -16 13 -60 23 -99 24 -99 25 -467 1 -573 -27
-118 -111 -279 -289 -555 -48 -74 -61 -90 -120 -142 -82 -74 -310 -181 -428
-202 -187 -34 -425 76 -538 247 -57 87 -97 191 -143 369 -20 75 -22 103 -17
230 4 126 10 169 45 311 53 216 71 260 157 390 16 25 32 47 35 50 3 3 22 30
43 60 20 30 47 67 59 82 13 15 34 42 48 60 84 111 189 185 335 237 75 27 189
51 193 40 2 -4 -11 -65 -27 -136z m143 -588 c14 -27 24 -51 22 -53 -2 -2 -28
-4 -57 -4 l-54 -2 2 59 c1 32 5 70 8 84 l7 26 24 -30 c13 -16 35 -52 48 -80z
m-229 53 c-4 -22 -13 -54 -19 -69 l-12 -28 -18 20 c-29 34 -56 83 -56 102 0
14 9 17 56 17 l56 0 -7 -42z m-157 -168 c-5 -69 -21 -92 -86 -121 -66 -31 -94
-16 -69 35 19 38 124 137 156 145 2 1 1 -26 -1 -59z m357 -4 c17 -3 44 -8 60
-11 76 -14 90 -21 91 -46 2 -40 -5 -46 -64 -48 -47 -1 -61 -5 -79 -26 -14 -16
-21 -35 -19 -48 3 -12 5 -27 5 -33 1 -6 17 -32 36 -58 l36 -46 -86 0 -85 0 4
88 c2 48 9 108 15 134 14 58 43 121 50 109 3 -5 20 -12 36 -15z m-375 -278
c27 -60 29 -105 5 -142 -20 -30 -34 -36 -63 -25 -30 11 -45 54 -38 109 9 76
25 110 50 110 17 0 28 -12 46 -52z m279 -88 c10 -5 24 -23 31 -40 10 -24 10
-33 -1 -46 -18 -22 -99 -60 -124 -58 -24 1 -95 33 -96 43 0 3 -2 13 -3 21 -5
25 13 63 28 57 7 -3 19 3 27 14 10 15 26 19 67 19 29 0 61 -4 71 -10z"/>
<path d="M4507 3205 c-53 -13 -91 -43 -79 -62 10 -16 60 -22 100 -11 19 5 41
6 50 3 10 -4 31 -9 47 -11 17 -2 41 -6 55 -10 50 -12 65 -10 65 11 0 14 -18
28 -62 51 -77 39 -115 45 -176 29z"/>
<path d="M2200 2359 c0 -5 5 -7 10 -4 6 3 10 8 10 11 0 2 -4 4 -10 4 -5 0 -10
-5 -10 -11z"/>
<path d="M2199 2333 c0 -5 -3 -19 -5 -32 -2 -14 -2 -22 1 -19 8 8 17 58 10 58
-3 0 -5 -3 -6 -7z"/>
<path d="M2186 2253 c-3 -10 -7 -36 -11 -57 -3 -21 -8 -51 -11 -65 -4 -19 -3
-22 4 -11 6 8 12 34 15 57 4 22 9 53 13 67 7 29 -2 36 -10 9z"/>
<path d="M2157 2093 c-4 -3 -7 -15 -7 -26 0 -25 9 -17 15 12 4 22 2 25 -8 14z"/>
<path d="M2138 2017 c-3 -19 -2 -25 4 -19 6 6 8 18 6 28 -3 14 -5 12 -10 -9z"/>
</g>
</svg>
