<?xml version="1.0" encoding="utf-8"?>
<!-- Generator: Adobe Illustrator 24.2.1, SVG Export Plug-In . SVG Version: 6.00 Build 0)  -->
<svg version="1.1" id="Слой_1" xmlns="http://www.w3.org/2000/svg" xmlns:xlink="http://www.w3.org/1999/xlink" x="0px" y="0px"
	 viewBox="0 0 367.7 388.3" style="enable-background:new 0 0 367.7 388.3;" xml:space="preserve">
<style type="text/css">
	.st0{fill:#BDBDBD;}
	.st1{fill-rule:evenodd;clip-rule:evenodd;fill:#BDBDBD;}
</style>
<g>
	<path class="st0" d="M202.7,240.1c0,0.1-0.3,0.3-0.8,0.4v0.1l0.4,0.1c0-0.1,0.1-0.2,0.2-0.2l0.1,0.4l-0.2,0.4v0.1h-0.2l-0.2-0.1
		v-0.5c-0.2,0-0.4-0.1-0.5-0.2v0.1l-0.1-0.1h-0.1l-0.5,0.1l-0.2-0.2l0.2-0.2v-0.1l-0.2-0.1c-0.4,0-0.6,0.2-0.7,0.5h-0.1l0.1,0.1v0.1
		l-0.2,0.1h-0.5c0-0.2-0.1-0.4-0.2-0.4h-0.1c-0.2,0.1-0.3,0.3-0.3,0.5c0.3,0,0.4,0,0.4,0.1h-0.1l0.1,0.2h0.1c0.1,0,0.2-0.1,0.2-0.2
		l0.1-0.1h0.2l0.2,0.1c0,0.4-0.2,0.6-0.5,0.6c0-0.1-0.1-0.1-0.4-0.1v-0.2h-0.2c-0.5,0.6-0.8,0.9-0.9,0.9c-0.1,0-0.1,0.1-0.1,0.4
		l-0.1,0.1h-0.4l-0.4-0.1v0.1l0.1,0.4l-0.1,0.1h0.2c0.1,0,0.2-0.1,0.2-0.3c0.1,0,0.2,0.1,0.2,0.4h0.1l-0.2,0.4h0.1l0.3,0.1v0.1h-1.8
		l-0.5-0.1l-0.7,0.1h-4.9c-0.2,0-0.4-0.1-0.6-0.3h-0.1l0.1,0.1v0.2h-0.1l-0.1-0.1l-0.4,0.1h-1l-0.5-0.4v-0.4l0.2-0.2l0.1,0.1h0.3
		l-0.2-0.4h-0.1v-0.4h0.3l0.1,0.3v0.1h0.1l0.2-0.1v-0.1c-0.1,0-0.3-0.1-0.5-0.4l0.1-0.4c0.3,0.1,0.5,0.1,0.5,0.2v0.4
		c0.1,0,0.2,0.1,0.2,0.4l0.5,0.3h0.1v-0.3h0.5v0.3l-0.4,0.4v0.1h0.1c0-0.2,0.2-0.4,0.5-0.4h0.1c0,0.2,0.1,0.3,0.4,0.4v0.1h-0.4v0.1
		h0.2l0.6-0.1v-0.1l-0.5-0.2l-0.1,0.2l-0.6-0.8l0.1-0.2h-0.1c-0.2,0-0.4-0.2-0.5-0.6c0.2-0.1,0.4-0.3,0.4-0.4h0.2l0.2,0.1v0.1
		l-0.1,0.4l0.1-0.1h0.1l0.4,0.1v-0.4l-0.1,0.1H190v-0.2l0.3-0.1h0.1v-0.1c-0.4,0-0.5,0-0.5-0.1v-0.1l0.1-0.2h-0.1l-0.5-0.1l0.1-0.1
		v-0.1l-0.2-0.1c0,0.3-0.1,0.5-0.3,0.5l-0.4,0.1l-0.1-0.6l-0.1,0.1h-0.5c0,0.3-0.1,0.4-0.2,0.4h-0.5v-0.4c0-0.1,0.2-0.2,0.5-0.2
		c0-0.3,0.1-0.5,0.2-0.5h0.5v0.1h0.1c0-0.2,0-0.3,0.1-0.3h1.4l0.5,0.5v-0.5h0.1l0.2,0.1h0.2l0.2-0.1h4.5c0.1,0,0.1,0.1,0.1,0.2h0.1
		c0-0.1,0.1-0.2,0.2-0.2h1.7l0.1,0.1v0.1l-0.1,0.1v0.1h0.1l0.4-0.4h3v0.1l-0.1,0.1v-0.1L201,240v0.2h0.4c0.1,0,0.1,0.1,0.1,0.4h0.1
		l0.2-0.5h0.2l0.1,0.1h0.1l0.1-0.1C202.4,239.9,202.5,240.1,202.7,240.1z M187.4,239.6L187.4,239.6l-0.1,0.1l-0.2-0.1l0.1-0.1h0.1
		L187.4,239.6z M187.1,262.4v-8.1l0.2-0.4l-0.1-0.2v-0.1l0.1-0.1h-0.2v-0.6l0.2-0.2h0.2l0.1,0.1c0-0.6,0.1-0.9,0.3-0.9l-0.1-0.3
		l0.2-0.1h0.6v-0.2c0.2,0,0.3-0.1,0.3-0.2h-0.7l-0.4-0.1v0.1l-0.5,0.2h-0.1l-0.2-0.2V248h0.2v0.4h0.2l0.2-0.5l0.4-0.2l0.1-0.1h-0.2
		l-0.2,0.2h-0.3l-0.2-0.2V247l0.1-0.1c0.2,0,0.2-0.1,0.2-0.3l-0.3-0.5v-0.7h0.2V245l-0.2-0.2v-0.1l0.2-0.2h0.3v0.2h-0.2v0.1h0.5l0,0
		h1v0.4h0.1l0.5-0.4h0.4c0.1,0,0.2,0.1,0.2,0.2h0.5c0-0.2,0.1-0.2,0.2-0.2h0.6l0.2,0.2l0.2-0.2h0.5l0.2,0.2v0.6h-0.2
		c0-0.2-0.2-0.3-0.5-0.3h-0.1l0.1,0.2l-0.4,0.5v0.1l0.5-0.4h0.2l0.2,0.2v0.1l-0.1,0.4c-0.3,0.1-0.5,0.2-0.5,0.2v0.1l0.5-0.2
		c0.1,0,0.2-0.1,0.2-0.4h0.2v2.2l-0.2-0.1l-0.2,0.1c0.2,0,0.3,0.1,0.4,0.3v3.5h-0.2v-0.3h-0.7l0.6,0.6v1c-0.2,0.3-0.4,0.4-0.6,0.4
		c0,0.1,0.1,0.1,0.3,0.1v0.4l-0.2,0.2h-0.5V254c0-0.1,0.1-0.2,0.2-0.2l-0.2-0.2c-0.2,0.3-0.4,0.4-0.7,0.4v0.2h-0.5l-0.1,0.1l0.2,0.3
		l0.2-0.2h0.4c0.1,0,0.2,0.2,0.2,0.5c0.2,0,0.3,0.1,0.3,0.3l0.4-0.3h0.4v7.3h-5.1C187.1,262.2,187.1,262.4,187.1,262.4z
		 M187.2,252.4L187.2,252.4l-0.1-0.8h0.2c0,0.2,0.1,0.3,0.3,0.4C187.6,252.3,187.5,252.5,187.2,252.4L187.2,252.4z M188,254.7h-0.2
		l-0.4,0.3C187.7,254.9,188,254.8,188,254.7z M188.5,250.3h-0.3c-0.3,0-0.4-0.1-0.4-0.4h-0.1c0,0.1-0.1,0.2-0.3,0.2v0.3l0.1,0.1
		l0.3-0.1c0.1,0,0.2,0.1,0.2,0.3C188.2,250.7,188.3,250.5,188.5,250.3z M188,253.9L188,253.9l0.3-0.4l-0.2-0.2H188
		c-0.2,0.2-0.3,0.3-0.5,0.3v0.1C187.7,253.6,187.9,253.7,188,253.9z M188,255.7v-0.4h-0.2v0.4H188z M188,243.4L188,243.4L188,243.4
		c0,0.4,0.1,0.5,0.2,0.5h0.1v-0.3L188,243.4z M188.8,241.2h-0.4l-0.1-0.1l0.5-0.1l0.1,0.1L188.8,241.2L188.8,241.2z M188.6,245.7
		l0.1-0.3l-0.2-0.1l-0.2,0.2L188.6,245.7z M188.5,248.6h0.2l-0.2-0.2h-0.3L188.5,248.6z M189.1,253.9c0-0.1,0.1-0.2,0.3-0.2v-0.1
		h-0.2v-0.1l0.1-0.4c0.3-0.1,0.5-0.2,0.5-0.3v-0.1l-0.3,0.1h-0.1l-0.1-0.1c0-0.2-0.1-0.3-0.2-0.3v-0.5H189l-0.1,0.4l-0.4-0.1h-0.1
		l-0.2,0.1v0.1l0.2,0.4h0.2l0.4,0.1v0.2l-0.2,0.2l0.1,0.5h0.2C189.1,253.8,189.1,253.9,189.1,253.9z M188.8,246.8l-0.2-0.2h-0.1v0.2
		H188.8z M189.2,239.9c-0.1,0-0.2-0.1-0.2-0.2l-0.1,0.2l-0.1-0.1h-0.1v0.4h0.1C188.8,240,189,240,189.2,239.9L189.2,239.9z
		 M188.8,250h0.2l-0.2-0.2h-0.2L188.8,250z M188.9,255.3V255l-0.2,0.2v0.2L188.9,255.3L188.9,255.3z M189.2,248.9L189.2,248.9
		l-0.1-0.3h-0.2c0,0.1,0.1,0.2,0.2,0.2L189.2,248.9L189.2,248.9z M189.4,246v-0.2h-0.3l-0.2,0.2H189.4z M190,251
		c-0.3-0.2-0.4-0.4-0.4-0.6h-0.2c0,0.2-0.1,0.3-0.3,0.3v0.1C189.1,250.8,189.4,250.9,190,251z M189.6,247.1v-0.2
		c-0.2,0-0.2-0.1-0.2-0.2h-0.2v0.1L189.6,247.1z M189.4,254.8l0.1-0.2v-0.1h-0.3v0.3H189.4z M189.7,251.8l0.1-0.2h-0.1l-0.1-0.1
		h-0.2L189.7,251.8z M189.8,253.7c0.1,0.3,0.2,0.4,0.2,0.4c0-0.3,0.1-0.5,0.4-0.7v-0.3l-0.8,0.6v0.1h0.2
		C189.8,253.8,189.8,253.7,189.8,253.7z M190.4,246.7l-0.1-0.4h-0.4v0.1c0.2,0,0.3,0.1,0.3,0.2v0.2L190,247v0.1
		C190.2,247.1,190.3,247,190.4,246.7z M190.2,240.3L190.2,240.3l-0.2,0.1l0.1,0.1L190.2,240.3z M190.4,251.5L190.4,251.5
		c0.1-0.2,0.2-0.3,0.3-0.3V251c-0.4,0.2-0.6,0.3-0.6,0.4v0.1H190.4z M191.2,255.7L191.2,255.7c0-0.2-0.3-0.4-0.7-0.6l-0.2,0.2
		C190.6,255.3,190.9,255.4,191.2,255.7z M190.7,240.1L190.7,240.1l-0.2,0.1v0.1h0.1l0.1-0.1V240.1z M191.3,252.7L191.3,252.7
		l0.1-0.2c-0.4-0.1-0.6-0.3-0.6-0.5h-0.2v0.3l0.2-0.1L191.3,252.7z M190.9,250.8L190.9,250.8l0.1-0.1h-0.3v0.1H190.9z M190.9,240.3
		l-0.1,0.1l0.1,0.2h0.1L190.9,240.3L190.9,240.3z M191.1,245.5v-0.2h-0.3v0.2H191.1z M191.6,250.2v-0.4c-0.4,0-0.6-0.1-0.7-0.3h-0.1
		v0.1C190.8,249.8,191.1,250,191.6,250.2z M191.4,243.4c-0.3,0-0.4-0.1-0.4-0.4h-0.1l-0.1,0.6h0.5L191.4,243.4z M191.5,251.8
		c0-0.1-0.1-0.2-0.3-0.2v0.2H191.5z M191.6,240.1h-0.3l0.5,0.4l0.1-0.1L191.6,240.1z M192.2,253.4v-0.2h-0.5v0.2H192.2z
		 M191.8,258.1l0.2-0.5l-0.1-0.2h-0.2L191.8,258.1L191.8,258.1z M192.1,249.7l-0.1-0.3h-0.2l0.1,0.3H192.1z M192.1,256.2l0.1-0.4
		l-0.3-0.1v0.1L192.1,256.2L192.1,256.2z M192.2,254.9L192.2,254.9v-0.6v-0.2h0.2v0.8H192.2z M192.9,239.8h-0.2v0.2l-0.1-0.1h-0.1
		l-0.2,0.1v-0.1l-0.1-0.2h-0.1v0.2c0.4,0.2,0.5,0.5,0.5,0.9h0.2l-0.2-0.7l0.2-0.1L192.9,239.8L192.9,239.8z M192.9,243.6
		L192.9,243.6l-0.3-0.1c0,0.1-0.1,0.2-0.3,0.2v0.2C192.5,243.7,192.7,243.7,192.9,243.6l-0.1,0.2h0.1V243.6z M193.7,242.4
		L193.7,242.4l-0.2,0.4h-0.1c-0.2,0-0.4-0.1-0.5-0.2h-0.1v0.1c0,0.1,0.1,0.1,0.3,0.1l0.1,0.4h0.4L193.7,242.4z M193.3,240.9
		L193.3,240.9l-0.1,0.3h0.1v-0.1V240.9z M198.4,247.9c0.1,0,0.3,0,0.5,0c1.3,0,2.3,0.4,3.2,1H202l0.3,0.2c0.1,0,0.4,0.2,0.9,0.6
		c-0.1,0.4-0.1,0.6,0.2,0.6c0.4,0.2,0.6,0.4,0.6,0.7c0.7-0.2,1.3,0.6,1.9,2.3l-0.1,0.1c0.2,0,0.3,0.4,0.4,1.2
		c-0.2,0-0.2,0.1-0.2,0.2c0.2,0.1,0.3,0.3,0.3,0.6h-0.1l0.1,0.1c-0.1,1.3-0.3,2-0.6,2l0.2,0.3l-0.2,0.3l-0.6-0.1H205l-0.2,0.2
		c-0.3-0.1-0.4-0.2-0.4-0.3v-0.1l0.1-0.1v-0.1h-0.1l-0.4,0.2v0.2c0,0.1,0.2,0.2,0.6,0.3v0.2l-0.3,0.2h-0.5l-0.2,0.2v0.2
		c0.2,0,0.5,0.2,1,0.6c-0.9,1-1.6,1.5-2.1,1.5c0,0.1-0.4,0.3-1.2,0.6c-0.1,0-0.3-0.2-0.5-0.5l-0.2,0.1v-0.1l-0.1-0.2l0.1-0.2h-0.4
		l-0.2-0.2v0.1c0.4,0.4,0.5,0.9,0.6,1.3l-1.4,0.1h-0.1c-0.1,0-0.2-0.2-0.2-0.5c-0.2,0-0.2-0.1-0.2-0.4h-0.1v0.5
		c-0.3,0-0.5,0.1-0.5,0.2l0.1,0.2l-0.1,0.1h-4.6l-0.2-0.2v-4l0.2-0.2h3.3l0.3,0.3h0.1l-0.1-0.1V258l0.5-0.2h0.3
		c0,0.2,0.1,0.3,0.2,0.3h0.2c0-0.2,0.2-0.3,0.6-0.3l1.2-0.5l0.1,0.6v0.3h0.2c0,0.1,0.2,0.3,0.6,0.5h0.5v-0.3c-0.2,0-0.2-0.1-0.2-0.2
		v-0.3l0.1-0.4h0.2c0.1,0,0.2,0.1,0.2,0.3h0.1l0.1-0.4l-0.9-0.5l-0.2-0.2v-0.2c0-0.2,0.1-0.5,0.3-0.8v-1l0.1-0.1l-0.5-1.2l0.3,0.2
		l0.1-0.1v-0.2h-0.6l-0.3-0.3l0.1-0.1v-0.1h-0.1l-0.2,0.1c-0.2-0.4-1.2-0.6-2.8-0.6h-3.4l-0.2-0.2v-3.8l0,0l0,0V248h2.8v0.1h0.6V248
		c0.1,0,0.1,0,0.2,0L198.4,247.9L198.4,247.9L198.4,247.9z M193.7,240.3L193.7,240.3l-0.3,0.2h0.1L193.7,240.3z M193.8,240
		L193.8,240l-0.2-0.1v0.1H193.8l-0.2,0.1v0.1h0.1L193.8,240z M194.2,243.1l-0.3-0.1v0.1H194.2L194.2,243.1z M194.7,240.1
		L194.7,240.1l-0.3,0.2l0.2,0.4h0.1l0.1-0.1L194.7,240.1L194.7,240.1z M195,243.2L195,243.2l-0.6,0.1v0.2c0.2,0,0.4,0.1,0.4,0.4
		c0.2,0,0.4-0.2,0.5-0.4L195,243.2z M194.6,241.9L194.6,241.9l-0.1,0.3l0.2,0.2h0.1v-0.1L194.6,241.9z M195.5,258.8
		c0,0.1-0.2,0.3-0.5,0.6c0.1,0,0.3,0.2,0.6,0.6c0-0.2,0.1-0.3,0.3-0.3l-0.1-0.1l0.1-0.4v-0.1C195.7,259.1,195.6,259,195.5,258.8
		L195.5,258.8z M195.2,242.4H195v0.1l0.1,0.2h0.2L195.2,242.4L195.2,242.4z M195.7,239.9h-0.2l-0.1,0.2l0.1,0.1h0.4v-0.1
		L195.7,239.9z M195.5,260.4v0.2l0.2-0.2H195.5L195.5,260.4z M196.5,241.1c-0.3,0-0.4,0-0.4-0.1l0.1-0.2c-0.1,0.1-0.3,0.1-0.5,0.1
		v0.1c0,0.1,0.1,0.2,0.4,0.2l0.1-0.1l0.2,0.3h-0.2v0.1h0.3L196.5,241.1z M196,242.9L196,242.9l-0.2,0.1h0.2V242.9z M197.5,240.4v0.2
		h-0.1l-0.1-0.4h-0.2v0.1h-0.3l-0.4,0.1l-0.1-0.4h0.1l-0.1-0.4h-0.1l-0.1,0.1H196l0.2,0.7H196v0.1h0.6v0.4l0.3-0.1l0.2,0.1v0.5
		l-0.2,0.2l-0.1-0.1l0,0l-0.2,0.1h0.2v0.1l-0.3,0.3h-0.1l-0.1-0.1l-0.1,0.1h-0.1l-0.4-0.1v0.1l0.6,0.1l-0.1,0.1v0.1h0.1
		c0-0.1,0.1-0.1,0.4-0.1c0-0.2,0.1-0.4,0.2-0.4l0.6,0.3v-0.2h-0.2v-0.2l0.1-0.1v0.2l0.4,0.1h0.1v-0.1l-0.4-0.1l0.1-0.1v-0.1
		l-0.2-0.1v-0.5h-0.3v-0.3h0.2v0.2h0.1l0.2-0.1v0.1c0,0.1,0.2,0.2,0.5,0.3v-0.3L197.5,240.4z M196.2,261.7l-0.1,0.3h0.7v-0.2
		l-0.2-0.2L196.2,261.7L196.2,261.7z M196.4,243.3h-0.3c0,0.1,0.1,0.1,0.3,0.2V243.3z M196.3,258.5L196.3,258.5
		c0,0.2,0.3,0.3,0.7,0.3h0.1c-0.1-0.2-0.2-0.3-0.5-0.3H196.3z M196.5,251.6h0.5l-0.2-0.2h-0.2L196.5,251.6z M196.7,261v0.3h0.1
		l0.1-0.1h0.1l0.1,0.1v-0.1C197,261.1,196.9,261.1,196.7,261z M196.8,261.5L196.8,261.5l0.1,0.3h0.2l0.1-0.3H196.8z M197.1,258.6
		l0.4,0.2l0.1-0.1h0.1l-0.2-0.4C197.3,258.4,197.1,258.5,197.1,258.6z M197.1,259.8L197.1,259.8l0.1,0.2v0.1l-0.1,0.1h0.1l0.1-0.1
		l0.4,0.1h0.2v-0.4l-0.4-0.1L197.1,259.8z M198.5,248.3L198.5,248.3l-0.4,0.1v0.1c0.3,0.1,0.5,0.2,0.5,0.3h0.1v-0.2
		C198.5,248.7,198.5,248.5,198.5,248.3L198.5,248.3z M204.3,242.9l-0.1,0.4h0.1c0,0,0,0,0.1,0v0.7h-0.2l0.1-0.5v-0.1h-0.1l-0.3,0.6
		H203v-0.2h-0.2c0,0.1,0,0.2-0.1,0.2H199c0-0.2-0.2-0.3-0.5-0.3l-0.1,0.1l-0.1-0.2v-0.2c0-0.1,0.1-0.1,0.4-0.1v-0.1
		c-0.3,0-0.4-0.1-0.4-0.2v-0.4l0.1-0.1h0.3c0,0.1,0.1,0.2,0.2,0.2l0.4-0.1l-0.1-0.1v-0.1l-0.1,0.1h-0.3l-0.2-0.1v-0.2
		c0.1-0.2,0.3-0.4,0.7-0.4h0.1l0.1,0.2l0.4-0.1c0,0.2,0.1,0.3,0.4,0.3v0.6h0.3v0.4l0.1,0.1v0.1c0.2,0,0.2-0.1,0.2-0.3l0.5-0.1
		l-0.1-0.1v-0.1l-0.1,0.1H201l-0.2-0.2l-0.1-0.3h-0.2l0.1-0.1v-0.1l-0.5-0.1l0.1-0.3h-0.1v-0.7h0.3l0.4,0.1c0-0.1,0-0.2,0.1-0.2h0.3
		l0.1,0.2c-0.4,0.1-0.5,0.3-0.5,0.6h0.1c0.1-0.2,0.3-0.4,0.5-0.4l0.2,0.1l-0.1,0.1v0.4h0.5c0.1,0,0.2,0.1,0.2,0.2h0.2
		c0-0.3,0.1-0.4,0.4-0.4l-0.1-0.1v-0.1l0.1-0.6l-0.1-0.1h0.2c0,0.1,0.1,0.2,0.2,0.2h0.2V241h-0.2l0.1-0.4v-0.1h-0.1v0.1H203
		l-0.1-0.3h0.4v0.2h0.3l0.1-0.1h0.1c0.1,0.2,0.2,0.3,0.5,0.3v0.2l-0.2,0.2l-0.2-0.1l-0.4,0.1v0.1h0.3v0.1l-0.2,0.1l-0.1-0.1h-0.1
		v0.1l0.1,0.4h0.2c0-0.3,0.2-0.6,0.5-0.9h0.1V242.9z M198.2,259l-0.1,0.3c0.3,0,0.4,0.1,0.4,0.3h0.1v-0.2l-0.1-0.4H198.2L198.2,259z
		 M198.4,249.5l-0.2,0.3h0.3l0.2-0.2v-0.1H198.4z M198.6,250.8v0.2c0.1,0,0.3,0.1,0.4,0.2h0.1C199,251,198.9,250.9,198.6,250.8
		L198.6,250.8z M198.8,260.9v0.3h0.3v-0.3H198.8z M199.4,240L199.4,240l-0.3-0.1l0.2,0.2L199.4,240L199.4,240z M200,242.8L200,242.8
		l-0.3,0.1v0.3h0.2L200,242.8L200,242.8z M200.2,256.8L200.2,256.8c0.1,0.2,0.3,0.4,0.7,0.7c-0.1,0.2-0.2,0.3-0.6,0.3
		c-0.3-0.3-0.4-0.6-0.4-0.8L200.2,256.8z M200.1,243.4l-0.2,0.1v0.1h0.1l0.2-0.1v-0.1H200.1z M200.5,239.8l-0.2-0.1l-0.1,0.1v0.1
		l0.2,0.1l0.1-0.1V239.8z M200.3,250.4c0.1,0.2,0.2,0.4,0.3,0.4h0.1l-0.3-0.6L200.3,250.4z M200.3,252.3v0.2h0.3l0.2-0.2H200.3z
		 M200.4,248.9v0.2h0.2l0.2-0.2H200.4z M200.7,252.4v0.2h0.2v-0.2H200.7z M201.1,250.1L201.1,250.1l0.2-0.2h-0.1L201.1,250.1z
		 M202,243c-0.3,0-0.4-0.1-0.5-0.2l0.1-0.3l-0.1-0.5h-0.2l0.2,1l0.1,0.1h0.2L202,243z M202.3,252.1c0.3,0,0.4,0.2,0.4,0.5h0.2
		c0-0.3,0.1-0.4,0.2-0.4l0.1,0.1l0.7-0.2h0.1c0.1,0,0.2,0.1,0.2,0.3c0.1,0.1,0.3,0.2,0.5,0.2v0.2c-0.4,0.4-0.6,0.7-0.6,1l0.2,0.2
		v0.1c-0.1,0-0.3,0.1-0.4,0.3h-0.3v0.6l-0.6,0.2l-0.2-0.2l-0.2,0.5l0.1,0.3l-0.2,0.2l0.2,0.4v0.2c0,0.1-0.2,0.2-0.7,0.2l-0.1-0.1
		l-0.1,0.1v0.1c0.1,0,0.2,0.1,0.2,0.3l-0.2,0.2c0.3,0,0.5,0.1,0.5,0.4c0,0.1,0.2,0.3,0.7,0.4c0-0.3,0.1-0.4,0.2-0.4l-0.1-0.1v-0.1
		l0.1-0.1v-0.1l0.4,0.1h0.1l-0.7-0.4l-0.1,0.1h-0.1l-0.1-0.1V257l0.2-0.4l1.1-0.1v-0.1l-0.2-0.2l-0.4,0.1l-0.4-0.2v-0.3l0.1-0.1
		l-0.1-0.1v-0.3l0.3-0.3h0.6l-0.1,0.4l0.1,0.1h0.2l0.1-0.4l-0.1-0.6l0.1,0.1h0.1l0.2-0.2v-0.1l-0.1-0.1v-0.1
		c0.3-0.1,0.5-0.3,0.5-0.3l-0.2-0.4c0.1-0.3,0.2-0.5,0.3-0.5l0.1,0.1v-0.1l-0.3-0.5l0.2-0.2V252l-0.1,0.1h-0.1l-0.1-0.1l-0.1,0.1
		h-0.1c-0.1,0-0.2-0.1-0.2-0.2h-1.2c-0.1,0-0.2-0.2-0.2-0.7l0.5-0.2l0.1,0.1l0.5-0.3l-0.2,0.2c-0.2,0-0.4-0.1-0.7-0.2
		c-0.4,0.3-0.6,0.5-0.6,0.7L202.3,252.1z M203,239.4v0.1l-0.4,0.1l-0.5-0.1l0.2-0.1H203z M202.4,242.9h-0.2v0.1L202.4,242.9
		L202.4,242.9z M202.4,253.7l-0.2,0.3l0.1,0.1l-0.1,0.1h0.5l-0.2-0.3l0.3-0.1v-0.2L202.4,253.7L202.4,253.7z M202.9,242.6h-0.2
		c0,0.1-0.1,0.1-0.3,0.1v0.1L202.9,242.6L202.9,242.6L202.9,242.6z M202.6,259L202.6,259l0.2,0.2h0.1V259l-0.1-0.1h-0.2V259z
		 M203.5,242.4L203.5,242.4l-0.1-0.1l-0.2,0.2l0.1,0.1v0.1c0,0.2-0.1,0.4-0.3,0.4v0.2h0.1C203.2,243.1,203.4,242.8,203.5,242.4z
		 M202.9,243.4v0.3l0.2-0.1L202.9,243.4z M204.3,240.2l-0.4,0.1c-0.2,0-0.4-0.2-0.6-0.6h-0.1v-0.3h0.6l0.5,0.1V240.2z M203.5,258.3
		l-0.2,0.3v0.1c0.3-0.1,0.4-0.1,0.4-0.2L203.5,258.3L203.5,258.3z M204,252.6v0.2l0.2-0.1v-0.1L204,252.6z M204.4,256.3L204.4,256.3
		l0.2,0.6l-0.1,0.4h0.2c0-0.1,0.1-0.2,0.3-0.2v-0.2c-0.2,0-0.2-0.1-0.2-0.4l0.2-0.2v-0.1L204.4,256.3L204.4,256.3z M204.8,258.5
		L204.8,258.5l0.5,0.2v0.2l-0.3,0.3h-0.2l-0.2-0.2v-0.3L204.8,258.5z M205.3,254.4l0.2,0.2l0.2-0.2H205.3z M205.5,255.9L205.5,255.9
		l0.2,0.3v-0.3H205.5z M205.5,256.8L205.5,256.8l0.3,0.1v-0.2h-0.2L205.5,256.8z"/>
	<path class="st0" d="M209.5,239.4h2.8l0.2,0.2v2.2h-0.2c0-0.3-0.1-0.5-0.2-0.5l-0.2,0.2v0.2c0,0.1,0.2,0.2,0.5,0.3v2.5l-0.6-0.1
		l0,0v0.1l0.6,0.3v1h-0.2v0.2c0.2,0,0.2,0.1,0.2,0.2v3.9c-0.2,0-0.3,0.2-0.3,0.6l0.1,0.1L212,251h-0.2c-0.1,0-0.2-0.1-0.2-0.4h-0.1
		c0,0.3-0.1,0.4-0.2,0.4h-0.5l-0.2-0.2v-0.3c0.2,0,0.2-0.1,0.2-0.2l-0.1-0.4l-0.1,0.1h-0.1l0.1,0.1v0.2l-0.2,0.2h-0.2
		c-0.3-0.1-0.4-0.3-0.4-0.7v-0.1l0.2-0.1l-0.2-0.5c0.2,0,0.3-0.1,0.3-0.4h0.7v-0.3h0.5l0.1-0.1h0.1c0-0.2-0.1-0.2-0.3-0.2l-0.1-0.5
		l-0.1,0.1h-0.1l0.1,0.1v0.2l-0.2,0.2l-0.3,0.1v0.2l-0.1-0.1h-0.2l-0.2,0.5l-0.3-0.2v0.2h-0.8v-0.3l0.1-0.4c-0.2,0-0.2-0.1-0.2-0.2
		v-0.3l0.2-0.1c0.1,0.4,0.3,0.6,0.7,0.6v-0.4c-0.3-0.2-0.4-0.4-0.4-0.6l0.2-0.2l0.1,0.1h0.4v-0.5c0-0.1,0.1-0.2,0.2-0.2v-0.2
		c-0.3,0-0.5-0.2-0.5-0.5l-0.1,0.1h-0.1h-0.7l-0.1,0.1v-0.2c0.2,0,0.2-0.1,0.2-0.2v-0.2h-0.1v0.2l-0.4-0.1h-0.2v0.1h0.2v0.2
		l-0.3,0.1v-0.4h0.2v-0.3l-0.1-0.1v-0.2c0.2-0.1,0.3-0.3,0.3-0.5h0.3l0.2,0.2l-0.2,0.2l0.2,0.5h0.2v-0.3h0.1l0.2,0.2l-0.1,0.1v0.1
		h0.2l0.5-0.2v-0.2c-0.3,0-0.7-0.2-1.1-0.6v-0.7h-0.2c0,0.1-0.1,0.3-0.3,0.5l-0.1-0.1H208l0.2,0.6c0,0.2-0.2,0.4-0.7,0.7v0.1h-0.3
		v-0.6l0.2-0.6h-0.2v-0.4h0.2v0.2c0.4,0,0.6-0.1,0.7-0.3v-0.1H208v0.2c-0.4-0.1-0.7-0.2-0.7-0.6l0.3-0.2h0.5l-0.1,0.4v0.2h0.1
		c0-0.2,0.1-0.3,0.2-0.3l-0.2-0.7l0.2-0.2v-0.1c-0.2,0-0.2-0.1-0.2-0.2l-0.1,0.1h-0.1l-0.3-0.2v-0.1c0.3,0,0.4-0.1,0.4-0.3l-0.1-0.1
		l0.1-0.1l0.1,0.1h0.2l0.4-0.1l0.1,0.5h0.1c0.2-0.2,0.3-0.3,0.5-0.3v-0.2l-0.3-0.1l0.2-0.7c-0.1,0-0.2-0.2-0.3-0.5l0.2-0.2l0.4,0.2
		l0.1-0.1L209.5,239.4L209.5,239.4z M208.4,239.4v0.2h0.1c0-0.1,0.1-0.2,0.3-0.2l0.2,0.2v0.2c-0.2,0-0.2,0.1-0.2,0.3l-0.3,0.2
		l-0.3-0.1c-0.1,0.2-0.2,0.4-0.3,0.4l-0.1-0.1h-0.1l-0.2,0.3l0.5,0.1v0.6c-0.2,0-0.3,0.1-0.3,0.2h-0.3v-0.9l0.1-0.7l-0.1-0.6
		l0.1-0.1L208.4,239.4L208.4,239.4z M207.2,245.6h0.2l0.1,0.4l-0.1,0.6l-0.2-0.2V245.6z M208,245.9c0.1,0,0.3,0.3,0.5,0.8h0.1
		l0.1-0.4c-0.2,0-0.3-0.1-0.3-0.2l0.4-0.1l0.4,0.2h0.1v0.2l-0.2,0.2h-0.3c0,0.2-0.1,0.4-0.3,0.6h0.1l-0.1,0.1v0.1l0.2,0.5l-0.3,0.2
		l-0.2-0.2h-0.1l-0.2,0.2c0,0.4,0.2,0.7,0.6,0.7v0.1l0.1-0.1h0.1l0.2,0.2v0.6c-0.3,0-0.4,0.1-0.4,0.2v0.1c0.1,0.2,0.3,0.3,0.6,0.3
		c0-0.3,0.1-0.5,0.2-0.5v0.1l0.2-0.1v-0.1c0-0.1-0.1-0.2-0.2-0.2l-0.1-0.1v-0.2l0.2-0.2c0.4,0,0.7,0.2,0.7,0.6
		c-0.1,0-0.2,0.1-0.2,0.4h-0.2v0.2c0.7,0.5,1.1,0.8,1.1,0.9c0,0.1,0.1,0.2,0.4,0.2l0.1,0.1v0.4l-0.1,0.4h0.1l0.4-0.2l0.1,0.1v-0.2
		c0-0.1-0.1-0.2-0.3-0.2c0-0.1,0.1-0.2,0.4-0.2v-0.1l0.5,0.2v-0.1l0.1-0.3h0.2v1.9l-0.1,0.6l0.1,0.7v5.4c0,0.2-0.1,0.4-0.3,0.7v0.2
		l0.1-0.1h0.2v0.1l-0.1,0.1l0.1,0.4v1.1l-0.5,0.5h-0.4l-0.3-0.2l0.1-0.1v-0.3l-0.5,0.2v0.2h-0.5v-0.3l0.3-0.2h0.1v-0.1l-0.2-0.2
		h-0.1c0,0.1-0.2,0.3-0.5,0.5l-0.5-0.1c0.1-0.4,0.1-0.6,0.3-0.6h0.4c0-0.2,0.1-0.2,0.4-0.2l0.3-0.5v-0.1h-0.3v-0.5h0.3l0.5,0.4h0.2
		v-0.1c-0.3,0-0.4-0.2-0.4-0.5v-0.2c0.2,0,0.4-0.1,0.5-0.4h0.1v0.2h0.2v-0.2l-0.2-0.7h-0.2l-0.3,0.5l0.2,0.2l-0.9,0.6l-0.3-0.1v0.1
		c0,0.2-0.2,0.4-0.6,0.5c-0.1-0.2-0.3-0.4-0.5-0.4v-0.3l0.2-0.2h0.1l0.4,0.1l-0.1-0.1v-0.1l0.2-0.5h-0.4l0.1,0.1v0.2h-0.3l-0.2-0.3
		v-0.1h-0.1c0,0.4-0.1,0.6-0.2,0.6h-0.3l-0.3-0.1v0.1l-0.2,0.5l-0.1-0.1h-0.1l-0.2,0.2c0.4,0,0.6,0.1,0.6,0.3l0.1,0.4l-0.7,0.1
		l0.1,0.1v0.6c0.3,0,0.5,0.1,0.5,0.2v0.5H208c-0.1,0-0.2-0.2-0.2-0.5c-0.4,0-0.6-0.1-0.6-0.2V261h0.2v-0.1c-0.2,0-0.3-0.1-0.3-0.2
		v-1.5l0.6-0.5h-0.6v-0.1l0.2-0.2v-0.2l-0.2-0.3v-4.8c0-0.1,0.1-0.2,0.2-0.2v-0.1c-0.2,0-0.2-0.1-0.2-0.2v-1.8l0.2-0.2h0.1l0.1,0.1
		h0.1v0.1l-0.4-0.4v-3.2h0.2l0.2,0.2h-0.1l0.1,0.3h0.2v-0.4c0-0.1,0.2-0.2,0.5-0.2V247l-0.6-0.2v-0.2l0.1-0.1v-0.1l-0.1-0.1
		C207.8,246.3,208,246.1,208,245.9z M207.4,262.1L207.4,262.1l0.1,0.2l-0.2,0.2l-0.1-0.1v-0.1L207.4,262.1z M207.6,256.3v0.2h0.2
		l-0.1,0.1v0.1l0.1,0.2h-0.1l-0.3,0.1v0.1h0.3c0.2-0.4,0.5-0.6,1.1-0.6v-0.2l-0.7,0.2l-0.2-0.2L207.6,256.3L207.6,256.3z
		 M207.6,248.3l-0.1,0.3l0.1,0.1h0.1l0.2-0.3l-0.1-0.1H207.6z M208.4,251.4h0.2v0.1l-0.4,0.1v0.2h0.2v0.3l0.1,0.4l-0.5,0.2v-0.1
		l-0.4,0.1v0.1l0.1,0.1v0.1l0.8-0.2v0.2h0.2v-0.6h0.4l-0.1-0.3l0.1-0.2h0.6l0.3,0.2l-0.1,0.1v0.2l0.2,0.2v-0.3h0.2l0.3,0.3v0.1
		l-0.1,0.1l0.1,0.1v0.1l-0.1,0.4h0.2l0.1-0.6l0.1,0.1h0.2v-0.1c-0.1,0-0.2-0.1-0.2-0.4c-0.3,0-0.4-0.1-0.4-0.2l0.3-0.7h-0.2v0.2
		h-0.2l-0.1-0.1h-0.1l0.1-0.4v-0.4h-0.5l-0.1,0.5l-0.1-0.1h-0.1l-0.1,0.3h-0.6v0.3h-0.3v-0.2h0.2v-0.1l-0.1-0.3h0.1
		c0.1,0,0.2-0.2,0.3-0.6h-0.2L208.4,251.4z M207.8,260.2c0,0.2-0.1,0.2-0.3,0.2l0.2,0.2l-0.1,0.1v0.2h0.4v-0.1
		C207.9,260.7,207.9,260.5,207.8,260.2L207.8,260.2z M207.7,253.4v0.2l0.2,0.1l0.1-0.1v-0.4h-0.1L207.7,253.4z M207.9,249.4
		L207.9,249.4l-0.1,0.4l0.2-0.2L207.9,249.4L207.9,249.4z M207.9,255.3L207.9,255.3l-0.1,0.2h0.1V255.3l0.1,0.2h0.2v-0.1
		L207.9,255.3z M207.9,258.7L207.9,258.7l0.2,0.2h0.1v-0.1l-0.1-0.1H207.9z M208,254.4v0.2l0.2,0.2l0.4-0.2v-0.1l-0.2-0.2H208V254.4
		z M208,257.7v0.3l0.4-0.5l-0.1-0.1L208,257.7z M208.2,255.5L208.2,255.5l0.2,0.3v-0.1L208.2,255.5z M208.2,258.4l0.2,0.2l0.2-0.1
		v-0.1H208.2L208.2,258.4z M208.2,259.2L208.2,259.2l0.2,0.2l0.2-0.2H208.2z M208.6,242.3v0.2h0.1l0.4-0.1v-0.2L208.6,242.3z
		 M209.1,252.5c0,0.3-0.1,0.4-0.2,0.4l-0.2-0.1c0.1,0.1,0.2,0.3,0.2,0.6h0.2c0.1,0,0.2-0.1,0.2-0.4l-0.1-0.1l0.3-0.2v0.2h0.1v-0.3
		L209.1,252.5z M208.9,255.9L208.9,255.9l0.3,0.1v-0.2h-0.1L208.9,255.9z M209.2,260.6v0.4l-0.2,0.2l-0.2-0.5l0.1-0.1L209.2,260.6
		L209.2,260.6z M209.2,242.4v0.2h0.2v-0.2H209.2z M209.8,243v0.2h0.2V243H209.8z M209.9,242.1L209.9,242.1l0.2,0.1l0.1-0.2h-0.1
		L209.9,242.1z M210,242.7L210,242.7l0.2,0.1l0.2-0.2l-0.1-0.1h-0.1L210,242.7z M210.1,240.8L210.1,240.8l0.3-0.2h-0.1L210.1,240.8z
		 M210.1,254.5v0.2h0.3l0.3-0.2v-0.1h-0.1L210.1,254.5z M210.7,241v0.4h-0.1l-0.2-0.2l0.1-0.1h-0.2v0.5h-0.2v0.2h0.2
		c0-0.2,0.2-0.3,0.7-0.3c0.1-0.2,0.3-0.3,0.4-0.3V241L210.7,241L210.7,241z M211.3,246.7c0,0.3-0.1,0.4-0.2,0.5l-0.3-0.1l-0.6,0.1
		v0.2l1.1-0.2l0.2-0.2v-0.2L211.3,246.7z M211.2,243.9h-0.5l-0.2-0.2l-0.2,0.1v0.3l0.4,0.1l0.1-0.1l0.8,0.2v-0.1
		c0-0.1-0.1-0.2-0.3-0.2v-0.1l0.3-0.3h0.5l0.1-0.3l-0.1-0.1h-0.2L211.2,243.9z M210.6,240l-0.2,0.3h0.2l0.2-0.2L210.6,240z
		 M210.6,245L210.6,245l-0.1,0.2l0.3,0.2l0.1-0.1h0.2c0.3,0,0.4,0.1,0.4,0.3h0.3v-0.1C211.4,245.4,211,245.2,210.6,245z
		 M210.6,255.5v0.2l0.5,0.1v0.1c0,0.2-0.1,0.4-0.2,0.6v0.1h0.2c0.1,0,0.2-0.1,0.2-0.3l0.5-0.1v-0.4L210.6,255.5z M210.6,253.9v0.2
		h0.1l0.2-0.1v-0.2h-0.3V253.9z M210.8,245.7v0.2c0.1,0,0.2,0.1,0.2,0.3h0.2L210.8,245.7L210.8,245.7L210.8,245.7z M211.1,242.3
		l0.1,0.4H211v0.3h0.1l0.7-0.3h0.1v-0.1l-0.4-0.1h-0.3v-0.2L211.1,242.3L211.1,242.3z M211,248.8L211,248.8l0.1,0.3h0.3v-0.2
		L211,248.8L211,248.8z M211.1,246.3v0.2h0.2L211.1,246.3L211.1,246.3z M211.2,253L211.2,253l0.2,0.2V253H211.2z M211.4,254.9
		l-0.1,0.3h0.2L211.4,254.9L211.4,254.9z M211.7,257.9c0,0.3-0.1,0.4-0.4,0.4v0.1l0.7,0.1V258L211.7,257.9z M211.4,254.1
		L211.4,254.1l0.1,0.7h0.2c0-0.3,0.1-0.4,0.4-0.4c0-0.2-0.2-0.4-0.5-0.5L211.4,254.1z M211.6,252.6v0.3c0.1,0,0.2-0.1,0.2-0.3H211.6
		z M211.7,240.2c0.1,0.4,0.2,0.6,0.3,0.6l0.2-0.2c-0.1,0-0.2-0.1-0.2-0.4l-0.1-0.1L211.7,240.2L211.7,240.2z M211.7,245.7h0.3
		l-0.2-0.2L211.7,245.7z M211.7,261.5L211.7,261.5L211.7,261.5c0.4,0,0.6-0.1,0.6-0.2v-0.1H212L211.7,261.5z M211.8,248.6l0.2,0.2
		h0.2v-0.1l-0.1-0.3H212L211.8,248.6z M211.9,256.3L211.9,256.3l-0.1,0.3c0.2,0,0.2,0.1,0.2,0.3h0.2
		C212.1,256.7,212,256.5,211.9,256.3l0.2,0.1v-0.1H211.9z M213.5,239.4h2l0.2,0.2l-0.2,0.2v0.3h0.1c0.2,0,0.2-0.2,0.2-0.6h1.4
		l0.1,0.1l0.1-0.1h1.1c0,0.3,0.1,0.4,0.2,0.4l0.1-0.1h0.1l-0.1-0.1v-0.2h2v0.2l0.1-0.1l0.1,0.1h0.2v-0.1l-0.1-0.1v-0.1h2.9l0.2,0.2
		v3.9l-0.2,0.2h-2.2v-0.2c-0.1,0-0.2,0.1-0.2,0.2h-4.7l-0.2-0.2l-0.2,0.2h-3l-0.2-0.2v-0.7l0.1-0.1l-0.1-0.1v-2.5h0.2v-0.2h-0.2
		v-0.3L213.5,239.4z M213.4,248.1c0.3,0,0.6,0.2,0.7,0.7l-0.1,0.1h0.2l0.1-0.1l0.1,0.1h0.1l0.2-0.2l-0.4-0.4v-0.2h0.1l0.1,0.1h0.1
		l0.1-0.1l0.4,0.1h0.7l0.4-0.1v0.1l0.1-0.1h0.3l0.2,0.1l0.4-0.1h1.4l0.6,0.2l0.2-0.2h0.1l0.1,0.1l0.1-0.1h3.3l0.2,0.2v0.1h-0.1
		l-0.4-0.1l-0.1,0.1v0.1l0.7,0.2l0.1-0.3h0.2v1.5c-0.4-0.1-0.7-0.2-0.9-0.4h-0.5v-0.2h-0.5c0-0.2-0.1-0.3-0.3-0.3v0.1
		c0.1,0.5,0.3,0.7,0.4,0.7c0.2,0,0.2,0.1,0.2,0.2l0.1,0.1h0.1c0-0.2,0.1-0.3,0.3-0.3l0.2-0.2l0.5,0.3h0.2l0.1-0.1h0.1l0.1,0.6v1.1
		l-0.1,0.1l0.1,0.1v0.1l-0.1,0.6l-0.6-0.1l-0.2,0.2h-0.2v-0.1l-0.6,0.1h-1l-0.1-0.1l-0.1,0.1h-0.6l-0.1-0.1l-0.1,0.1h-0.5l-0.3-0.1
		l-0.3,0.1h-0.6l-0.2-0.2l-0.6,0.2h-2.1c-0.1,0-0.2-0.2-0.3-0.5h-0.3l-0.2,0.2l-0.3-0.1v0.1c0,0.2-0.1,0.3-0.4,0.3h-0.5v-0.2h0.4
		v-0.1l-0.1-0.1l0.1-0.2h0.1l0.1,0.1h0.1l0.1-0.1v-0.4c0-0.1-0.1-0.2-0.2-0.2l-0.1,0.1h-0.1l-0.2-0.1l0.1,0.1l-0.1,0.1v0.1l0.1,0.2
		l-0.2,0.4h-0.2v-1l0.1-0.1l-0.1-0.1v-1.7h0.1c0.1,0,0.2,0.2,0.3,0.7h0.1c0-0.3,0.1-0.6,0.2-0.7v-0.1l-0.5-0.5v-0.3l0.1-0.1
		l-0.1-0.1v-0.1L213.4,248.1L213.4,248.1z M214.6,258.1h0.5l0.3,0.3c0-0.2,0.1-0.3,0.2-0.3h0.7v0.1l-0.1,0.1v0.1l0.1,0.1h0.1
		l0.3-0.3h2.8l0.2,0.2l0.3-0.2c0.2,0.1,0.3,0.2,0.3,0.3l-0.1,0.1l0.6,0.3v-0.2c-0.2,0-0.3-0.2-0.4-0.6h1.4c0.2,0,0.6,0.2,1.2,0.5
		l0.2-0.2l-0.1-0.1V258h1.1l0.2,0.2v0.6l-0.5,0.7h0.1l0.3-0.2h0.1v1.1l-0.1,0.1l0.1,0.1v0.1l-0.2,0.2l0.2,0.3v1.1l-0.2,0.2h-3.3
		v-0.1l0.3-0.1v-0.1H221v0.1l-0.1-0.1h-0.1v0.2h-1.3l-0.4-0.3l0.3-0.5c-0.5-0.1-0.8-0.1-0.9-0.2l-0.6,0.2v0.2c0.2,0,0.2,0.1,0.2,0.3
		H218l0.1,0.1v0.1l-0.2,0.2h-1.1v-0.1c0-0.1,0.1-0.2,0.2-0.2l-0.2-0.3h-0.4v-0.2h-0.5c0,0.3-0.2,0.4-0.5,0.4l-0.2-0.2v-0.6h0.3
		l-0.1-0.1v-0.4l0.1-0.1v-0.1c-0.2-0.2-0.3-0.2-0.5-0.2v-0.1l0.1-0.1l-0.1-0.1V260l0.2-0.3c0-0.1-0.2-0.3-0.4-0.4l-0.3,0.2l0.1,0.4
		c0,0.2-0.1,0.4-0.3,0.6v0.2c0,0.1,0.1,0.2,0.4,0.2v0.2h-0.3c0,0.2,0.1,0.2,0.3,0.2v0.8h0.3v0.1l-0.2,0.2h-1c0-0.2-0.1-0.2-0.3-0.2
		l-0.1-0.1v-0.5l0.2-0.2v-0.3h-0.3v-0.7l0.5-0.4c0-0.2,0.1-0.2,0.3-0.2v-0.2h-0.3l0.2-0.8c0.1,0,0.2,0.1,0.2,0.2
		c0.2,0,0.3-0.1,0.3-0.3l0.1-0.1l-0.1-0.1h-0.1v-0.2L214.6,258.1z M213.3,259h0.2l0.2,0.2v0.3h-0.3L213.3,259L213.3,259z M214,241.7
		L214,241.7l-0.1,0.2l0.1,0.1h0.1l0.1-0.1l0.2,0.3v0.5h0.1l0.2-0.1v-0.1C214.6,242.2,214.3,241.9,214,241.7z M214.1,240.5l0.2,0.2
		l0.1-0.2l-0.1-0.1h-0.1L214.1,240.5z M214.2,242.8v0.2h0.2l0.2-0.2H214.2z M214.2,251.1L214.2,251.1L214.2,251.1h0.5v-0.2h-0.1
		L214.2,251.1z M214.3,249.9v0.2h0.2c0,0.1,0.1,0.2,0.2,0.2v0.6h0.2l0.1-0.4C214.7,250.1,214.4,249.9,214.3,249.9z M214.7,249.1
		c0,0.3,0.1,0.5,0.4,0.7l0.4-0.6v-0.1h-0.1c0,0.1-0.1,0.2-0.3,0.2v0.2H215v-0.2L214.7,249.1L214.7,249.1L214.7,249.1z M214.8,243.1
		v0.3h0.1l0.1-0.2L214.8,243.1L214.8,243.1z M215,241.1v0.3l0.2-0.2V241L215,241.1L215,241.1z M215.7,250.6l0.2,0.2l-0.4,0.2
		c0,0.1,0.1,0.2,0.3,0.2c0-0.1,0.1-0.2,0.4-0.2l0.1,0.1l-0.1-0.3l-0.1,0.1h-0.2v-0.2h-0.2V250.6z M215.9,262h0.2l0.3,0.3v0.1h-0.6
		l-0.2-0.2L215.9,262z M216,248.5L216,248.5h0.2v-0.2h-0.1L216,248.5z M216,249.6L216,249.6l0.1,0.3h0.1l0.2-0.2L216,249.6z
		 M216,259.9L216,259.9l0.5,0.5l0.2-0.2h0.3l0.7,0.6l0.1-0.1v-0.1c-0.2,0-0.3-0.1-0.3-0.4l0.1-0.4l-0.2,0.3h-0.2l-0.6-0.3l-0.3,0.1
		L216,259.9z M216.3,249v0.2h0.2v-0.1L216.3,249z M216.4,248.4v0.2h0.1l0.2-0.1v-0.2h-0.1L216.4,248.4z M216.7,242.6v0.2h0.2
		l0.2-0.2H216.7z M216.8,240.8l-0.1,0.3h0.2l0.2-0.2L216.8,240.8z M217.2,258.6v0.2h0.2v-0.3L217.2,258.6z M218,251.8v0.2h0.1
		l0.3-0.1v-0.1H218z M218.2,261.6c0.3,0,0.5,0.2,0.7,0.5h0.1v0.2l-0.4,0.2h-0.2c0-0.2-0.1-0.4-0.3-0.7L218.2,261.6z M218.3,259.7
		v0.5l0.1,0.1v0.1h-0.3c0,0.1,0.2,0.2,0.5,0.3v-0.1l-0.1-0.1v-0.1l0.1-0.1l-0.2-0.1c0-0.3,0.1-0.4,0.2-0.4l-0.2-0.2h-0.1V259.7z
		 M218.2,258.4L218.2,258.4l0.3,0.2v-0.1l-0.1-0.1H218.2L218.2,258.4z M218.6,242.8l-0.2,0.5h0.1l0.2-0.2v-0.3H218.6z M218.6,249.4
		v0.2h0.4v-0.2l-0.1,0.1h-0.1L218.6,249.4z M218.6,258.9l0.2,0.2l0.2-0.2H218.6z M219.1,250.8v0.3l0.3,0.1l0.2-0.5L219.1,250.8z
		 M219.5,260.2v1.2c0.2,0.3,0.4,0.4,0.6,0.5v-0.1l-0.3-0.6l0.2-0.3l-0.3-0.3v-0.4H219.5L219.5,260.2z M219.6,248.6
		c0.2,0,0.4,0.1,0.6,0.3c0-0.2,0.1-0.2,0.2-0.2c0,0.1,0.2,0.2,0.6,0.4v-0.2c-0.3,0-0.5-0.2-0.7-0.5h-0.5L219.6,248.6z M219.7,259.3
		L219.7,259.3l-0.1,0.3h0.1c0-0.2,0.1-0.2,0.2-0.2v-0.1H219.7z M219.8,243.2v0.2l0.2,0.2v-0.3L219.8,243.2L219.8,243.2z
		 M219.9,241.5h0.2v-0.2L219.9,241.5z M219.9,258.7v0.4l0.2-0.2L219.9,258.7L219.9,258.7z M219.9,259.9L219.9,259.9l0.1,0.3h0.1
		v-0.1L219.9,259.9L219.9,259.9z M220.1,251v0.2l0.3,0.6h0.1v-0.5c-0.1,0-0.2-0.1-0.2-0.2h-0.2L220.1,251L220.1,251z M220.3,251.8
		c0,0.2-0.1,0.2-0.2,0.2v0.2l0.3-0.2v-0.2H220.3z M220.1,259.8v0.2l0.3-0.1v-0.3L220.1,259.8L220.1,259.8z M220.8,240.6
		c0,0.2-0.2,0.3-0.5,0.3l-0.1-0.1l-0.1,0.3h0.5L220.8,240.6L220.8,240.6L220.8,240.6z M220.3,249.8l0.1,0.3h0.2l0.2-0.2l-0.2-0.2
		L220.3,249.8L220.3,249.8z M220.4,250.3v0.3h0.1L220.4,250.3L220.4,250.3z M220.4,260.6v0.2l-0.1,0.4h0.1l0.2-0.2v-0.5h-0.2V260.6z
		 M220.8,260.3v0.2l0.1,0.1h0.2v-0.1L220.8,260.3L220.8,260.3z M221.6,260.4L221.6,260.4l0.2,0.2c0.1,0,0.2,0.1,0.2,0.3l0.3,0.1
		l0.1-0.1v-0.2l-0.5-0.3H221.6z M221.9,250.4l0.1,0.4l0.3-0.2l-0.2-0.2H221.9z M222.4,259.4v0.2l0.1,0.4h0.1l0.1-0.5l-0.1-0.1H222.4
		L222.4,259.4z M223.5,259.7l-0.2,0.2c0.1,0.4,0.1,0.7,0.2,0.8l-0.3,0.5h0.2c0-0.1,0.1-0.2,0.2-0.2v-0.2l-0.1-0.4l0.3-0.1l0.1,0.1
		l0.1-0.1l-0.1-0.3l-0.4,0.1l-0.1-0.1l0.1-0.1V259.7L223.5,259.7z"/>
	<path class="st0" d="M231,248.1c1-0.4,1.5-1.2,1.5-2.3l0.1-0.6h-0.2v-0.7h-0.2l0.1,0.1v0.1l-0.1,0.1h-0.1c-0.5-0.7-1.3-1.1-2.4-1.1
		h-4.3l-0.2-0.2v-4l0.2-0.2h4.7c3.7,0,6,1.3,7,3.9c0.2,0.5,0.3,1.1,0.3,1.8l-0.2,0.1v0.1c0.2,0,0.2,0.1,0.2,0.2
		c-0.1,1-0.2,1.5-0.4,1.5l-0.1-0.5h-0.4l-0.1,0.1h-0.1l-0.2-0.2v-0.2l0.1-0.1v-0.1l-0.3-0.3l-0.1,0.1h-0.2l-0.1-0.3h-0.2l0.1,0.1
		l-0.1,0.1v0.2l0.1,0.1v0.1l-0.1,0.1c0.3,0.1,0.5,0.4,0.6,0.9v0.2l-0.1,0.6l-0.4-0.1h-0.1l0.3,0.4H235l0.1,0.8l-0.3,0.1v0.2l0.2,0.2
		l-0.7,0.4c-0.3,0-0.4-0.1-0.4-0.4h-0.6v0.3c0.3,0,0.7,0.2,1.3,0.6c0,0.1,0.1,0.2,0.4,0.2c0.4,0.2,0.6,0.4,0.6,0.7
		c0.7,0,1.3,0.8,1.9,2.3l-0.1,0.1c0.2,0,0.3,0.4,0.4,1.2c-0.2,0-0.2,0.1-0.2,0.2c0.2,0.1,0.3,0.3,0.3,0.6h-0.1l0.1,0.1
		c-0.1,1.3-0.3,2-0.6,2l0.2,0.3l-0.2,0.3l-0.6-0.1h-0.1l-0.2,0.2c-0.3-0.1-0.4-0.2-0.4-0.3V258l0.1-0.1v-0.1H236l-0.4,0.2v0.2
		c0,0.1,0.2,0.2,0.6,0.3v0.2l-0.3,0.2h-0.4l-0.2,0.2v0.2c0.2,0,0.5,0.2,1,0.6c-0.9,1-1.6,1.5-2.1,1.5c0,0.1-0.4,0.3-1.2,0.6
		c-0.1,0-0.3-0.2-0.5-0.5l-0.2,0.1v-0.1l-0.1-0.2l0.1-0.2h-0.4l-0.2-0.2v0.1c0.4,0.4,0.5,0.9,0.6,1.3l-1.4,0.1h-0.1
		c-0.1,0-0.2-0.2-0.2-0.5c-0.2,0-0.2-0.1-0.2-0.4h-0.1v0.5c-0.3,0-0.5,0.1-0.5,0.2l0.1,0.2l-0.1,0.1h-4.6l-0.2-0.2v-4l0.2-0.2h3.3
		l0.3,0.3h0.1l-0.1-0.1v-0.1l0.5-0.2h0.3c0,0.2,0.1,0.3,0.2,0.3h0.2c0-0.2,0.2-0.3,0.6-0.3l1.2-0.5l0.1,0.6v0.3h0.2
		c0,0.1,0.2,0.3,0.6,0.5h0.5v-0.3c-0.2,0-0.2-0.1-0.2-0.2v-0.3l0.1-0.4h0.2c0.1,0,0.2,0.1,0.2,0.3h0.1l0.1-0.4l-0.9-0.5l-0.2-0.2
		v-0.2c0-0.2,0.1-0.5,0.3-0.8v-1l0.1-0.1l-0.5-1.2l0.3,0.2l0.1-0.1v-0.2h-0.6l-0.3-0.3l0.1-0.1V253H232l-0.2,0.1
		c-0.2-0.3-0.9-0.5-1.9-0.5v-4C229.8,248.2,230.2,248.1,231,248.1z M225.8,240.7L225.8,240.7l0.2,0.3l0.2-0.1v-0.1L225.8,240.7
		L225.8,240.7z M227.6,258.9c0,0.1-0.2,0.3-0.5,0.6c0.1,0,0.3,0.2,0.6,0.6c0-0.2,0.1-0.3,0.3-0.3l-0.1-0.1l0.1-0.4v-0.1
		c-0.2,0-0.3-0.1-0.3-0.3H227.6z M227.2,239.5v0.4l0.4-0.1L227.2,239.5z M227.6,260.6v0.2l0.2-0.2H227.6L227.6,260.6z M228.3,261.9
		l-0.1,0.3h0.7V262l-0.2-0.2L228.3,261.9L228.3,261.9z M228.4,258.6L228.4,258.6c0,0.2,0.3,0.3,0.7,0.3h0.1
		c-0.1-0.2-0.2-0.3-0.5-0.3H228.4z M228.8,261.1v0.3h0.1l0.1-0.1h0.1l0.1,0.1v-0.1C229.1,261.3,229,261.2,228.8,261.1z M228.9,261.6
		L228.9,261.6l0.1,0.3h0.2l0.1-0.3H228.9z M229.2,258.8l0.4,0.2l0.1-0.1h0.1l-0.2-0.4C229.3,258.5,229.2,258.7,229.2,258.8z
		 M229.2,259.9L229.2,259.9l0.1,0.2v0.1l-0.1,0.1h0.1l0.1-0.1l0.4,0.1h0.2V260l-0.4-0.1H229.2z M229.8,240.3v0.3h0.2v-0.2
		L229.8,240.3z M230,241L230,241l-0.1,0.2l0.3,0.3c0.2-0.1,0.4-0.2,0.7-0.2c0-0.1-0.1-0.2-0.2-0.2l-0.4,0.1L230,241z M230.1,240.2
		v0.2l0.3-0.1v-0.1L230.1,240.2L230.1,240.2z M230.3,248.4L230.3,248.4l-0.1,0.3c0.3,0.1,0.5,0.2,0.5,0.3h0.1v-0.2
		c-0.1,0-0.2-0.1-0.2-0.3L230.3,248.4z M230.3,243.2l0.2,0.2h0.2l-0.1-0.2H230.3z M230.3,259.2l-0.1,0.3c0.3,0,0.4,0.1,0.4,0.3h0.1
		v-0.2l-0.1-0.4L230.3,259.2L230.3,259.2z M230.5,249.6l-0.2,0.3h0.3l0.2-0.2v-0.1H230.5z M230.7,250.9v0.2c0.1,0,0.3,0.1,0.4,0.2
		h0.1C231.1,251.2,231,251.1,230.7,250.9L230.7,250.9z M230.9,261.1v0.3h0.3v-0.3H230.9z M231.7,240.6c0,0.1-0.1,0.2-0.3,0.2v0.2
		h0.3c0-0.1,0.1-0.2,0.2-0.2L231.7,240.6L231.7,240.6z M231.7,247.8v0.2l0.2,0.2h0.1l-0.1-0.3L231.7,247.8L231.7,247.8z M232.3,257
		L232.3,257c0.1,0.2,0.3,0.4,0.7,0.7c-0.1,0.2-0.2,0.3-0.6,0.3c-0.3-0.3-0.4-0.6-0.4-0.8L232.3,257z M232,242.4v0.2l0.4-0.1h0.3
		v-0.2h-0.3L232,242.4z M232.3,243.1L232.3,243.1l0.2,0.8h0.1c0-0.2,0.2-0.4,0.5-0.4l-0.1-0.2h-0.4L232.3,243.1L232.3,243.1z
		 M232.4,250.5c0.1,0.2,0.2,0.4,0.3,0.4h0.1l-0.3-0.6L232.4,250.5z M232.4,252.4v0.2h0.3l0.2-0.2H232.4z M232.5,249v0.2h0.2l0.2-0.2
		H232.5z M232.6,246.2v0.2l0.3-0.2v-0.1h-0.1L232.6,246.2z M232.7,244.1c0.1,0.2,0.2,0.3,0.2,0.3l0.1-0.1v-0.2h-0.2H232.7
		L232.7,244.1z M232.8,252.6v0.2h0.2v-0.2H232.8z M232.9,241.5l0.2,0.3h0.1v-0.3H232.9z M233,244.5l-0.1,0.7l0.1,0.1h0.3l0.2-0.7
		h-0.1L233,244.5z M233,248.1v0.2l0.2,0.2h0.7v-0.2h0.4l0.3,0.2h0.2c0-0.2-0.4-0.3-1.1-0.5h-0.2L233,248.1z M233.2,250.3
		L233.2,250.3l0.2-0.2h-0.1L233.2,250.3z M233.5,242.8v0.4h0.2v-0.1C233.7,243,233.6,242.8,233.5,242.8z M233.6,246.2l0.1,0.3h0.1
		c0.1,0,0.2-0.1,0.2-0.3H233.6z M234.4,252.2c0.3,0,0.4,0.2,0.4,0.5h0.2c0-0.3,0.1-0.4,0.2-0.4l0.1,0.1l0.7-0.2h0.1
		c0.1,0,0.2,0.1,0.2,0.3c0.1,0.1,0.3,0.2,0.5,0.2v0.2c-0.4,0.4-0.6,0.7-0.6,1l0.2,0.2v0.1c-0.1,0-0.3,0.1-0.4,0.3h-0.3v0.6l-0.6,0.2
		l-0.2-0.2l-0.2,0.5l0.1,0.3l-0.2,0.2l0.2,0.4v0.2c0,0.1-0.2,0.2-0.7,0.2l-0.1-0.1l-0.1,0.1v0.1c0.1,0,0.2,0.1,0.2,0.3l-0.2,0.2
		c0.3,0,0.5,0.1,0.5,0.4c0,0.1,0.2,0.3,0.7,0.4c0-0.3,0.1-0.4,0.2-0.4l-0.1-0.1v-0.1l0.1-0.1v-0.1l0.4,0.1h0.1l-0.7-0.4l-0.1,0.1
		h-0.1l-0.1-0.1v-0.1l0.2-0.4l1.1-0.1v-0.1l-0.2-0.2l-0.4,0.1l-0.4-0.2v-0.3l0.1-0.1l-0.1-0.1v-0.3l0.3-0.3h0.6l-0.1,0.4l0.1,0.1
		h0.2l0.1-0.4l-0.1-0.6l0.1,0.1h0.1l0.2-0.2v-0.1l-0.1-0.1v-0.1c0.3-0.1,0.5-0.3,0.5-0.3l-0.2-0.4c0.1-0.3,0.2-0.5,0.3-0.5l0.1,0.1
		V253l-0.3-0.5l0.2-0.2v-0.2l-0.1,0.1h-0.1l-0.1-0.1l-0.1,0.1h-0.1c-0.1,0-0.2-0.1-0.2-0.2h-1.2c-0.1,0-0.2-0.2-0.2-0.7l0.5-0.2
		l0.1,0.1h0.2v-0.1c-0.2,0-0.4-0.1-0.7-0.2c-0.4,0.3-0.6,0.5-0.6,0.7L234.4,252.2z M234.3,244.3l0.2,0.2l-0.3,0.7h0.1l1-0.2
		C235.1,244.6,234.7,244.3,234.3,244.3z M234.5,253.9l-0.2,0.3l0.1,0.1l-0.1,0.1h0.5l-0.2-0.3l0.3-0.1v-0.2L234.5,253.9L234.5,253.9
		z M234.6,243.4L234.6,243.4c0.1,0.1,0.3,0.3,0.5,0.7l0.1,0.1h0.1l0.1-0.1V244C235.2,243.7,235,243.5,234.6,243.4L234.6,243.4z
		 M234.6,246.5L234.6,246.5l0.1,0.2l-0.1,0.1v0.1h0.2l0.2-0.5L234.6,246.5z M234.7,259.2L234.7,259.2l0.2,0.2h0.1v-0.2l-0.1-0.1
		h-0.2V259.2z M235.6,258.4l-0.2,0.3v0.1c0.3-0.1,0.4-0.1,0.4-0.2L235.6,258.4L235.6,258.4z M235.6,245l0.1,0.4h0.1V245H235.6z
		 M235.6,244.3L235.6,244.3l0.2,0.2v-0.1L235.6,244.3z M236.1,252.7v0.2l0.2-0.1l0,0L236.1,252.7z M236.5,247.7l0.3,0.2l-0.6,0.7
		h-0.1v-0.3C236.4,248.1,236.5,247.9,236.5,247.7z M236.5,246.9v0.2h-0.2V247L236.5,246.9z M236.5,245.3v0.2h0.2v-0.4L236.5,245.3z
		 M236.5,243.6v0.2h0.4v-0.2H236.5z M236.5,256.5L236.5,256.5l0.2,0.6l-0.1,0.4h0.2c0-0.1,0.1-0.2,0.3-0.2v-0.2
		c-0.2,0-0.2-0.1-0.2-0.4l0.2-0.2v-0.1L236.5,256.5L236.5,256.5z M236.7,247.1L236.7,247.1l0.5,0.1c0,0.3-0.1,0.5-0.3,0.6h-0.2v-0.1
		l0.1-0.1l-0.1-0.1V247.1z M236.9,258.7L236.9,258.7l0.5,0.2v0.2l-0.3,0.3h-0.2l-0.2-0.2v-0.4L236.9,258.7z M237.4,254.5l0.2,0.2
		l0.2-0.2H237.4z M237.6,256.1L237.6,256.1l0.2,0.3v-0.3H237.6z M237.6,257L237.6,257l0.3,0.1v-0.3h-0.1L237.6,257z"/>
	<path class="st0" d="M197.6,278.9L197.6,278.9l0.1,3.7l-0.5,0.3v0.1l0.2,0.1c0-0.2,0-0.2,0.1-0.2h0.1v0.2l-2,0.7l-1.3,1l-0.6-0.2
		c0.1,0.2,0.2,0.4,0.3,0.4c0-0.1,0-0.2,0.1-0.2v0.1c-0.9,1.1-1.5,2.4-1.7,4.1l-0.1-0.1h-0.2c0,0.1,0.1,0.2,0.2,0.2l0.1,0.1v0.2
		c0,0.6-0.1,0.9-0.2,0.9h-0.1l0.1,0.1v0.2l-0.2,0.1l-0.2-0.1l-0.1,0.1v0.1l0.1,0.1h0.1l0.2-0.1c0.2,0.2,0.4,1,0.5,2.4l-0.2,0.2h-0.1
		v0.1h0.1v-0.1c0.3,0,0.4,0.2,0.4,0.7l-0.1,0.1c0.1,0,0.5,0.7,1.3,2c0,0.1,0.5,0.5,1.6,1.2l1.3,0.3v0.2l-0.1,0.1v0.1l-0.1-0.1h-0.2
		v0.2h-0.2v-0.1l0.1-0.1v-0.2l-0.5-0.1c-0.2,0.5-0.4,0.7-0.9,0.7v0.2c0.2,0,0.2,0.1,0.2,0.3v0.1l0.3-0.1l0.3-0.1l0,0
		c0.3,0,0.4-0.1,0.4-0.2v-0.2l-0.1-0.2h0.1l0.3-0.1h0.2l0.5,0.1v-0.1c0.2,0.1,0.3,0.1,0.3,0.2l-0.1,0.1v0.1h0.1l-0.1,0.1v0.2
		l0.1,0.1v0.1l-0.1,0.1h-0.1l-0.2-0.2c0,0.1-0.1,0.2-0.2,0.2l-0.1,0.4h0.1l0.3-0.1c0,0.1,0.1,0.2,0.3,0.2v0.2l-0.1,0.4h-0.1L197,300
		l-0.3,0.2v0.2h0.2v0.3l-0.2,0.2l-0.3,0.1v-0.2h0.2v-0.2l-0.2-0.1c0.3-0.4,0.5-0.7,0.5-0.9c-0.1,0-0.3,0.2-0.5,0.6l0.1,0.1h-0.1
		l-0.2-0.2h-0.1l-0.1,0.2c0,0.1,0.1,0.2,0.3,0.2l-0.1,0.2l0.1,0.4l-0.1-0.1h-0.1v0.1c0.2,0,0.3,0.2,0.3,0.5h-0.2v0.1l-1.4-0.3
		l0.1-0.4l-0.5-0.1l-0.2,0.1c0-0.2-0.1-0.3-0.2-0.3h-0.2c0,0.2-0.1,0.3-0.3,0.3c-0.9-0.3-2.1-1.1-3.4-2.4l0.1-0.3l-0.1-0.1H190
		l-0.2,0.2l-1-1.6l0.1-0.2h-0.1c-0.2,0-0.5-0.7-1-2.1c0-0.5,0.2-0.7,0.5-0.7l-0.1-0.4c0.1,0,0.2,0.1,0.2,0.2l0.1-0.1h0.1l0.1,0.1
		v-0.2h0.2l0.2,0.2l-0.3,0.2l0.1,0.1v0.2l-0.1-0.1h-0.1l-0.1,0.5l0.4,0.1v-0.1c0.3,0,0.6,0.2,0.8,0.5l-0.1,0.1l0.1,0.1h0.2l-0.2-0.5
		h0.1l0.2,0.1v-0.1l0.2,0.2l0.1-0.1h0.2v0.2l0.2-0.2v-0.1l-0.1-0.1v-0.1l0.1-0.1l-0.1-0.1h-0.1c0,0.2-0.1,0.3-0.2,0.3h-0.1
		c-0.2-0.3-0.4-0.4-0.5-0.4l-0.1,0.1h-0.3c-0.1,0-0.2-0.1-0.3-0.4c0-0.3,0.1-0.5,0.4-0.6l0.1,0.1v-0.1l0.3,0.2l0.1-0.1v-0.1
		l-0.1-0.1l0.2-0.3l-0.1-0.1l0.1-0.1h-0.2l-0.1,0.1h-0.1l-0.2-0.1v0.1l-0.2,0.2v-0.1l-0.5,0.2h-0.7v0.1h-0.4c-0.2,0-0.3-0.4-0.3-1.2
		l0.4,0.2h0.2V292l-0.2-0.2l0.2-0.2h-0.1l-0.3,0.2l-0.2-0.3l0.1-0.1l-0.3-0.2c0,0.3,0.1,0.5,0.1,0.5l-0.1,0.2
		c-0.2,0-0.2-0.6-0.2-1.7c0-1.3,0.1-1.9,0.2-1.9l-0.1-0.1v-0.1c0.1-1.6,0.8-3.4,2-5.3C191.6,280.2,194.3,278.9,197.6,278.9z
		 M187.5,293.6L187.5,293.6l0.4,0.1v0.1l-0.2,0.2h-0.1L187.5,293.6z M188.1,294.6L188.1,294.6l-0.1,0.2l0.8,0.5v-0.2
		c0-0.2-0.1-0.3-0.2-0.5l-0.1,0.1h-0.1L188.1,294.6z M188.2,289.4v0.2l0.2,0.1v-0.1L188.2,289.4z M188.4,291.4v0.1h0.3l-0.2-0.1
		H188.4z M188.5,290.4v0.2l0.2-0.1v-0.2L188.5,290.4L188.5,290.4L188.5,290.4z M189.9,289.6L189.9,289.6l0.1,0.3
		c-0.2,0.1-0.4,0.2-0.7,0.2c0-0.1-0.1-0.2-0.3-0.2l-0.1,0.1v0.1c0.4,0,0.6,0.3,0.6,0.8h-0.1c-0.1,0-0.2,0.1-0.2,0.2
		c-0.4,0.2-0.6,0.3-0.6,0.4h0.1c0.5-0.1,0.7-0.3,0.7-0.5l0.5-0.1v0.1l0.1-0.1h0.2l-0.1,0.1v0.1l0.1,0.1l0.1-0.1h0.1l0.2,0.2
		l-0.1,0.1h0.4v-0.1l-0.1-0.2h0.1v0.2h0.2l-0.1-0.1v-0.1h0.1l0.3,0.2l0.2-0.1l-0.1-0.1V291l0.1-0.4h-0.5v-0.1H191v0.1
		c-0.4-0.1-0.5-0.2-0.5-0.4v-0.1l-0.1,0.1h-0.1C190.2,290,190.1,289.8,189.9,289.6L189.9,289.6z M188.8,286.3v0.2h0.2v-0.2H188.8z
		 M188.8,288.8v0.2l0.2,0.2l0.1-0.1v-0.3H188.8z M189.1,292L189.1,292l0.2-0.2h-0.1L189.1,292z M189.4,291.4l-0.1,0.3
		C189.4,291.7,189.5,291.7,189.4,291.4L189.4,291.4L189.4,291.4z M189.4,297.4v0.2h0.1l0.2-0.1l-0.1-0.2h-0.2V297.4z M189.5,289.1
		v0.2h0.2v-0.1L189.5,289.1z M189.9,293.8l-0.1,0.2l0.1,0.2h0.1l0.1-0.2l0.2,0.1v-0.2L189.9,293.8z M189.9,297.5v0.2l0.1,0.1h0.1
		l0,0L189.9,297.5L189.9,297.5z M190.2,292.9l-0.2-0.1h-0.1v0.1l0.5,0.3h0.1l-0.1-0.4l0.2-0.2h-0.1L190.2,292.9z M190.3,296l0.3,0.1
		l0.1-0.2L190.3,296L190.3,296z M191.3,293.3c0,0.2,0,0.2-0.1,0.2l-0.3-0.1v0.1l-0.1-0.1h-0.1l-0.3,0.5l0.1,0.3h0.1
		c0-0.2,0.1-0.4,0.4-0.5h0.2v0.1H191l0.2,0.4h0.4l0.1-0.1h0.1l0.3,0.3h0.1c-0.3-0.5-0.6-0.8-0.7-0.8v-0.4h-0.2V293.3z M190.4,298.2
		l0.2,0.1l0.1-0.1v0.1l0.2-0.1l-0.1-0.2h-0.2L190.4,298.2z M190.6,296.9l0.1,0.3h0.1l0.2-0.1v-0.2l-0.1,0.1l-0.1-0.1H190.6z
		 M190.8,288v0.1h0.2V288H190.8z M190.9,282.9v0.2c0.2-0.1,0.4-0.2,0.4-0.4h-0.1L190.9,282.9z M191.2,298.7L191.2,298.7l0.2-0.2
		v-0.1L191.2,298.7z M191.3,292.6l0.1,0.2l0.3-0.3h-0.2L191.3,292.6z M191.5,298.3l0.2,0.2h0.2l0.1-0.3h-0.2L191.5,298.3z
		 M191.7,299.6L191.7,299.6c0.1,0.3,0.3,0.5,0.5,0.5h0.4V300l-0.4-0.1L192,300l0.1-0.1v-0.2L191.7,299.6z M191.7,292.5L191.7,292.5
		l0.1,0.2l0.4-0.1v-0.2h-0.1L191.7,292.5z M192,298.5v0.2h0.2v-0.2H192z M192.4,287.8c0,0.1-0.1,0.2-0.2,0.2v0.1h0.1l0.3-0.3H192.4z
		 M192.2,298.8L192.2,298.8v0.1v0.1l0.2,0.2l0.2-0.1v0.2h0.1c0-0.1,0.1-0.2,0.3-0.2l0.1-0.2v-0.1l-0.2,0.1l-0.5-0.1H192.2z
		 M192.3,297.4v0.3h0.1l0.1-0.3H192.3z M192.7,300.3l-0.1,0.2h0.1l0.3-0.2v-0.1h-0.1h-0.2C192.7,300.2,192.7,300.3,192.7,300.3z
		 M192.7,294.9L192.7,294.9l0.2,0.1v-0.1H192.7z M193.1,299.6l-0.1,0.2h0.1V299.6L193.1,299.6z M193,296.4L193,296.4l0.1,0.2
		l-0.1,0.2l0.1,0.1h0.2C193.3,296.6,193.2,296.4,193,296.4z M193.7,296.7l-0.4,0.4l0.7-0.2v-0.1L193.7,296.7z M193.4,295.5v0.2
		l0.1,0.2l0.2-0.2L193.4,295.5L193.4,295.5z M193.4,297.6v0.3c0,0.3,0.1,0.4,0.4,0.5h0.2v-0.3L193.4,297.6z M194.4,300.1
		L194.4,300.1l0.1,0.2h0.2v-0.1L194.4,300.1z M194.8,300.5L194.8,300.5l-0.1,0.1h0.2l-0.1,0.1v0.1h0.3v-0.2L194.8,300.5z
		 M195.2,300.1l0.1,0.4h0.3v-0.2c-0.1,0-0.2-0.1-0.2-0.2H195.2z M195.8,297.4L195.8,297.4l0.1,0.2h-0.1v0.2l0.2-0.2l0.1,0.1v-0.1
		L195.8,297.4L195.8,297.4z M197.1,301.2c0.3,0,0.5,0.1,0.5,0.4l0.1,0.2h-0.1l-0.6,0.1v-0.1l-0.2-0.3l-0.1,0.1h-0.1v-0.2
		L197.1,301.2z M197.6,300.4L197.6,300.4l0.1,0.6l-0.1,0.1v0.1l-0.2-0.1C197.4,300.7,197.5,300.4,197.6,300.4z M198.6,275.3h4.9
		l0.2,0.2v2.1l-0.2,0.2h-0.2c0-0.2-0.1-0.3-0.4-0.6V277h-0.1l-0.1,0.1h-0.1l0.5,0.8l-0.4,0.4h0.1l0.7-0.4l0.1,0.1v16.2h-0.4
		l-0.4-0.3c0,0.2-0.1,0.4-0.3,0.4c0,0.4-0.1,0.5-0.2,0.5h-0.4l-0.2-0.2l-0.2,0.3l0.1,0.1h0.5v0.2c0.3,0,0.5,0.2,0.7,0.4l0.2-0.3
		c-0.2,0-0.2-0.1-0.2-0.2v-0.5h0.5l0.2,0.2v0.5c-0.2,0-0.3,0.1-0.3,0.2c0.2,0,0.4,0.2,0.6,0.5v1.1l-0.6,0.7h0.4v-0.4h0.2v4
		c-0.1,0.3-0.2,0.4-0.4,0.4l0.2,0.2l0.2-0.1v2.6h-0.2c0-0.3-0.1-0.4-0.2-0.4l-0.5-0.3v0.1c0,0.1,0.2,0.2,0.5,0.3l0.1,0.5v0.1
		l-0.2,0.3h-0.2l-0.5-0.5v0.1l0.4,0.5l-0.1,0.3h0.1c0.3,0,0.5-0.1,0.5-0.4h0.2v0.7l-0.2,0.2H203l-0.2-0.2l-0.2,0.2H202
		c-0.1,0-0.2-0.1-0.2-0.3h-0.5c0,0.2-0.1,0.3-0.2,0.3h-0.3l-0.5-0.4h-0.1v0.4h-1v-0.3h-0.4v0.1h0.2v0.2h-0.3l-0.2-0.2v-0.1l0.2-0.3
		V305h-0.2v-0.8l0.3-0.5c0-0.2-0.1-0.3-0.2-0.3l-0.1-0.1v-0.6l0.2-0.2h0.3l0.2,0.2h0.2l-0.1-0.1l-0.4-0.2l-0.2-0.5h-0.2v0.4h-0.2
		v-3.5l0.2-0.2h0.1l0.5,0.2v0.1l0.4-0.1h0.7c0-0.1-0.1-0.2-0.3-0.2v-0.2h-0.6l-0.2-0.2l0.1-0.4c-0.2,0-0.3-0.3-0.3-1l-0.1,0.1h-0.2
		l-0.2-0.2V296h0.2l-0.1-0.1v-0.1l0.1-0.3l-0.2-0.4v-19.5L198.6,275.3z M198.5,297.1c0.3,0,0.4,0.2,0.4,0.5
		c-0.2,0.1-0.3,0.3-0.3,0.5h-0.2v-0.8L198.5,297.1L198.5,297.1z M198.6,294.3l0.4,0.4h0.2C199.3,294.5,199.1,294.4,198.6,294.3z
		 M199.3,299.1c0,0.2-0.1,0.4-0.2,0.4l-0.3-0.1l-0.1,0.1v0.3c0.2,0,0.3,0.1,0.3,0.3h0.1c0-0.3,0.1-0.5,0.4-0.5h0.3
		C199.7,299.3,199.5,299.2,199.3,299.1z M198.9,278.7v0.2l0.2,0.2l0.1-0.1v-0.1L198.9,278.7L198.9,278.7z M198.9,295.8v0.1
		c0.2,0,0.3,0.1,0.5,0.4h0.1l0.2-0.3l-0.2-0.5h-0.1C199.2,295.7,199,295.8,198.9,295.8z M199.1,293.5v0.4h0.2v-0.4H199.1z
		 M199.6,305l0.2,0.3l0.2-0.1l-0.1-0.4L199.6,305z M199.9,303.6v0.2h0.1l0.2-0.2H199.9z M200.1,275.6l-0.2,0.3h0.1l0.2-0.1
		L200.1,275.6z M200.3,304.5l0.2,0.2h0.3v-0.2H200.3z M200.5,303.5L200.5,303.5l0.2,0.1c0-0.1,0.1-0.2,0.2-0.2v-0.2L200.5,303.5z
		 M201,276.4v0.2l0.1,0.1h0.2v-0.1L201,276.4L201,276.4z M201.4,303.2L201.4,303.2l0.2,0.4v0.2c0,0.2-0.1,0.3-0.3,0.3v0.1h0.4
		l0.1-0.4C201.6,303.4,201.5,303.2,201.4,303.2z M202.1,305v0.2h0.3V305H202.1z M202.2,278.5l0.2,0.2h0.2v-0.2H202.2z M204.8,278.8
		c2.4,0,4.7,0.9,7,2.7c1.4,1.5,2.2,2.7,2.4,3.7l-0.2,0.2v0.2l0.2,0.2v-0.5c0.1,0,0.3,0.4,0.5,1.3h-0.2v-0.2c-0.1,0-0.2,0.2-0.2,0.5
		c-0.1,0-0.1,0.1-0.1,0.4l-0.1,0.1H213l-0.5-0.5h-0.1l0.1,0.1v0.4l-0.4,0.2h-0.4v-0.2h-0.2v0.2l0.2,0.3h-0.1l-0.1-0.1h-0.1v0.4
		l-1-0.3v0.2c0,0.1,0.3,0.2,0.9,0.2c0,0.1,0.2,0.2,0.5,0.3l0.2-0.1l0.1,0.1v-0.1l0.1,0.1h0.1l0.3-0.1l0.3,0.1l0.2-0.2
		c-0.2,0-0.2-0.1-0.2-0.4l-0.3,0.1l-0.2-0.1v-0.2c0-0.3,0.1-0.5,0.4-0.5l0.2,0.4l-0.1,0.1v0.2h0.1c0-0.1,0.2-0.2,0.5-0.3l0.1,0.1
		v0.2c-0.1,0-0.2,0.1-0.2,0.4h0.2v-0.2c0.2,0,0.2-0.1,0.2-0.3l0.1-0.1v-0.1h-0.1v-0.1h0.1l0.1,0.1h0.1l0.8-0.4l0.2,0.2l-0.1,0.2
		c0.1,0,0.2,0.3,0.2,0.9L215,289l-0.1-0.1h-0.2c0,0.1-0.1,0.2-0.4,0.2l-0.1,0.1v0.1l0.5-0.2l-0.1,0.1v0.1h0.4l0.2,0.2l-0.1,0.1v0.1
		l0.2,0.1l-0.1,0.1l0.1,0.4l-0.1,0.5c-0.1,0-0.2-0.1-0.2-0.3h-0.3v0.3l-0.1,0.4l-0.3-0.1l-0.2,0.1l0.1,0.2l0.3-0.2v0.2h0.2l0.1-0.1
		h0.1v0.1l-0.1,0.2h0.4c0,2.1-0.9,4.3-2.6,6.7c-2.3,2.3-4.9,3.5-7.7,3.5v-0.2c0.1,0,0.2,0,0.2-0.1h-0.3v-1.1h0.1v-0.5h0.2l0.2,0.2
		h0.1l0.3-0.2l-0.5-0.6V299c0-0.6,0.2-0.9,0.6-0.9l-0.1-0.1l0.1-0.1v-0.3l-0.4,0.1v-0.2l0.7-0.2v0.1l-0.1,0.1v0.1h0.2
		c0-0.2,0.4-0.5,1.3-0.9c0.6-0.5,0.9-0.9,0.9-1h0.5v-0.1l-0.1-0.1v-0.1l-0.1,0.1h-0.1v-0.1c0-0.1,0.2-0.3,0.7-0.5v-0.2l-0.1-0.4
		l0.1-0.1h0.2l0.1,0.1l0.1-0.1h0.1c0.1,0,0.2,0.1,0.2,0.2h0.1v-0.3h-0.4c-0.1,0-0.2-0.1-0.2-0.2l0.1-0.5h0.1l0.2,0.2h0.1l-0.1-0.1
		c0-0.3,0.1-0.4,0.2-0.4v-0.3c-0.2,0-0.3-0.1-0.3-0.2v-0.5l0.1-0.1v-0.1l0.1,0.1h0.2c0-0.1,0.1-0.1,0.2-0.1l0.1-0.4h-0.1v0.2
		l-0.2,0.2H210v-0.1c0-0.6,0.1-0.9,0.2-0.9h0.2v-0.1l-0.2-0.4V290h0.2v-0.1l0.1,0.1h0.1c0.1,0,0.2-0.1,0.2-0.2h0.1v0.2h0.8l0.3-0.1
		l0.9,0.2c0.2-0.3,0.4-0.4,0.6-0.4l0.2,0.1h0.1l0,0c-0.2,0-0.2,0-0.2-0.1h0.1l-0.2-0.3c-0.1,0.1-0.3,0.3-0.9,0.4l-0.1-0.2h-0.2
		l-0.1,0.1h-0.4l-0.1-0.1v-0.1l0.2-0.5l-0.5,0.2h-0.2l-0.1-0.1l-0.1,0.1h-0.1c-0.1-0.1-0.4-0.2-0.9-0.2l-0.2-1
		c0.1,0,0.1-0.1,0.1-0.3l0.4-0.1l-0.9-0.8l0.1-0.1v-0.1l-0.9-1.6c-0.8-0.9-1.8-1.6-3-2c-0.6-0.1-0.9-0.2-0.9-0.3L204.8,278.8
		L204.8,278.8z M204.8,298.2h0.2l-0.1,0.4h-0.1l-0.1-0.2v-0.1L204.8,298.2z M204.7,299.1h0.1v0.6l-0.1,0.1V299.1z M205.8,300.7
		L205.8,300.7l-0.1,0.2l0.2,0.1v-0.2L205.8,300.7z M205.8,298.9L205.8,298.9l0.2,0.2v-0.2H205.8z M207.6,299.8L207.6,299.8l0.2,0.1
		l0.1-0.2h-0.1L207.6,299.8z M209.2,296.1l0.1,0.2h0.1l0.2-0.2v-0.2l-0.2-0.1C209.2,295.9,209.2,296,209.2,296.1z M209.7,295.5
		l0.1,0.2h0.1l0.1-0.2v-0.2l-0.1-0.1C209.7,295.3,209.7,295.4,209.7,295.5z M210,289.3l0.5,0.2l-0.1,0.1v0.2l0.1,0.1v0.1l-0.1,0.1
		C210.1,289.9,209.9,289.7,210,289.3L210,289.3z M210.1,295.8L210.1,295.8l0.1,0.1h0.2v-0.1H210.1z M210.2,292.8L210.2,292.8
		l0.1,0.3h0.2l-0.1-0.3H210.2z M210.2,294.5l0.2,0.2h0.1L210.2,294.5L210.2,294.5z M210.3,281.4L210.3,281.4
		c0.1,0.1,0.1,0.2,0.1,0.3h0.2v-0.3H210.3z M210.6,290.8c0,0.1-0.1,0.2-0.2,0.2l-0.1-0.1h-0.1v0.1c0,0.1,0.3,0.2,0.9,0.3
		c0,0.1,0.1,0.2,0.2,0.2l0.1-0.1v-0.1c-0.2,0-0.2-0.1-0.2-0.3l-0.1,0.1H211c-0.1,0-0.2-0.1-0.2-0.4h-0.2L210.6,290.8L210.6,290.8z
		 M210.7,293.4l-0.1,0.3h0.2l0.3-0.1l-0.1-0.1v-0.1l-0.1,0.1h-0.1L210.7,293.4L210.7,293.4z M211.1,295.4L211.1,295.4v0.2h0.2
		l-0.1-0.3L211.1,295.4z M211.7,291.6L211.7,291.6l-0.2-0.1l-0.1,0.1v0.2l0.1-0.1L211.7,291.6l0.3,0.2v-0.4h-0.1L211.7,291.6z
		 M211.5,291.9L211.5,291.9l0.1,0.3l-0.1,0.1h0.2v-0.1L211.5,291.9L211.5,291.9z M211.8,288.7v0.2h0.1l0.1-0.2H211.8z M212.1,288.1
		L212.1,288.1l-0.1,0.2v-0.1L212.1,288.1z M212.3,292.1l0.1,0.2h0.2v-0.2H212.3z M213.4,285.8c0,0.1-0.1,0.2-0.4,0.2v0.1h0.3
		l0.5-0.2v-0.1h-0.1l-0.1,0.1L213.4,285.8L213.4,285.8z M213.1,291.5L213.1,291.5l0.4,0.1l-0.2-0.1H213.1z M213.2,289.3L213.2,289.3
		l0.1,0.2l0.1-0.1h0.3c0.1,0,0.1,0.1,0.1,0.3l0.1,0.1h0.1l0.1-0.1l-0.1-0.5h-0.4L213.2,289.3z M214.3,289.8l-0.1,0.4l0.2,0.1
		l0.2-0.1l0.1,0.1v0.1l0.2-0.1V290h-0.1c0,0.2-0.1,0.2-0.2,0.2C214.4,290.2,214.3,290.1,214.3,289.8L214.3,289.8z M214.5,292.1
		l-0.1,0.2h0.2L214.5,292.1L214.5,292.1z"/>
	<path class="st0" d="M226.8,278.9L226.8,278.9l0.1,3.7l-0.5,0.3v0.1l0.2,0.1c0-0.2,0-0.2,0.1-0.2h0.1v0.2l-2,0.7l-1.3,1l-0.6-0.2
		c0.1,0.2,0.2,0.4,0.3,0.4c0-0.1,0-0.2,0.1-0.2v0.1c-0.9,1.1-1.5,2.4-1.7,4.1l-0.1-0.1h-0.2c0,0.1,0.1,0.2,0.2,0.2l0.1,0.1v0.2
		c0,0.6-0.1,0.9-0.2,0.9h-0.1l0.1,0.1v0.2l-0.2,0.1l-0.2-0.1l-0.1,0.1v0.1l0.1,0.1h0.1l0.2-0.1c0.2,0.2,0.4,1,0.5,2.4l-0.2,0.2h-0.1
		v0.1h0.1v-0.1c0.3,0,0.4,0.2,0.4,0.7l-0.1,0.1c0.1,0,0.5,0.7,1.3,2c0,0.1,0.5,0.5,1.6,1.2l1.3,0.3v0.2L226,298v0.1l-0.1-0.1h-0.2
		v0.2h0.1v-0.1l0.1-0.1v-0.2l-0.5-0.1c-0.2,0.5-0.4,0.7-0.9,0.7v0.2c0.2,0,0.2,0.1,0.2,0.3v0.1l0.3-0.1l-0.1-0.1l0,0
		c0.3,0,0.4-0.1,0.4-0.2v-0.2l-0.1-0.2h0.1l0.3-0.1h0.2l0.5,0.1v-0.1c0.2,0.1,0.3,0.1,0.3,0.2l-0.1,0.1v0.1h0.1l-0.1,0.1v0.2
		l0.1,0.1v0.1l-0.1,0.1h-0.1l-0.2-0.2c0,0.1-0.1,0.2-0.2,0.2l-0.1,0.4h0.1l0.3-0.1c0,0.1,0.1,0.2,0.3,0.2v0.2l-0.1,0.4h-0.1
		l-0.3-0.2l-0.3,0.2v0.2h0.2v0.3l-0.2,0.2l-0.3,0.1v-0.2h0.2v-0.2l-0.2-0.1c0.3-0.4,0.5-0.7,0.5-0.9c-0.1,0-0.3,0.2-0.5,0.6l0.1,0.1
		h-0.1l-0.2-0.2h-0.1l-0.1,0.2c0,0.1,0.1,0.2,0.3,0.2l-0.1,0.2l0.1,0.4l-0.1-0.1h-0.1v0.1c0.2,0,0.3,0.2,0.3,0.5h-0.2v0.1l-1.4-0.3
		l0.1-0.4l-0.5-0.1l-0.2,0.1c0-0.2-0.1-0.3-0.2-0.3H223c0,0.2-0.1,0.3-0.3,0.3c-0.9-0.3-2.1-1.1-3.4-2.4l0.1-0.3l-0.1-0.1h-0.1
		l-0.2,0.2l-1.2-1.6l0.1-0.2h-0.1c-0.2,0-0.5-0.7-1-2.1c0-0.5,0.2-0.7,0.5-0.7l-0.1-0.4c0.1,0,0.2,0.1,0.2,0.2l0.1-0.1h0.1l0.1,0.1
		v-0.2h0.2l0.2,0.2l-0.2,0.2l0.1,0.1v0.2l-0.1-0.1h-0.1l-0.1,0.5l0.4,0.1v-0.1c0.3,0,0.6,0.2,0.8,0.5l-0.1,0.1l0.1,0.1h0.2l-0.2-0.5
		h0.1l0.2,0.1v-0.1l0.2,0.2l0.1-0.1h0.2v0.2l0.2-0.2v-0.1l-0.1-0.1v-0.1l0.1-0.1l-0.1-0.1l0,0c0,0.2-0.1,0.3-0.2,0.3h-0.1
		c-0.2-0.3-0.4-0.4-0.5-0.4l-0.1,0.1h-0.3c-0.1,0-0.2-0.1-0.3-0.4c0-0.3,0.1-0.5,0.4-0.6l0.1,0.1v-0.1l0.3,0.2l0.1-0.1v-0.1
		l-0.1-0.1l0.2-0.3l-0.1-0.1l0.1-0.1h-0.2l-0.1,0.1h-0.2l-0.2-0.1v0.1l-0.2,0.2v-0.1l-0.5,0.2h-0.7v0.1h-0.4c-0.2,0-0.3-0.4-0.3-1.2
		l0.4,0.2h0.2V292l-0.1-0.4l0.2-0.2h-0.1l-0.3,0.2l-0.2-0.3l0.1-0.1l-0.3-0.2c0,0.3,0.1,0.5,0.1,0.5l-0.1,0.2
		c-0.2,0-0.2-0.6-0.2-1.7c0-1.3,0.1-1.9,0.2-1.9l-0.1-0.1v-0.1c0.1-1.6,0.8-3.4,2-5.3C220.8,280.2,223.5,278.9,226.8,278.9z
		 M216.7,293.6L216.7,293.6l0.4,0.1v0.1l-0.2,0.2h-0.1L216.7,293.6z M217.3,294.6L217.3,294.6l-0.1,0.2l0.8,0.5v-0.2
		c0-0.2-0.1-0.3-0.2-0.5l-0.1,0.1h-0.1L217.3,294.6z M217.4,289.4v0.2l0.2,0.1v-0.1L217.4,289.4z M217.6,291.4v0.1h0.3l-0.2-0.1
		H217.6z M217.7,290.4v0.2l0.2-0.1v-0.2L217.7,290.4L217.7,290.4L217.7,290.4z M219.1,289.6L219.1,289.6l0.1,0.3
		c-0.2,0.1-0.4,0.2-0.7,0.2c0-0.1-0.1-0.2-0.3-0.2l-0.1,0.1v0.1c0.4,0,0.6,0.3,0.6,0.8h-0.1c-0.1,0-0.2,0.1-0.2,0.2
		c-0.4,0.2-0.6,0.3-0.6,0.4h0.1c0.5-0.1,0.7-0.3,0.7-0.5l0.5-0.1v0.1l0.1-0.1h0.2l-0.1,0.1v0.1l0.1,0.1l0.1-0.1h0.1l0.2,0.2
		l-0.1,0.1h0.4v-0.1l-0.1-0.2h0.1v0.2h0.2l-0.1-0.1v-0.1h0.1l0.3,0.2l0.2-0.1l-0.1-0.1V291l0.1-0.4h-0.5v-0.1h-0.1v0.1
		c-0.4-0.1-0.5-0.2-0.5-0.4v-0.1l-0.1,0.1h-0.1C219.4,290,219.3,289.8,219.1,289.6L219.1,289.6z M218,286.3v0.2h0.2v-0.2H218z
		 M218,288.8v0.2l0.2,0.2l0.1-0.1v-0.3H218z M218.3,292L218.3,292l0.2-0.2h-0.1L218.3,292z M218.6,291.4l-0.1,0.3
		C218.6,291.7,218.7,291.7,218.6,291.4L218.6,291.4L218.6,291.4z M218.6,297.4v0.2h0.1l0.2-0.1l-0.1-0.2h-0.2V297.4z M218.7,289.1
		v0.2h0.2v-0.1L218.7,289.1z M219.1,293.8L219,294l0.1,0.2h0.1l0.1-0.2l0.2,0.1v-0.2L219.1,293.8z M219.1,297.5v0.2l0.1,0.1h0.1l0,0
		L219.1,297.5L219.1,297.5z M219.4,292.9l-0.2-0.1h-0.1v0.1l0.5,0.3h0.1l-0.1-0.4l0.2-0.2l0,0L219.4,292.9z M219.5,296l0.3,0.1
		l0.1-0.2h-0.3L219.5,296z M220.5,293.3c0,0.2,0,0.2-0.1,0.2l-0.3-0.1v0.1l-0.1-0.1h-0.1l-0.3,0.5l0.1,0.3h0.1
		c0-0.2,0.1-0.4,0.4-0.5h0.2v0.1h-0.2l0.2,0.4h0.4l0.1-0.1h0.1l0.3,0.3h0.1c-0.3-0.5-0.6-0.8-0.7-0.8v-0.4h-0.2V293.3z M219.6,298.2
		l0.2,0.1l0.1-0.1v0.1l0.2-0.1L220,298h-0.2L219.6,298.2z M219.8,296.9l0.1,0.3h0.1l0.2-0.1v-0.2l-0.1,0.1l-0.1-0.1H219.8z M220,288
		v0.1h0.2V288H220z M220.2,282.9v0.2c0.2-0.1,0.4-0.2,0.4-0.4h-0.1L220.2,282.9z M220.4,298.7L220.4,298.7l0.2-0.2v-0.1L220.4,298.7
		z M220.5,292.6l0.1,0.2l0.3-0.3h-0.2L220.5,292.6z M220.7,298.3l0.2,0.2h0.2l0.1-0.3h-0.1L220.7,298.3z M220.9,299.6L220.9,299.6
		c0.1,0.3,0.3,0.5,0.5,0.5h0.4V300l-0.4-0.1l-0.2,0.1l0.1-0.1v-0.2L220.9,299.6z M220.9,292.5L220.9,292.5l0.1,0.2l0.4-0.1v-0.2
		h-0.1L220.9,292.5z M221.2,298.5v0.2h0.2v-0.2H221.2z M221.6,287.8c0,0.1-0.1,0.2-0.2,0.2v0.1h0.1l0.3-0.3H221.6z M221.4,298.8
		L221.4,298.8v0.1v0.1l0.2,0.2l0.2-0.1v0.2h0.1c0-0.1,0.1-0.2,0.3-0.2l0.1-0.2v-0.1l-0.2,0.1l-0.5-0.1H221.4z M221.5,297.4v0.3h0.1
		l0.1-0.3H221.5z M221.9,300.3l-0.1,0.2h0.1l0.3-0.2v-0.1h-0.1h-0.2V300.3z M221.9,294.9L221.9,294.9l0.2,0.1v-0.1H221.9z
		 M222.3,299.6l-0.1,0.2h0.1V299.6L222.3,299.6z M222.3,296.4L222.3,296.4l0.1,0.2l-0.1,0.2l0.1,0.1h0.2
		C222.5,296.6,222.4,296.4,222.3,296.4z M222.9,296.7l-0.4,0.4l0.7-0.2v-0.1L222.9,296.7z M222.7,295.5v0.2l0.1,0.2l0.2-0.2
		L222.7,295.5L222.7,295.5z M222.7,297.6v0.3c0,0.3,0.1,0.4,0.4,0.5h0.2v-0.3L222.7,297.6z M223.6,300.1L223.6,300.1l0.1,0.2h0.2
		v-0.1L223.6,300.1z M224.1,300.5L224.1,300.5l-0.1,0.1h0.2l-0.1,0.1v0.1h0.3v-0.2L224.1,300.5z M224.5,300.1l0.1,0.4h0.3v-0.2
		c-0.1,0-0.2-0.1-0.2-0.2H224.5z M225,297.4L225,297.4l0.1,0.2H225v0.2l0.2-0.2l0.1,0.1v-0.1L225,297.4L225,297.4z M226.3,301.2
		c0.3,0,0.5,0.1,0.5,0.4l0.1,0.2h-0.1l-0.6,0.1v-0.1l-0.2-0.3l-0.1,0.1h-0.1v-0.2L226.3,301.2z M226.8,300.4L226.8,300.4l0.1,0.6
		l-0.1,0.1v0.1l-0.2-0.1C226.6,300.7,226.7,300.4,226.8,300.4z M227.9,278.9c2.4,0,4.7,0.9,7,2.7c1.4,1.5,2.2,2.7,2.4,3.7l-0.2,0.2
		v0.2l0.2,0.2v-0.5c0.1,0,0.3,0.4,0.5,1.3h-0.2v-0.2c-0.1,0-0.2,0.2-0.2,0.5c-0.1,0-0.1,0.1-0.1,0.4l-0.1,0.1h-1.1l-0.5-0.5h-0.1
		l0.1,0.1v0.4l-0.4,0.2h-0.4v-0.2h-0.2v0.2l0.2,0.3h-0.1l-0.1-0.1h-0.1v0.4l-1-0.3v0.2c0,0.1,0.3,0.2,0.9,0.2c0,0.1,0.2,0.2,0.5,0.3
		l0.2-0.1l0.1,0.1v-0.1l0.1,0.1h0.1l0.3-0.1l0.3,0.1l0.2-0.2c-0.2,0-0.2-0.1-0.2-0.4l-0.3,0.1l-0.2-0.1v-0.3c0-0.3,0.1-0.5,0.4-0.5
		l0.2,0.4l-0.1,0.1v0.2h0.1c0-0.1,0.2-0.2,0.5-0.3l0.1,0.1v0.2c-0.1,0-0.2,0.1-0.2,0.4h0.2v-0.2c0.2,0,0.2-0.1,0.2-0.3l0.1-0.1v-0.1
		h-0.1v-0.1h0.1l0.1,0.1h0.1l0.8-0.4l0.2,0.2l-0.1,0.2c0.1,0,0.2,0.3,0.2,0.9l-0.2,0.4l-0.1-0.1h-0.2c0,0.1-0.1,0.2-0.4,0.2
		l-0.1,0.1v0.1l0.5-0.2l-0.1,0.1v0.1h0.4l0.2,0.2l-0.1,0.1v0.1l0.2,0.1l-0.1,0.1l0.1,0.4l-0.1,0.5c-0.1,0-0.2-0.1-0.2-0.3h-0.3v0.3
		l-0.1,0.4l-0.3-0.1l-0.2,0.1l0.1,0.2l0.3-0.2v0.2h0.2l0.1-0.1h0.1v0.1l-0.1,0.2h0.4c0,2.1-0.9,4.3-2.6,6.7
		c-2.3,2.3-4.9,3.5-7.7,3.5v-0.2c0.1,0,0.2,0,0.2-0.1h-0.3v-1.1h0.1v-0.5h0.2l0.2,0.2h0.1l0.3-0.2l-0.5-0.6V299
		c0-0.6,0.2-0.9,0.6-0.9l-0.1-0.1l0.1-0.1v-0.3l-0.4,0.1v-0.2l0.7-0.2v0.1l-0.1,0.1v0.1h0.2c0-0.2,0.4-0.5,1.3-0.9
		c0.6-0.5,0.9-0.9,0.9-1h0.5v-0.1l-0.1-0.1v-0.1l-0.1,0.1h-0.1v-0.1c0-0.1,0.2-0.3,0.7-0.5v-0.2l-0.1-0.4l0.1-0.1h0.2l0.1,0.1
		l0.1-0.1h0.1c0.1,0,0.2,0.1,0.2,0.2h0.1v-0.3h-0.4c-0.1,0-0.2-0.1-0.2-0.2l0.1-0.5h0.1l0.2,0.2h0.1l-0.1-0.1c0-0.3,0.1-0.4,0.2-0.4
		v-0.3c-0.2,0-0.3-0.1-0.3-0.2v-0.5l0.1-0.1v-0.1l0.1,0.1h0.2c0-0.1,0.1-0.1,0.2-0.1l0.1-0.4h-0.1v0.2l-0.2,0.2h-0.2v-0.1
		c0-0.6,0.1-0.9,0.2-0.9h0.2v-0.1l-0.2-0.4V290h0.2v-0.1l0.1,0.1h0.1c0.1,0,0.2-0.1,0.2-0.2h0.1v0.2h0.8l0.3-0.1l0.9,0.2
		c0.2-0.3,0.4-0.4,0.6-0.4l0.2,0.1h0.1v-0.1c-0.2,0-0.2,0-0.2-0.1h0.1l-0.2-0.3c-0.1,0.1-0.3,0.3-0.9,0.4l-0.1-0.2h-0.2l-0.1,0.1
		h-0.5l-0.1-0.1v-0.1l0.2-0.5l-0.5,0.2h-0.2l-0.1-0.1l-0.1,0.1h-0.1c-0.1-0.1-0.4-0.2-0.9-0.2l-0.2-1c0.1,0,0.1-0.1,0.1-0.3l0.4-0.1
		l-0.9-0.8l0.1-0.1v0.2l-0.9-1.6c-0.8-0.9-1.8-1.6-3-2c-0.6-0.1-0.9-0.2-0.9-0.3V279L227.9,278.9z M227.9,298.2h0.2l-0.1,0.4h-0.1
		l-0.1-0.2v-0.1L227.9,298.2z M227.7,299.2h0.1v0.6l-0.1,0.1V299.2z M228.9,300.7L228.9,300.7l-0.1,0.2l0.2,0.1v-0.2L228.9,300.7z
		 M228.9,298.9L228.9,298.9l0.2,0.2v-0.2H228.9z M230.7,299.9L230.7,299.9l0.2,0.1l0.1-0.2h-0.2L230.7,299.9z M232.3,296.2l0.1,0.2
		h0.1l0.2-0.2V296l-0.2-0.1C232.3,296,232.3,296,232.3,296.2z M232.7,295.6l0.1,0.2h0.1l0.1-0.2v-0.2l-0.1-0.1
		C232.8,295.3,232.7,295.4,232.7,295.6z M233,289.3l0.5,0.2l-0.1,0.1v0.2l0.1,0.1v0.1l-0.1,0.1C233.1,290,232.9,289.8,233,289.3
		L233,289.3z M233.2,295.9L233.2,295.9l0.1,0.1h0.2v-0.1H233.2z M233.3,292.8L233.3,292.8l0.1,0.3h0.2l-0.1-0.3H233.3z M233.3,294.6
		l0.2,0.2h0.1L233.3,294.6L233.3,294.6z M233.3,281.4L233.3,281.4c0.1,0.1,0.1,0.2,0.1,0.3h0.2v-0.3H233.3z M233.7,290.8
		c0,0.1-0.1,0.2-0.2,0.2l-0.1-0.1h-0.1v0.1c0,0.1,0.3,0.2,0.9,0.3c0,0.2,0.1,0.2,0.2,0.2l0.1-0.1v-0.1c-0.2,0-0.2-0.1-0.2-0.3
		l-0.1,0.1h-0.1c-0.1,0-0.2-0.1-0.2-0.4h-0.2L233.7,290.8L233.7,290.8z M233.7,293.5l-0.1,0.3h0.2l0.3-0.1l-0.1-0.1v-0.1l-0.1,0.1
		L233.7,293.5L233.7,293.5L233.7,293.5z M234.2,295.5L234.2,295.5v0.2h0.2l-0.1-0.3L234.2,295.5z M234.7,291.7L234.7,291.7l-0.2-0.1
		l-0.1,0.1v0.2l0.1-0.1L234.7,291.7l0.3,0.2v-0.4h-0.1L234.7,291.7z M234.6,291.9L234.6,291.9l0.1,0.3l-0.1,0.1h0.2v-0.1
		L234.6,291.9L234.6,291.9z M234.9,288.7v0.2h0.1l0.1-0.2H234.9z M235.2,288.2L235.2,288.2l-0.1,0.2v-0.1L235.2,288.2z M235.4,292.1
		l0.1,0.2h0.2v-0.2H235.4z M236.5,285.8c0,0.1-0.1,0.2-0.4,0.2v0.1h0.3l0.5-0.2v-0.1h-0.1l-0.1,0.1L236.5,285.8L236.5,285.8z
		 M236.2,291.5L236.2,291.5l0.4,0.1l-0.2-0.1H236.2z M236.3,289.3L236.3,289.3l0.1,0.2l0.1-0.1h0.3c0.1,0,0.1,0.1,0.1,0.3l0.1,0.1
		h0.1l0.1-0.1l-0.1-0.5h-0.4L236.3,289.3z M237.3,289.9l-0.1,0.4l0.2,0.1l0.2-0.1l0.1,0.1v0.1l0.2-0.1v-0.3h-0.1
		c0,0.2-0.1,0.2-0.2,0.2C237.4,290.3,237.3,290.2,237.3,289.9L237.3,289.9z M237.6,292.1l-0.1,0.2h0.2L237.6,292.1L237.6,292.1z"/>
	<path class="st0" d="M254.7,279.6c0,0.1-0.3,0.3-0.8,0.4v0.1l0.4,0.1c0-0.1,0.1-0.2,0.2-0.2l0.1,0.4l-0.2,0.4v0.1h-0.2l-0.2-0.1
		v-0.4c-0.2,0-0.4-0.1-0.5-0.2v0.1l-0.1-0.1h-0.1l-0.5,0.1l-0.2-0.2l0.2-0.2v-0.1l-0.2-0.1c-0.4,0-0.6,0.2-0.7,0.5h-0.1l0.1,0.1v0.1
		l-0.2,0.1h-0.5c0-0.2-0.1-0.4-0.2-0.4h-0.1c-0.2,0.1-0.3,0.3-0.3,0.5c0.3,0,0.4,0,0.4,0.1h-0.1l0.1,0.2h0.1c0.1,0,0.2-0.1,0.2-0.2
		l0.1-0.1h0.2l0.2,0.1c0,0.4-0.2,0.6-0.5,0.6c0-0.1-0.1-0.1-0.4-0.1V281h-0.2c-0.5,0.6-0.8,0.9-0.9,0.9c-0.1,0-0.1,0.1-0.1,0.4
		l-0.1,0.1h-0.4l-0.4-0.1v0.1l0.1,0.4l-0.1,0.1h0.2c0.1,0,0.2-0.1,0.2-0.3c0.1,0,0.2,0.1,0.2,0.4h0.1l-0.2,0.4h0.1l0.3,0.1v0.1h-1.8
		l-0.5-0.1l-0.7,0.1h-4.9c-0.2,0-0.4-0.1-0.6-0.3h-0.1l0.1,0.1v0.2h-0.1l-0.1-0.1l-0.4,0.1h-1l-0.5-0.4v-0.4l0.2-0.2l0.1,0.1h0.3
		l-0.2-0.4h-0.1v-0.4h0.3l0.1,0.3v0.1h0.1l0.2-0.1v-0.4c-0.1,0-0.3-0.1-0.5-0.4l0.1-0.4c0.3,0.1,0.5,0.1,0.5,0.2v0.4
		c0.1,0,0.2,0.1,0.2,0.4l0.5,0.3h0.1V282h0.5v0.3l-0.4,0.4v0.1h0.1c0-0.2,0.2-0.4,0.5-0.4h0.1c0,0.2,0.1,0.3,0.4,0.4v0.1h-0.4v0.1
		h0.2l0.6-0.1v-0.1l-0.5-0.2l-0.1,0.2l-0.6-0.8l0.1-0.2h-0.1c-0.2,0-0.4-0.2-0.5-0.6c0.2-0.1,0.4-0.3,0.4-0.4h0.2l0.2,0.1v0.1
		l-0.1,0.4l0.1-0.1h0.1l0.4,0.1V281l-0.1,0.1H242v-0.3l0.3-0.1h0.1v-0.1c-0.4,0-0.5,0-0.5-0.1v-0.1l0.1-0.2h-0.1l-0.5-0.1l0.1-0.1
		v-0.2l-0.2-0.1c0,0.3-0.1,0.5-0.3,0.5l-0.4,0.1l-0.1-0.6l-0.1,0.1h-0.5c0,0.3-0.1,0.4-0.2,0.4h-0.5v-0.4c0-0.1,0.2-0.2,0.5-0.2
		c0-0.3,0.1-0.5,0.2-0.5h0.5v0.1h0.1c0-0.2,0-0.3,0.1-0.3h1.4l0.5,0.5v-0.5h0.1l0.2,0.1h0.2l0.2-0.1h4.5c0.1,0,0.1,0.1,0.1,0.2h0.1
		c0-0.1,0.1-0.2,0.2-0.2h1.7l0.1,0.1v0.1l-0.1,0.1v0.1h0.1l0.4-0.4h3v0.1l-0.1,0.1V279l-0.2,0.1v0.2h0.4c0.1,0,0.1,0.1,0.1,0.4h0.1
		l0.2-0.5h0.2l0.1,0.1h0.1l0.1-0.1C254.4,279.4,254.5,279.5,254.7,279.6z M239.4,279L239.4,279l-0.1,0.1l-0.2-0.1l0.1-0.1h0.1
		L239.4,279z M240,282.8L240,282.8L240,282.8c0,0.4,0.1,0.5,0.2,0.5h0.1V283L240,282.8z M240.8,280.7h-0.4l-0.1-0.1l0.5-0.1l0.1,0.1
		v0.1H240.8z M241.2,279.4c-0.1,0-0.2-0.1-0.2-0.2l-0.1,0.2l-0.1-0.1h-0.1v0.4h0.1C240.8,279.5,240.9,279.5,241.2,279.4L241.2,279.4
		z M242.2,279.7L242.2,279.7l-0.2,0.1l0.1,0.1L242.2,279.7z M242.6,279.5L242.6,279.5l-0.2,0.1v0.1h0.1l0.1-0.1L242.6,279.5
		L242.6,279.5z M242.9,279.7l-0.1,0.1l0.1,0.2h0.1v-0.3H242.9z M243.4,282.8c-0.3,0-0.4-0.1-0.4-0.4h-0.1l-0.1,0.6h0.5L243.4,282.8z
		 M243.6,279.6h-0.3l0.5,0.4l0.1-0.1L243.6,279.6z M244.9,279.2h-0.2v0.2l-0.1-0.1h-0.1l-0.2,0.1v-0.1l-0.1-0.2h-0.1v0.2
		c0.4,0.2,0.5,0.5,0.5,0.9h0.2l-0.2-0.7l0.2-0.1v-0.2H244.9L244.9,279.2z M244.9,283L244.9,283l-0.3-0.1c0,0.1-0.1,0.2-0.3,0.2v0.2
		C244.5,283.2,244.7,283.1,244.9,283l-0.1,0.2h0.1V283z M245.6,281.8h-0.1l-0.1,0.4h-0.1c-0.2,0-0.4-0.1-0.5-0.2h-0.1v0.1
		c0,0.1,0.1,0.1,0.3,0.1l0.1,0.4h0.4L245.6,281.8z M245.2,301.8v-8l0.2-0.4l-0.1-0.2v-0.1l0.1-0.1h-0.2v-0.6l0.2-0.2h0.2l0.1,0.1
		c0-0.6,0.1-0.9,0.3-0.9l-0.1-0.3l0.2-0.1h0.6v-0.2c0.2,0,0.3-0.1,0.3-0.2h-0.7l-0.4-0.1v0.1l-0.5,0.2h-0.1l-0.2-0.2v-3.1h0.2v0.4
		h0.2l0.2-0.5l0.4-0.2l0.1-0.1H246l-0.2,0.2h-0.3l-0.2-0.2v-0.6l0.1-0.1c0.2,0,0.2-0.1,0.2-0.3l-0.3-0.5v-0.7h0.2v-0.4l-0.2-0.2
		v-0.1l0.2-0.2h0.3v0.2h-0.2v0.1h0.5v-0.2h1v0.4h0.1l0.5-0.4h0.4c0.1,0,0.2,0.1,0.2,0.2h0.5c0-0.2,0.1-0.2,0.2-0.2h0.6l0.2,0.2
		l0.2-0.2h0.5l0.2,0.2v0.6h-0.2c0-0.2-0.2-0.3-0.5-0.3h-0.1l0.1,0.2l-0.4,0.5v0.1l0.5-0.4h0.2l0.2,0.2v0.1l-0.1,0.4
		c-0.3,0.1-0.5,0.2-0.5,0.2v0.1l0.5-0.2c0.1,0,0.2-0.1,0.2-0.4h0.2v2.2l-0.2-0.1l-0.2,0.1c0.2,0,0.3,0.1,0.4,0.3v3.5h-0.2v-0.3h-0.8
		l0.6,0.6v1c-0.2,0.3-0.4,0.4-0.6,0.4c0,0.1,0.1,0.1,0.3,0.1v0.4l-0.2,0.2h-0.5v-0.5c0-0.1,0.1-0.2,0.2-0.2l-0.2-0.2
		c-0.2,0.3-0.4,0.4-0.7,0.4v0.2h-0.5l-0.1,0.1l0.2,0.3l0.2-0.2h0.4c0.1,0,0.2,0.2,0.2,0.5c0.2,0,0.3,0.1,0.3,0.3l0.4-0.3h0.4v7.3h-5
		L245.2,301.8L245.2,301.8z M245.2,291.9L245.2,291.9l-0.1-0.8h0.2c0,0.2,0.1,0.3,0.3,0.4C245.6,291.8,245.5,291.9,245.2,291.9
		L245.2,291.9z M245.3,280.4L245.3,280.4l-0.1,0.3h0.1v-0.1V280.4z M246,294.1h-0.2l-0.4,0.3C245.8,294.4,246,294.3,246,294.1z
		 M245.6,279.7L245.6,279.7l-0.3,0.2h0.1L245.6,279.7z M246.5,289.8h-0.3c-0.3,0-0.4-0.1-0.4-0.4h-0.1c0,0.1-0.1,0.2-0.3,0.2v0.3
		l0.1,0.1l0.3-0.1c0.1,0,0.2,0.1,0.2,0.3C246.2,290.1,246.4,290,246.5,289.8z M246.1,293.3L246.1,293.3l0.3-0.4l-0.2-0.2h-0.1
		c-0.2,0.2-0.3,0.3-0.5,0.3v0.1C245.7,293.1,245.9,293.2,246.1,293.3z M245.8,279.5L245.8,279.5l-0.2-0.1v0.1H245.8l-0.2,0.1v0.1
		h0.1L245.8,279.5z M246,295.2v-0.4h-0.2v0.4H246z M246.2,282.5l-0.3-0.1v0.1H246.2L246.2,282.5z M246.6,285.1l0.1-0.3l-0.2-0.1
		l-0.2,0.2L246.6,285.1z M246.5,288h0.2l-0.2-0.2h-0.3L246.5,288z M247.1,293.3c0-0.1,0.1-0.2,0.3-0.2V293h-0.2v-0.1l0.1-0.4
		c0.3-0.1,0.5-0.2,0.5-0.3v-0.1l-0.3,0.1h-0.1l-0.1-0.1c0-0.2-0.1-0.3-0.2-0.3v-0.5H247l-0.1,0.4l-0.4-0.1h-0.1l-0.2,0.1v0.1
		l0.2,0.4h0.2l0.4,0.1v0.2l-0.2,0.2l0.1,0.5h0.2L247.1,293.3L247.1,293.3z M246.7,279.6h-0.1l-0.2,0.2l0.2,0.4h0.1l0.1-0.1v-0.5
		L246.7,279.6L246.7,279.6z M247,282.6L247,282.6l-0.6,0.1v0.2c0.2,0,0.4,0.1,0.4,0.4c0.2,0,0.4-0.2,0.5-0.4L247,282.6z
		 M246.6,281.4h-0.1v0.3l0.2,0.2h0.1v-0.1L246.6,281.4z M246.8,286.3l-0.2-0.2h-0.1v0.2H246.8z M246.8,289.5h0.2l-0.2-0.1h-0.2
		L246.8,289.5z M246.9,294.8v-0.3l-0.2,0.2v0.2L246.9,294.8L246.9,294.8z M247.2,288.3L247.2,288.3l-0.1-0.3h-0.2
		c0,0.1,0.1,0.2,0.2,0.2L247.2,288.3L247.2,288.3z M247.2,281.9H247v0.1l0.1,0.2h0.2v-0.3H247.2z M247.4,285.5v-0.2h-0.3l-0.2,0.2
		H247.4z M248,290.4c-0.3-0.2-0.4-0.4-0.4-0.6h-0.2c0,0.2-0.1,0.3-0.3,0.3v0.1C247.1,290.3,247.4,290.4,248,290.4z M247.6,286.6
		v-0.2c-0.2,0-0.2-0.1-0.2-0.2h-0.2v0.1L247.6,286.6z M247.4,294.3l0.1-0.2V294h-0.3v0.3H247.4z M247.7,291.2l0.1-0.2h-0.1l-0.1-0.1
		h-0.2L247.7,291.2z M247.7,279.3h-0.2l-0.1,0.2l0.1,0.1h0.4v-0.1L247.7,279.3z M247.8,293.2c0.1,0.3,0.2,0.4,0.2,0.4
		c0-0.3,0.1-0.5,0.4-0.7v-0.3l-0.8,0.6v0.1h0.2L247.8,293.2L247.8,293.2z M248.5,280.5c-0.3,0-0.4,0-0.4-0.1l0.1-0.2
		c-0.1,0.1-0.3,0.1-0.5,0.1v0.1c0,0.1,0.1,0.2,0.4,0.2l0.1-0.1l0.2,0.3h-0.2v0.1h0.3L248.5,280.5z M248,282.4L248,282.4l-0.2,0.1
		h0.2V282.4z M249.5,279.9v0.2h-0.1l-0.1-0.4h-0.2v0.1h-0.3l-0.4,0.1l-0.1-0.4h0.1l-0.1-0.4h-0.1l-0.1,0.1H248l0.2,0.7H248v0.1h0.6
		v0.4l0.3-0.1l0.2,0.1v0.5l-0.2,0.2l-0.1-0.1h-0.1l-0.2,0.1h0.2v0.1l-0.3,0.3h-0.1l-0.1-0.1l-0.1,0.1H248l-0.4-0.1v0.1l0.6,0.1
		l-0.1,0.1v0.1h0.1c0-0.1,0.1-0.1,0.4-0.1c0-0.2,0.1-0.4,0.2-0.4l0.6,0.3v-0.2h-0.2v-0.2l0.1-0.1V281l0.4,0.1h0.1V281l-0.4-0.1
		l0.1-0.1v-0.1l-0.2-0.1v-0.5H249v-0.3h0.2v0.2h0.1L249.5,279.9v0.1c0,0.1,0.2,0.2,0.5,0.3V280L249.5,279.9z M248.4,286.2l-0.1-0.4
		h-0.4v0.1c0.2,0,0.3,0.1,0.3,0.2v0.2l-0.2,0.2v0.1C248.2,286.6,248.3,286.4,248.4,286.2z M248.4,282.8h-0.3c0,0.1,0.1,0.1,0.3,0.2
		V282.8z M248.4,290.9L248.4,290.9c0.1-0.2,0.2-0.3,0.3-0.3v-0.2c-0.4,0.2-0.6,0.3-0.6,0.4v0.1H248.4z M249.2,295.2L249.2,295.2
		c0-0.2-0.3-0.4-0.7-0.6l-0.2,0.2C248.6,294.8,248.9,294.9,249.2,295.2z M249.3,292.2L249.3,292.2l0.1-0.2c-0.4-0.1-0.6-0.3-0.6-0.5
		h-0.2v0.3l0.2-0.1L249.3,292.2z M248.9,290.3L248.9,290.3l0.1-0.1h-0.3v0.1H248.9z M249.1,285v-0.2h-0.3v0.2H249.1z M249.6,289.6
		v-0.3c-0.4,0-0.6-0.1-0.7-0.3h-0.1v0.1C248.8,289.3,249.1,289.5,249.6,289.6z M249.5,291.3c0-0.1-0.1-0.2-0.3-0.2v0.2H249.5z
		 M250.2,292.9v-0.2h-0.5v0.2H250.2z M249.8,297.6l0.2-0.5l-0.1-0.2h-0.2L249.8,297.6L249.8,297.6z M250.1,289.1l-0.1-0.3h-0.2
		l0.1,0.3H250.1z M250.1,295.7l0.1-0.4l-0.3-0.1v0.1L250.1,295.7L250.1,295.7z M256.3,282.3l-0.1,0.4h0.1c0,0,0,0,0.1,0v0.7h-0.2
		l0.1-0.5v-0.1h-0.1l-0.3,0.6H255v-0.2h-0.2c0,0.1,0,0.2-0.1,0.2H251c0-0.2-0.2-0.3-0.5-0.3l-0.1,0.1l-0.1-0.2v-0.2
		c0-0.1,0.1-0.1,0.4-0.1v-0.1c-0.3,0-0.4-0.1-0.4-0.2V282l0.1-0.1h0.3c0,0.1,0.1,0.2,0.2,0.2l0.4-0.1l-0.1-0.1v-0.1l-0.1,0.1h-0.2
		l-0.2-0.1v-0.2c0.1-0.2,0.3-0.4,0.7-0.4h0.1l0.1,0.2l0.4-0.1c0,0.2,0.1,0.3,0.4,0.3v0.6h0.3v0.4l0.1,0.1v0.1c0.2,0,0.2-0.1,0.2-0.3
		l0.5-0.1l-0.1-0.1v-0.1l-0.1,0.1h-0.2l-0.2-0.2l-0.1-0.3h-0.2l0.1-0.1v-0.1l-0.5-0.1l0.1-0.3h-0.1v-0.7h0.3l0.4,0.1
		c0-0.1,0-0.2,0.1-0.2h0.3l0.1,0.2c-0.4,0.1-0.5,0.3-0.5,0.6h0.1c0.1-0.2,0.3-0.4,0.5-0.4l0.2,0.1l-0.1,0.1v0.4h0.5
		c0.1,0,0.2,0.1,0.2,0.2h0.2c0-0.3,0.1-0.4,0.4-0.4l-0.1-0.1V281l0.1-0.6l-0.1-0.1h0.2c0,0.1,0.1,0.2,0.2,0.2h0.2v-0.1h-0.2l0.1-0.4
		v-0.2h-0.1v0.1h-0.1l-0.1-0.3h0.4v0.2h0.3l0.1-0.1h0.1c0.1,0.2,0.2,0.3,0.5,0.3v0.2l-0.2,0.2l-0.2-0.1l-0.4,0.1v0.1h0.3v0.1
		l-0.2,0.1l-0.1-0.1h-0.1v0.1l0.1,0.4h0.2c0-0.3,0.2-0.6,0.5-0.9h0.1L256.3,282.3L256.3,282.3z M250.2,294.4L250.2,294.4v-0.6v-0.2
		h0.2v0.8H250.2z M251.3,279.5L251.3,279.5l-0.3-0.1l0.2,0.2L251.3,279.5L251.3,279.5z M252,282.3L252,282.3l-0.3,0.1v0.3h0.2
		L252,282.3L252,282.3z M252.1,282.9l-0.2,0.1v0.1h0.1l0.2-0.1v-0.1H252.1z M252.4,279.2l-0.2-0.1l-0.1,0.1v0.1l0.2,0.1l0.1-0.1
		V279.2z M254,282.5c-0.3,0-0.4-0.1-0.5-0.2l0.1-0.3l-0.1-0.5h-0.2l0.2,1l0.1,0.1h0.2L254,282.5z M255,278.9v0.1l-0.4,0.1l-0.5-0.1
		l0.2-0.1H255z M254.4,282.3h-0.2v0.1L254.4,282.3L254.4,282.3z M254.9,282.1h-0.2c0,0.1-0.1,0.1-0.3,0.1v0.1L254.9,282.1
		L254.9,282.1L254.9,282.1z M255.5,281.8L255.5,281.8l-0.1-0.1l-0.2,0.2l0.1,0.1v0.1c0,0.2-0.1,0.4-0.3,0.4v0.2h0.1
		C255.2,282.6,255.4,282.3,255.5,281.8z M254.9,282.8v0.3l0.2-0.1L254.9,282.8z M256.3,279.6l-0.4,0.1c-0.2,0-0.4-0.2-0.6-0.6h-0.1
		v-0.3h0.6l0.5,0.1V279.6z"/>
	<path class="st0" d="M267.9,278.9L267.9,278.9l0.1,3.7l-0.5,0.3v0.1l0.2,0.1c0-0.2,0-0.2,0.1-0.2h0.1v0.2l-2,0.7l-1.3,1l-0.6-0.2
		c0.1,0.2,0.2,0.4,0.3,0.4c0-0.1,0-0.2,0.1-0.2v0.1c-0.9,1.1-1.5,2.4-1.7,4.1l-0.1-0.1h-0.2c0,0.1,0.1,0.2,0.2,0.2l0.1,0.1v0.2
		c0,0.6-0.1,0.9-0.2,0.9h-0.1l0.1,0.1v0.2l-0.2,0.1l-0.2-0.1l-0.1,0.1v0.1l0.1,0.1h0.1l0.2-0.1c0.2,0.2,0.4,1,0.5,2.4l-0.2,0.2h-0.1
		v0.1h0.1v-0.1c0.3,0,0.4,0.2,0.4,0.7l-0.1,0.1c0.1,0,0.5,0.7,1.3,2c0,0.1,0.5,0.5,1.6,1.2l1.3,0.3v0.2l-0.1,0.1v0.1L267,298h-0.2
		v0.2h-0.2v-0.1l0.1-0.1v-0.2l-0.5-0.1c-0.2,0.5-0.4,0.7-0.9,0.7v0.2c0.2,0,0.2,0.1,0.2,0.3v0.1l0.3-0.1l-0.1-0.1l0,0
		c0.3,0,0.4-0.1,0.4-0.2v-0.2l-0.1-0.2h0.1l0.3-0.1h0.2l0.5,0.1v-0.1c0.2,0.1,0.3,0.1,0.3,0.2l-0.1,0.1v0.1h0.1l-0.1,0.1v0.2
		l0.1,0.1v0.1l-0.1,0.1h-0.1l-0.2-0.2c0,0.1-0.1,0.2-0.2,0.2l-0.1,0.4h0.1l0.3-0.1c0,0.1,0.1,0.2,0.3,0.2v0.2l-0.1,0.4h-0.1
		l-0.3-0.2l-0.3,0.2v0.2h0.2v0.3l-0.2,0.2l-0.3,0.1v-0.2h0.2v-0.2l-0.2-0.1c0.3-0.4,0.5-0.7,0.5-0.9c-0.1,0-0.3,0.2-0.5,0.6l0.1,0.1
		h-0.1l-0.2-0.2H266l-0.1,0.2c0,0.1,0.1,0.2,0.3,0.2l-0.1,0.2l0.1,0.4l-0.1-0.1H266v0.1c0.2,0,0.3,0.2,0.3,0.5h-0.2v0.1l-1.4-0.3
		l0.1-0.4l-0.5-0.1l-0.2,0.1c0-0.2-0.1-0.3-0.2-0.3h-0.1c0,0.2-0.1,0.3-0.3,0.3c-0.9-0.3-2.1-1.1-3.4-2.4l0.1-0.3l-0.1-0.1H260
		l-0.2,0.2l-1.2-1.6l0.1-0.2h-0.1c-0.2,0-0.5-0.7-1-2.1c0-0.5,0.2-0.7,0.5-0.7l-0.1-0.4c0.1,0,0.2,0.1,0.2,0.2l0.1-0.1h0.1l0.1,0.1
		v-0.2h0.2l0.2,0.2l-0.2,0.2l0.1,0.1v0.2l-0.1-0.1h-0.1l-0.1,0.5l0.4,0.1v-0.1c0.3,0,0.6,0.2,0.8,0.5l-0.1,0.1l0.1,0.1h0.2l-0.2-0.5
		h0.1l0.2,0.1v-0.1l0.2,0.2l0.1-0.1h0.2v0.2l0.2-0.2v-0.1l-0.1-0.1v-0.1l0.1-0.1l-0.1-0.1h-0.1c0,0.2-0.1,0.3-0.2,0.3h-0.1
		c-0.2-0.3-0.4-0.4-0.5-0.4l-0.1,0.1h-0.3c-0.1,0-0.2-0.1-0.3-0.4c0-0.3,0.1-0.5,0.4-0.6l0.1,0.1v-0.1l0.3,0.2l0.1-0.1v-0.1
		l-0.1-0.1l0.2-0.3l-0.1-0.1l0.1-0.1h-0.2l-0.1,0.1h-0.1l-0.2-0.1v0.1l-0.2,0.2v-0.1l-0.5,0.2H258v0.1h-0.4c-0.2,0-0.3-0.4-0.3-1.2
		l0.4,0.2h0.2V292l-0.1-0.4l0.2-0.2h-0.1l-0.3,0.2l-0.2-0.3l0.1-0.1l-0.3-0.2c0,0.3,0.1,0.5,0.1,0.5l-0.1,0.2
		c-0.2,0-0.2-0.6-0.2-1.7c0-1.3,0.1-1.9,0.2-1.9l-0.1-0.1v-0.1c0.1-1.6,0.8-3.4,2-5.3C261.9,280.2,264.7,278.9,267.9,278.9z
		 M257.9,293.6L257.9,293.6l0.4,0.1v0.1l-0.2,0.2H258L257.9,293.6z M258.5,294.6L258.5,294.6l-0.1,0.2l0.8,0.5v-0.2
		c0-0.2-0.1-0.3-0.2-0.5l-0.1,0.1h-0.1L258.5,294.6z M258.6,289.4v0.2l0.2,0.1v-0.1L258.6,289.4z M258.7,291.4v0.1h0.3l-0.2-0.1
		H258.7z M258.8,290.4v0.2l0.2-0.1v-0.2L258.8,290.4L258.8,290.4L258.8,290.4z M260.3,289.6L260.3,289.6l0.1,0.3
		c-0.2,0.1-0.4,0.2-0.7,0.2c0-0.1-0.1-0.2-0.3-0.2l-0.1,0.1v0.1c0.4,0,0.6,0.3,0.6,0.8h-0.1c-0.1,0-0.2,0.1-0.2,0.2
		c-0.4,0.2-0.6,0.3-0.6,0.4h0.1c0.5-0.1,0.7-0.3,0.7-0.5l0.5-0.1v0.1l0.1-0.1h0.2l-0.1,0.1v0.1l0.1,0.1l0.1-0.1h0.1l0.2,0.2
		l-0.1,0.1h0.4v-0.1l-0.1-0.2h0.1v0.2h0.2l-0.1-0.1v-0.1h0.1l0.3,0.2l0.2-0.1l-0.1-0.1V291l0.1-0.4h-0.5v-0.1h-0.1v0.1
		c-0.4-0.1-0.5-0.2-0.5-0.4v-0.1l-0.1,0.1l0,0C260.6,290,260.4,289.8,260.3,289.6L260.3,289.6z M259.1,286.3v0.2h0.2v-0.2H259.1z
		 M259.1,288.8v0.2l0.2,0.2l0.1-0.1v-0.3H259.1z M259.4,292L259.4,292l0.2-0.2h-0.1L259.4,292z M259.7,291.4l-0.1,0.3
		C259.8,291.7,259.8,291.7,259.7,291.4L259.7,291.4L259.7,291.4z M259.7,297.4v0.2h0.1l0.2-0.1l-0.1-0.2h-0.2V297.4z M259.8,289.1
		v0.2h0.2v-0.1L259.8,289.1z M260.3,293.8l-0.1,0.2l0.1,0.2h0.1l0.1-0.2l0.2,0.1v-0.2L260.3,293.8z M260.2,297.5v0.2l0.1,0.1h0.1
		l0,0L260.2,297.5L260.2,297.5z M260.6,292.9l-0.2-0.1h-0.1v0.1l0.5,0.3h0.1l-0.1-0.4l0.2-0.2h-0.1L260.6,292.9z M260.7,296l0.3,0.1
		l0.1-0.2h-0.3L260.7,296z M261.7,293.3c0,0.2,0,0.2-0.1,0.2l-0.3-0.1v0.1l-0.1-0.1h-0.1l-0.3,0.5l0.1,0.3h0.1
		c0-0.2,0.1-0.4,0.4-0.5h0.2v0.1h-0.2l0.2,0.4h0.4l0.1-0.1h0.1l0.3,0.3h0.1c-0.3-0.5-0.6-0.8-0.7-0.8v-0.4h-0.2V293.3z M260.8,298.2
		l0.2,0.1l0.1-0.1v0.1l0.2-0.1l-0.1-0.2H261L260.8,298.2z M261,296.9l0.1,0.3h0.1l0.2-0.1v-0.2l-0.1,0.1l-0.1-0.1H261z M261.1,288
		v0.1h0.2V288H261.1z M261.3,282.9v0.2c0.2-0.1,0.4-0.2,0.4-0.4h-0.1L261.3,282.9z M261.5,298.7L261.5,298.7l0.2-0.2v-0.1
		L261.5,298.7z M261.6,292.6l0.1,0.2l0.3-0.3h-0.2L261.6,292.6z M261.8,298.3l0.2,0.2h0.2l0.1-0.3h-0.1L261.8,298.3z M262,299.6
		L262,299.6c0.1,0.3,0.3,0.5,0.5,0.5h0.4V300l-0.4-0.1l-0.2,0.1l0.1-0.1v-0.2L262,299.6z M262.1,292.5L262.1,292.5l0.1,0.2l0.4-0.1
		v-0.2h-0.1L262.1,292.5z M262.3,298.5v0.2h0.2v-0.2H262.3z M262.7,287.8c0,0.1-0.1,0.2-0.2,0.2v0.1h0.1l0.3-0.3H262.7z
		 M262.6,298.8L262.6,298.8v0.1v0.1l0.2,0.2l0.2-0.1v0.2h0.1c0-0.1,0.1-0.2,0.3-0.2l0.1-0.2v-0.1l-0.2,0.1l-0.5-0.1H262.6z
		 M262.6,297.4v0.3h0.1l0.1-0.3H262.6z M263.1,300.3l-0.1,0.2h0.1l0.3-0.2v-0.1h-0.1h-0.2V300.3z M263.1,294.9L263.1,294.9l0.2,0.1
		v-0.1H263.1z M263.5,299.6l-0.1,0.2h0.1V299.6L263.5,299.6z M263.4,296.4L263.4,296.4l0.1,0.2l-0.1,0.2l0.1,0.1h0.2
		C263.6,296.6,263.6,296.4,263.4,296.4z M264,296.7l-0.4,0.4l0.7-0.2v-0.1L264,296.7z M263.8,295.5v0.2l0.1,0.2l0.2-0.2L263.8,295.5
		L263.8,295.5z M263.8,297.6v0.3c0,0.3,0.1,0.4,0.4,0.5h0.2v-0.3L263.8,297.6z M264.7,300.1L264.7,300.1l0.1,0.2h0.2v-0.1
		L264.7,300.1z M265.2,300.5L265.2,300.5l-0.1,0.1h0.2l-0.1,0.1v0.1h0.3v-0.2L265.2,300.5z M265.6,300.1l0.1,0.4h0.3v-0.2
		c-0.1,0-0.2-0.1-0.2-0.2H265.6z M266.2,297.4L266.2,297.4l0.1,0.2h-0.1v0.2l0.2-0.2l0.1,0.1v-0.1L266.2,297.4L266.2,297.4z
		 M267.5,301.2c0.3,0,0.5,0.1,0.5,0.4l0.1,0.2H268l-0.6,0.1v-0.1l-0.2-0.3l-0.1,0.1H267v-0.2L267.5,301.2z M267.9,300.4L267.9,300.4
		l0.1,0.6l-0.1,0.1v0.1l-0.2-0.1C267.8,300.7,267.8,300.4,267.9,300.4z M269,278.9c2.4,0,4.7,0.9,7,2.7c1.4,1.5,2.2,2.7,2.4,3.7
		l-0.2,0.2v0.2l0.2,0.2v-0.5c0.1,0,0.3,0.4,0.5,1.3h-0.2v-0.2c-0.1,0-0.2,0.2-0.2,0.5c-0.1,0-0.1,0.1-0.1,0.4l-0.1,0.1h-1.1
		l-0.5-0.5h-0.1l0.1,0.1v0.4l-0.4,0.2h-0.4v-0.2h-0.2v0.2l0.2,0.3h-0.1v-0.2h-0.1v0.4l-1-0.3v0.2c0,0.1,0.3,0.2,0.9,0.2
		c0,0.1,0.2,0.2,0.5,0.3l0.2-0.1l0.1,0.1v-0.1l0.1,0.1h0.1l0.3-0.1l0.3,0.1l0.2-0.2c-0.2,0-0.2-0.1-0.2-0.4l-0.3,0.1l-0.2-0.1v-0.2
		c0-0.3,0.1-0.5,0.4-0.5l0.2,0.4l-0.1,0.1v0.2h0.1c0-0.1,0.2-0.2,0.5-0.3l0.1,0.1v0.2c-0.1,0-0.2,0.1-0.2,0.4h0.2v-0.2
		c0.2,0,0.2-0.1,0.2-0.3l0.1-0.1v-0.1h-0.1v-0.1h0.1l0.1,0.1h0.1l0.8-0.4l0.2,0.2l-0.1,0.2c0.1,0,0.2,0.3,0.2,0.9l-0.2,0.4l-0.1-0.1
		h-0.4c0,0.1-0.1,0.2-0.4,0.2l-0.1,0.1v0.1l0.5-0.2l-0.1,0.1v0.1h0.4l0.2,0.2l-0.1,0.1v0.1l0.2,0.1l-0.1,0.1l0.1,0.4l-0.1,0.5
		c-0.1,0-0.2-0.1-0.2-0.3h-0.3v0.3l-0.1,0.4l-0.3-0.1l-0.2,0.1l0.1,0.2l0.3-0.2v0.2h0.2l0.1-0.1h0.1v0.1l-0.1,0.2h0.4
		c0,2.1-0.9,4.3-2.6,6.7c-2.3,2.3-4.9,3.5-7.7,3.5v-0.2c0.1,0,0.2,0,0.2-0.1h-0.3v-1.1h0.1v-0.5h0.2l0.2,0.2h0.1l0.3-0.2l-0.5-0.6
		V299c0-0.6,0.2-0.9,0.6-0.9l-0.1-0.1l0.1-0.1v-0.3l-0.4,0.1v-0.2l0.7-0.2v0.1l-0.1,0.1v0.1h0.2c0-0.2,0.4-0.5,1.3-0.9
		c0.6-0.5,0.9-0.9,0.9-1h0.5v-0.1l-0.1-0.1v-0.1l-0.1,0.1h-0.1v-0.1c0-0.1,0.2-0.3,0.7-0.5v-0.2l-0.1-0.4l0.1-0.1h0.2l0.1,0.1
		l0.1-0.1h0.1c0.1,0,0.2,0.1,0.2,0.2h0.1v-0.3h-0.4c-0.1,0-0.2-0.1-0.2-0.2l0.1-0.5h0.1l0.2,0.2h0.1l-0.1-0.1c0-0.3,0.1-0.4,0.2-0.4
		v-0.3c-0.2,0-0.3-0.1-0.3-0.2v-0.5l0.1-0.1v-0.1l0.1,0.1h0.2c0-0.1,0.1-0.1,0.2-0.1l0.1-0.4h-0.1v0.2l-0.2,0.2h-0.2v-0.1
		c0-0.6,0.1-0.9,0.2-0.9h0.2v-0.1l-0.2-0.4V290h0.2v-0.1l0.1,0.1h0.1c0.1,0,0.2-0.1,0.2-0.2h0.1v0.2h0.8l0.3-0.1l0.9,0.2
		c0.2-0.3,0.4-0.4,0.6-0.4l0.2,0.1h0.1v-0.1c-0.2,0-0.2,0-0.2-0.1h0.1l-0.2-0.3c-0.1,0.1-0.3,0.3-0.9,0.4l-0.1-0.2h-0.2l-0.1,0.1
		h-0.1l-0.1-0.1v-0.1l0.2-0.5l-0.5,0.2h-0.2l-0.1-0.1l-0.1,0.1h-0.1c-0.1-0.1-0.4-0.2-0.9-0.2l-0.2-1c0.1,0,0.1-0.1,0.1-0.3l0.4-0.1
		l-0.9-0.8l0.1-0.1v0.2l-0.9-1.6c-0.8-0.9-1.8-1.6-3-2c-0.6-0.1-0.9-0.2-0.9-0.3V279L269,278.9z M269,298.2h0.2l-0.1,0.4H269
		l-0.1-0.2v-0.1L269,298.2z M268.9,299.2h0.1v0.6l-0.1,0.1V299.2z M270.1,300.7L270.1,300.7l-0.1,0.2l0.2,0.1v-0.2L270.1,300.7z
		 M270.1,298.9L270.1,298.9l0.2,0.2v-0.2H270.1z M271.8,299.9L271.8,299.9l0.2,0.1l0.1-0.2H272L271.8,299.9z M273.4,296.2l0.1,0.2
		h0.1l0.2-0.2V296l-0.2-0.1C273.5,296,273.4,296,273.4,296.2z M273.9,295.6l0.1,0.2h0.1l0.1-0.2v-0.2l-0.1-0.1
		C273.9,295.3,273.9,295.4,273.9,295.6z M274.2,289.3l0.5,0.2l-0.1,0.1v0.2l0.1,0.1v0.1l-0.1,0.1C274.3,290,274.1,289.8,274.2,289.3
		L274.2,289.3z M274.3,295.9L274.3,295.9l0.1,0.1h0.2v-0.1H274.3z M274.4,292.8L274.4,292.8l0.1,0.3h0.2l-0.1-0.3H274.4z
		 M274.4,294.6l0.2,0.2h0.1L274.4,294.6L274.4,294.6z M274.5,281.4L274.5,281.4c0.1,0.1,0.1,0.2,0.1,0.3h0.2v-0.3H274.5z
		 M274.8,290.8c0,0.1-0.1,0.2-0.2,0.2l-0.1-0.1h-0.1v0.1c0,0.1,0.3,0.2,0.9,0.3c0,0.2,0.1,0.2,0.2,0.2l0.1-0.1v-0.1
		c-0.2,0-0.2-0.1-0.2-0.3l-0.1,0.1h-0.1c-0.1,0-0.2-0.1-0.2-0.4h-0.2V290.8z M274.9,293.5l-0.1,0.3h0.2l0.3-0.1l-0.1-0.1v-0.1
		l-0.1,0.1L274.9,293.5L274.9,293.5L274.9,293.5z M275.4,295.5L275.4,295.5v0.2h0.2l-0.1-0.3L275.4,295.5z M275.9,291.7L275.9,291.7
		l-0.2-0.1l-0.1,0.1v0.2l0.1-0.1L275.9,291.7l0.3,0.2v-0.4h-0.1L275.9,291.7z M275.7,291.9L275.7,291.9l0.1,0.3l-0.1,0.1h0.2v-0.1
		L275.7,291.9L275.7,291.9z M276.1,288.7v0.2h0.1l0.1-0.2H276.1z M276.4,288.2L276.4,288.2l-0.1,0.2v-0.1L276.4,288.2z M276.5,292.1
		l0.1,0.2h0.2v-0.2H276.5z M277.6,285.8c0,0.1-0.1,0.2-0.4,0.2v0.1h0.3l0.5-0.2v-0.1h-0.1l-0.1,0.1L277.6,285.8L277.6,285.8z
		 M277.3,291.5L277.3,291.5l0.4,0.1l-0.2-0.1H277.3z M277.5,289.3L277.5,289.3l0.1,0.2l0.1-0.1h0.3c0.1,0,0.1,0.1,0.1,0.3l0.1,0.1
		h0.1l0.1-0.1l-0.1-0.5h-0.4L277.5,289.3z M278.5,289.9l-0.1,0.4l0.2,0.1l0.2-0.1l0.1,0.1v0.1l0.2-0.1v-0.3H279
		c0,0.2-0.1,0.2-0.2,0.2C278.6,290.3,278.5,290.2,278.5,289.9L278.5,289.9z M278.7,292.1l-0.1,0.2h0.2L278.7,292.1L278.7,292.1z"/>
</g>
<path class="st1" d="M241.1,217.8c-2.1-0.3-4.3-0.5-6.7,0c-1.9,0.4-3.1,1.1-4.8,1.7c-1.5,0.6-7.6,1.9-10.1,2.6
	c-4.6,1.2-6.4,1.9-10.8,1c-0.8,1-2.2,1.9-3.8,2.5c-1.3,0.5-1.3-0.1-2.1,1.1c-2.6,4.2-7.3,4.4-10.7,1.5c-1-0.8-0.8-0.4-2-1.1
	c-1.3-0.7-2.6-0.5-6.1-3.7c-1.2-1.1-2.2-2-3.2-3.3l-2.8-3.7c-0.4-0.9-1.1-1.7-1.6-2.7c-2-3.6-6-11.8-7.6-14.3c-0.6-1-1.2,0-2-2.3
	c-0.5-1.2-0.7-2.2-1.6-2.9c-0.5,1.8-0.8,3.9-1.2,5.7c-0.1,0.4-0.6,2.6-0.5,2.8c0.1,0.8,1.2,0.8,0.4,2.6c-0.9,2-1.7,2.5-1.4,4.5
	c0.1,1,0.5,2.8,0.5,3.3c0,0.6,0,2.7,0.5,3.1c0.2,0.3,0.4,0.6,0.6,1l0,0c0.6,0.9,1.2,1.8,1.8,2.8l-0.1,0.3c0.5,1,0.7,1.6,0.7,1.6
	c0.3,1,1,2.2,1,2.2s0,0.1,0.1,0.2h0.5c0.5,1,0.9,2.1,1.4,3.2l-0.3,0.7l1.4,4.1l0.5,0.1c0.3,1.2,0.6,2.3,0.9,3.6l-0.1,0.2
	c0.7,1.7,1,4.4,1,4.4l0.1,0.8c0.2,1.2,0.3,2.5,0.4,3.8l0,0l0.3,5.5l0,0v0.4c0,1.1,0,2.2-0.1,3.4v0.2l0,0l-0.4,4.8l-0.1,0.8l0.1,0.1
	c-0.2,1.3-0.3,2.7-0.6,4l-0.4,0.3l-0.2,1l-1,3.7l0.5,0.7c-0.3,1.3-0.7,2.6-1,3.9l-0.9,0.5l-1.3,4.1l0.5,1c-0.5,1.3-1,2.5-1.5,3.8
	l-1,0.3c-0.5,1.3-1.2,2.7-1.8,4l0.3,1c-0.6,1.2-1.2,2.4-1.9,3.6l-1,0.2c-0.6,1.1-1.4,2.5-2.1,3.7l0.1,1c-0.7,1.1-1.5,2.2-2.3,3.2
	l-1.3-0.1c-0.8,0.8-1.6,1.7-2.2,2.4v2c-0.8,1-1.7,1.9-2.6,2.8l-1.4-0.4c-0.7,0.6-1.5,1.3-2.3,2.2l-0.2,1.9c-0.9,0.8-1.9,1.6-2.8,2.3
	l-1.8-0.9c-0.1,0-0.2,0-0.3,0c-0.4,0.3-0.9,0.6-1.3,0.9c-0.1,0.1-0.2,0.3-0.2,0.4l-0.6,2.5c-1,0.6-2,1.2-3,1.8l-1.8-1.4
	c-0.6,0.3-1.1,0.6-1.7,0.8l-1,2.8c-1,0.5-2.1,0.9-3.1,1.2l-1.5-1.8c-0.6,0.2-1.1,0.4-1.7,0.5l-1.3,2.6c-1,0.3-2.1,0.5-3.1,0.6
	l-1.2-2.1c-0.6,0.1-1.1,0.1-1.7,0.2l-1.6,2.4c-1,0-2.1,0-3.1,0l-0.9-2.4c-0.6,0-1.1-0.1-1.7-0.2l-1.8,2.1c-1-0.2-2-0.4-3-0.6
	l-0.6-2.6c-0.5-0.2-1-0.3-1.6-0.5l-2,1.8c-0.9-0.4-1.9-0.8-2.8-1.2l-0.2-2.8c-0.5-0.3-1-0.5-1.4-0.8l-2.1,1.4
	c-0.9-0.6-1.7-1.2-2.5-1.8l0.1-2.9c-0.4-0.4-0.9-0.7-1.3-1.1l-2.2,1c-0.7-0.7-1.5-1.5-2.2-2.3l0.5-2.9c-0.1-0.2-0.3-0.3-0.4-0.5
	c-0.1,0.1-0.1,0.3-0.8-0.8c-0.1,0-0.2,0-0.2,0l-2,0.5c-0.6-0.9-1.2-1.8-1.8-2.8l0.8-2.8c-0.3-0.5-0.6-1.1-0.9-1.6l-2.3,0.1
	c-0.5-1-0.9-2.1-1.4-3.2l1.2-2.7c-0.2-0.6-0.4-1.2-0.6-1.9l-2.2-0.3c-0.3-1.2-0.6-2.3-0.9-3.6l1.5-2.5c-0.1-0.7-0.3-1.3-0.4-2
	l-2-0.8c-0.2-1.3-0.3-2.5-0.4-3.8l1.7-2.3c0-0.7-0.1-1.4-0.1-2.1l-1.9-1.2c0-1.3,0-2.6,0.1-3.9l1.9-2c0-0.7,0.1-1.4,0.2-2.2
	l-1.4-1.2c0.2-1.3,0.3-2.7,0.6-4l2.1-1.6c0.1-0.7,0.3-1.4,0.4-2.2l-1.4-2c0.3-1.3,0.7-2.6,1-3.9l2.2-1.2c0.2-0.7,0.5-1.4,0.7-2.1
	l-1.1-2.3c0.5-1.3,1-2.5,1.5-3.8l2.3-0.8c0.3-0.7,0.6-1.3,0.9-2l-0.7-2.5c0.6-1.2,1.2-2.4,1.9-3.6l2.3-0.3c0.4-0.6,0.8-1.2,1.1-1.9
	l-0.4-2.7c0.7-1.1,1.5-2.2,2.3-3.2l2.2,0.1c0.4-0.6,0.9-1.1,1.3-1.7v-2.8c0.8-1,1.7-1.9,2.6-2.8l2.1,0.6c0.5-0.5,1-0.9,1.5-1.4
	l0.3-2.9c0.9-0.8,1.9-1.6,2.8-2.3l2,1c0.5-0.4,1.1-0.8,1.6-1.1l0.7-2.9c1-0.6,2-1.2,3-1.8l1.8,1.4c0.6-0.3,1.1-0.6,1.7-0.8l1-2.8
	c1-0.5,2.1-0.9,3.1-1.2l1.5,1.8c0.6-0.2,1.1-0.4,1.7-0.5l1.3-2.6c1-0.3,2.1-0.5,3.1-0.6l1.2,2.1c0.6-0.1,1.1-0.1,1.7-0.2l1.6-2.4
	c1,0,2.1,0,3.1,0l0.4,1.1c0.7-2.1,1.9-3,3.9-2.4l7.3-28.3c-0.8,0-2.2,0.2-3.1,0.1c-1.9-0.2-8.6-0.5-9.8-1.5
	c-0.5-0.4-0.5-0.5-0.6-1.1l-14.7,9.3c-0.7,0.4-1.6,1.1-2.3,1.4c-1.4,0.5-1.4-0.7-2.3-0.9c-1-0.2-2.6-0.5-4.7,0.4
	c-4.3,1.6-7.9,4.4-12.3,5.9c-1.2,0.4-1.9,0.6-2.7-0.1c-0.7-1.3,5.2-7.4,6.3-8.4c7.6-7.9,18.7-15.8,26.5-18.2
	c6.4-2,10.9-1.6,17.3-1.4c0.1,0,1-5.2,1.7-8.1c-1.4,0-2.5,0.8-3.1,0.4c-0.4-0.2-1.7-1.7-1.9-2.1c-2.6,0.3-7.2,3.6-9.2,1.6
	c-1.1-1-2.6-1.7-3.2-2.9c-0.7-1.5-0.2-3.5,0.5-4.7c3.5-5.8,11.5-3.5,13.9-3.7c1.5-0.1,1.1-1.5,5.2-0.8c0.8-1.1,1.6-2.1,3.1-2
	c0.2-0.7,0.6-0.8,1.1-1.3c2.2-2.4,3-4.3,4.7-6.7c1.9-2.7,4.7-4.2,6.6-7c1.6-2.4,4.9-3.4,7.3-6.4c0.9-1.1,1.3-1.3,2.3-2.2
	c2.9-2.6,1.6-1.8,3.2-3.7c0.7-0.9,0.3-0.5,0.7-1.5c0.6-1.5,3.5-3.5,4.6-4.5c1.2-1.2,1.8-2.7,2.6-4.2c0.3-0.5,0.5-1,0.6-1.5l-3.6-2.7
	c-0.8-0.5-0.5-0.6-0.3-1c-1.5-0.2-3.3-2.6-4.2-1.4c-0.3,0.3-0.5,1-0.1,1.6c0,1.9-1.5,1.7-1.5,1.7l-0.1-1c-0.3-3.2-0.6-12.9-0.5-15.5
	c0.1-1.9,0.2-3.1,0.5-4.9c0.7-4.7,4.7-7.3,8.9-8.4c0.9-0.2,1.5-0.3,2.4-0.5c1-0.2,0.7-0.8,1.8-0.9c0.8,0.4,0.8,1.2,2.1,1.5
	c2.2,0.5,3.7,0.2,5.8,1.3c0.4,0.2,0.8,0.4,1.1,0.7c1.7,1.2,2.9,2.7,4.2,4.5c0.7,0.9,1.5,0.4,2.3,1.4c2.5,2.8,3.5,8.8,3.4,13.1
	c-0.1,3.9-0.8,7.7-1,11.6c0,0.5,0.3,2,0.6,2.4c0.5-4.1,1-9,1.4-13.6c0.6-8,6.5-8.3,6.8-6.9c-0.3,1.3-1.9,2.7-2.5,4.6
	c-0.7,2,0.6,3.7,2.7,4c1.1-1.7,1.4-4.2,2.9-6.5c1-1.6,2-1.8,2-0.3c0,0.8-0.4,1.6-0.6,2.3c-0.4,1.4-0.4,1.6-0.5,3.3
	c-0.3,4.4-4,6.2-2.6,12.2c0.3,1.1,1.7,4.5,2.7,4.8c-0.9-7.8,2.2-10.2,2.2-16.5c0-1.1-0.1-2-0.1-3c-0.1-1.1,0-2,1-2.2
	c1,1.1,1.7,3.7,2,5.5c0.3,2.2,0.4,5,0,7.1c-0.8,3.8-3.4,7.6-2.5,12.4c0.6-0.6,2.2-3.8,2.6-4.5c4.9-10.1,0.5-14.7,1.8-17.1
	c0.7,0,0.8,0,1.1,0.5c1.3,2.7,1.6,6,1.3,9.1c-0.2,1.9-0.5,3.4-1.1,5.1c-0.5,1.5-1.3,2.9-1.7,4.4c4-1,8.9-3.4,10.6,1.6
	c0.4,1.1,0.7,2.6,0.8,4c0.5-0.1,0.9-0.5,1.3,0.1c1,1.5,0.3,4.6,0.2,5.6c0.9,0.6,1.7,1.7,3,2c-0.4-1.9-0.2-2.6-1.3-4.2
	c-0.7-0.6-0.9-1.4-1-2.2c0.4,0.2,1.9,1.8,2.2,2.2c1.2,1.6,1.6,3.7,2.3,5.5c0.3,0.8,0.8,0.4,1.3,1.9c0.8,2.3,1.3,5.5,1.3,8.1
	c0,1-0.1,1.4-1.1,1.8c-2.4-2.4-8.4-3.1-12.4-2.1c-2,0.5-10.7,2.7-11.6,3.4c1.7-0.1,3.6-0.6,5.6-0.7c3.8-0.2,7.8,0.3,11.4,1.1
	c1.6,0.3,3.5,1,5,1.2c0.3,0.5,0,0.4,0.8,1.1c-1.3,1.5-4,4-5.6,5.2c-3.3,2.4-5.8,2.5-6.7,7.3c-0.3,1.5-0.3,1.6,0.3,2.7
	c2.5-0.2,5.8-5.5,7.3-7.5c1.2-1.7,3.7-4.4,5.2-5.9c0.8-0.7,0.9-1.5,2.2-1.5c2.3,2-1.3,6.2-2.3,7.5c-3.2,3.9-8,8-12.9,9.6
	c-6,2.1-6.3-1.7-7.2-2.8c-0.3,0.3-0.7,0.6-1,0.9l1,0.9c2.8,1.8,1.4,0.7,2.6,2.4c4.8-1.2,9.5-1.8,14-3.3l4.6-1.9
	c3.9-1.5,14.6-7.2,18.7-9.2c5.1-2.5,6.8-4.1,12.6-4.6c1.1-0.1-0.3,2.5-1.3,3.8l-4.2,5.7c-0.6,0.8-1.7,2.1-2.1,2.9
	c0.5,0.9,1.5,1.8,1.4,3c-0.1,0.8-0.5,3.1-0.7,3.9c-0.4,1.2-1.1,2.1-1.7,2.9s-1.1,2-1.6,3c-0.4,0.7-2.3,3.9-3.9,6.8l0,0
	c-0.6,1-1.1,2.1-1.6,2.9c0.4,0,1.1,0.1,1.5,0l0.2,0.6l0.2-0.9c0.7-0.1,3.6-0.1,4.3,0l0.3,1.4l0.4-1.1c0.4,0.1,1.4,0,1.4,0
	c0.9,0.2,1.7,0.4,2.6,0.7l0.2,2.2l0.7-1.3c0.3,0.1,1.1,0,1.1,0c0.8,0.4,1.7,0.9,2.5,1.5l-0.1,2.8l1.2-1.4c0.2,0.1,0.8,0,0.8,0
	c0.8,0.7,1.5,1.4,2.3,2.1l-0.5,3.2l1.7-1.3c0.1,0.1,0.6,0,0.6,0c0.7,0.9,1.3,1.8,2,2.7l-1,3.1c0,0.1,0.1,0.1,0.1,0.2l1.9-0.9h0.3
	c0.6,1,1.1,2.1,1.6,3.2l-1.3,2.7c0,0.1,0.1,0.2,0.1,0.4l2.1-0.4h0.2c0.4,1.2,0.8,2.4,1.2,3.6l-1.7,2.3c0,0.1,0.1,0.3,0.1,0.4
	l2.3,0.2c0.3,1.3,0.5,2.5,0.7,3.8l-1.9,1.8c0,0.2,0,0.3,0.1,0.5l2.3,0.8c0.1,1.3,0.2,2.6,0.2,3.9l-2.1,1.2c0,0.2,0,0.3,0,0.5
	l2.1,1.5c0,1.3-0.1,2.6-0.3,3.9l-2.3,0.5c0,0.2,0,0.3-0.1,0.5l1.9,2c-0.2,1.3-0.5,2.5-0.8,3.7h-0.1l0,0l-2.2-0.1
	c0,0.1-0.1,0.3-0.1,0.4l1.6,2.5c-0.4,1.2-0.8,2.3-1.2,3.4h-0.3l-2.1-0.7c0,0.1-0.1,0.2-0.1,0.3l1.3,2.9c-0.5,1-1.1,2-1.7,3
	c0,0-0.4-0.1-0.4,0l-1.9-1.1l-0.1,0.1l0.9,3.2c-0.6,0.9-1.3,1.7-2,2.4c0,0-0.6-0.1-0.7,0l-1.5-1.4l0.5,3.1c-0.7,0.7-1.5,1.3-2.3,1.8
	c0,0-0.7-0.1-0.9,0l-1-1.4v2.5c-0.8,0.4-1.7,0.8-2.5,1.1c0,0-0.9-0.1-1.2,0L272,240l-0.2,1.8c-0.9,0.2-1.7,0.3-2.6,0.4
	c0,0-1,0-1.5,0l-0.3-1l-0.2,1c-0.5,0-1.7,0-1.7,0c-0.9-0.1-1.9-0.2-2.8-0.4l-0.2-0.6c-0.6-0.2-1.1-0.4-1.7-0.7l-0.3,0.7
	c-0.9-0.3-1.8-0.7-2.7-1.1v-1.3c-0.3-0.2-0.6-0.4-0.9-0.6c-0.1-0.1-1.2,0.8-1.2,0.8c-0.9-0.5-1.7-1.1-2.5-1.8l0.2-2.1
	c-0.2-0.2-0.3-0.4-0.5-0.5c-0.1-0.1-1.6,0.9-1.6,0.9c-0.8-0.8-1.5-1.6-2.3-2.4l0.7-2.7c-0.1-0.2-2.3,0.6-2.3,0.6
	c-0.7-0.9-1.3-1.9-1.9-3l1.2-2.9c-0.1-0.1-2.6,0.4-2.6,0.4c-0.5-1.1-1-2.2-1.5-3.4l1.6-2.5c-0.1-0.1-2.6-0.3-2.6-0.3
	C241.3,218.7,241.2,218.2,241.1,217.8L241.1,217.8z M133.5,218.2l0.3-1.1c-17,1.7-33.3,20.2-37.2,42.9c-4,23.7,7.1,43,24.8,43
	s35.4-19.3,39.5-43c1.6-9.5,0.8-18.3-1.9-25.4c0-0.1-0.3,1.1-0.6,2.9c2,6.5,2.5,14.2,1.1,22.5c-3.7,23-20.7,41.8-37.9,41.8
	S93.7,283.1,97.5,260C101.2,237.8,117,219.7,133.5,218.2L133.5,218.2z M133.1,219.6c-14.5,1.6-28.6,18.6-32,39.4
	c-3.6,21.8,5.9,39.5,21.2,39.5s30.6-17.7,34.3-39.5c0.8-4.8,1-9.4,0.6-13.7c-0.6,3.2-1.1,6.1-1.2,6.8c-0.3,2-0.7,3.7-2.7,3.8
	c0.1,1.1,0,1.6-0.4,2.5c-0.1,0.3-0.3,0.8-0.5,1c-0.5,0.5-0.8,0.2-1,0.6c-0.3,0.7-0.1,1.6-0.5,2.2c-1.1,0.3-2.2-0.2-3.8,0.2
	c-1.2,0.4-1.7,0.9-2.7,1.4l-2,0.6c-3.7,9.2-11.1,15.9-18.6,16.3c-0.1,0.1-0.2,0.1-0.2,0.1s-0.3-0.1-0.5-0.1l0,0
	c-8.4,0-14.1-8.1-13.8-18.8c0-0.3,0-0.6,0-0.9c0.8-9,4-14.7,6.7-18.3l0,0c3.7-4.8,8.6-8.1,13.6-8.6L133.1,219.6L133.1,219.6z
	 M132.2,265.2c0.4,0.3,1.8,1.5,2,1.9c0.6,1.1,0.3,2.2-0.6,2.9c-0.5,0.4-2.1,0.8-2.9,1.1c-1.4,0.5-0.4,1.1-2.7,0.2
	c-5.2-2.1,0.1-6.3,0.8-6.1C130.7,265.6,130.4,265.6,132.2,265.2L132.2,265.2z M121.7,260.6c-0.5,1.8,1.6,3,1.7,5.2
	c0.3,4.4-6,6.5-4.8-1.7C119.2,260.4,119.2,259.9,121.7,260.6L121.7,260.6z M141.3,254.9c0.5-0.1,1-0.1,1-0.2
	c0.5-0.3,2.3-4.6-1.6-5.6c-0.9-0.2-3,0-3.7,0.3c-0.9,0.4-3.5,2.3-4.4,5.2c-0.5,1.5-0.7,3.6-0.7,5.3c0,2.5,1.1,5.8,3.7,6.3
	c0.9,0.2,1.9,0.1,2.9-0.1l0,0c1.3-0.4,2.2-0.7,2.8-1.1c0.3-0.2,0.2-0.3,0.6-0.8c0,0,0,0,0-0.1c-0.6-0.5-3.1-0.5-4.7-3.7
	c-1.2-2.4-1-4.7,1.6-5.4C139.2,255.1,140.4,255,141.3,254.9L141.3,254.9L141.3,254.9z M123.4,248.4c-0.1,2.4-0.4,4.8-1.7,6.2
	c-0.6,0.7-1.5,1.1-2.4,1.6c-1.7,0.9-2.8,2-2.7,0.2c0-0.7,0.2-2.1,0.5-2.5C118,252.4,121.3,249,123.4,248.4L123.4,248.4z
	 M158.1,236.4c1.4-7.6,2.8-15.1,2.8-15.1c0.5-2.1,1-6.8,1-6.8c0.3-2.9-0.5-7.1-0.8-7.8c-1.1-2.8-3.5-4.5-4.1-4.6
	c-1.8-0.4-2.8-2-4,3.5l-3.5,17.7l0,0l-0.5,2.3l0,0l-4.8,24.2h3.1c0.7,1.4,0.2,2.5,0.5,3.9c0.2,0.7,0.8,0.5,1.6,0.5
	c4.1,0,3.6,2.3,4.9,0.6c0.3-0.4,0.6-1.4,0.8-2.6c0.2-1,0.8-4.4,1.6-8.7l0,0L158.1,236.4L158.1,236.4L158.1,236.4z M134.9,248.2
	l1.2-6c1.4,0.3,3.6,6.1,3.6,6.2c-0.7,0-2.2,0.3-2.6,0.3C136.7,248.6,135.6,248.3,134.9,248.2L134.9,248.2z M151.3,228
	c0.8-5.3,2.3-16.3,4.4-19l0.1-0.1l0.2-0.3c2.1,0,3.8,0.6,4.5,2.2c0.7,1.5,0.5,3.8,0.2,5.4c-0.8,4.8-4.8,28.3-5.8,30.3
	c-0.8,0-2-0.5-2.8-0.7c-4.2-0.9-4.9,0.5-3.6-4.9c0.9-3.7,1.7-7.2,2.3-11c0.1-0.4,0.2-1.1,0.3-1.8l0,0L151.3,228L151.3,228z
	 M141.4,220.5l-3.7,15.7c4,2.3,5.7,6,6.3,9.8l0,0h0.3l4.2-21.1C146.4,222.9,144,221.4,141.4,220.5L141.4,220.5z M128.1,241.4
	c0,0-1,4.7-1.1,4.6c-1-0.8-2-1.8-2.3-2.6C124.2,241.8,126.4,241.4,128.1,241.4L128.1,241.4z M279.2,200.9c-1.2,0.2-2.4,0.4-2.9,0.5
	c1.7,3.8,0.6,12.3-3.6,13.4c-1.7,0.4-3.2-0.4-4.7-0.7c0.3,0.5,0.7,0.9,1.1,1.3c0.4,0.4,0.8,0.7,1.2,1.2c0,0,0,0,0.1,0.1
	c-0.3,0-0.6,0-0.8-0.1l0.1,0.1c-4.6-0.5-8.7-4.4-12.7-8.6l-2.4,3.6c1.9,9,6.5,15.6,13,16.1c7.8-0.6,13.4-11.9,11.9-24.9
	C279.4,202.1,279.3,201.5,279.2,200.9L279.2,200.9z M182.8,218.1c-2.4-3.3-12-19.2-12-19.2l0.7-0.3c1.8-0.4,3.1-0.3,4.8-0.4
	c1.2-0.1,1.1-0.5,1.6-0.7s1.6-0.9,2.1-1.3c0.9-0.5,1.8-1,2.7-1.4c0.4,0.4,7.6,5.4,8.5,5.7c-0.2,1.1-0.7,2.3-1,3.5
	c-0.4,0.2-0.7,0.1-1.1,0.6c-0.5,0.7-1,2.5-1.6,3.1c-1.2-0.5-2.3-4-4.7-1.4c-1.5,1.6-0.3,4,0.6,5.9c0.9,2.1,3.7,7.7,4.3,10.5
	C187.8,223,184.3,220.3,182.8,218.1L182.8,218.1z M141.7,219c2.6,0.8,5,2,7.1,3.7l0.3-1.6c-2.2-1.5-4.6-2.7-7.1-3.4L141.7,219
	L141.7,219z M185.2,187.5c0.7,1.9,1.9,4,2.4,4.5c0.7,0.7,5.1,4.3,5.7,4.6l2.3-3c2.1-2.7,5.6-6.3,8.8-7.6c4.2-1.6,6.3,0.4,9.5-0.5
	c12.2-3.3,5.9,4.7,0.8,7.4c-10.4,5.5-9.5,11.9-9.3,23.3c0.6,0.4,1.5,1.2,1.9,2.1c0.7,1.5,0.2,2.2,0.5,3.6c1.1,0,0.8-0.6,2.1-1.9
	c1.7-1.8,1.1-0.5,2.4-0.3c-0.4-0.9-0.8-1-1.5-1.6c-0.4-0.3-0.5-0.5-0.9-0.7c-0.7-0.4-0.7-0.2-0.6-1c1.1-0.5,2.7,0,3.9-1.1
	c3.2-3,9-0.5,12.3-2.5c-0.2-0.9-0.6-1-1.3-1.5c-13.7-10.4-0.2-26.3,10.1-15.6c-0.1-1.3-1.1-5-1.9-5.5c-0.5-0.3-2.1-0.5-2.8-0.8
	c-2.5-1-9.9-6.4-9.6-9c0.9-0.3,2.2,0.8,3.1,1.5c1.8,1.3,7.3,5.6,8.5,6l-8-6.3c-1.4-1-2.9-1.9-4.3-2.9l-4.3-3c-1.9,1.7-3.6,9-9.5,5.9
	c-2-1.1,4-2.3,5-3.1c0.5-0.4,1.9-1.8,1.8-2.7c-0.9,0.3-1.5,0.4-2.1-0.2c0.8-2,10.4-5.5,6-8.1c-1.1-0.7-2.4-1.4-3.5-2.1
	c-0.5,0.4-0.7,0.7-1.3,1.2c-1.5,1.1-3.7,1.4-5.2,2.2c-3,1.7-3.3,6.5-3.2,6.8c1.4,1.6,3.3-0.3,4.6,0.4c0,0.7-0.5,1-0.8,1.3
	c-1.1,1-1.8,2-3.6,3c-3.1,1.7-3.4,0.7-5.6,3.3c-2.1-0.3-5.5-2.8-7.1-3.6c0.3,1.6,1.6,6,1.3,7.3c-0.8,0-0.7-0.1-1-0.7
	c-0.9-1.8-2.1-5.6-2.4-7.5c-0.1-0.7,0-0.8-0.5-1.2c-0.4,0.6,0.1,1.8,0.3,2.4c0.2,0.9,2.2,6.9,1.7,7.3c-1.1,0.4-1.9-3.4-2.3-4.6
	c-0.6-1.9-1-3.7-1.3-5.8l-0.7-0.3l3,11.6c-1.3,1.1-1.8,0.3-2.3-0.8c0-0.1-0.1-0.1-0.1-0.2l-2.8-7.9c-0.3-1.3-0.6-2.7-0.7-4.3
	c-8.5-4.8-6.3-6.7-9.6-9.3c-0.7,1.1,0.2,1.9,0.7,2.4l5.4,6.4c1.2,1.4,2.3,2.8,3.3,4.5c0.6,0.9,1,2,1.4,2.9l1.2,3.4
	C184.7,186.3,184.9,186.9,185.2,187.5L185.2,187.5L185.2,187.5z M257.3,186.1l-0.8,8.3c-2,0-2.5-1.4-3.6-3c-0.7-1-2-2.1-2.9-2.7
	c-3,1.2-4.8-0.2-6.3,1.1c-0.6,0.6-1,1.5-2,1.8c-1.1,0.3-2.4,0-2.9-0.7c-1.4-1.9,2.4-3,3.6-3.4c1.7-0.6,3.1-2.3,4.6-3
	c-0.2-0.5-0.7-1-1.1-1.5c-1.1,0.5-1.7,1.1-2.6,1.8c-0.8,0.6-1.7,1.3-2.6,1.9c-5,3.1-5.3-0.3-4.3-1.5c1.1-1.4,3.8-1.4,5.4-3.5
	c1.1-1.5,1.9-3.3,3.9-2.3c0.8,0.4,0.6,0.5,1.2,1.1c0.6-0.8-1.2-0.4-1.2-4.1c-0.8,0.4-1,1.1-2,1.5c-1.1,0.5-1.7-0.1-2.1-1
	c0.5-0.6,1.4-1.1,1.3-2.4c-0.7-0.4-1.6-0.5-1.8-1.4c0.5-1,2.7-0.9,4-1c1.6-0.2,2.8-0.4,4.3-0.6c1-0.2,0.6,0.1,1.5-0.6
	c1.4-1.2,2.3-2.7,3.4-4.2c-0.6-0.4-0.6,0.1-0.7-0.8c-0.1-0.8,1.3-1.6,2-2.6c-1.3,0.3-5.6-1.7-7.2-2.2l-5.5-2c-0.9-0.3-1-0.3-1.3-1.3
	c-0.1-0.2,0.5-0.8,0.7-1.2c0.1-0.1,0.3-0.5,0.3-0.5l0.3-0.5c-1.1,0.4-2.4,2.9-3.2,3.9c-1.1,1.4-2.3,2.8-3.3,4.2
	c0.3,0.5,0.7,0.7,0.6,1.4c-0.1,0.4-0.6,1.1-0.8,1.3c-1.8,2-5.4,4-7.9,5.4c-5.5,3.2-5.6,3.5-6.8,1.5c-0.8-1.3-1.8-2.3-2.9-3.2
	l-0.3-0.2c0,0-0.1,0-0.1-0.1c-0.4,0.4-1.2,1.7-1.4,2.4c1.7,0.7,7.6,4.5,8.8,6c2,2.5,2.1,3.2,4.5,5.2c0.8,0.6,2,1.6,2.7,2.3
	c0.8,0.9,4.4,4,4.3,5.6c-0.5,0.4-0.5,0.2-0.9,0.3h-0.1c1.9,1.4,1,3.4,0.8,5.8c-0.1,1.1,0,2.3-0.3,3.3c-0.4,1-1,1.5-1.4,2.3
	c-0.2,0.5-0.2,0.9-0.5,1.3c-0.2,0.4-0.6,0.8-0.6,1.1c-0.2,0.7,0.9,1.5,0,2.7c-1,1.2-3.9,1.1-5.1,2.4c0.3,0.2-0.3,0,0.5,0.2
	c2.4,0.7,8.6-0.6,9.9-0.2c-0.1,0.7-0.9,1-1.6,1.4l-3.9,2.4c-0.7,0.3-1.6,0.5-2.1,1c0.9,0.4,2.6,0.1,3.7,0c2.3-0.2,1.4,0,3.3,0.5
	c1.8,0.5,5.6,0.8,7.5,0.1c-1.1-1.8-3.6-4.2,2.2-4.9c1.2-0.2,2.2,0.2,2.4-1c-2-0.1-5,1.3-5-0.9c1.4-1.2,4.9-0.9,6-1.6l0.5-0.5
	c0.8-2.5,2.1-3.3,4.7-3.2c-0.3-0.2-1.9-1.2-2.2-1.3c-1.3,1.6-15.8,9-18.3,7.5c-0.8-0.9,2.6-2.7,3.1-3.1c1.4-1.1,0.2-2.7,7.2-3.6
	c4-0.5,5.9-1.9,8.9-4c0.9-0.7,2.5-2.6,2.7-1.2c0.1,0.3,0.1,0.2,0,0.6c-0.2,0.8-1,1.7-1.4,2.2c4,1.6,7,1.2,10.6,0
	c0.2-0.2,0.4-0.4,0.6-0.5c2.7-1.2,5.1-2.6,7.8-3.6c0.2-0.1,0.4-0.1,0.6-0.2l0.6-0.4c-0.8-0.2-1.2-0.7-1.9-0.8
	c-0.5-0.1-0.9-0.2-1.3-0.3c-6.1-0.1-14,1.7-17.9,1.2l0.3-1.1c4.6-0.3,9.2-1,13.7-1.2c0-0.1,0.8-0.1,2.7,0c1.1,0.1,2,0.3,3,0.3
	c0.5,0,1.2,0,1.8,0c-2.2-8-6.1-13.4-11.6-13.9c-0.5,0-1,0.1-1.5,0.3C261.7,181.2,259.2,183.1,257.3,186.1L257.3,186.1z M217.2,203.6
	c-1.1,0.1,0.2,1.1-3.8,1.9c-2.4,0.5-3.9,0.4-3,2.1c-1.1,0-2.1,0.3-2.5,1.2c-0.6,1.7,0.8,4.4,3,2c0.8-0.9,0.5-1.4,0.9-2.3
	c1.5,0.1,3,1.7,3,2.3c0,1.9-3.4-0.5-3.6,1.8c0.8,0.9,4.3,0.7,5.9,0.7c1.6,0,5,0.1,4.9-1.5s-2.3-1.2-4.2-5.7
	C217.8,205.5,217.3,203.8,217.2,203.6L217.2,203.6z M270.1,211.1c-0.2-1.3,0-2.4,0.1-3.8c0.9,0,1.4-0.1,1.8,0.4
	C274.3,210.5,271,211.3,270.1,211.1L270.1,211.1z M267.4,206.4c-0.6-0.5-1-0.9-1.2-1.3c-0.4-0.7-0.7-0.8-1-0.2
	c-0.3,0.6-0.3,1.3-0.1,2.1c0.4,0.7,0.8,1.3,1.4,1.7l0,0c1,0.8,1.3-0.4,1.5-1.8l0,0C267.9,206.7,267.7,206.6,267.4,206.4L267.4,206.4
	z M147.2,201.2c1.3,0.1,2.4-0.1,3.3,0.8c0.7,0.7,0.8,1.5,0.3,2.4c-0.4,0.4-0.7,0.9-0.9,1.3c0.3,0.8,0,1.5,1.7,1.3
	c0.8-1.6,0.4-6.2,3.8-6.1c0,0,3.9-16.7,3.5-17.6c-0.4-1-2.1-1.8-2.4-2.8c-0.5-1.4,0.6-3.9-2.4-6.2L147.2,201.2L147.2,201.2z
	 M274.5,201.8c0,1.4,0.4,4,0,5c-0.7,0.1-1.1-0.4-1.6-0.8c0.1-1.3,0.3-2.4,0.4-4L274.5,201.8L274.5,201.8z M162.7,170.8l-6,29.6
	c-0.1,0.8-0.4,0.5,1,1.1c0.7,0.3,1.1,0.5,1.6,0.6c1,0.3,2.5,0.2,3.8,0.6c0.4-2.3,0.9-4.6,1.3-6.9c0.3-1.5,3.8-19.1,4.6-20.5
	c0.3,0.4,1.7,4.6,2.1,5.5c1.2,3.1,5.7,13.3,6.1,15.6c0.4-0.2,0.1,0,0.4-0.2l4.7-2.8c-0.5-1.1-7.5-9.3-12.6-20.4c0.2-2.2,1.8-4.8,0-6
	c-1.4-0.9-3.4-0.8-5.1-0.4c-0.7,0.2-1,0.3-1.2,0.3c-4.4-6-9-8.1-13.7-7.6c-3.1,0.3-6.3,1.8-9.5,4.1c-1.5,1-3.1,2.3-5,4l-0.2,0.2
	c1.1-0.6,7-3.4,9.1-3.6c7.1-0.9,9.8,0.2,12.5,1.6C158,166.2,161.6,168.3,162.7,170.8L162.7,170.8z M140.3,201.3
	c0.8,0.1,1.5,0.3,2.3,0.5l10.2-28.6c-1-0.9-3.2-1.9-4.8-2.2L140.3,201.3L140.3,201.3z M243.3,192.4c-5.5,1.2-5.7,3.4-3.1,3.9
	c1.4,0.3,2.7-1.1,4.1-0.8c0.7,0.1,1,0.7,1.5,1c0.7,0.4,1.3,0.3,2.2,0.4c1.3,0.1,2.9,1.3,3.8,0.5c0.3-0.3,0.7-1.1,0.5-1.7
	c-0.2-0.5-0.9-0.9-1.3-1.1C249.2,193.6,246,191.8,243.3,192.4L243.3,192.4z M241.5,170.2l1.4,1.2c-0.7-2.6-3.3-5.2-4.4-3.8
	c-0.6,0.7,0,1.3-3.6,4.2c-1,0.8-2.1,1.4-3,2.1c-1.1,0.9-0.8,3.1,0.8,3c1-0.1,2.6-1.5,3.2-2c1.5-1.2,1.2-1.2,3.4-1.7
	C240.8,172.7,241.8,172.2,241.5,170.2L241.5,170.2z M212.1,161.7c4.8,1.6,9.9,3.5,14.8,4.9c-0.3,0.3-4.9,3.6-6.6,2.8
	c-0.7-0.4-1.1-0.8-1.5-1.7c-0.4-0.9-2.6-2.4-3.5-3C213.7,163.4,212.1,162.8,212.1,161.7L212.1,161.7z M214.2,154.1
	c2.9,0.2,10.9,1,12.6-0.8l0.1,0.2c0.1,0.2,0,0,0.1,0.2c0.3,0.4,0.4,0.4,0.9,0.7c2.4,1.7,1.5,3.7,2.4,4.6c0.8,0.7,2.1,0.5,3.2,1.5
	c0.6,0.6,1.6,1.7,1.4,3c-2.9,0.2-4,0.9-6,2.1c-1.4,0.9-1.1,0.6-2.7-0.1c-1-0.5-1.7-0.8-2.7-1.2c-1.8-0.8-10-4.4-10.9-5
	c1.4,0.3,2.5,0.8,4.2,1.1c5,0.9,10.1,0.8,14.2,1.5c1,0.2,2.9,0.7,2.9,0.5c0.1-0.2-1-1.2-2.7-1.8c-4.4-0.8-16.6-1.6-18.2-3.6
	C212.3,156.2,213.8,154.6,214.2,154.1L214.2,154.1z M188.6,165.1c0.3-1.7,2-3.3,2.7-4.3c0.9,0,5.4,1.3,6,1.7
	c-0.5,1.1-2.1,1.9-3.5,2.4C191.9,165.5,190.8,165.5,188.6,165.1L188.6,165.1z M158.8,159.9c2.4-1.3,1.2-1.3,2.1-3.4
	c0.8-2,6.8-9.2,6.8-9.2c-0.7,3.5-1.9,6.7-2.6,10.3c-0.2,1.1-0.1,2.9-2.6,3.7c-1,0.3-1.5,0.8-2.3,0.1
	C159.7,160.9,159.3,160.4,158.8,159.9L158.8,159.9z M243.5,155.2c1-0.9,9.9-3.1,11.5-3.6c1-0.3,2.9-1.2,3.5-1.3
	c0.2,1.9,1.3,3.6,1,5.5c-0.3,1.9-1.5,3.1-2,4.6l-10.7-3.8C246.2,156.2,246.4,155.2,243.5,155.2L243.5,155.2z M166.6,159.3
	c0.6-3,1.6-7.3,2.4-10.6c0.6-2.4,0.9-4,1.7-4.6c1.6-1.3,2,0.7,2.8,1.6c-2,4.8-2.1,7.2,2.2,9.7c-0.3,1.1-0.6,0.8-2.5,1.7
	c-1.6,0.8-3,1.3-4.5,2.3C168,158.5,168,158.7,166.6,159.3L166.6,159.3z M147.5,148c0.7-2,1-2.9,1.3-3.9c0.8-2.3-1.2-0.6,0.9-4.1
	c0.9-1.4,0.6-1.2,2.9-2.4l15-6.2c1.5-0.9,3.1-0.7,3.2,0.8l-1.1,6.9c-0.3,2.3-1.4,4.3-2.5,6c-2.2,3.2-6.9,8.3-7.8,10.5
	c-0.4,0.9-0.3,1.4-0.5,2.1c-0.4,1.2-2.2,1-3.6,0.9l1-1.7c0.9-1.6,1.8-3.7,2.3-5.5c2.9-10.1,3.1-11.3-5.4-8.1
	C149.9,144.7,148.9,145.1,147.5,148L147.5,148z M146.9,156.7c-0.7,0-0.9-0.1-0.7-1.2c0.2-1,0.8-4.6,0.8-4.6
	C147.1,152.2,147.2,155.6,146.9,156.7L146.9,156.7z M177.4,155.2c0-0.1,0.1-0.8,2.7-3.2c2.4-2.3,4.1-2,6-1.7c0.8,0.1,2.9,0.7,5,1
	c2.1,0.3,4.5,1.1,6.4,1.2c1-2.1,2.2-1.8,3.1-1.9c0.6-1.6,3-6.3,4-7c1.6-0.8,2-1,3.1-0.6c-2,1-3.3,2.7-3.6,3.3
	c-0.6,1.1-3.3,6.3-3.4,6.9c1.4,0.3,3,0.4,4.4,0.2c-1.6-6.7,1.3-10.5,6.8-11.7c4-0.9,4-0.3,5.4,3.7c1.8,5.1-0.9,4.8-1.9,6.9l8.5-0.3
	c-0.4-0.3-4-1.7-0.8-3.5c1.2-0.7,1.1-0.5,1.3-1.1c-2.1-0.4-3.2,1.5-4.5,0.8c-0.3-1.1,0.3-1,0.6-2c0.5-1.6,0.6-2.2,1.7-3.6
	c0.5-0.6,0.9-0.8,1.1-1.7c-1-0.5-2.2-1.3-3.4-1.8c-3.5-1.7-1.7-0.7-2.7-2.6c-0.6,0.4-3.7,3.4-4.8,4.3c-0.7,0.5-1.1,0.9-2,0.6
	c-0.5-1.8,2.6-5.4,3.5-6c-0.3-3-1.2-1.7-3.5-4.9c-1.3-1.9-1.8-3.6-3.7-4.8c-0.4,0.5-0.8,1.4-1.8,0.9c-0.6-0.3,0.1-0.6-2.1,0h-0.1
	c-0.5,0.9-0.9,2-1.6,2.5c-1.2,1-2.1-0.1-2.4-1.3l-1.5-0.1c-0.1,3.5-2.6,3.8-3,3.5c-0.6-0.4-0.2-2.7-5.4-2.3
	c-4.8,0.4-12.1,4.9-14.6,8.7c1.7,1.2,4,0.5,3.3,3.5c-0.4,1.7-1,4.3-2.3,5c-0.4,0.2-0.4-0.1-1.1,2.2c-0.3,1-0.5,2.2-0.2,3.3
	c0.3,0.9,1.1,1.4,1.8,1.8C177.6,154.7,177.2,154.6,177.4,155.2L177.4,155.2L177.4,155.2L177.4,155.2z M246.2,150
	c0.8-1.1,1.5-1.6,4.2-2.9c0.5-0.3,13.8-7.1,16.5-8.5c3.4-1.8,3.8-2.5,7.2-2.8c-0.2,1.2-3.3,5.7-4.3,7c-0.6,0.8-1.2,1.7-1.8,2.3
	c-3.4-0.6-6.1,0.9-7.2,3.1c-1.2-0.2-0.8-0.1-1.7,0.2c-0.6-3.5-3.5-2.8-6.3-1.7C250.8,147.6,248,149.7,246.2,150L246.2,150z
	 M142.6,145.6c3.6-2.7,0.4-3.5,4.8-3.3c0.3,0.5,0.4,0.9,0.2,1.3c-0.1,0.3-0.6,2.1-1,2.8c-1.3,0.1-1.7,0.3-2.8,0.5L142.6,145.6
	L142.6,145.6z M149.7,136.5c0.7-1.4,1.5-1.2,2.6-0.2c0,0-0.7,0.5-0.8,0.6c-0.4,0.2-0.5,0.3-0.9,0.5
	C150.4,137.2,149.7,136.5,149.7,136.5L149.7,136.5z M170.3,129.6c0.8-0.4,1.9-1.6,2.6-2.2c0.9-0.8,1.5-1.7,2.6-2.2
	c-0.3,1-0.9,1.7-0.8,3.1c0.1,1.4,0.8,1.6,1.8,2c-0.7,1.2-3,3.2-4.6,3.9c0.2-1,0.4-2.1,0-3.1C171.5,130.3,170.3,129.6,170.3,129.6
	L170.3,129.6z M176,128.6c-0.3-1.5,0.6-3.3,1.5-4c0.8-0.6,0.8-0.6,1.6-1.3c1.2-1,8.1-6.5,9.3-7.3c0,0,2.8-2.1,3.2-2.4
	c1.2-0.9,4.1-2.4,5.3-3c0.7-0.4,2.5-0.8,4.1-1.2c-0.4,0.6-0.5,0.7-0.8,1.3c-1.2,2.6-0.6,10-0.6,10.3c-0.2,1-1.6,1.6-2.7,2
	c-0.8,0.3-0.9,0.3-1.5,0.6l-4.8,1.8c-2.9,0.9-4.3,1.5-7.8,1.3c0.7-0.7,1.3-1.1,1.9-1.5c2.9-2.2,6.6-5,10.1-6c1.6-0.5,2.3-2,2.7-3.8
	l-1.1-0.3c-0.5,1-0.6,2.3-1.5,2.8c-0.7,0.4-2.1,0.7-3,1.1c-3.9,1.9-6.8,4.7-10.1,6.8c-1.4,0.9-1.8,0.1-4.4,2.1
	C176.2,128.6,176.3,128.8,176,128.6L176,128.6z M207.8,122.6c1.2-0.1,2.3,0,2.9-0.6c-0.4,1-2.3,1.5-3.5,1.8
	C207.3,123.3,207.5,122.9,207.8,122.6L207.8,122.6z M166,118.8c1-0.9,1.9-1.5,3-2.3c2.2-1.5,1.6-1.4,2.8-2.3
	c0.8,2.7,3.3,5.8,5.3,7.6l0.9,0.8c-0.9,1.3-1.4,1-2.9,0.5c-3-0.9-3.6-1.1-6.4-2.5C168.7,120.6,166.2,119,166,118.8L166,118.8z
	 M215.1,112c2.5-0.7,4-1.1,5.6-2c1.4-0.8,1.5-1.2,2.1-1.7c0.4-0.3,1.8-1.4,2.2-1.4c1.6-0.3,5,0.6,6.3,1.2c4.6,2.3,4.5,8.3,2.8,10
	c-0.8,0.8-4.1,1.6-5.5,1.9c-4.4,1-9.1,1.4-13.9,1.3C216.2,118,215.5,115.6,215.1,112L215.1,112z M213.9,112.4
	c0.3,2.4,1.7,10-2.5,8.1c0-4.3-2.1-6.4-1.9-7.4L213.9,112.4L213.9,112.4z M179,110c2,1.9,4.4,3.5,7,4.3c-1.9,0.3-4.4-1.1-5.5-2
	c-1.1-0.9-1.9-1.9-2.8-3c-0.3-0.5-0.6-0.7-0.4-1.3C177.9,108.5,178.4,109.5,179,110L179,110z M187,99.8c-1.4-2.5-1.6-1.7-0.8-3.7
	c1.8,0.7,5.5,5.8,6.9,7.8c0.8,1,2.8,4.5,3.2,5.7c-1,0.5-1.7,0.9-2.9,1.6c-0.9-1.6-3.5-5.9-4.3-7.4C188.4,102.3,187.7,101.1,187,99.8
	L187,99.8z M201.4,100.7c-1.5-0.4-2.3-0.7-4-1.2c-1.5-0.5-6.5-2.2-7.7-3c1.2-0.3,0.9-0.2,2,0.2c1.7,0.7,4.5,1.6,5.8,2
	c2.6,0.8,5.8,1.6,8.7,1.2C205.2,101.3,203.2,101.1,201.4,100.7L201.4,100.7z M188.6,84l3-3.7c0.6-0.8,2.1-2.6,3.2-2.6
	c1.3,0,2,1.2,3.9,1.8c-1.5-1.2-3.3-1.8-3.6-2.8l-0.2-0.7c-1,1.2-2.3,2.1-4.1,4.3c-0.1,0.1-0.2,0.3-0.3,0.4l0,0c-0.8,1-2.1,3-2.7,4.1
	l-2.6,4l-1,1.4c-0.5,0.7-0.6,0.5-1.2,1.1c0.2,0.3,2.1,1.8,2.6,2.1c1,0.6,2.4,1.2,3.7,1.6c1.8,0.6,2.1,0.8,4,0.2
	c1.5-0.5,1.8-1.6,1.5-3.3c-0.7,1.2-0.4,1.5-1.9,2.1c-2.5,1-7-2.4-7.2-3c-0.5-1.3-0.3-1.5,0.3-2.6l0,0L188.6,84L188.6,84z
	 M199.1,79.6c0.8,0.2,1,0,1.7-0.1c-0.3,2.5,0.5,5.4-0.6,7.7c-1,2.2-2.6,2.6-5.5,3l-0.2,0.9c-1.1-4.3,2.8-1.8,4-4.3
	c0.3-0.7,0.7-2.6,0.9-3.4C199.6,81.9,199.8,80.9,199.1,79.6L199.1,79.6z M196.2,76.3c0.3-0.7,0.5-1.7,0.6-2.2c0.3-2,1.1-4.1-0.6-7.5
	c1.3,0.5,2.6,2.1,3.4,3.1c1.6,1.9,1.9,2.3,1.9,4.6c0,2.6-0.4,3.6-1.6,4.1C199,78.5,196.9,77.4,196.2,76.3L196.2,76.3z"/>
</svg>
