<svg width="2500" height="37" viewBox="0 0 2500 37" fill="none" xmlns="http://www.w3.org/2000/svg">
<g clip-path="url(#clip0)">
<path d="M524.086 36.0176C523.787 36.2176 523.389 36.4176 523.19 36.7176C524.185 36.7176 524.285 36.4176 524.086 36.0176ZM524.086 36.0176C525.18 35.3176 526.972 34.9176 528.962 34.6176L526.673 33.4176C521.001 33.3176 523.489 35.0176 524.086 36.0176ZM529.161 34.7176C531.948 34.7176 533.341 34.5176 534.138 34.2176C532.446 34.3176 530.654 34.5176 529.062 34.6176L529.161 34.7176ZM484.575 29.7176C485.172 29.3176 485.969 28.7176 486.466 28.1176L483.879 29.3176L484.575 29.7176ZM485.371 30.1176L484.575 29.7176C483.68 30.3176 483.381 30.5176 485.371 30.1176ZM593.752 23.2176C593.652 23.2176 593.552 23.3176 593.453 23.3176C593.552 23.3176 593.752 23.2176 593.851 23.2176H593.752ZM599.822 22.3176C600.818 23.9176 595.145 26.6176 599.922 28.1176C616.741 28.8176 607.287 22.1176 624.604 23.0176L615.846 20.9176C616.244 23.7176 609.974 25.1176 603.206 25.1176L601.216 23.0176C602.41 22.4176 603.604 22.0176 604.898 21.6176C602.51 21.4176 602.908 23.0176 599.822 22.3176ZM605.694 21.8176C605.595 21.8176 605.396 21.7176 605.296 21.6176C605.197 21.6176 605.197 21.6176 605.097 21.7176C605.296 21.7176 605.396 21.7176 605.694 21.8176ZM589.472 21.0176L593.652 23.2176C594.249 22.9176 594.846 22.5176 595.642 22.1176C596.538 20.5176 591.562 20.5176 589.472 21.0176ZM112.859 14.9176C112.66 14.5176 113.655 14.2176 114.152 14.1176C112.859 13.0176 111.565 12.9176 110.271 13.4176C110.171 14.2176 111.963 14.3176 112.859 14.9176ZM16.6203 14.9176C17.1179 15.1176 17.3169 14.8176 16.6203 14.9176V14.9176ZM114.351 13.9176C114.351 13.9176 114.252 13.9176 114.152 14.0176C114.351 14.2176 114.55 14.3176 114.75 14.5176L114.351 13.9176ZM481.49 24.4176L484.575 24.7176C484.874 24.3176 485.371 23.9176 485.77 23.5176C483.779 23.5176 482.087 23.7176 481.49 24.4176ZM263.536 14.2176L263.138 16.0176C263.436 15.2176 263.536 14.7176 263.536 14.2176ZM0 0.71759V14.4176C4.08042 14.3176 8.35989 14.6176 12.4403 16.6176C14.8289 15.4176 16.1227 15.0176 16.7198 14.9176C16.3217 14.7176 15.625 14.2176 15.426 12.3176C18.2126 13.7176 23.8854 12.2176 23.2883 15.9176L22.5916 16.3176C22.094 20.0176 31.051 14.8176 34.1362 18.1176L32.5439 14.1176L37.8186 14.9176L36.3257 15.7176C59.5145 7.61759 69.4667 20.5176 91.1627 13.1176C88.177 17.4176 95.4421 10.9176 95.6412 15.7176C100.916 21.8176 105.693 14.7176 110.171 13.3176C110.171 13.1176 110.271 12.8176 110.47 12.4176L118.233 13.2176C113.456 19.1176 124.005 8.41759 119.527 13.4176C139.63 18.5176 166.203 14.7176 189.59 17.5176L188.595 15.9176C194.567 16.4176 202.031 14.7176 206.41 17.3176C210.888 19.9176 216.362 13.7176 218.153 13.5176C223.229 11.0176 227.509 16.4176 225.419 16.1176C230.693 15.5176 235.868 10.2176 243.134 12.8176C245.522 18.0176 263.337 8.41759 263.337 14.2176L263.436 13.7176C266.422 15.1176 269.408 15.3176 272.393 15.2176C272.493 15.2176 272.692 15.2176 272.791 15.3176L273.09 15.2176C274.981 15.1176 276.971 14.8176 278.862 14.5176C279.559 15.3176 280.654 16.1176 281.052 16.7176C281.848 15.9176 281.251 15.1176 280.455 14.3176C284.137 13.9176 287.919 13.8176 291.8 15.4176C291.8 15.4176 291.601 15.8176 291.203 16.2176L302.15 7.71759C302.25 7.81759 302.349 7.81759 302.449 7.91759C302.947 7.31759 305.634 7.11759 307.425 7.41759L307.525 8.21759C311.605 7.61759 306.231 7.31759 307.226 6.51759C310.112 6.31759 314.69 8.21759 319.467 8.31759C314.69 8.31759 310.709 9.31759 307.326 10.1176C315.984 11.8176 305.634 14.3176 303.643 16.4176C310.61 15.6176 313.397 14.1176 319.069 12.9176C325.936 14.8176 318.373 19.0176 316.581 19.2176C322.951 18.2176 329.619 15.7176 333.102 14.8176C328.325 17.9176 329.022 19.0176 324.742 21.5176C329.718 23.6176 330.912 21.3176 333.301 20.1176C331.908 20.4176 329.718 20.5176 329.221 19.9176C335.291 20.4176 334.396 15.3176 337.581 13.2176C341.661 14.6176 349.324 15.5176 349.822 18.0176V15.4176C355.096 14.8176 352.509 17.1176 353.305 18.2176C355.296 16.1176 353.007 12.9176 361.864 12.3176C360.371 17.4176 369.726 13.0176 369.328 17.6176C373.409 17.4176 375.399 14.9176 379.679 15.5176C384.356 18.3176 373.011 21.6176 370.423 20.8176C364.452 20.8176 371.319 18.7176 368.93 18.7176L363.158 19.9176C366.342 21.0176 372.513 22.3176 371.617 24.4176C377.389 23.6176 367.039 22.1176 373.409 21.0176L377.19 22.3176C383.56 21.3176 375.996 18.7176 384.257 18.3176C378.683 20.4176 393.214 18.6176 392.616 21.9176C393.114 17.7176 407.445 21.8176 409.237 18.4176L404.858 17.3176L405.753 19.2176C400.976 19.2176 396.995 20.2176 392.119 19.3176C396 17.8176 390.925 15.7176 395.403 14.5176C403.962 12.2176 397.593 16.8176 398.787 16.8176L405.554 14.7176L401.076 12.8176C406.351 12.2176 413.516 12.2176 420.682 12.7176C431.231 15.5176 419.288 15.0176 426.852 17.6176C430.336 16.8176 429.539 15.7176 434.316 16.2176C431.729 14.9176 429.639 16.6176 427.847 16.4176C425.558 13.6176 436.605 15.4176 436.207 12.8176C438.198 13.9176 437.8 14.9176 436.108 16.0176C444.269 15.2176 452.131 15.9176 455.117 19.3176L458.699 16.1176C472.633 17.7176 449.046 18.8176 460.789 21.2176C465.666 21.6176 470.443 21.7176 472.533 20.4176L468.353 20.2176C471.637 18.5176 471.438 17.3176 476.613 16.2176C480.296 16.6176 478.206 18.7176 482.684 17.1176C491.542 18.8176 488.357 21.1176 485.77 23.4176C489.452 23.2176 494.229 23.4176 494.926 22.1176C494.926 22.9176 494.328 24.3176 492.239 25.1176C484.774 21.5176 489.253 28.4176 486.267 24.7176L484.575 24.6176C484.376 24.8176 484.277 25.0176 484.177 25.2176C487.362 26.0176 487.362 27.1176 486.466 28.1176L489.551 26.7176L491.741 29.8176C494.528 30.3176 496.518 27.7176 498.011 29.5176C502.191 32.2176 491.741 33.4176 502.091 34.8176C513.138 36.0176 512.641 31.0176 520.204 31.9176C519.408 31.0176 517.617 31.0176 515.228 30.8176C517.716 29.5176 513.437 28.3176 517.617 27.4176C519.906 30.2176 527.868 30.2176 533.938 30.4176C532.346 31.8176 536.128 33.4176 534.237 34.2176C537.322 33.9176 540.208 33.6176 541.502 32.4176C529.161 30.0176 553.544 30.5176 543.99 27.5176C553.644 27.9176 555.435 30.5176 561.307 32.1176C560.909 32.9176 550.161 33.5176 558.72 34.9176C568.572 32.3176 557.127 30.9176 564.79 27.7176L558.62 26.5176C557.923 23.0176 569.369 26.0176 570.961 25.2176C574.743 26.2176 565.587 26.0176 569.269 28.5176C574.942 29.4176 577.828 27.3176 581.411 28.7176C577.828 30.9176 580.117 30.1176 576.036 32.1176C589.372 32.4176 575.24 34.8176 585.392 36.6176C588.676 36.2176 586.685 34.1176 591.861 34.8176C588.875 32.2176 589.273 31.4176 580.913 31.0176C583.998 27.4176 591.96 32.2176 597.931 30.2176C593.254 29.8176 596.439 29.4176 591.363 29.8176C590.766 26.7176 588.875 26.2176 593.652 23.4176C588.178 24.1176 585.69 27.3176 577.828 26.2176C575.738 23.0176 587.482 24.1176 587.78 20.0176C591.761 18.1176 601.216 20.1176 605.495 21.7176C613.158 19.4176 622.514 19.6176 628.485 16.1176C633.959 17.4176 647.792 14.4176 658.143 15.8176C659.635 17.6176 670.085 17.4176 664.91 19.0176C667 18.6176 673.768 18.3176 671.777 16.8176C670.882 17.4176 669.886 16.9176 668.095 16.9176L669.787 14.7176C674.763 15.8176 680.436 13.1176 685.213 14.6176C686.706 16.4176 676.156 15.5176 679.341 17.7176C683.123 15.1176 694.966 14.5176 702.928 14.5176V0.71759H0ZM334.495 19.8176C334.097 19.9176 333.699 20.1176 333.301 20.2176C334.097 20.1176 334.694 19.9176 334.495 19.8176ZM302.847 8.61759C302.748 8.31759 302.648 8.11759 302.449 7.81759C302.25 8.11759 302.25 8.31759 302.847 8.61759ZM281.251 16.7176C280.853 17.1176 280.156 17.6176 278.862 18.0176C281.151 17.8176 281.549 17.3176 281.251 16.7176Z" fill="#E7E7E7"/>
</g>
<g clip-path="url(#clip1)">
<path d="M1041.6 36.0176C1041.3 36.2176 1040.91 36.4176 1040.71 36.7176C1041.7 36.7176 1041.8 36.4176 1041.6 36.0176ZM1041.6 36.0176C1042.7 35.3176 1044.49 34.9176 1046.48 34.6176L1044.19 33.4176C1038.52 33.3176 1041.01 35.0176 1041.6 36.0176ZM1046.68 34.7176C1049.47 34.7176 1050.86 34.5176 1051.65 34.2176C1049.96 34.3176 1048.17 34.5176 1046.58 34.6176L1046.68 34.7176ZM1002.09 29.7176C1002.69 29.3176 1003.49 28.7176 1003.98 28.1176L1001.4 29.3176L1002.09 29.7176ZM1002.89 30.1176L1002.09 29.7176C1001.2 30.3176 1000.9 30.5176 1002.89 30.1176ZM1111.27 23.2176C1111.17 23.2176 1111.07 23.3176 1110.97 23.3176C1111.07 23.3176 1111.27 23.2176 1111.37 23.2176H1111.27ZM1117.34 22.3176C1118.33 23.9176 1112.66 26.6176 1117.44 28.1176C1134.26 28.8176 1124.8 22.1176 1142.12 23.0176L1133.36 20.9176C1133.76 23.7176 1127.49 25.1176 1120.72 25.1176L1118.73 23.0176C1119.93 22.4176 1121.12 22.0176 1122.42 21.6176C1120.03 21.4176 1120.42 23.0176 1117.34 22.3176ZM1123.21 21.8176C1123.11 21.8176 1122.91 21.7176 1122.81 21.6176C1122.71 21.6176 1122.71 21.6176 1122.61 21.7176C1122.81 21.7176 1122.91 21.7176 1123.21 21.8176ZM1106.99 21.0176L1111.17 23.2176C1111.77 22.9176 1112.36 22.5176 1113.16 22.1176C1114.06 20.5176 1109.08 20.5176 1106.99 21.0176ZM630.376 14.9176C630.177 14.5176 631.172 14.2176 631.67 14.1176C630.376 13.0176 629.082 12.9176 627.788 13.4176C627.689 14.2176 629.48 14.3176 630.376 14.9176ZM534.137 14.9176C534.635 15.1176 534.834 14.8176 534.137 14.9176V14.9176ZM631.869 13.9176C631.869 13.9176 631.769 13.9176 631.67 14.0176C631.869 14.2176 632.068 14.3176 632.267 14.5176L631.869 13.9176ZM999.007 24.4176L1002.09 24.7176C1002.39 24.3176 1002.89 23.9176 1003.29 23.5176C1001.3 23.5176 999.604 23.7176 999.007 24.4176ZM781.053 14.2176L780.655 16.0176C780.953 15.2176 781.053 14.7176 781.053 14.2176ZM517.517 0.71759V14.4176C521.598 14.3176 525.877 14.6176 529.958 16.6176C532.346 15.4176 533.64 15.0176 534.237 14.9176C533.839 14.7176 533.142 14.2176 532.943 12.3176C535.73 13.7176 541.403 12.2176 540.805 15.9176L540.109 16.3176C539.611 20.0176 548.568 14.8176 551.653 18.1176L550.061 14.1176L555.336 14.9176L553.843 15.7176C577.032 7.61759 586.984 20.5176 608.68 13.1176C605.694 17.4176 612.959 10.9176 613.158 15.7176C618.433 21.8176 623.21 14.7176 627.689 13.3176C627.689 13.1176 627.788 12.8176 627.987 12.4176L635.75 13.2176C630.973 19.1176 641.522 8.41759 637.044 13.4176C657.147 18.5176 683.72 14.7176 707.108 17.5176L706.112 15.9176C712.084 16.4176 719.548 14.7176 723.927 17.3176C728.405 19.9176 733.879 13.7176 735.671 13.5176C740.746 11.0176 745.026 16.4176 742.936 16.1176C748.21 15.5176 753.386 10.2176 760.651 12.8176C763.039 18.0176 780.854 8.41759 780.854 14.2176L780.953 13.7176C783.939 15.1176 786.925 15.3176 789.91 15.2176C790.01 15.2176 790.209 15.2176 790.309 15.3176L790.607 15.2176C792.498 15.1176 794.488 14.8176 796.379 14.5176C797.076 15.3176 798.171 16.1176 798.569 16.7176C799.365 15.9176 798.768 15.1176 797.972 14.3176C801.654 13.9176 805.436 13.8176 809.317 15.4176C809.317 15.4176 809.118 15.8176 808.72 16.2176L819.668 7.71759C819.767 7.81759 819.867 7.81759 819.966 7.91759C820.464 7.31759 823.151 7.11759 824.942 7.41759L825.042 8.21759C829.122 7.61759 823.748 7.31759 824.743 6.51759C827.629 6.31759 832.208 8.21759 836.985 8.31759C832.208 8.31759 828.227 9.31759 824.843 10.1176C833.501 11.8176 823.151 14.3176 821.161 16.4176C828.127 15.6176 830.914 14.1176 836.587 12.9176C843.454 14.8176 835.89 19.0176 834.098 19.2176C840.468 18.2176 847.136 15.7176 850.619 14.8176C845.842 17.9176 846.539 19.0176 842.259 21.5176C847.235 23.6176 848.43 21.3176 850.818 20.1176C849.425 20.4176 847.235 20.5176 846.738 19.9176C852.809 20.4176 851.913 15.3176 855.098 13.2176C859.178 14.6176 866.841 15.5176 867.339 18.0176V15.4176C872.614 14.8176 870.026 17.1176 870.822 18.2176C872.813 16.1176 870.524 12.9176 879.381 12.3176C877.888 17.4176 887.243 13.0176 886.845 17.6176C890.926 17.4176 892.916 14.9176 897.196 15.5176C901.873 18.3176 890.528 21.6176 887.94 20.8176C881.969 20.8176 888.836 18.7176 886.447 18.7176L880.675 19.9176C883.86 21.0176 890.03 22.3176 889.134 24.4176C894.907 23.6176 884.556 22.1176 890.926 21.0176L894.708 22.3176C901.077 21.3176 893.513 18.7176 901.774 18.3176C896.201 20.4176 910.731 18.6176 910.134 21.9176C910.631 17.7176 924.963 21.8176 926.754 18.4176L922.375 17.3176L923.271 19.2176C918.494 19.2176 914.513 20.2176 909.636 19.3176C913.517 17.8176 908.442 15.7176 912.92 14.5176C921.479 12.2176 915.11 16.8176 916.304 16.8176L923.072 14.7176L918.593 12.8176C923.868 12.2176 931.033 12.2176 938.199 12.7176C948.748 15.5176 936.806 15.0176 944.369 17.6176C947.853 16.8176 947.057 15.7176 951.834 16.2176C949.246 14.9176 947.156 16.6176 945.365 16.4176C943.076 13.6176 954.123 15.4176 953.725 12.8176C955.715 13.9176 955.317 14.9176 953.625 16.0176C961.786 15.2176 969.648 15.9176 972.634 19.3176L976.217 16.1176C990.15 17.7176 966.563 18.8176 978.307 21.2176C983.183 21.6176 987.96 21.7176 990.05 20.4176L985.87 20.2176C989.155 18.5176 988.956 17.3176 994.131 16.2176C997.813 16.6176 995.723 18.7176 1000.2 17.1176C1009.06 18.8176 1005.87 21.1176 1003.29 23.4176C1006.97 23.2176 1011.75 23.4176 1012.44 22.1176C1012.44 22.9176 1011.85 24.3176 1009.76 25.1176C1002.29 21.5176 1006.77 28.4176 1003.78 24.7176L1002.09 24.6176C1001.89 24.8176 1001.79 25.0176 1001.69 25.2176C1004.88 26.0176 1004.88 27.1176 1003.98 28.1176L1007.07 26.7176L1009.26 29.8176C1012.04 30.3176 1014.04 27.7176 1015.53 29.5176C1019.71 32.2176 1009.26 33.4176 1019.61 34.8176C1030.66 36.0176 1030.16 31.0176 1037.72 31.9176C1036.93 31.0176 1035.13 31.0176 1032.75 30.8176C1035.23 29.5176 1030.95 28.3176 1035.13 27.4176C1037.42 30.2176 1045.38 30.2176 1051.46 30.4176C1049.86 31.8176 1053.65 33.4176 1051.75 34.2176C1054.84 33.9176 1057.73 33.6176 1059.02 32.4176C1046.68 30.0176 1071.06 30.5176 1061.51 27.5176C1071.16 27.9176 1072.95 30.5176 1078.82 32.1176C1078.43 32.9176 1067.68 33.5176 1076.24 34.9176C1086.09 32.3176 1074.64 30.9176 1082.31 27.7176L1076.14 26.5176C1075.44 23.0176 1086.89 26.0176 1088.48 25.2176C1092.26 26.2176 1083.1 26.0176 1086.79 28.5176C1092.46 29.4176 1095.35 27.3176 1098.93 28.7176C1095.35 30.9176 1097.63 30.1176 1093.55 32.1176C1106.89 32.4176 1092.76 34.8176 1102.91 36.6176C1106.19 36.2176 1104.2 34.1176 1109.38 34.8176C1106.39 32.2176 1106.79 31.4176 1098.43 31.0176C1101.52 27.4176 1109.48 32.2176 1115.45 30.2176C1110.77 29.8176 1113.96 29.4176 1108.88 29.8176C1108.28 26.7176 1106.39 26.2176 1111.17 23.4176C1105.7 24.1176 1103.21 27.3176 1095.35 26.2176C1093.26 23.0176 1105 24.1176 1105.3 20.0176C1109.28 18.1176 1118.73 20.1176 1123.01 21.7176C1130.68 19.4176 1140.03 19.6176 1146 16.1176C1151.48 17.4176 1165.31 14.4176 1175.66 15.8176C1177.15 17.6176 1187.6 17.4176 1182.43 19.0176C1184.52 18.6176 1191.28 18.3176 1189.29 16.8176C1188.4 17.4176 1187.4 16.9176 1185.61 16.9176L1187.3 14.7176C1192.28 15.8176 1197.95 13.1176 1202.73 14.6176C1204.22 16.4176 1193.67 15.5176 1196.86 17.7176C1200.64 15.1176 1212.48 14.5176 1220.44 14.5176V0.71759H517.517ZM852.013 19.8176C851.614 19.9176 851.216 20.1176 850.818 20.2176C851.614 20.1176 852.212 19.9176 852.013 19.8176ZM820.364 8.61759C820.265 8.31759 820.165 8.11759 819.966 7.81759C819.767 8.11759 819.767 8.31759 820.364 8.61759ZM798.768 16.7176C798.37 17.1176 797.673 17.6176 796.379 18.0176C798.668 17.8176 799.066 17.3176 798.768 16.7176Z" fill="#E7E7E7"/>
</g>
<g clip-path="url(#clip2)">
<path d="M1744.53 36.0176C1744.23 36.2176 1743.83 36.4176 1743.64 36.7176C1744.63 36.7176 1744.73 36.4176 1744.53 36.0176ZM1744.53 36.0176C1745.63 35.3176 1747.42 34.9176 1749.41 34.6176L1747.12 33.4176C1741.45 33.3176 1743.93 35.0176 1744.53 36.0176ZM1749.61 34.7176C1752.39 34.7176 1753.79 34.5176 1754.58 34.2176C1752.89 34.3176 1751.1 34.5176 1749.51 34.6176L1749.61 34.7176ZM1705.02 29.7176C1705.62 29.3176 1706.41 28.7176 1706.91 28.1176L1704.32 29.3176L1705.02 29.7176ZM1705.82 30.1176L1705.02 29.7176C1704.12 30.3176 1703.83 30.5176 1705.82 30.1176ZM1814.2 23.2176C1814.1 23.2176 1814 23.3176 1813.9 23.3176C1814 23.3176 1814.2 23.2176 1814.3 23.2176H1814.2ZM1820.27 22.3176C1821.26 23.9176 1815.59 26.6176 1820.37 28.1176C1837.19 28.8176 1827.73 22.1176 1845.05 23.0176L1836.29 20.9176C1836.69 23.7176 1830.42 25.1176 1823.65 25.1176L1821.66 23.0176C1822.86 22.4176 1824.05 22.0176 1825.34 21.6176C1822.95 21.4176 1823.35 23.0176 1820.27 22.3176ZM1826.14 21.8176C1826.04 21.8176 1825.84 21.7176 1825.74 21.6176C1825.64 21.6176 1825.64 21.6176 1825.54 21.7176C1825.74 21.7176 1825.84 21.7176 1826.14 21.8176ZM1809.92 21.0176L1814.1 23.2176C1814.69 22.9176 1815.29 22.5176 1816.09 22.1176C1816.98 20.5176 1812.01 20.5176 1809.92 21.0176ZM1333.3 14.9176C1333.1 14.5176 1334.1 14.2176 1334.6 14.1176C1333.3 13.0176 1332.01 12.9176 1330.72 13.4176C1330.62 14.2176 1332.41 14.3176 1333.3 14.9176ZM1237.07 14.9176C1237.56 15.1176 1237.76 14.8176 1237.07 14.9176V14.9176ZM1334.8 13.9176C1334.8 13.9176 1334.7 13.9176 1334.6 14.0176C1334.8 14.2176 1335 14.3176 1335.19 14.5176L1334.8 13.9176ZM1701.94 24.4176L1705.02 24.7176C1705.32 24.3176 1705.82 23.9176 1706.21 23.5176C1704.22 23.5176 1702.53 23.7176 1701.94 24.4176ZM1483.98 14.2176L1483.58 16.0176C1483.88 15.2176 1483.98 14.7176 1483.98 14.2176ZM1220.45 0.71759V14.4176C1224.53 14.3176 1228.8 14.6176 1232.89 16.6176C1235.27 15.4176 1236.57 15.0176 1237.16 14.9176C1236.77 14.7176 1236.07 14.2176 1235.87 12.3176C1238.66 13.7176 1244.33 12.2176 1243.73 15.9176L1243.04 16.3176C1242.54 20.0176 1251.5 14.8176 1254.58 18.1176L1252.99 14.1176L1258.26 14.9176L1256.77 15.7176C1279.96 7.61759 1289.91 20.5176 1311.61 13.1176C1308.62 17.4176 1315.89 10.9176 1316.09 15.7176C1321.36 21.8176 1326.14 14.7176 1330.62 13.3176C1330.62 13.1176 1330.72 12.8176 1330.92 12.4176L1338.68 13.2176C1333.9 19.1176 1344.45 8.41759 1339.97 13.4176C1360.08 18.5176 1386.65 14.7176 1410.04 17.5176L1409.04 15.9176C1415.01 16.4176 1422.48 14.7176 1426.85 17.3176C1431.33 19.9176 1436.81 13.7176 1438.6 13.5176C1443.67 11.0176 1447.95 16.4176 1445.86 16.1176C1451.14 15.5176 1456.31 10.2176 1463.58 12.8176C1465.97 18.0176 1483.78 8.41759 1483.78 14.2176L1483.88 13.7176C1486.87 15.1176 1489.85 15.3176 1492.84 15.2176C1492.94 15.2176 1493.14 15.2176 1493.24 15.3176L1493.53 15.2176C1495.43 15.1176 1497.42 14.8176 1499.31 14.5176C1500 15.3176 1501.1 16.1176 1501.5 16.7176C1502.29 15.9176 1501.7 15.1176 1500.9 14.3176C1504.58 13.9176 1508.36 13.8176 1512.25 15.4176C1512.25 15.4176 1512.05 15.8176 1511.65 16.2176L1522.6 7.71759C1522.7 7.81759 1522.79 7.81759 1522.89 7.91759C1523.39 7.31759 1526.08 7.11759 1527.87 7.41759L1527.97 8.21759C1532.05 7.61759 1526.68 7.31759 1527.67 6.51759C1530.56 6.31759 1535.14 8.21759 1539.91 8.31759C1535.14 8.31759 1531.15 9.31759 1527.77 10.1176C1536.43 11.8176 1526.08 14.3176 1524.09 16.4176C1531.05 15.6176 1533.84 14.1176 1539.51 12.9176C1546.38 14.8176 1538.82 19.0176 1537.03 19.2176C1543.4 18.2176 1550.06 15.7176 1553.55 14.8176C1548.77 17.9176 1549.47 19.0176 1545.19 21.5176C1550.16 23.6176 1551.36 21.3176 1553.75 20.1176C1552.35 20.4176 1550.16 20.5176 1549.67 19.9176C1555.74 20.4176 1554.84 15.3176 1558.03 13.2176C1562.11 14.6176 1569.77 15.5176 1570.27 18.0176V15.4176C1575.54 14.8176 1572.95 17.1176 1573.75 18.2176C1575.74 16.1176 1573.45 12.9176 1582.31 12.3176C1580.82 17.4176 1590.17 13.0176 1589.77 17.6176C1593.85 17.4176 1595.84 14.9176 1600.12 15.5176C1604.8 18.3176 1593.46 21.6176 1590.87 20.8176C1584.9 20.8176 1591.76 18.7176 1589.38 18.7176L1583.6 19.9176C1586.79 21.0176 1592.96 22.3176 1592.06 24.4176C1597.83 23.6176 1587.48 22.1176 1593.85 21.0176L1597.64 22.3176C1604 21.3176 1596.44 18.7176 1604.7 18.3176C1599.13 20.4176 1613.66 18.6176 1613.06 21.9176C1613.56 17.7176 1627.89 21.8176 1629.68 18.4176L1625.3 17.3176L1626.2 19.2176C1621.42 19.2176 1617.44 20.2176 1612.56 19.3176C1616.45 17.8176 1611.37 15.7176 1615.85 14.5176C1624.41 12.2176 1618.04 16.8176 1619.23 16.8176L1626 14.7176L1621.52 12.8176C1626.8 12.2176 1633.96 12.2176 1641.13 12.7176C1651.68 15.5176 1639.73 15.0176 1647.3 17.6176C1650.78 16.8176 1649.98 15.7176 1654.76 16.2176C1652.17 14.9176 1650.08 16.6176 1648.29 16.4176C1646 13.6176 1657.05 15.4176 1656.65 12.8176C1658.64 13.9176 1658.24 14.9176 1656.55 16.0176C1664.71 15.2176 1672.58 15.9176 1675.56 19.3176L1679.14 16.1176C1693.08 17.7176 1669.49 18.8176 1681.23 21.2176C1686.11 21.6176 1690.89 21.7176 1692.98 20.4176L1688.8 20.2176C1692.08 18.5176 1691.88 17.3176 1697.06 16.2176C1700.74 16.6176 1698.65 18.7176 1703.13 17.1176C1711.99 18.8176 1708.8 21.1176 1706.21 23.4176C1709.9 23.2176 1714.67 23.4176 1715.37 22.1176C1715.37 22.9176 1714.77 24.3176 1712.68 25.1176C1705.22 21.5176 1709.7 28.4176 1706.71 24.7176L1705.02 24.6176C1704.82 24.8176 1704.72 25.0176 1704.62 25.2176C1707.81 26.0176 1707.81 27.1176 1706.91 28.1176L1710 26.7176L1712.19 29.8176C1714.97 30.3176 1716.96 27.7176 1718.46 29.5176C1722.64 32.2176 1712.19 33.4176 1722.54 34.8176C1733.58 36.0176 1733.09 31.0176 1740.65 31.9176C1739.85 31.0176 1738.06 31.0176 1735.67 30.8176C1738.16 29.5176 1733.88 28.3176 1738.06 27.4176C1740.35 30.2176 1748.31 30.2176 1754.38 30.4176C1752.79 31.8176 1756.57 33.4176 1754.68 34.2176C1757.77 33.9176 1760.65 33.6176 1761.95 32.4176C1749.61 30.0176 1773.99 30.5176 1764.44 27.5176C1774.09 27.9176 1775.88 30.5176 1781.75 32.1176C1781.35 32.9176 1770.61 33.5176 1779.16 34.9176C1789.02 32.3176 1777.57 30.9176 1785.24 27.7176L1779.07 26.5176C1778.37 23.0176 1789.81 26.0176 1791.41 25.2176C1795.19 26.2176 1786.03 26.0176 1789.71 28.5176C1795.39 29.4176 1798.27 27.3176 1801.86 28.7176C1798.27 30.9176 1800.56 30.1176 1796.48 32.1176C1809.82 32.4176 1795.69 34.8176 1805.84 36.6176C1809.12 36.2176 1807.13 34.1176 1812.31 34.8176C1809.32 32.2176 1809.72 31.4176 1801.36 31.0176C1804.44 27.4176 1812.41 32.2176 1818.38 30.2176C1813.7 29.8176 1816.88 29.4176 1811.81 29.8176C1811.21 26.7176 1809.32 26.2176 1814.1 23.4176C1808.62 24.1176 1806.14 27.3176 1798.27 26.2176C1796.18 23.0176 1807.93 24.1176 1808.23 20.0176C1812.21 18.1176 1821.66 20.1176 1825.94 21.7176C1833.6 19.4176 1842.96 19.6176 1848.93 16.1176C1854.4 17.4176 1868.24 14.4176 1878.59 15.8176C1880.08 17.6176 1890.53 17.4176 1885.36 19.0176C1887.45 18.6176 1894.21 18.3176 1892.22 16.8176C1891.33 17.4176 1890.33 16.9176 1888.54 16.9176L1890.23 14.7176C1895.21 15.8176 1900.88 13.1176 1905.66 14.6176C1907.15 16.4176 1896.6 15.5176 1899.79 17.7176C1903.57 15.1176 1915.41 14.5176 1923.37 14.5176V0.71759H1220.45ZM1554.94 19.8176C1554.54 19.9176 1554.14 20.1176 1553.75 20.2176C1554.54 20.1176 1555.14 19.9176 1554.94 19.8176ZM1523.29 8.61759C1523.19 8.31759 1523.09 8.11759 1522.89 7.81759C1522.7 8.11759 1522.7 8.31759 1523.29 8.61759ZM1501.7 16.7176C1501.3 17.1176 1500.6 17.6176 1499.31 18.0176C1501.6 17.8176 1501.99 17.3176 1501.7 16.7176Z" fill="#E7E7E7"/>
</g>
<g clip-path="url(#clip3)">
<path d="M2156.26 36.0176C2155.96 36.2176 2155.56 36.4176 2155.36 36.7176C2156.35 36.7176 2156.45 36.4176 2156.26 36.0176ZM2156.26 36.0176C2157.35 35.3176 2159.14 34.9176 2161.13 34.6176L2158.84 33.4176C2153.17 33.3176 2155.66 35.0176 2156.26 36.0176ZM2161.33 34.7176C2164.12 34.7176 2165.51 34.5176 2166.31 34.2176C2164.62 34.3176 2162.82 34.5176 2161.23 34.6176L2161.33 34.7176ZM2116.74 29.7176C2117.34 29.3176 2118.14 28.7176 2118.64 28.1176L2116.05 29.3176L2116.74 29.7176ZM2117.54 30.1176L2116.74 29.7176C2115.85 30.3176 2115.55 30.5176 2117.54 30.1176ZM2225.92 23.2176C2225.82 23.2176 2225.72 23.3176 2225.62 23.3176C2225.72 23.3176 2225.92 23.2176 2226.02 23.2176H2225.92ZM2231.99 22.3176C2232.99 23.9176 2227.31 26.6176 2232.09 28.1176C2248.91 28.8176 2239.46 22.1176 2256.77 23.0176L2248.02 20.9176C2248.41 23.7176 2242.14 25.1176 2235.38 25.1176L2233.39 23.0176C2234.58 22.4176 2235.77 22.0176 2237.07 21.6176C2234.68 21.4176 2235.08 23.0176 2231.99 22.3176ZM2237.86 21.8176C2237.76 21.8176 2237.57 21.7176 2237.47 21.6176C2237.37 21.6176 2237.37 21.6176 2237.27 21.7176C2237.47 21.7176 2237.57 21.7176 2237.86 21.8176ZM2221.64 21.0176L2225.82 23.2176C2226.42 22.9176 2227.02 22.5176 2227.81 22.1176C2228.71 20.5176 2223.73 20.5176 2221.64 21.0176ZM1745.03 14.9176C1744.83 14.5176 1745.82 14.2176 1746.32 14.1176C1745.03 13.0176 1743.73 12.9176 1742.44 13.4176C1742.34 14.2176 1744.13 14.3176 1745.03 14.9176ZM1648.79 14.9176C1649.29 15.1176 1649.49 14.8176 1648.79 14.9176V14.9176ZM1746.52 13.9176C1746.52 13.9176 1746.42 13.9176 1746.32 14.0176C1746.52 14.2176 1746.72 14.3176 1746.92 14.5176L1746.52 13.9176ZM2113.66 24.4176L2116.74 24.7176C2117.04 24.3176 2117.54 23.9176 2117.94 23.5176C2115.95 23.5176 2114.26 23.7176 2113.66 24.4176ZM1895.71 14.2176L1895.31 16.0176C1895.61 15.2176 1895.71 14.7176 1895.71 14.2176ZM1632.17 0.71759V14.4176C1636.25 14.3176 1640.53 14.6176 1644.61 16.6176C1647 15.4176 1648.29 15.0176 1648.89 14.9176C1648.49 14.7176 1647.79 14.2176 1647.6 12.3176C1650.38 13.7176 1656.06 12.2176 1655.46 15.9176L1654.76 16.3176C1654.26 20.0176 1663.22 14.8176 1666.31 18.1176L1664.71 14.1176L1669.99 14.9176L1668.5 15.7176C1691.68 7.61759 1701.64 20.5176 1723.33 13.1176C1720.35 17.4176 1727.61 10.9176 1727.81 15.7176C1733.09 21.8176 1737.86 14.7176 1742.34 13.3176C1742.34 13.1176 1742.44 12.8176 1742.64 12.4176L1750.4 13.2176C1745.63 19.1176 1756.17 8.41759 1751.7 13.4176C1771.8 18.5176 1798.37 14.7176 1821.76 17.5176L1820.76 15.9176C1826.74 16.4176 1834.2 14.7176 1838.58 17.3176C1843.06 19.9176 1848.53 13.7176 1850.32 13.5176C1855.4 11.0176 1859.68 16.4176 1857.59 16.1176C1862.86 15.5176 1868.04 10.2176 1875.3 12.8176C1877.69 18.0176 1895.51 8.41759 1895.51 14.2176L1895.61 13.7176C1898.59 15.1176 1901.58 15.3176 1904.56 15.2176C1904.66 15.2176 1904.86 15.2176 1904.96 15.3176L1905.26 15.2176C1907.15 15.1176 1909.14 14.8176 1911.03 14.5176C1911.73 15.3176 1912.82 16.1176 1913.22 16.7176C1914.02 15.9176 1913.42 15.1176 1912.62 14.3176C1916.31 13.9176 1920.09 13.8176 1923.97 15.4176C1923.97 15.4176 1923.77 15.8176 1923.37 16.2176L1934.32 7.71759C1934.42 7.81759 1934.52 7.81759 1934.62 7.91759C1935.12 7.31759 1937.8 7.11759 1939.59 7.41759L1939.69 8.21759C1943.77 7.61759 1938.4 7.31759 1939.4 6.51759C1942.28 6.31759 1946.86 8.21759 1951.64 8.31759C1946.86 8.31759 1942.88 9.31759 1939.5 10.1176C1948.15 11.8176 1937.8 14.3176 1935.81 16.4176C1942.78 15.6176 1945.57 14.1176 1951.24 12.9176C1958.11 14.8176 1950.54 19.0176 1948.75 19.2176C1955.12 18.2176 1961.79 15.7176 1965.27 14.8176C1960.49 17.9176 1961.19 19.0176 1956.91 21.5176C1961.89 23.6176 1963.08 21.3176 1965.47 20.1176C1964.08 20.4176 1961.89 20.5176 1961.39 19.9176C1967.46 20.4176 1966.57 15.3176 1969.75 13.2176C1973.83 14.6176 1981.49 15.5176 1981.99 18.0176V15.4176C1987.27 14.8176 1984.68 17.1176 1985.47 18.2176C1987.47 16.1176 1985.18 12.9176 1994.03 12.3176C1992.54 17.4176 2001.9 13.0176 2001.5 17.6176C2005.58 17.4176 2007.57 14.9176 2011.85 15.5176C2016.53 18.3176 2005.18 21.6176 2002.59 20.8176C1996.62 20.8176 2003.49 18.7176 2001.1 18.7176L1995.33 19.9176C1998.51 21.0176 2004.68 22.3176 2003.79 24.4176C2009.56 23.6176 1999.21 22.1176 2005.58 21.0176L2009.36 22.3176C2015.73 21.3176 2008.17 18.7176 2016.43 18.3176C2010.85 20.4176 2025.38 18.6176 2024.79 21.9176C2025.28 17.7176 2039.61 21.8176 2041.41 18.4176L2037.03 17.3176L2037.92 19.2176C2033.15 19.2176 2029.17 20.2176 2024.29 19.3176C2028.17 17.8176 2023.09 15.7176 2027.57 14.5176C2036.13 12.2176 2029.76 16.8176 2030.96 16.8176L2037.72 14.7176L2033.25 12.8176C2038.52 12.2176 2045.69 12.2176 2052.85 12.7176C2063.4 15.5176 2051.46 15.0176 2059.02 17.6176C2062.51 16.8176 2061.71 15.7176 2066.49 16.2176C2063.9 14.9176 2061.81 16.6176 2060.02 16.4176C2057.73 13.6176 2068.78 15.4176 2068.38 12.8176C2070.37 13.9176 2069.97 14.9176 2068.28 16.0176C2076.44 15.2176 2084.3 15.9176 2087.29 19.3176L2090.87 16.1176C2104.8 17.7176 2081.22 18.8176 2092.96 21.2176C2097.84 21.6176 2102.61 21.7176 2104.7 20.4176L2100.52 20.2176C2103.81 18.5176 2103.61 17.3176 2108.78 16.2176C2112.47 16.6176 2110.38 18.7176 2114.85 17.1176C2123.71 18.8176 2120.53 21.1176 2117.94 23.4176C2121.62 23.2176 2126.4 23.4176 2127.1 22.1176C2127.1 22.9176 2126.5 24.3176 2124.41 25.1176C2116.94 21.5176 2121.42 28.4176 2118.44 24.7176L2116.74 24.6176C2116.55 24.8176 2116.45 25.0176 2116.35 25.2176C2119.53 26.0176 2119.53 27.1176 2118.64 28.1176L2121.72 26.7176L2123.91 29.8176C2126.7 30.3176 2128.69 27.7176 2130.18 29.5176C2134.36 32.2176 2123.91 33.4176 2134.26 34.8176C2145.31 36.0176 2144.81 31.0176 2152.37 31.9176C2151.58 31.0176 2149.79 31.0176 2147.4 30.8176C2149.89 29.5176 2145.61 28.3176 2149.79 27.4176C2152.08 30.2176 2160.04 30.2176 2166.11 30.4176C2164.52 31.8176 2168.3 33.4176 2166.41 34.2176C2169.49 33.9176 2172.38 33.6176 2173.67 32.4176C2161.33 30.0176 2185.71 30.5176 2176.16 27.5176C2185.81 27.9176 2187.61 30.5176 2193.48 32.1176C2193.08 32.9176 2182.33 33.5176 2190.89 34.9176C2200.74 32.3176 2189.3 30.9176 2196.96 27.7176L2190.79 26.5176C2190.09 23.0176 2201.54 26.0176 2203.13 25.2176C2206.91 26.2176 2197.76 26.0176 2201.44 28.5176C2207.11 29.4176 2210 27.3176 2213.58 28.7176C2210 30.9176 2212.29 30.1176 2208.21 32.1176C2221.54 32.4176 2207.41 34.8176 2217.56 36.6176C2220.85 36.2176 2218.86 34.1176 2224.03 34.8176C2221.04 32.2176 2221.44 31.4176 2213.08 31.0176C2216.17 27.4176 2224.13 32.2176 2230.1 30.2176C2225.42 29.8176 2228.61 29.4176 2223.53 29.8176C2222.94 26.7176 2221.04 26.2176 2225.82 23.4176C2220.35 24.1176 2217.86 27.3176 2210 26.2176C2207.91 23.0176 2219.65 24.1176 2219.95 20.0176C2223.93 18.1176 2233.39 20.1176 2237.66 21.7176C2245.33 19.4176 2254.68 19.6176 2260.65 16.1176C2266.13 17.4176 2279.96 14.4176 2290.31 15.8176C2291.81 17.6176 2302.26 17.4176 2297.08 19.0176C2299.17 18.6176 2305.94 18.3176 2303.95 16.8176C2303.05 17.4176 2302.06 16.9176 2300.26 16.9176L2301.96 14.7176C2306.93 15.8176 2312.61 13.1176 2317.38 14.6176C2318.88 16.4176 2308.33 15.5176 2311.51 17.7176C2315.29 15.1176 2327.14 14.5176 2335.1 14.5176V0.71759H1632.17ZM1966.66 19.8176C1966.27 19.9176 1965.87 20.1176 1965.47 20.2176C1966.27 20.1176 1966.86 19.9176 1966.66 19.8176ZM1935.02 8.61759C1934.92 8.31759 1934.82 8.11759 1934.62 7.81759C1934.42 8.11759 1934.42 8.31759 1935.02 8.61759ZM1913.42 16.7176C1913.02 17.1176 1912.33 17.6176 1911.03 18.0176C1913.32 17.8176 1913.72 17.3176 1913.42 16.7176Z" fill="#E7E7E7"/>
</g>
<g clip-path="url(#clip4)">
<path d="M2321.46 36.0176C2321.16 36.2176 2320.76 36.4176 2320.56 36.7176C2321.56 36.7176 2321.66 36.4176 2321.46 36.0176ZM2321.46 36.0176C2322.55 35.3176 2324.34 34.9176 2326.33 34.6176L2324.04 33.4176C2318.37 33.3176 2320.86 35.0176 2321.46 36.0176ZM2326.53 34.7176C2329.32 34.7176 2330.71 34.5176 2331.51 34.2176C2329.82 34.3176 2328.03 34.5176 2326.43 34.6176L2326.53 34.7176ZM2281.95 29.7176C2282.54 29.3176 2283.34 28.7176 2283.84 28.1176L2281.25 29.3176L2281.95 29.7176ZM2282.74 30.1176L2281.95 29.7176C2281.05 30.3176 2280.75 30.5176 2282.74 30.1176ZM2391.12 23.2176C2391.02 23.2176 2390.92 23.3176 2390.82 23.3176C2390.92 23.3176 2391.12 23.2176 2391.22 23.2176H2391.12ZM2397.19 22.3176C2398.19 23.9176 2392.52 26.6176 2397.29 28.1176C2414.11 28.8176 2404.66 22.1176 2421.97 23.0176L2413.22 20.9176C2413.61 23.7176 2407.34 25.1176 2400.58 25.1176L2398.59 23.0176C2399.78 22.4176 2400.98 22.0176 2402.27 21.6176C2399.88 21.4176 2400.28 23.0176 2397.19 22.3176ZM2403.07 21.8176C2402.97 21.8176 2402.77 21.7176 2402.67 21.6176C2402.57 21.6176 2402.57 21.6176 2402.47 21.7176C2402.67 21.7176 2402.77 21.7176 2403.07 21.8176ZM2386.84 21.0176L2391.02 23.2176C2391.62 22.9176 2392.22 22.5176 2393.01 22.1176C2393.91 20.5176 2388.93 20.5176 2386.84 21.0176ZM1910.23 14.9176C1910.03 14.5176 1911.03 14.2176 1911.52 14.1176C1910.23 13.0176 1908.94 12.9176 1907.64 13.4176C1907.54 14.2176 1909.33 14.3176 1910.23 14.9176ZM1813.99 14.9176C1814.49 15.1176 1814.69 14.8176 1813.99 14.9176V14.9176ZM1911.72 13.9176C1911.72 13.9176 1911.62 13.9176 1911.52 14.0176C1911.72 14.2176 1911.92 14.3176 1912.12 14.5176L1911.72 13.9176ZM2278.86 24.4176L2281.95 24.7176C2282.24 24.3176 2282.74 23.9176 2283.14 23.5176C2281.15 23.5176 2279.46 23.7176 2278.86 24.4176ZM2060.91 14.2176L2060.51 16.0176C2060.81 15.2176 2060.91 14.7176 2060.91 14.2176ZM1797.37 0.71759V14.4176C1801.45 14.3176 1805.73 14.6176 1809.81 16.6176C1812.2 15.4176 1813.49 15.0176 1814.09 14.9176C1813.69 14.7176 1813 14.2176 1812.8 12.3176C1815.58 13.7176 1821.26 12.2176 1820.66 15.9176L1819.96 16.3176C1819.46 20.0176 1828.42 14.8176 1831.51 18.1176L1829.91 14.1176L1835.19 14.9176L1833.7 15.7176C1856.89 7.61759 1866.84 20.5176 1888.53 13.1176C1885.55 17.4176 1892.81 10.9176 1893.01 15.7176C1898.29 21.8176 1903.06 14.7176 1907.54 13.3176C1907.54 13.1176 1907.64 12.8176 1907.84 12.4176L1915.6 13.2176C1910.83 19.1176 1921.38 8.41759 1916.9 13.4176C1937 18.5176 1963.57 14.7176 1986.96 17.5176L1985.97 15.9176C1991.94 16.4176 1999.4 14.7176 2003.78 17.3176C2008.26 19.9176 2013.73 13.7176 2015.52 13.5176C2020.6 11.0176 2024.88 16.4176 2022.79 16.1176C2028.06 15.5176 2033.24 10.2176 2040.5 12.8176C2042.89 18.0176 2060.71 8.41759 2060.71 14.2176L2060.81 13.7176C2063.79 15.1176 2066.78 15.3176 2069.76 15.2176C2069.86 15.2176 2070.06 15.2176 2070.16 15.3176L2070.46 15.2176C2072.35 15.1176 2074.34 14.8176 2076.23 14.5176C2076.93 15.3176 2078.02 16.1176 2078.42 16.7176C2079.22 15.9176 2078.62 15.1176 2077.83 14.3176C2081.51 13.9176 2085.29 13.8176 2089.17 15.4176C2089.17 15.4176 2088.97 15.8176 2088.57 16.2176L2099.52 7.71759C2099.62 7.81759 2099.72 7.81759 2099.82 7.91759C2100.32 7.31759 2103 7.11759 2104.8 7.41759L2104.9 8.21759C2108.98 7.61759 2103.6 7.31759 2104.6 6.51759C2107.48 6.31759 2112.06 8.21759 2116.84 8.31759C2112.06 8.31759 2108.08 9.31759 2104.7 10.1176C2113.35 11.8176 2103 14.3176 2101.01 16.4176C2107.98 15.6176 2110.77 14.1176 2116.44 12.9176C2123.31 14.8176 2115.74 19.0176 2113.95 19.2176C2120.32 18.2176 2126.99 15.7176 2130.47 14.8176C2125.7 17.9176 2126.39 19.0176 2122.11 21.5176C2127.09 23.6176 2128.28 21.3176 2130.67 20.1176C2129.28 20.4176 2127.09 20.5176 2126.59 19.9176C2132.66 20.4176 2131.77 15.3176 2134.95 13.2176C2139.03 14.6176 2146.7 15.5176 2147.19 18.0176V15.4176C2152.47 14.8176 2149.88 17.1176 2150.68 18.2176C2152.67 16.1176 2150.38 12.9176 2159.23 12.3176C2157.74 17.4176 2167.1 13.0176 2166.7 17.6176C2170.78 17.4176 2172.77 14.9176 2177.05 15.5176C2181.73 18.3176 2170.38 21.6176 2167.79 20.8176C2161.82 20.8176 2168.69 18.7176 2166.3 18.7176L2160.53 19.9176C2163.71 21.0176 2169.88 22.3176 2168.99 24.4176C2174.76 23.6176 2164.41 22.1176 2170.78 21.0176L2174.56 22.3176C2180.93 21.3176 2173.37 18.7176 2181.63 18.3176C2176.05 20.4176 2190.58 18.6176 2189.99 21.9176C2190.48 17.7176 2204.82 21.8176 2206.61 18.4176L2202.23 17.3176L2203.12 19.2176C2198.35 19.2176 2194.37 20.2176 2189.49 19.3176C2193.37 17.8176 2188.3 15.7176 2192.77 14.5176C2201.33 12.2176 2194.96 16.8176 2196.16 16.8176L2202.93 14.7176L2198.45 12.8176C2203.72 12.2176 2210.89 12.2176 2218.05 12.7176C2228.6 15.5176 2216.66 15.0176 2224.22 17.6176C2227.71 16.8176 2226.91 15.7176 2231.69 16.2176C2229.1 14.9176 2227.01 16.6176 2225.22 16.4176C2222.93 13.6176 2233.98 15.4176 2233.58 12.8176C2235.57 13.9176 2235.17 14.9176 2233.48 16.0176C2241.64 15.2176 2249.5 15.9176 2252.49 19.3176L2256.07 16.1176C2270 17.7176 2246.42 18.8176 2258.16 21.2176C2263.04 21.6176 2267.81 21.7176 2269.9 20.4176L2265.72 20.2176C2269.01 18.5176 2268.81 17.3176 2273.98 16.2176C2277.67 16.6176 2275.58 18.7176 2280.06 17.1176C2288.91 18.8176 2285.73 21.1176 2283.14 23.4176C2286.82 23.2176 2291.6 23.4176 2292.3 22.1176C2292.3 22.9176 2291.7 24.3176 2289.61 25.1176C2282.15 21.5176 2286.62 28.4176 2283.64 24.7176L2281.95 24.6176C2281.75 24.8176 2281.65 25.0176 2281.55 25.2176C2284.73 26.0176 2284.73 27.1176 2283.84 28.1176L2286.92 26.7176L2289.11 29.8176C2291.9 30.3176 2293.89 27.7176 2295.38 29.5176C2299.56 32.2176 2289.11 33.4176 2299.46 34.8176C2310.51 36.0176 2310.01 31.0176 2317.58 31.9176C2316.78 31.0176 2314.99 31.0176 2312.6 30.8176C2315.09 29.5176 2310.81 28.3176 2314.99 27.4176C2317.28 30.2176 2325.24 30.2176 2331.31 30.4176C2329.72 31.8176 2333.5 33.4176 2331.61 34.2176C2334.69 33.9176 2337.58 33.6176 2338.87 32.4176C2326.53 30.0176 2350.92 30.5176 2341.36 27.5176C2351.01 27.9176 2352.81 30.5176 2358.68 32.1176C2358.28 32.9176 2347.53 33.5176 2356.09 34.9176C2365.94 32.3176 2354.5 30.9176 2362.16 27.7176L2355.99 26.5176C2355.29 23.0176 2366.74 26.0176 2368.33 25.2176C2372.11 26.2176 2362.96 26.0176 2366.64 28.5176C2372.31 29.4176 2375.2 27.3176 2378.78 28.7176C2375.2 30.9176 2377.49 30.1176 2373.41 32.1176C2386.74 32.4176 2372.61 34.8176 2382.76 36.6176C2386.05 36.2176 2384.06 34.1176 2389.23 34.8176C2386.25 32.2176 2386.64 31.4176 2378.28 31.0176C2381.37 27.4176 2389.33 32.2176 2395.3 30.2176C2390.62 29.8176 2393.81 29.4176 2388.73 29.8176C2388.14 26.7176 2386.25 26.2176 2391.02 23.4176C2385.55 24.1176 2383.06 27.3176 2375.2 26.2176C2373.11 23.0176 2384.85 24.1176 2385.15 20.0176C2389.13 18.1176 2398.59 20.1176 2402.87 21.7176C2410.53 19.4176 2419.88 19.6176 2425.86 16.1176C2431.33 17.4176 2445.16 14.4176 2455.51 15.8176C2457.01 17.6176 2467.46 17.4176 2462.28 19.0176C2464.37 18.6176 2471.14 18.3176 2469.15 16.8176C2468.25 17.4176 2467.26 16.9176 2465.47 16.9176L2467.16 14.7176C2472.13 15.8176 2477.81 13.1176 2482.58 14.6176C2484.08 16.4176 2473.53 15.5176 2476.71 17.7176C2480.49 15.1176 2492.34 14.5176 2500.3 14.5176V0.71759H1797.37ZM2131.87 19.8176C2131.47 19.9176 2131.07 20.1176 2130.67 20.2176C2131.47 20.1176 2132.07 19.9176 2131.87 19.8176ZM2100.22 8.61759C2100.12 8.31759 2100.02 8.11759 2099.82 7.81759C2099.62 8.11759 2099.62 8.31759 2100.22 8.61759ZM2078.62 16.7176C2078.22 17.1176 2077.53 17.6176 2076.23 18.0176C2078.52 17.8176 2078.92 17.3176 2078.62 16.7176Z" fill="#E7E7E7"/>
</g>
<defs>
<clipPath id="clip0">
<rect width="702.629" height="36" fill="white" transform="translate(0 0.71759)"/>
</clipPath>
<clipPath id="clip1">
<rect width="702.629" height="36" fill="white" transform="translate(517.517 0.71759)"/>
</clipPath>
<clipPath id="clip2">
<rect width="702.629" height="36" fill="white" transform="translate(1220.45 0.71759)"/>
</clipPath>
<clipPath id="clip3">
<rect width="702.629" height="36" fill="white" transform="translate(1632.17 0.71759)"/>
</clipPath>
<clipPath id="clip4">
<rect width="702.629" height="36" fill="white" transform="translate(1797.37 0.71759)"/>
</clipPath>
</defs>
</svg>
