<svg width="29" height="31" viewBox="0 0 29 31" fill="none" xmlns="http://www.w3.org/2000/svg">
<path d="M14.5118 11.6126H17.3542V7.34722H21.6177V4.50363H17.3542V0.238251L14.5118 0.238251V4.50363H10.2482V7.34722H14.5118V11.6126ZM8.82698 24.4087C7.26366 24.4087 5.9988 25.6884 5.9988 27.2523C5.9988 28.8163 7.26366 30.0959 8.82698 30.0959C10.3903 30.0959 11.6694 28.8163 11.6694 27.2523C11.6694 25.6884 10.3903 24.4087 8.82698 24.4087ZM23.0389 24.4087C21.4756 24.4087 20.2108 25.6884 20.2108 27.2523C20.2108 28.8163 21.4756 30.0959 23.0389 30.0959C24.6023 30.0959 25.8813 28.8163 25.8813 27.2523C25.8813 25.6884 24.6023 24.4087 23.0389 24.4087ZM9.06858 19.7879L9.11122 19.6173L10.3903 17.2998H20.9782C22.0441 17.2998 22.9821 16.7168 23.4653 15.8353L28.9511 5.86855L26.4782 4.50363H26.464L24.9007 7.34722L20.9782 14.4562H11.0014L10.8167 14.0723L7.63317 7.34722L6.28304 4.50363L4.94711 1.66004H0.299805L0.299805 4.50363H3.1422L8.2585 15.295L6.33989 18.7784C6.1125 19.1765 5.98459 19.6457 5.98459 20.1434C5.98459 21.7073 7.26366 22.9869 8.82698 22.9869H25.8813V20.1434H9.42388C9.23913 20.1434 9.06858 19.987 9.06858 19.7879Z" fill="#FD481B"/>
</svg>
