<svg width="21" height="20" viewBox="0 0 21 20" fill="none" xmlns="http://www.w3.org/2000/svg">
<path d="M20.0325 18.862L2.87519 1.70338L2.21331 1.04145L1.58581 0.41391L0.494141 1.50566L4.26771 5.27953L6.16739 9.28549L5.00695 11.3916C4.86942 11.6323 4.79206 11.916 4.79206 12.2169C4.79206 13.1625 5.56568 13.9362 6.51122 13.9362H12.9237L14.1099 15.1225C13.6802 15.432 13.3965 15.9392 13.3965 16.5151C13.3965 17.4608 14.1615 18.2344 15.1071 18.2344C15.683 18.2344 16.1901 17.9508 16.4996 17.5123L18.9408 19.9537L20.0325 18.862ZM6.87225 12.2169C6.75191 12.2169 6.65735 12.1223 6.65735 12.002L6.68314 11.8988L7.45677 10.4976H9.48538L11.2045 12.2169H6.87225ZM13.8607 10.4976C14.5054 10.4976 15.0727 10.1451 15.3649 9.61216L18.4422 4.03303C18.511 3.91268 18.5454 3.76654 18.5454 3.6204C18.5454 3.1476 18.1586 2.76075 17.6858 2.76075H6.11582L13.8607 10.4976ZM6.51122 14.7958C5.56568 14.7958 4.80065 15.5695 4.80065 16.5151C4.80065 17.4608 5.56568 18.2344 6.51122 18.2344C7.45677 18.2344 8.23039 17.4608 8.23039 16.5151C8.23039 15.5695 7.45677 14.7958 6.51122 14.7958Z" fill="#FD481B"/>
</svg>
