<svg width="26" height="25" viewBox="0 0 26 25" fill="none" xmlns="http://www.w3.org/2000/svg">
<path fill-rule="evenodd" clip-rule="evenodd" d="M25.2015 4.63445C25.4617 4.64557 25.7011 4.77741 25.85 4.99072C25.9988 5.20414 26.0398 5.47476 25.96 5.72228L22.4841 16.5672C22.3736 16.9123 22.0526 17.1467 21.6898 17.1467H9.10901L8.35831 19.2322H21.6898C22.0738 19.2322 22.385 19.5434 22.385 19.9274C22.385 20.3113 22.0739 20.6225 21.6898 20.6225H20.9083C21.3064 21.0657 21.5508 21.6493 21.5508 22.291C21.5508 23.671 20.4282 24.7936 19.0481 24.7936C17.6681 24.7936 16.5455 23.671 16.5455 22.291C16.5455 21.6492 16.7899 21.0657 17.1883 20.6225H11.7319C12.13 21.0657 12.3745 21.6493 12.3745 22.291C12.3745 23.671 11.2515 24.7936 9.87181 24.7936C8.49207 24.7936 7.36917 23.671 7.36917 22.291C7.36917 21.6492 7.6136 21.0657 8.01182 20.6225H7.36917C7.14289 20.6225 6.93092 20.5123 6.80059 20.3271C6.67008 20.1419 6.63848 19.9051 6.71517 19.6919L7.63141 17.1469H7.23016C6.82747 17.1469 6.48243 16.8594 6.40953 16.4635L3.99067 3.29423L0.5292 1.93439C0.100379 1.76589 -0.110308 1.28144 0.057904 0.852677C0.226407 0.424146 0.710562 0.213401 1.13962 0.38138L5.03258 1.91077C5.30116 2.01614 5.49591 2.25278 5.54816 2.53643L5.76588 3.72191L10.3951 3.99623L25.2015 4.63445Z" fill="white"/>
</svg>
