<svg width="29" height="31" viewBox="0 0 29 31" fill="none" xmlns="http://www.w3.org/2000/svg">
<path d="M14.2176 8.08292C10.1843 8.08292 6.93094 11.4141 6.93094 15.5439C6.93094 19.6738 10.1843 23.005 14.2176 23.005C18.251 23.005 21.5043 19.6738 21.5043 15.5439C21.5043 11.4141 18.251 8.08292 14.2176 8.08292ZM14.2176 20.3946C11.6112 20.3946 9.48033 18.2193 9.48033 15.5439C9.48033 12.8686 11.6048 10.6933 14.2176 10.6933C16.8304 10.6933 18.9549 12.8686 18.9549 15.5439C18.9549 18.2193 16.8241 20.3946 14.2176 20.3946V20.3946ZM23.502 7.77773C23.502 8.74526 22.741 9.51799 21.8024 9.51799C20.8575 9.51799 20.1028 8.73877 20.1028 7.77773C20.1028 6.81669 20.8638 6.03747 21.8024 6.03747C22.741 6.03747 23.502 6.81669 23.502 7.77773ZM28.3281 9.54396C28.2203 7.21279 27.7002 5.14786 26.0323 3.44657C24.3708 1.74527 22.3541 1.21281 20.0774 1.09592C17.731 0.959562 10.698 0.959562 8.3515 1.09592C6.08114 1.20631 4.06446 1.73878 2.39658 3.44008C0.728694 5.14137 0.215011 7.2063 0.100859 9.53746C-0.0323177 11.9401 -0.0323177 19.1413 0.100859 21.5439C0.208669 23.8751 0.728694 25.94 2.39658 27.6413C4.06446 29.3426 6.0748 29.8751 8.3515 29.992C10.698 30.1283 17.731 30.1283 20.0774 29.992C22.3541 29.8816 24.3708 29.3491 26.0323 27.6413C27.6939 25.94 28.2139 23.8751 28.3281 21.5439C28.4612 19.1413 28.4612 11.9466 28.3281 9.54396V9.54396ZM25.2967 24.1218C24.802 25.3946 23.8444 26.3751 22.5951 26.8881C20.7243 27.6478 16.285 27.4725 14.2176 27.4725C12.1502 27.4725 7.70464 27.6413 5.84016 26.8881C4.59717 26.3816 3.63956 25.4011 3.13857 24.1218C2.39658 22.2063 2.56781 17.6608 2.56781 15.5439C2.56781 13.4271 2.40292 8.87513 3.13857 6.96604C3.63322 5.69332 4.59083 4.7128 5.84016 4.19981C7.71098 3.44008 12.1502 3.6154 14.2176 3.6154C16.285 3.6154 20.7306 3.44657 22.5951 4.19981C23.8381 4.70631 24.7957 5.68682 25.2967 6.96604C26.0387 8.88162 25.8675 13.4271 25.8675 15.5439C25.8675 17.6608 26.0387 22.2128 25.2967 24.1218Z" fill="#6C6C6C"/>
</svg>
