<?xml version="1.0" encoding="utf-8"?>
<!-- Generator: Adobe Illustrator 24.2.1, SVG Export Plug-In . SVG Version: 6.00 Build 0)  -->
<svg version="1.1" id="Слой_1" xmlns="http://www.w3.org/2000/svg" xmlns:xlink="http://www.w3.org/1999/xlink" x="0px" y="0px"
	 viewBox="0 0 321.8 208.8" style="enable-background:new 0 0 321.8 208.8;" xml:space="preserve">
<style type="text/css">
	.st0{fill:#EE2E23;}
	.st1{fill-rule:evenodd;clip-rule:evenodd;}
	.st2{fill:#FFFFFF;}
	.st3{fill-rule:evenodd;clip-rule:evenodd;fill:#FFFFFF;}
</style>
<polygon class="st0" points="40.2,155.8 61.8,126 86,126 61.8,159.5 71.7,192.9 47.6,192.9 38.7,163.1 32.3,192.8 10,192.8 
	24.2,125.9 46.6,125.9 40.2,155.8 "/>
<path class="st1" d="M46.5,141.8l13.7-18.9h32l-26.9,37.3l10.8,36H45.2l-6-20.1L34.9,196H6.1l15.6-73.3h28.9L46.5,141.8L46.5,141.8z
	 M40.2,155.8L61.8,126H86l-24.2,33.5l10,33.4H47.6l-8.9-29.8l-6.3,29.8H10l14.2-66.9h22.3L40.2,155.8L40.2,155.8z"/>
<path class="st2" d="M68.6,77.3l-8.7,41H46.5l4.9-22.9l-8,22.9h-9.5l1.4-22.3l-4.8,22.3H17l8.7-41h17.6c0,1.7,0.4,5.9,1.3,12.8
	l6.3-12.8H68.6L68.6,77.3z"/>
<path class="st1" d="M46.6,78.7l2.3-4.7h23.6l-10.1,47.3H13.1l10.1-47.3h23.4l0.1,3.1C46.5,77.6,46.6,78.1,46.6,78.7L46.6,78.7z
	 M68.6,77.3l-8.7,41H46.5l4.9-22.9l-8,22.9h-9.5l1.4-22.3l-4.8,22.3H17l8.7-41h17.6c0,1.7,0.4,5.9,1.3,12.8l6.3-12.8H68.6L68.6,77.3
	z"/>
<polygon class="st2" points="81.7,87 80.4,93 93.9,93 91.8,102.8 78.3,102.8 77.1,108.5 90.6,108.5 88.5,118.2 61.4,118.2 
	70.1,77.3 97.2,77.3 95.2,87 81.7,87 "/>
<path class="st1" d="M94.5,105.3L94.5,105.3l-3.4,16.1H57.5l10.1-47.3h33.6l-3.4,16.1h0L94.5,105.3L94.5,105.3z M81.7,87l-1.3,6
	h13.5l-2.1,9.8H78.3l-1.2,5.7h13.5l-2.1,9.8H61.4l8.7-41h27.1L95.2,87H81.7L81.7,87z"/>
<polygon class="st2" points="125.8,77.3 98.7,77.3 90.5,118.2 104.1,118.2 110.4,87 123.9,87 125.8,77.3 "/>
<path class="st1" d="M113,90.2l-6.3,31.2H86.6l9.5-47.3h33.6l-3.2,16.1H113L113,90.2z M125.8,77.3H98.7l-8.2,41h13.6l6.3-31.2h13.5
	L125.8,77.3L125.8,77.3z"/>
<path class="st2" d="M136.9,103.6c0.3-4.7,0.8-10.4,1.5-17.2c-3.1,7.8-5.2,13.6-6.4,17.2H136.9L136.9,103.6z M150,77.3l-0.5,41
	h-14.7l0.8-7.4h-5.1l-2.4,7.4h-14.8l16-41H150L150,77.3z"/>
<path class="st1" d="M131.8,117.5l-1.3,3.9h-21.8l18.4-47.3h26.1l-0.6,47.3h-21.4L131.8,117.5L131.8,117.5z M150,77.3l-0.5,41h-14.7
	l0.8-7.4h-5.1l-2.4,7.4h-14.8l16-41H150L150,77.3z M136.9,103.6c0.3-4.7,0.8-10.4,1.5-17.2c-3.1,7.8-5.2,13.6-6.4,17.2H136.9
	L136.9,103.6z"/>
<path class="st1" d="M123.5,165.9c-1.7,1.1-3.5,2.1-5.4,2.9c-4.3,1.8-8.5,2.7-12.5,2.7c-0.5,0-1,0-1.6,0l-5.7,0l-5.2,24.7l-28.8,0
	l15.6-73.3H108v0.1h14.2c5.2,0,9.2,2.1,12,6.3c-0.2,0.3-0.8,1.6-1.7,3.4c-0.2-0.4-0.4-0.7-0.6-1.1c-2.2-3.6-5.5-5.4-9.7-5.4h-17.4
	v-0.1H82.4l-14.2,67l22.3,0l5.2-24.7l8.4,0.1c0.5,0,1,0,1.5,0c3.6,0,7.3-0.8,11.2-2.5c2.2-0.9,4.1-2,5.9-3.3
	C123,163.5,123.2,164.7,123.5,165.9L123.5,165.9z M98.4,155.7h3.4l0.1,0c1.5,0,2.9-0.9,4.3-2.6c1.4-1.7,2.3-3.7,2.8-6.1
	c0.2-1,0.3-2,0.3-2.9c0-1.2-0.2-2.2-0.6-3.2c-0.7-1.7-1.7-2.5-3.2-2.5h-3.4L98.4,155.7L98.4,155.7z M105.5,141.7h-0.8l-2.3,10.8
	c0.4-0.2,0.8-0.7,1.3-1.2c1.1-1.3,1.8-2.9,2.2-4.7c0.2-0.8,0.3-1.6,0.3-2.3c0-0.8-0.1-1.4-0.3-2C105.7,142,105.5,141.8,105.5,141.7
	L105.5,141.7z"/>
<path class="st0" d="M122.7,162.5c-1.8,1.3-3.7,2.4-5.9,3.3c-3.9,1.6-7.6,2.5-11.2,2.5c-0.5,0-1,0-1.5,0l-8.4-0.1l-5.2,24.7l-22.3,0
	l14.2-67h22.3v0.1h17.4c4.2,0,7.5,1.8,9.7,5.4c0.2,0.4,0.4,0.7,0.6,1.1c-3.7,7.3-11.9,24-11,25.8
	C121.8,158.7,122.2,160.3,122.7,162.5L122.7,162.5z M98.4,155.7h3.4l0.1,0c1.5,0,2.9-0.9,4.3-2.6c1.4-1.7,2.3-3.7,2.8-6.1
	c0.2-1,0.3-2,0.3-2.9c0-1.2-0.2-2.2-0.6-3.2c-0.7-1.7-1.7-2.5-3.2-2.5h-3.4L98.4,155.7L98.4,155.7z"/>
<path class="st3" d="M281.3,113.6c0-1.1-0.1-2.2-0.2-3.2c0-0.4-0.2-0.9-0.4-1.2c0.1-0.4,0.2-0.9,0.1-1.3c-0.2-1.1-0.4-2.1-0.6-3.2
	c-0.1-0.4-0.3-0.8-0.5-1.2c0.1-0.4,0-0.9-0.1-1.3c-0.3-1-0.6-2-1-3c-0.1-0.4-0.4-0.7-0.7-1c0-0.4-0.1-0.8-0.3-1.2
	c-0.4-0.9-0.9-1.8-1.4-2.7c-0.2-0.3-0.4-0.6-0.8-0.9c-0.1-0.4-0.2-0.8-0.4-1.1c-0.5-0.8-1.1-1.6-1.7-2.3c-0.2-0.3-0.5-0.5-0.8-0.7
	c-0.1-0.4-0.4-0.7-0.6-1c-0.6-0.7-1.3-1.3-2-1.9c-0.3-0.2-0.6-0.4-0.9-0.5c-0.2-0.3-0.5-0.5-0.8-0.7c-0.7-0.5-1.5-0.9-2.2-1.3
	c-0.3-0.2-0.6-0.3-1-0.3c-0.3-0.2-0.6-0.4-0.9-0.5c-0.8-0.3-1.6-0.5-2.4-0.7c-0.2,0-0.4-0.1-0.6-0.1c-0.1,0-0.2,0-0.3,0
	c0,0-0.1,0-0.1,0c-0.2-0.1-0.5-0.2-0.7-0.2c0.3-0.6,0.6-1.1,0.9-1.5c0.4-0.6,0.6-1.1,0.7-1.3c0.2-0.3,0.4-0.7,0.5-1
	c0.2-0.4,0.4-0.8,0.5-1l0.2-0.2c0.5-0.7,1.1-1.6,1.5-2.8c0.3-0.9,0.6-3,0.7-3.6c0.1-1-0.1-1.9-0.4-2.5c0.2-0.2,0.3-0.4,0.4-0.5
	l3.2-4.3c1-1.3,2.6-3.8,1.6-5.9c-0.5-1.1-1.7-1.8-2.9-1.8c-0.1,0-0.2,0-0.3,0c-4.1,0.3-6.2,1.4-8.7,2.7c-0.6,0.3-1.3,0.7-2,1.1
	c-0.8,0.4-2,1-3.4,1.7c-2,1-4.5,2.3-6.7,3.4c2.5-3.9,1.5-6.3,0-7.7c0.6-1,0.6-2.1,0.6-2.5c0-2.3-0.5-5.1-1.1-7.1
	c-0.3-1-0.8-1.6-1.2-2.1c-0.1-0.2-0.2-0.5-0.3-0.8c-0.4-1.2-0.8-2.5-1.7-3.7c-0.1-0.2-1.2-1.4-2.1-2.1c-0.1-0.1-0.2-0.3-0.2-0.4
	c-0.2-0.3-0.5-0.6-0.8-0.8c-0.1-0.6-0.3-1.2-0.5-1.7c-1-2.8-3.1-4.3-6-4.3c-0.1,0-0.2,0-0.3,0c0.2-0.9,0.4-1.8,0.5-2.8
	c0.3-3.1-0.1-6.2-1.3-8.6c-0.7-1.3-1.7-2-3.1-2.1c-0.3-0.6-0.7-1.2-1.1-1.7c-0.4-0.4-0.8-0.7-1.3-0.8c-0.6-1.1-1.8-1.7-2.9-1.7
	c-0.4,0-0.9,0.1-1.3,0.2c-0.7-0.8-1.9-1.4-3.2-1.4c-1,0-2,0.3-3,0.8c-0.5-1.7-1.3-3.2-2.3-4.4c-0.7-0.7-1.4-1.1-1.9-1.3
	c-1-1.3-2.1-2.7-3.7-3.7c-0.4-0.3-0.8-0.5-1.2-0.7c-1.5-0.8-2.8-0.9-3.8-1c-0.4,0-0.7-0.1-1-0.1c-0.3-0.3-0.6-0.7-1.2-1
	c-0.4-0.2-0.9-0.4-1.4-0.4c-0.1,0-0.1,0-0.2,0c-1,0.1-1.7,0.4-2.2,0.8c0,0-0.1,0-0.1,0c-0.5,0.1-0.9,0.2-1.5,0.3
	c-5.1,1.4-8.4,4.7-9,8.9c-0.2,1.5-0.3,2.5-0.4,4c-0.1,2.2,0.1,9.7,0.4,12.3c0,0.1,0,0.1,0,0.2l0.1,0.7c0,0.1,0,0.2,0.1,0.3
	c0.3,1,1.2,2.3,3.1,2.3c1,0,2-0.4,2.8-1.2l0.7,0.6c-0.3,0.6-0.5,1-0.8,1.3c-0.2,0.2-0.5,0.4-0.8,0.7c-1.6,1.3-2.8,2.4-3.4,3.8
	c-0.1,0.2-0.1,0.4-0.2,0.5c-0.5,0.6-0.7,1-0.9,1.4c0,0.1-0.2,0.3-1.1,1.1c-0.2,0.2-0.4,0.3-0.5,0.4c-0.5,0.4-0.9,0.8-1.6,1.6
	c-0.7,0.8-1.5,1.4-2.5,2.1c-1.1,0.8-2.4,1.7-3.3,3c-0.5,0.8-1.3,1.5-2.1,2.2c-0.9,0.8-2,1.8-2.9,3.1c-0.6,0.8-1,1.5-1.4,2.1
	c-0.6,1-1.1,1.8-2,2.7c0,0-0.2,0.2-0.3,0.3c-0.8,0.2-1.4,0.7-2,1.2c-0.1,0-0.2,0-0.3,0c-1.3,0-2.2,0.3-3,0.8c-0.2,0-0.5,0-0.8-0.1
	c-0.8-0.1-1.7-0.2-2.8-0.2c-4.2,0-7.3,1.5-9.1,4.5c-0.9,1.5-1.6,4.1-0.5,6.4c0.6,1.3,1.6,2,2.4,2.6c0.3,0.2,0.5,0.4,0.7,0.5
	c0.5,0.5,1.3,1,2.4,1.2c-1.5,0.2-3.1,0.5-4.9,1.1c-6.2,1.9-15,7.9-21.5,14.7c-0.6,0.6-2,2-3.2,3.4c-1.8,2.1-3.5,4.4-2.2,6.7
	c0.2,0.3,0.4,0.6,0.7,0.9c0.8,0.7,1.8,1,2.8,1c0.9,0,1.6-0.3,2.2-0.5c2-0.7,3.7-1.6,5.4-2.6c1.4-0.8,2.7-1.5,4.1-2
	c0.4-0.2,0.8-0.2,1.2-0.2c0.1,0,0.1,0,0.2,0c0.5,0.4,1.3,0.9,2.5,0.9c0.5,0,0.9-0.1,1.4-0.3c0.7-0.3,1.4-0.7,1.9-1
	c0.1-0.1,0.3-0.2,0.5-0.3l9.3-5.8c1.3,0.6,3.4,0.8,6.8,1.1l-4.1,15.9c-0.5,0.2-1,0.4-1.6,0.9c-0.2,0-0.4,0-0.6,0c-0.4,0-0.9,0-1.3,0
	c-0.7,0-1.3,0.3-1.8,0.7c-0.4-0.3-1-0.4-1.5-0.4c-0.2,0-0.3,0-0.5,0c-0.9,0.1-1.8,0.3-2.6,0.5c-0.7,0.2-1.3,0.6-1.7,1.1
	c-0.3-0.1-0.7-0.2-1-0.2c-0.3,0-0.7,0.1-1,0.2c-0.9,0.3-1.7,0.7-2.6,1c-0.7,0.3-1.2,0.8-1.5,1.5c-0.2,0-0.4-0.1-0.7-0.1
	c-0.5,0-1,0.1-1.5,0.4c-0.8,0.5-1.7,1-2.5,1.5c-0.7,0.4-1.1,1.1-1.3,1.8c-0.1,0-0.2,0-0.3,0c-0.7,0-1.3,0.2-1.8,0.6
	c-0.8,0.6-1.5,1.2-2.3,1.9c-0.6,0.5-0.9,1.2-1,1.9l0,0.2c-0.8,0-1.6,0.3-2.1,0.9c-0.7,0.7-1.4,1.5-2.1,2.3c-0.5,0.6-0.7,1.3-0.7,2
	l0,0.3c-0.8,0.1-1.6,0.5-2.1,1.2c-0.6,0.8-1.2,1.7-1.8,2.6c-0.4,0.6-0.6,1.4-0.5,2.1l0.1,0.4c-0.8,0.2-1.6,0.7-2,1.5
	c-0.5,0.9-1,1.9-1.5,2.9c-0.3,0.7-0.4,1.5-0.2,2.2l0.1,0.3l-0.1,0c-0.8,0.3-1.5,0.9-1.8,1.7c-0.4,1-0.8,2-1.2,3
	c-0.3,0.8-0.2,1.6,0.1,2.3l0.1,0.2L114,146c-0.7,0.4-1.2,1-1.4,1.8c-0.3,1-0.6,2.1-0.8,3.2c-0.2,0.8,0,1.7,0.5,2.4l0,0.1l-0.3,0.2
	c-0.6,0.5-1,1.1-1.1,1.9c-0.2,1.1-0.3,2.1-0.4,3.2c-0.1,0.9,0.2,1.7,0.8,2.4l-0.3,0.3c-0.5,0.5-0.8,1.2-0.9,2c0,1.1-0.1,2.1-0.1,3.2
	c0,0.8,0.4,1.6,1,2.2l-0.2,0.2c-0.4,0.6-0.7,1.3-0.6,2.1c0.1,1,0.2,2.1,0.3,3.1c0.1,0.8,0.6,1.5,1.2,2l-0.1,0.1
	c-0.4,0.7-0.5,1.4-0.3,2.2c0.2,1,0.5,2,0.7,2.9c0.2,0.8,0.7,1.4,1.4,1.8c-0.3,0.7-0.3,1.5,0,2.2c0.3,0.9,0.7,1.8,1.1,2.7
	c0.3,0.7,0.9,1.2,1.5,1.5c-0.1,0.7,0,1.5,0.4,2.1c0.5,0.8,1,1.6,1.5,2.3c0.4,0.6,1,1,1.7,1.2c0,0.7,0.3,1.4,0.7,1.9
	c0.6,0.7,1.2,1.4,1.8,2c0.5,0.5,1.1,0.8,1.8,0.9c0.2,0.7,0.5,1.2,1.1,1.7c0.7,0.5,1.4,1.1,2.1,1.5c0.5,0.3,1.1,0.5,1.7,0.5
	c0.1,0,0.1,0,0.2,0c0.3,0.6,0.8,1.1,1.4,1.4c0.8,0.4,1.6,0.7,2.4,1c0.4,0.1,0.7,0.2,1.1,0.2c0.3,0,0.6,0,0.8-0.1
	c0.4,0.5,1,0.9,1.6,1c0.8,0.2,1.7,0.4,2.5,0.5c0.2,0,0.3,0,0.5,0c0.5,0,1-0.1,1.4-0.4c0.5,0.4,1.1,0.7,1.8,0.7c0.4,0,0.9,0,1.3,0
	c0.4,0,0.9,0,1.3,0c0.7,0,1.3-0.3,1.8-0.7c0.4,0.3,1,0.4,1.5,0.4c0.2,0,0.3,0,0.5,0c0.9-0.1,1.8-0.3,2.6-0.5
	c0.7-0.2,1.3-0.6,1.7-1.1c0.3,0.1,0.7,0.2,1,0.2c0.3,0,0.7-0.1,1-0.2c0.9-0.3,1.7-0.6,2.6-1c0.7-0.3,1.2-0.8,1.5-1.5
	c0.2,0,0.4,0.1,0.7,0.1c0.5,0,1-0.1,1.5-0.4c0.8-0.5,1.7-1,2.5-1.5c0.7-0.4,1.1-1.1,1.3-1.8c0.1,0,0.2,0,0.3,0
	c0.7,0,1.3-0.2,1.8-0.6c0.8-0.6,1.5-1.2,2.3-1.9c0.6-0.5,0.9-1.2,1-1.9l0-0.2c0.8,0,1.6-0.3,2.1-0.9c0.7-0.7,1.4-1.5,2.1-2.3
	c0.5-0.6,0.7-1.3,0.7-2l0-0.3c0.8-0.1,1.6-0.5,2.1-1.2c0.6-0.8,1.2-1.7,1.8-2.6c0.4-0.5,0.5-1.2,0.5-1.8c0.2-0.3,0.3-0.6,0.5-0.8
	c0.6-0.3,1.1-0.7,1.4-1.3c0.5-0.9,1-1.9,1.5-2.9c0.3-0.6,0.4-1.2,0.3-1.8c0.1-0.3,0.3-0.6,0.4-1c0.6-0.3,1-0.8,1.2-1.4
	c0.4-1,0.8-2,1.2-3c0.2-0.6,0.2-1.3,0-2l0.3-0.9c0.5-0.4,0.9-0.9,1.1-1.6c0.3-1,0.6-2.1,0.8-3.2c0.1-0.5,0.1-1.1-0.1-1.6
	c0,0,0.5-1.7,0.5-1.7c0.3-0.4,0.4-0.8,0.5-1.2c0.2-1,0.3-2.1,0.5-3.2c0-0.2,0-0.4,0-0.7c0,0,0.3-3.6,0.3-3.6c0-0.1,0-0.2,0-0.3
	l0-0.2c0-0.9,0.1-1.8,0-2.7l0-0.3c0-0.1,0-0.2,0-0.4l-0.2-3.8c0-0.1,0-0.2,0-0.3c-0.1-1-0.2-2.1-0.3-3l-0.1-0.7
	c0-0.2-0.2-1.7-0.6-3.1c0-0.2,0-0.4-0.1-0.6c-0.2-1-0.5-1.9-0.7-2.9c-0.2-0.6-0.5-1-0.9-1.4l-0.3-0.9c0.1-0.6,0.1-1.1-0.1-1.7
	c-0.4-0.9-0.7-1.8-1.1-2.7c-0.2-0.5-0.6-0.9-1-1.2c0-0.1-0.1-0.1-0.1-0.2c0-0.1-0.1-0.2-0.1-0.3c0,0-0.1-0.2-0.3-0.6
	c0-0.4-0.2-0.9-0.4-1.3c-0.5-0.8-1-1.6-1.5-2.3c-0.1-0.1-0.2-0.3-0.3-0.4c0-0.2,0-0.5,0-1c0-0.5-0.1-1-0.3-2
	c-0.1-0.3-0.1-0.7-0.2-0.9c0-0.1,0-0.1,0-0.1c0.1-0.1,0.1-0.2,0.2-0.4c0.2-0.3,0.4-0.8,0.7-1.4c0.1-0.3,0.2-0.6,0.3-0.9
	c0.4,0.7,0.8,1.5,1.1,2.2c1,1.9,2,4,2.8,5.3c0.2,0.4,0.4,0.7,0.6,1c0.2,0.3,0.4,0.6,0.5,0.8c0.1,0.2,0.2,0.4,0.4,0.6l2.2,2.9
	c0.9,1.2,1.8,2,2.8,2.9c2.2,2,3.6,2.7,4.8,3.1c0.1,0.1,0.3,0.1,0.4,0.2c0.4,0.2,0.8,0.4,1,0.5c0,0,0,0,0.1,0
	c1.7,1.4,3.7,2.2,5.7,2.2c2.6,0,5-1.3,6.6-3.5c0.2,0,0.3-0.1,0.5-0.2c0.8-0.3,1.8-0.8,2.7-1.5c0.6,0.1,1.2,0.1,1.8,0.1
	c2,0,3.5-0.4,5.7-1l0.6-0.2c0.7-0.2,1.7-0.4,2.8-0.7c2.7-0.7,4.4-1.1,5.2-1.4c0.4-0.1,0.7-0.3,1.1-0.5c0.7-0.3,1.3-0.6,2.1-0.7
	c0.5-0.1,1.1-0.2,1.7-0.2c0.2,0,0.5,0,0.7,0c0.1,0.1,0.1,0.2,0.2,0.2c0,0.4,0,0.8,0.2,1.2c0.4,1,0.8,1.9,1.2,2.9
	c0.2,0.4,0.4,0.7,0.7,1c0,0.4,0.2,0.8,0.4,1.2c0.5,0.9,1,1.7,1.6,2.5c0.2,0.3,0.5,0.6,0.9,0.8c0.1,0.4,0.3,0.7,0.6,1
	c0.6,0.7,1.3,1.4,2,2.1c0.3,0.3,0.6,0.5,0.9,0.6c0.2,0.3,0.4,0.6,0.7,0.9c0.7,0.6,1.5,1.1,2.2,1.6c0.3,0.2,0.6,0.3,1,0.4
	c0.2,0.3,0.5,0.5,0.9,0.6c0.8,0.4,1.6,0.7,2.5,1c0.3,0.1,0.6,0.2,0.9,0.2c0,0,0.1,0,0.1,0c0.3,0.2,0.6,0.3,1,0.4
	c0.9,0.2,1.7,0.3,2.6,0.3c0.1,0,0.2,0,0.3,0c0,0,0.3,0,0.7,0c0.1,0,0.2,0,0.3,0c0.1,0,0.1,0,0.2,0c0.1,0,0.1,0,0.2,0
	c0.1,0,0.1,0,0.2,0c0.1,0,0.1,0,0.2,0c0.1,0,0.2,0,0.3,0c0.3,0,0.6,0,0.6,0c0,0,0.2,0,0.3,0c0.8-0.1,1.7-0.2,2.5-0.4
	c0.3-0.1,0.6-0.2,0.9-0.4c0.3,0,0.7-0.1,1-0.2c0.8-0.3,1.6-0.6,2.3-1c0.3-0.2,0.6-0.4,0.8-0.6c0.3-0.1,0.6-0.2,0.9-0.4
	c0.7-0.5,1.4-1,2.1-1.6c0.3-0.3,0.5-0.6,0.7-0.9c0.3-0.2,0.6-0.4,0.8-0.6c0.6-0.7,1.2-1.4,1.8-2.1c0.2-0.3,0.4-0.7,0.5-1
	c0.3-0.2,0.6-0.5,0.8-0.8c0.5-0.8,1-1.7,1.4-2.5c0.2-0.4,0.3-0.8,0.3-1.1c0.3-0.3,0.5-0.6,0.7-1c0.4-0.9,0.7-1.9,1-2.9
	c0.1-0.4,0.2-0.8,0.1-1.2c0.2-0.3,0.4-0.7,0.5-1.1c0.2-1,0.5-2,0.6-3.1c0.1-0.4,0-0.9-0.1-1.3c0.2-0.4,0.4-0.8,0.4-1.2
	c0.1-1.1,0.2-2.1,0.2-3.2c0-0.4-0.1-0.9-0.2-1.3C281.2,114.5,281.3,114,281.3,113.6z M213,62.6C212.9,62.6,212.9,62.6,213,62.6
	c-1.3,0-2.2,0.5-3.1,0.9c-0.1,0.1-0.2,0.1-0.3,0.2c-1.2,0.9-2.6,3.4-3.5,5.1c-0.5,0.2-1.1,0.5-1.6,0.9c-0.2,0-0.4-0.1-0.6-0.1
	c-0.8-0.2-1.7-0.4-2.6-0.5c-0.9-0.1-1.8-0.3-2.5-0.5c-0.6-0.1-1-0.2-1.4-0.3c-0.5-0.1-1.1-0.2-1.7-0.2c-1.4,0-2.6,0.4-3.8,1.1
	c0.8-1.2,1.3-2.7,1.6-4.3c0.3-1.3,0.3-2.8-0.7-4c2.1-1.5,4.8-2.9,6.6-3.1c0.2,0,0.5,0,0.7,0c0.2,0,0.3,0,0.4,0
	c0.2,0.4,0.6,0.9,1.2,1.3c0.5,0.3,1.2,0.5,1.9,0.5c1.2,0,2.4-0.5,3.4-1.4c0.3,0.1,0.6,0.1,0.9,0.1c0.6,0,1.6-0.2,2.6-1
	c0.5-0.4,0.8-0.8,1.1-1.2c0.1,0,0.3,0,0.4,0c0.1,0,0.2,0,0.3,0c0,0,0,0,0,0.1c0.3,0.5,0.6,1,1,1.6c0.5,0.7,1,1.2,1.4,1.6
	C214,60.4,213.3,61.5,213,62.6z"/>
<path class="st0" d="M247.8,163.3c-2.5,8.8-6.3,15.8-11.4,21.1c-5.6,5.7-12,8.5-19.4,8.5h-16.4c-8,0-13.5-3.3-16.5-9.9
	c-1.6-3.4-2.4-7.5-2.4-12.2c0-3.5,0.4-7.4,1.3-11.6c2.1-9.8,5.8-17.7,11.1-23.8c5.8-6.6,12.7-9.9,20.7-9.9h16.4
	c7.4,0,12.7,2.8,15.8,8.5c2,3.7,3,8.2,3,13.5c0,2.4-0.2,4.9-0.6,7.6h-28l2.7-12.9c0.1-0.5,0.2-0.9,0.2-1.3c0-0.9-0.3-1.8-0.8-2.5
	c-0.7-1.1-1.7-1.6-3-1.6c-1.3,0-2.6,0.5-3.7,1.6c-1.1,1.1-1.9,2.4-2.2,3.9l-7.2,33.9c-0.1,0.5-0.2,0.9-0.2,1.4
	c0,0.9,0.2,1.8,0.7,2.5c0.7,1.1,1.7,1.6,3,1.6c1.3,0,2.6-0.5,3.7-1.6s1.9-2.4,2.2-3.9l2.8-12.9H247.8L247.8,163.3z"/>
<path class="st1" d="M252,160.1h-34.8l-3.3,15.4c-0.2,0.9-0.6,1.6-1.3,2.2c-0.5,0.5-1,0.8-1.5,0.8c-0.1,0-0.2,0-0.3-0.1l0,0
	c-0.2-0.2-0.2-0.5-0.2-0.8c0-0.2,0-0.4,0.1-0.7l0,0c0,0,7.2-33.9,7.2-33.9c0.2-0.9,0.6-1.6,1.3-2.2c0.5-0.4,1-0.7,1.5-0.7
	c0.1,0,0.2,0,0.3,0.1l0,0c0.2,0.3,0.2,0.5,0.2,0.8c0,0.2,0,0.4-0.1,0.6l0,0c0,0-3.5,16.8-3.5,16.8h34.7l0.4-2.7
	c0.4-2.8,0.6-5.5,0.6-8c0-6-1.2-11-3.4-15c-3.7-6.7-9.9-10.2-18.6-10.2h-16.4c-8.9,0-16.6,3.6-23.1,10.9
	c-5.7,6.4-9.7,14.8-11.9,25.2c-0.9,4.5-1.4,8.6-1.4,12.3c0,5.2,0.9,9.7,2.7,13.5c3.6,7.7,10,11.7,19.4,11.7h16.4
	c8.3,0,15.5-3.1,21.7-9.5c5.5-5.6,9.5-13.1,12.2-22.4L252,160.1L252,160.1z M247.8,163.3c-2.5,8.8-6.3,15.8-11.4,21.1
	c-5.6,5.7-12,8.5-19.4,8.5h-16.4c-8,0-13.5-3.3-16.5-9.9c-1.6-3.4-2.4-7.5-2.4-12.2c0-3.5,0.4-7.4,1.3-11.6
	c2.1-9.8,5.8-17.7,11.1-23.8c5.8-6.6,12.7-9.9,20.7-9.9h16.4c7.4,0,12.7,2.8,15.8,8.5c2,3.7,3,8.2,3,13.5c0,2.4-0.2,4.9-0.6,7.6h-28
	l2.7-12.9c0.1-0.5,0.2-0.9,0.2-1.3c0-0.9-0.3-1.8-0.8-2.5c-0.7-1.1-1.7-1.6-3-1.6c-1.3,0-2.6,0.5-3.7,1.6c-1.1,1.1-1.9,2.4-2.2,3.9
	l-7.2,33.9c-0.1,0.5-0.2,0.9-0.2,1.4c0,0.9,0.2,1.8,0.7,2.5c0.7,1.1,1.7,1.6,3,1.6c1.3,0,2.6-0.5,3.7-1.6s1.9-2.4,2.2-3.9l2.8-12.9
	H247.8L247.8,163.3z"/>
<path class="st1" d="M314.4,160.1h-34.8l-3.3,15.4c-0.2,0.9-0.6,1.6-1.3,2.2c-0.5,0.5-1,0.8-1.5,0.8c-0.1,0-0.2,0-0.3-0.1l0,0
	c-0.2-0.2-0.2-0.5-0.2-0.8c0-0.2,0-0.4,0.1-0.7l0,0c0,0,7.2-33.9,7.2-33.9c0.2-0.9,0.6-1.6,1.3-2.2c0.5-0.4,1-0.7,1.5-0.7
	c0.1,0,0.2,0,0.3,0.1l0,0c0.2,0.3,0.2,0.5,0.2,0.8c0,0.2,0,0.4-0.1,0.6l0,0c0,0-3.5,16.8-3.5,16.8h34.7l0.4-2.7
	c0.4-2.8,0.6-5.5,0.6-8c0-6-1.2-11-3.4-15c-3.7-6.7-9.9-10.2-18.6-10.2h-16.4c-8.9,0-16.6,3.6-23.1,10.9
	c-5.7,6.4-9.7,14.8-11.9,25.2c-0.9,4.5-1.4,8.6-1.4,12.3c0,5.2,0.9,9.7,2.7,13.5c3.6,7.7,10,11.7,19.4,11.7h16.4
	c8.3,0,15.5-3.1,21.7-9.5c5.5-5.6,9.5-13.1,12.2-22.4L314.4,160.1L314.4,160.1z M310.2,163.3c-2.5,8.8-6.3,15.8-11.4,21.1
	c-5.6,5.7-12,8.5-19.4,8.5H263c-8,0-13.5-3.3-16.5-9.9c-1.6-3.4-2.4-7.5-2.4-12.2c0-3.5,0.4-7.4,1.3-11.6
	c2.1-9.8,5.8-17.7,11.1-23.8c5.8-6.6,12.7-9.9,20.7-9.9h16.4c7.4,0,12.7,2.8,15.8,8.5c2,3.7,3,8.2,3,13.5c0,2.4-0.2,4.9-0.6,7.6h-28
	l2.7-12.9c0.1-0.5,0.2-0.9,0.2-1.3c0-0.9-0.3-1.8-0.8-2.5c-0.7-1.1-1.7-1.6-3-1.6c-1.3,0-2.6,0.5-3.7,1.6c-1.1,1.1-1.9,2.4-2.2,3.9
	l-7.2,33.9c-0.1,0.5-0.2,0.9-0.2,1.4c0,0.9,0.2,1.8,0.7,2.5c0.7,1.1,1.7,1.6,3,1.6c1.3,0,2.6-0.5,3.7-1.6c1.2-1.1,1.9-2.4,2.2-3.9
	l2.8-12.9H310.2L310.2,163.3z"/>
<path class="st1" d="M239.3,123.2c-1.6-0.2-3.3-0.4-5.1,0c-1.5,0.3-2.4,0.8-3.6,1.3c-1.2,0.5-5.8,1.5-7.8,2c-3.5,1-4.9,1.4-8.3,0.8
	c-0.6,0.8-1.7,1.4-2.9,1.9c-1,0.4-1-0.1-1.6,0.8c-2,3.2-5.6,3.4-8.2,1.2c-0.8-0.6-0.6-0.3-1.6-0.8c-1-0.6-2-0.4-4.7-2.8
	c-0.9-0.8-1.7-1.5-2.4-2.5l-2.1-2.8c-0.3-0.7-0.8-1.3-1.2-2.1c-1.5-2.7-4.6-9-5.8-11c-0.5-0.8-0.9,0-1.5-1.8c-0.4-1-0.5-1.7-1.2-2.2
	c-0.4,1.4-0.6,3-1,4.4c-0.1,0.3-0.4,2-0.4,2.2c0.1,0.6,0.9,0.7,0.3,2c-0.7,1.5-1.3,1.9-1.1,3.5c0.1,0.7,0.4,2.2,0.4,2.5
	c0,0.5,0,2.1,0.4,2.4c0.2,0.2,0.3,0.5,0.5,0.7l0,0c0.5,0.7,0.9,1.4,1.4,2.2l-0.1,0.3c0.4,0.8,0.6,1.3,0.6,1.3
	c0.2,0.8,0.8,1.7,0.8,1.7s0,0.1,0.1,0.1l0.4,0c0.4,0.8,0.7,1.6,1,2.5l-0.2,0.6l1.1,3.1l0.4,0.1c0.3,0.9,0.5,1.8,0.7,2.7l-0.1,0.2
	c0.5,1.3,0.8,3.3,0.8,3.3l0.1,0.6c0.1,1,0.2,1.9,0.3,2.9l0,0l0.2,4.3l0,0l0,0.3c0,0.9,0,1.7,0,2.6l0,0.2l0,0l-0.3,3.7l-0.1,0.6
	l0.1,0.1c-0.1,1-0.3,2-0.4,3.1l-0.3,0.2l-0.1,0.8l-0.8,2.9l0.4,0.5c-0.2,1-0.5,2-0.8,3l-0.7,0.4l-1,3.1l0.4,0.8
	c-0.4,1-0.7,1.9-1.1,2.9l-0.7,0.3c-0.4,1-0.9,2.1-1.4,3.1l0.2,0.7c-0.5,0.9-1,1.8-1.5,2.7l-0.8,0.1c-0.4,0.8-1.1,1.9-1.6,2.9
	l0.1,0.8c-0.6,0.8-1.1,1.7-1.7,2.5l-1-0.1c-0.6,0.6-1.2,1.3-1.7,1.8l0,1.6c-0.6,0.7-1.3,1.5-2,2.2l-1.1-0.3c-0.6,0.5-1.1,1-1.7,1.7
	l-0.2,1.4c-0.7,0.6-1.4,1.2-2.2,1.8l-1.4-0.7c-0.1,0-0.2,0-0.3,0c-0.3,0.2-0.7,0.5-1,0.7c-0.1,0.1-0.1,0.2-0.2,0.3l-0.4,2
	c-0.8,0.5-1.5,1-2.3,1.4l-1.3-1.1c-0.4,0.2-0.9,0.4-1.3,0.6l-0.8,2.1c-0.8,0.3-1.6,0.7-2.4,0.9l-1.2-1.4c-0.4,0.1-0.9,0.3-1.3,0.4
	l-1,2c-0.8,0.2-1.6,0.4-2.4,0.5l-0.9-1.6c-0.4,0.1-0.9,0.1-1.3,0.1l-1.2,1.8c-0.8,0-1.6,0-2.4,0l-0.7-1.8c-0.4,0-0.8-0.1-1.3-0.1
	l-1.4,1.6c-0.8-0.1-1.5-0.3-2.3-0.5l-0.4-2c-0.4-0.1-0.8-0.2-1.2-0.4l-1.5,1.4c-0.7-0.3-1.4-0.6-2.1-0.9l-0.2-2.1
	c-0.4-0.2-0.7-0.4-1.1-0.6l-1.6,1.1c-0.7-0.4-1.3-0.9-1.9-1.4l0.1-2.2c-0.3-0.3-0.7-0.6-1-0.9l-1.7,0.8c-0.6-0.6-1.1-1.2-1.7-1.8
	l0.4-2.2c-0.1-0.1-0.2-0.3-0.3-0.4c-0.1,0.1-0.1,0.3-0.6-0.6c-0.1,0-0.1,0-0.2,0l-1.5,0.4c-0.5-0.7-0.9-1.4-1.4-2.2l0.6-2.2
	c-0.2-0.4-0.4-0.8-0.7-1.3l-1.7,0.1c-0.4-0.8-0.7-1.6-1-2.5l0.9-2.1c-0.2-0.5-0.3-0.9-0.5-1.4l-1.7-0.3c-0.3-0.9-0.5-1.8-0.7-2.7
	l1.1-1.9c-0.1-0.5-0.2-1-0.3-1.5l-1.6-0.6c-0.1-1-0.2-1.9-0.3-2.9l1.3-1.7c0-0.5-0.1-1.1-0.1-1.6l-1.4-0.9c0-1,0-2,0.1-3l1.5-1.5
	c0-0.6,0.1-1.1,0.1-1.7l-1.3-1.2c0.1-1,0.3-2,0.4-3.1l1.6-1.2c0.1-0.6,0.2-1.1,0.3-1.7l-1.1-1.5c0.2-1,0.5-2,0.8-3l1.7-0.9
	c0.2-0.5,0.3-1.1,0.5-1.6l-0.8-1.7c0.4-1,0.7-1.9,1.1-2.9l1.7-0.6c0.2-0.5,0.5-1,0.7-1.5l-0.6-1.9c0.5-0.9,1-1.8,1.5-2.7l1.7-0.3
	c0.3-0.5,0.6-1,0.9-1.4l-0.3-2.1c0.6-0.8,1.1-1.7,1.7-2.5l1.7,0.1c0.3-0.4,0.7-0.9,1-1.3l0-2.2c0.6-0.7,1.3-1.5,2-2.2l1.6,0.4
	c0.4-0.4,0.8-0.7,1.1-1.1l0.2-2.2c0.7-0.6,1.4-1.2,2.2-1.8l1.5,0.8c0.4-0.3,0.8-0.6,1.2-0.9l0.5-2.2c0.8-0.5,1.5-1,2.3-1.4l1.3,1.1
	c0.4-0.2,0.9-0.4,1.3-0.6l0.8-2.1c0.8-0.3,1.6-0.7,2.4-0.9l1.2,1.4c0.4-0.1,0.9-0.3,1.3-0.4l1-2c0.8-0.2,1.6-0.4,2.4-0.5l0.9,1.6
	c0.4-0.1,0.9-0.1,1.3-0.1l1.2-1.8c0.8,0,1.6,0,2.4,0l0.3,0.9c0.5-1.6,1.5-2.3,3-1.9l5.6-21.7c-0.6,0-1.7,0.2-2.3,0.1
	c-1.4-0.1-6.6-0.4-7.5-1.2c-0.4-0.3-0.4-0.4-0.4-0.9l-11.3,7.1c-0.5,0.3-1.2,0.8-1.8,1c-1.1,0.4-1.1-0.5-1.8-0.7
	c-0.7-0.2-2-0.3-3.6,0.3c-3.3,1.3-6.1,3.4-9.4,4.5c-0.9,0.3-1.5,0.5-2.1-0.1c-0.5-1,4-5.7,4.9-6.5c5.9-6.1,14.3-12.1,20.3-14
	c4.9-1.5,8.4-1.2,13.3-1.1c0.1,0,0.7-4,1.3-6.2c-1.1,0-1.9,0.6-2.3,0.3c-0.3-0.2-1.3-1.3-1.5-1.6c-2,0.2-5.5,2.7-7.1,1.2
	c-0.8-0.8-2-1.3-2.4-2.3c-0.6-1.2-0.2-2.7,0.4-3.6c2.7-4.5,8.8-2.7,10.6-2.8c1.2-0.1,0.9-1.2,4-0.6c0.6-0.8,1.2-1.6,2.4-1.5
	c0.2-0.5,0.4-0.6,0.8-1c1.7-1.8,2.3-3.3,3.6-5.1c1.5-2.1,3.6-3.3,5.1-5.3c1.3-1.8,3.8-2.6,5.6-4.9c0.7-0.8,1-1,1.8-1.7
	c2.2-2,1.2-1.3,2.5-2.9c0.6-0.7,0.2-0.4,0.5-1.1c0.5-1.2,2.7-2.6,3.5-3.4c0.9-0.9,1.4-2.1,2-3.2c0.2-0.4,0.4-0.8,0.5-1.2l-2.7-2.1
	c-0.6-0.4-0.4-0.5-0.2-0.8c-1.1-0.1-2.5-2-3.2-1.1c-0.2,0.3-0.4,0.7-0.1,1.2c0,1.5-1.1,1.3-1.1,1.3L189,27
	c-0.2-2.5-0.4-9.9-0.4-11.9c0.1-1.5,0.2-2.4,0.4-3.7c0.5-3.6,3.6-5.6,6.8-6.5c0.7-0.2,1.1-0.2,1.8-0.4c0.8-0.2,0.6-0.6,1.4-0.7
	c0.6,0.3,0.6,0.9,1.6,1.2c1.7,0.4,2.8,0.2,4.5,1c0.3,0.2,0.6,0.3,0.9,0.5c1.3,0.9,2.2,2.1,3.3,3.5c0.5,0.7,1.1,0.3,1.7,1
	c2,2.2,2.7,6.8,2.6,10.1c-0.1,3-0.6,5.9-0.8,8.9c0,0.4,0.2,1.5,0.5,1.8c0.4-3.1,0.8-6.9,1.1-10.4c0.5-6.1,5-6.4,5.2-5.3
	c-0.2,1-1.5,2.1-1.9,3.5c-0.5,1.5,0.5,2.8,2.1,3.1c0.8-1.3,1.1-3.2,2.2-5c0.8-1.2,1.5-1.4,1.5-0.2c0,0.6-0.3,1.2-0.4,1.8
	c-0.3,1.1-0.3,1.3-0.4,2.5c-0.2,3.4-3,4.8-2,9.4c0.2,0.9,1.3,3.4,2.1,3.7c-0.7-6,1.7-7.8,1.7-12.7c0-0.8,0-1.5-0.1-2.3
	c0-0.9,0-1.5,0.8-1.7c0.8,0.8,1.3,2.9,1.5,4.2c0.2,1.7,0.3,3.8,0,5.4c-0.6,2.9-2.6,5.9-1.9,9.5c0.4-0.5,1.7-2.9,2-3.5
	c3.8-7.8,0.3-11.2,1.3-13.1c0.6,0,0.6,0,0.8,0.4c1,2.1,1.3,4.6,1,7c-0.2,1.5-0.4,2.6-0.8,3.9c-0.4,1.2-1,2.2-1.3,3.4
	c3.1-0.8,6.8-2.6,8.2,1.2c0.3,0.8,0.5,2,0.6,3.1c0.4,0,0.7-0.4,1,0.1c0.8,1.1,0.2,3.6,0.2,4.3c0.7,0.5,1.3,1.3,2.3,1.5
	c-0.3-1.5-0.2-2-1-3.2c-0.5-0.5-0.7-1-0.7-1.7c0.3,0.2,1.5,1.4,1.7,1.7c0.9,1.2,1.2,2.9,1.8,4.2c0.3,0.6,0.6,0.3,1,1.4
	c0.6,1.8,1,4.2,1,6.2c0,0.8-0.1,1.1-0.8,1.4c-1.9-1.8-6.4-2.3-9.5-1.6c-1.5,0.4-8.2,2.1-8.9,2.6c1.3-0.1,2.7-0.5,4.3-0.6
	c2.9-0.2,6,0.3,8.8,0.8c1.2,0.2,2.7,0.7,3.8,0.9c0.2,0.4,0,0.3,0.6,0.9c-1,1.2-3.1,3.1-4.3,4c-2.5,1.9-4.4,2-5.2,5.6
	c-0.2,1.2-0.2,1.2,0.2,2.1c1.9-0.1,4.5-4.3,5.6-5.8c0.9-1.3,2.8-3.3,4-4.5c0.6-0.6,0.7-1.2,1.6-1.2c1.7,1.6-1,4.8-1.8,5.8
	c-2.4,3-6.1,6.1-9.9,7.4c-4.6,1.6-4.8-1.3-5.5-2.2c-0.2,0.2-0.5,0.5-0.8,0.7l0.8,0.7c2.2,1.4,1.1,0.5,2,1.8
	c3.7-0.9,7.3-1.4,10.7-2.5l3.5-1.4c3-1.2,11.2-5.5,14.4-7.1c3.9-1.9,5.2-3.2,9.6-3.5c0.8-0.1-0.2,1.9-1,2.9l-3.3,4.4
	c-0.4,0.6-1.3,1.6-1.6,2.2c0.4,0.7,1.2,1.3,1.1,2.3c-0.1,0.6-0.4,2.4-0.6,3c-0.3,0.9-0.8,1.6-1.3,2.3c-0.4,0.6-0.8,1.6-1.2,2.3
	c-0.3,0.6-1.7,3-3,5.2v0c-0.4,0.8-0.9,1.6-1.2,2.2c0.3,0,0.9,0,1.2,0l0.2,0.4l0.1-0.7c0.6,0,2.8,0,3.3,0l0.2,1.1l0.3-0.8
	c0.3,0.1,1.1,0,1.1,0c0.7,0.1,1.3,0.3,2,0.6l0.2,1.7l0.6-1c0.2,0.1,0.8,0,0.8,0c0.6,0.3,1.3,0.7,1.9,1.1l-0.1,2.2l0.9-1.1
	c0.1,0.1,0.6,0,0.6,0c0.6,0.5,1.2,1,1.7,1.6l-0.4,2.5l1.3-1c0.1,0.1,0.4,0,0.4,0c0.5,0.7,1,1.4,1.5,2.1l-0.7,2.4
	c0,0,0.1,0.1,0.1,0.1l1.5-0.7c0,0,0.3,0,0.3,0c0.4,0.8,0.9,1.6,1.2,2.5l-1,2.1c0,0.1,0.1,0.2,0.1,0.3l1.6-0.3h0.1
	c0.3,0.9,0.6,1.8,0.9,2.7l-1.3,1.8c0,0.1,0.1,0.2,0.1,0.3l1.8,0.2c0.2,1,0.4,1.9,0.6,2.9l-1.5,1.3c0,0.1,0,0.2,0,0.4l1.7,0.6
	c0.1,1,0.2,2,0.2,3l-1.6,0.9c0,0.1,0,0.2,0,0.4l1.6,1.1c0,1-0.1,2-0.2,3l-1.7,0.4c0,0.1,0,0.2,0,0.4l1.5,1.6c-0.2,1-0.4,1.9-0.6,2.9
	l-0.1,0l0,0l-1.7-0.1c0,0.1-0.1,0.2-0.1,0.3l1.3,1.9c-0.3,0.9-0.6,1.8-0.9,2.6h-0.2l-1.6-0.5c0,0.1-0.1,0.1-0.1,0.2l1,2.2
	c-0.4,0.8-0.8,1.6-1.3,2.3c0,0-0.3-0.1-0.3,0l-1.4-0.9l0,0.1l0.7,2.5c-0.5,0.7-1,1.3-1.5,1.9c0,0-0.4-0.1-0.5,0l-1.1-1.1l0.3,2.4
	c-0.6,0.5-1.2,1-1.8,1.4c0,0-0.6-0.1-0.7,0l-0.8-1.1l0,2c-0.6,0.3-1.3,0.6-1.9,0.9c0,0-0.7-0.1-0.9,0l-0.5-0.9l-0.2,1.4
	c-0.7,0.1-1.3,0.2-2,0.3c0,0-0.8,0-1.2,0l-0.2-0.7l-0.2,0.7c-0.4,0-1.3,0-1.3,0c-0.7,0-1.4-0.1-2.2-0.3l-0.2-0.4
	c-0.4-0.2-0.9-0.3-1.3-0.5l-0.2,0.5c-0.7-0.2-1.4-0.5-2.1-0.9l0-1c-0.2-0.2-0.5-0.3-0.7-0.5c-0.1-0.1-0.9,0.6-0.9,0.6
	c-0.7-0.4-1.3-0.9-1.9-1.4l0.2-1.6c-0.1-0.1-0.3-0.3-0.4-0.4c-0.1-0.1-1.2,0.7-1.2,0.7c-0.6-0.6-1.2-1.2-1.7-1.9l0.5-2.1
	c-0.1-0.2-1.8,0.5-1.8,0.5c-0.5-0.7-1-1.5-1.5-2.3l0.9-2.2c-0.1-0.1-2,0.3-2,0.3c-0.4-0.8-0.8-1.7-1.1-2.6l1.2-1.9
	c0-0.1-2-0.2-2-0.2C239.5,123.8,239.4,123.5,239.3,123.2L239.3,123.2z M156.8,123.5l0.2-0.8c-13,1.2-25.5,15.5-28.5,32.9
	c-3.1,18.2,5.4,33,19,33c13.6,0,27.2-14.8,30.3-33c1.2-7.3,0.6-14-1.4-19.5c0,0-0.2,0.9-0.4,2.2c1.5,5,1.9,10.9,0.9,17.2
	c-2.9,17.7-16,32.1-29.1,32.1s-21.4-14.4-18.5-32.1C132.1,138.5,144.2,124.6,156.8,123.5L156.8,123.5z M156.5,124.6
	c-11.1,1.2-21.9,14.3-24.6,30.2c-2.8,16.7,4.5,30.3,16.2,30.3c11.7,0,23.5-13.6,26.3-30.3c0.6-3.7,0.7-7.2,0.4-10.5
	c-0.4,2.5-0.8,4.6-0.9,5.2c-0.2,1.6-0.5,2.8-2.1,2.9c0.1,0.8,0,1.2-0.3,2c-0.1,0.2-0.2,0.6-0.4,0.8c-0.3,0.3-0.6,0.1-0.8,0.4
	c-0.2,0.6-0.1,1.2-0.4,1.7c-0.9,0.2-1.7-0.2-2.9,0.2c-0.9,0.3-1.3,0.7-2.1,1.1l-1.5,0.5c-2.8,7-8.5,12.2-14.3,12.5
	c-0.1,0.1-0.2,0.1-0.2,0.1s-0.2,0-0.4-0.1h0c-6.5,0-10.8-6.2-10.6-14.4c0-0.2,0-0.5,0-0.7c0.6-6.9,3.1-11.3,5.2-14l0,0
	c2.9-3.7,6.6-6.2,10.4-6.6L156.5,124.6L156.5,124.6z M155.9,159.5c0.3,0.3,1.4,1.1,1.6,1.5c0.5,0.8,0.2,1.7-0.4,2.2
	c-0.4,0.3-1.6,0.6-2.2,0.8c-1.1,0.4-0.3,0.9-2.1,0.1c-4-1.6,0.1-4.8,0.6-4.7C154.7,159.9,154.5,159.9,155.9,159.5L155.9,159.5z
	 M147.8,156c-0.4,1.4,1.2,2.3,1.3,4c0.2,3.4-4.6,5-3.7-1.3C145.8,155.9,145.9,155.5,147.8,156L147.8,156z M162.8,151.6
	c0.4,0,0.7-0.1,0.8-0.1c0.4-0.2,1.7-3.6-1.2-4.3c-0.7-0.2-2.3,0-2.9,0.3c-0.7,0.3-2.7,1.8-3.4,4c-0.4,1.1-0.5,2.8-0.6,4.1
	c0,1.9,0.8,4.5,2.8,4.9c0.7,0.1,1.5,0.1,2.2-0.1l0,0c1-0.3,1.7-0.6,2.1-0.8c0.2-0.2,0.2-0.3,0.5-0.6c0,0,0,0,0,0
	c-0.5-0.4-2.4-0.4-3.6-2.9c-0.9-1.9-0.8-3.6,1.2-4.2C161.2,151.8,162.1,151.7,162.8,151.6L162.8,151.6L162.8,151.6z M149.1,146.7
	c-0.1,1.9-0.3,3.7-1.3,4.8c-0.5,0.5-1.1,0.8-1.9,1.2c-1.3,0.7-2.1,1.5-2.1,0.2c0-0.5,0.2-1.6,0.4-2
	C145,149.7,147.5,147.1,149.1,146.7L149.1,146.7z M175.7,137.4c1.1-5.8,2.1-11.6,2.1-11.6c0.4-1.6,0.8-5.3,0.8-5.3
	c0.2-2.2-0.4-5.5-0.6-6c-0.8-2.1-2.7-3.4-3.2-3.6c-1.4-0.3-2.2-1.5-3.1,2.7l-2.7,13.6l0,0l-0.4,1.7l0,0l-3.7,18.6l2.4,0
	c0.5,1.1,0.2,1.9,0.4,3c0.1,0.5,0.6,0.4,1.2,0.4c3.1,0,2.8,1.7,3.8,0.5c0.2-0.3,0.5-1.1,0.6-2c0.1-0.7,0.6-3.4,1.2-6.7v0
	L175.7,137.4L175.7,137.4L175.7,137.4z M157.9,146.5l0.9-4.6c1.1,0.2,2.8,4.6,2.8,4.8c-0.6,0-1.7,0.3-2,0.2
	C159.3,146.8,158.5,146.6,157.9,146.5L157.9,146.5z M170.5,131c0.6-4.1,1.8-12.5,3.4-14.5c0,0,0-0.1,0.1-0.1l0.2-0.2
	c1.6,0,2.9,0.4,3.5,1.7c0.5,1.2,0.4,2.9,0.2,4.2c-0.6,3.7-3.7,21.7-4.4,23.2c-0.6,0-1.5-0.4-2.2-0.5c-3.2-0.7-3.8,0.4-2.8-3.8
	c0.7-2.8,1.3-5.5,1.8-8.4c0.1-0.3,0.1-0.8,0.2-1.4l0,0L170.5,131L170.5,131z M162.9,125.2l-2.8,12.1c3,1.8,4.4,4.6,4.8,7.5l0,0h0.2
	l3.2-16.2C166.7,127.1,164.9,125.9,162.9,125.2L162.9,125.2z M152.7,141.3c0,0-0.8,3.6-0.9,3.5c-0.7-0.6-1.5-1.4-1.7-2
	C149.7,141.6,151.4,141.3,152.7,141.3L152.7,141.3z M268.6,110.2c-0.9,0.1-1.8,0.3-2.2,0.4c1.3,2.9,0.4,9.4-2.7,10.3
	c-1.3,0.3-2.4-0.3-3.6-0.6c0.2,0.4,0.5,0.7,0.8,1c0.3,0.3,0.6,0.6,0.9,0.9c0,0,0,0,0,0c-0.2,0-0.4,0-0.6-0.1l0,0.1
	c-3.5-0.4-6.7-3.4-9.8-6.6l-1.8,2.8c1.4,6.9,5,12,10,12.3c6-0.5,10.3-9.1,9.1-19.1C268.7,111.2,268.7,110.7,268.6,110.2L268.6,110.2
	z M194.6,123.4c-1.9-2.5-9.2-14.7-9.2-14.8l0.6-0.2c1.4-0.3,2.4-0.2,3.7-0.3c1-0.1,0.8-0.4,1.2-0.6c0.4-0.2,1.2-0.7,1.6-1
	c0.7-0.4,1.4-0.8,2.1-1.1c0.3,0.3,5.8,4.1,6.5,4.4c-0.1,0.8-0.6,1.7-0.7,2.7c-0.3,0.2-0.5,0.1-0.8,0.5c-0.4,0.5-0.8,1.9-1.2,2.3
	c-1-0.4-1.7-3.1-3.6-1.1c-1.2,1.3-0.2,3.1,0.4,4.5c0.7,1.6,2.9,5.9,3.3,8.1C198.5,127.2,195.8,125.1,194.6,123.4L194.6,123.4z
	 M163.1,124.1c2,0.6,3.8,1.5,5.5,2.8l0.2-1.2c-1.7-1.2-3.5-2-5.5-2.6L163.1,124.1L163.1,124.1z M196.5,99.9c0.6,1.4,1.4,3.1,1.8,3.5
	c0.5,0.6,3.9,3.3,4.3,3.5l1.7-2.3c1.6-2.1,4.3-4.8,6.8-5.8c3.2-1.3,4.8,0.3,7.3-0.3c9.4-2.5,4.5,3.6,0.6,5.7
	c-7.9,4.2-7.3,9.1-7.1,17.9c0.5,0.3,1.1,0.9,1.4,1.6c0.5,1.1,0.2,1.7,0.4,2.8c0.9,0,0.6-0.4,1.6-1.4c1.3-1.4,0.9-0.4,1.8-0.2
	c-0.3-0.7-0.6-0.8-1.2-1.2c-0.3-0.2-0.4-0.4-0.7-0.6c-0.5-0.3-0.5-0.2-0.5-0.8c0.9-0.4,2.1,0,3-0.8c2.5-2.3,6.9-0.4,9.5-1.9
	c-0.1-0.7-0.4-0.7-1-1.2c-10.5-8-0.2-20.2,7.8-12c-0.1-1-0.9-3.9-1.5-4.2c-0.4-0.2-1.6-0.4-2.2-0.6c-1.9-0.8-7.6-4.9-7.4-6.9
	c0.7-0.2,1.7,0.6,2.4,1.2c1.4,1,5.6,4.3,6.6,4.6l-6.1-4.8c-1-0.8-2.2-1.5-3.3-2.2l-3.3-2.3c-1.4,1.3-2.8,6.9-7.3,4.5
	c-1.5-0.8,3.1-1.8,3.8-2.4c0.4-0.3,1.5-1.4,1.4-2.1c-0.7,0.2-1.1,0.3-1.6-0.2c0.6-1.6,7.9-4.2,4.6-6.2c-0.8-0.5-1.9-1.1-2.7-1.6
	c-0.4,0.3-0.5,0.6-1,0.9c-1.2,0.8-2.9,1-4,1.7c-2.3,1.3-2.5,5-2.4,5.2c1.1,1.2,2.6-0.2,3.5,0.3c0,0.5-0.3,0.8-0.6,1
	c-0.8,0.8-1.4,1.5-2.8,2.3c-2.4,1.3-2.6,0.6-4.3,2.5c-1.6-0.2-4.2-2.1-5.4-2.8c0.2,1.2,1.3,4.6,1,5.6c-0.6,0-0.5-0.1-0.8-0.5
	c-0.7-1.3-1.6-4.3-1.9-5.8c-0.1-0.6,0-0.6-0.4-0.9c-0.3,0.4,0.1,1.4,0.2,1.8c0.2,0.7,1.7,5.3,1.3,5.6c-0.9,0.3-1.5-2.6-1.7-3.5
	c-0.4-1.5-0.8-2.8-1-4.4l-0.6-0.2l2.3,8.9c-1,0.8-1.4,0.2-1.7-0.6c0,0,0-0.1-0.1-0.2l-2.1-6c-0.3-1-0.5-2.1-0.5-3.3
	c-6.5-3.7-4.8-5.1-7.4-7.1c-0.6,0.8,0.1,1.5,0.5,1.9l4.1,4.9c0.9,1,1.8,2.1,2.5,3.4c0.4,0.7,0.8,1.5,1.1,2.2l0.9,2.6
	C196.1,99,196.3,99.5,196.5,99.9L196.5,99.9L196.5,99.9z M251.8,98.8l-0.6,6.4c-1.5,0-1.9-1.1-2.8-2.3c-0.5-0.7-1.5-1.6-2.2-2.1
	c-2.3,0.9-3.7-0.2-4.8,0.8c-0.5,0.4-0.8,1.1-1.6,1.4c-0.9,0.2-1.9,0-2.2-0.5c-1-1.4,1.8-2.3,2.8-2.6c1.3-0.4,2.4-1.8,3.5-2.3
	c-0.2-0.4-0.6-0.8-0.8-1.2c-0.8,0.4-1.3,0.8-2,1.4c-0.6,0.5-1.3,1-2,1.4c-3.9,2.4-4.1-0.2-3.3-1.2c0.9-1.1,2.9-1.1,4.1-2.7
	c0.9-1.2,1.4-2.6,3-1.7c0.6,0.3,0.5,0.4,0.9,0.8c0.4-0.6-0.9-0.3-0.9-3.1c-0.6,0.3-0.8,0.8-1.5,1.1c-0.9,0.3-1.3-0.1-1.6-0.8
	c0.4-0.5,1-0.8,1-1.8c-0.6-0.3-1.3-0.4-1.4-1.1c0.4-0.8,2.1-0.7,3-0.8c1.2-0.1,2.1-0.3,3.3-0.5c0.8-0.1,0.5,0.1,1.2-0.5
	c1.1-0.9,1.7-2.1,2.6-3.2c-0.4-0.3-0.5,0-0.5-0.6c0-0.7,1-1.3,1.5-2c-1,0.2-4.3-1.3-5.5-1.7l-4.2-1.5c-0.7-0.3-0.7-0.3-1-1
	c-0.1-0.2,0.3-0.6,0.6-0.9c0-0.1,0.2-0.4,0.3-0.4l0.2-0.4c-0.8,0.3-1.8,2.2-2.4,3c-0.9,1.1-1.7,2.2-2.5,3.2c0.2,0.4,0.6,0.6,0.4,1.1
	c-0.1,0.3-0.5,0.8-0.6,1c-1.4,1.5-4.2,3.1-6,4.1c-4.2,2.4-4.3,2.7-5.2,1.2c-0.6-1-1.3-1.8-2.2-2.5l-0.2-0.2c0,0-0.1,0-0.1,0
	c-0.3,0.3-0.9,1.3-1.1,1.8c1.3,0.6,5.8,3.4,6.7,4.6c1.5,1.9,1.6,2.4,3.5,4c0.6,0.5,1.6,1.2,2,1.8c0.6,0.7,3.4,3.1,3.3,4.3
	c-0.4,0.3-0.4,0.1-0.7,0.2c0,0-0.1,0-0.1,0c1.5,1.1,0.8,2.6,0.6,4.4c-0.1,0.8,0,1.8-0.2,2.5c-0.3,0.8-0.8,1.1-1,1.8
	c-0.1,0.4-0.2,0.7-0.4,1c-0.2,0.3-0.4,0.6-0.5,0.9c-0.1,0.5,0.7,1.2,0,2c-0.8,1-3,0.9-3.9,1.8c0.2,0.1-0.3,0,0.4,0.2
	c1.8,0.5,6.6-0.5,7.6-0.2c-0.1,0.6-0.7,0.8-1.2,1.1l-3,1.8c-0.5,0.3-1.2,0.4-1.6,0.8c0.7,0.3,2,0.1,2.8,0c1.8-0.1,1.1,0,2.5,0.4
	c1.4,0.4,4.3,0.6,5.7,0.1c-0.8-1.3-2.8-3.2,1.7-3.8c0.9-0.1,1.7,0.2,1.9-0.8c-1.5-0.1-3.8,1-3.8-0.7c1.1-0.9,3.8-0.7,4.6-1.2
	l0.4-0.4c0.6-1.9,1.6-2.5,3.6-2.4c-0.2-0.2-1.5-0.9-1.7-1c-1,1.2-12.1,6.9-14.1,5.7c-0.6-0.7,2-2,2.4-2.3c1.1-0.9,0.2-2.1,5.5-2.8
	c3-0.4,4.5-1.5,6.8-3.1c0.7-0.5,1.9-2,2.1-0.9c0,0.3,0,0.1,0,0.4c-0.1,0.6-0.7,1.3-1.1,1.7c3.1,1.2,5.4,0.9,8.2,0
	c0.1-0.2,0.3-0.3,0.5-0.4c2.1-0.9,3.9-2,6-2.7c0.2-0.1,0.3-0.1,0.5-0.1l0.5-0.3c-0.6-0.1-0.9-0.5-1.5-0.6c-0.4-0.1-0.7-0.2-1-0.3
	c-4.7,0-10.8,1.3-13.7,0.9l0.2-0.9c3.5-0.2,7-0.7,10.5-0.9c0-0.1,0.6-0.1,2.1,0c0.8,0,1.5,0.2,2.3,0.3c0.4,0,0.9,0,1.4,0
	c-1.7-6.1-4.7-10.3-8.9-10.7c-0.4,0-0.8,0.1-1.1,0.2C255.2,95.1,253.3,96.5,251.8,98.8L251.8,98.8z M221.1,112.3
	c-0.9,0,0.2,0.8-2.9,1.4c-1.8,0.4-3,0.3-2.3,1.6c-0.8,0-1.6,0.2-1.9,0.9c-0.5,1.3,0.6,3.4,2.3,1.5c0.6-0.7,0.4-1.1,0.7-1.8
	c1.2,0,2.3,1.3,2.3,1.8c0,1.5-2.6-0.4-2.8,1.4c0.6,0.7,3.3,0.5,4.5,0.6c1.2,0,3.8,0.1,3.8-1.2c-0.1-1.2-1.7-0.9-3.2-4.4
	C221.5,113.7,221.2,112.5,221.1,112.3L221.1,112.3z M261.6,118c-0.1-1,0-1.9,0.1-2.9c0.7,0,1.1-0.1,1.4,0.3
	C264.8,117.6,262.3,118.2,261.6,118L261.6,118z M259.6,114.4c-0.5-0.4-0.8-0.7-0.9-1c-0.3-0.5-0.5-0.6-0.8-0.2
	c-0.2,0.4-0.3,1-0.1,1.6c0.3,0.6,0.7,1,1.1,1.3l0,0c0.8,0.6,1-0.3,1.2-1.4l0,0C259.9,114.7,259.7,114.6,259.6,114.4L259.6,114.4z
	 M167.3,110.4c1,0.1,1.9-0.1,2.5,0.6c0.5,0.5,0.6,1.1,0.2,1.8c-0.3,0.3-0.5,0.7-0.7,1c0.2,0.6,0,1.2,1.3,1c0.6-1.2,0.3-4.8,2.9-4.7
	c0,0,3-12.8,2.7-13.5c-0.3-0.8-1.6-1.4-1.9-2.1c-0.4-1,0.5-3-1.9-4.7L167.3,110.4L167.3,110.4z M265,110.9c0,1.1,0.3,3.1,0,3.8
	c-0.5,0.1-0.9-0.3-1.2-0.6c0.1-1,0.2-1.8,0.3-3L265,110.9L265,110.9z M179.2,87.2l-4.6,22.7c-0.1,0.6-0.3,0.4,0.7,0.9
	c0.5,0.2,0.8,0.4,1.2,0.5c0.8,0.2,1.9,0.1,2.9,0.4c0.3-1.7,0.7-3.6,1-5.3c0.2-1.2,2.9-14.7,3.5-15.7c0.2,0.3,1.3,3.6,1.6,4.2
	c0.9,2.3,4.4,10.2,4.7,11.9c0.3-0.2,0.1,0,0.3-0.2l3.6-2.2c-0.4-0.8-5.8-7.2-9.6-15.7c0.2-1.7,1.4-3.7,0-4.6c-1-0.7-2.6-0.6-3.9-0.3
	c-0.5,0.1-0.7,0.2-0.9,0.2c-3.4-4.6-6.9-6.2-10.5-5.8c-2.4,0.3-4.8,1.4-7.3,3.2c-1.2,0.7-2.4,1.7-3.8,3.1l-0.2,0.2
	c0.9-0.5,5.4-2.6,6.9-2.8c5.5-0.7,7.5,0.2,9.6,1.2C175.6,83.6,178.4,85.2,179.2,87.2L179.2,87.2z M162,110.5
	c0.6,0.1,1.2,0.2,1.7,0.4l7.8-21.9c-0.8-0.7-2.4-1.5-3.7-1.7L162,110.5L162,110.5z M241.1,103.7c-4.2,0.9-4.4,2.6-2.4,3
	c1.1,0.2,2-0.8,3.1-0.6c0.5,0.1,0.8,0.5,1.1,0.8c0.5,0.3,1,0.2,1.7,0.3c1,0.1,2.2,1,2.9,0.4c0.2-0.2,0.5-0.9,0.4-1.3
	c-0.2-0.4-0.7-0.7-1-0.9C245.6,104.6,243.1,103.2,241.1,103.7L241.1,103.7z M239.7,86.7l1.1,0.9c-0.5-2-2.5-4-3.3-2.9
	c-0.4,0.6,0,1-2.8,3.2c-0.7,0.6-1.6,1.1-2.3,1.6c-0.9,0.7-0.6,2.4,0.6,2.3c0.7-0.1,2-1.2,2.4-1.5c1.1-0.9,1-0.9,2.6-1.3
	C239.2,88.6,239.9,88.2,239.7,86.7L239.7,86.7z M217.2,80.2c3.7,1.2,7.6,2.7,11.4,3.8c-0.2,0.3-3.7,2.8-5,2.1
	c-0.5-0.3-0.8-0.6-1.1-1.3c-0.3-0.7-2-1.8-2.7-2.3C218.4,81.5,217.1,81,217.2,80.2L217.2,80.2z M218.8,74.3c2.2,0.1,8.3,0.8,9.7-0.6
	l0.1,0.2c0.1,0.2,0,0,0.1,0.2c0.2,0.3,0.3,0.3,0.7,0.6c1.8,1.3,1.2,2.9,1.8,3.5c0.6,0.6,1.6,0.4,2.4,1.1c0.5,0.4,1.2,1.3,1,2.3
	c-2.2,0.2-3.1,0.7-4.6,1.6c-1,0.7-0.9,0.5-2-0.1c-0.8-0.4-1.3-0.6-2.1-1c-1.4-0.6-7.7-3.4-8.3-3.8c1.1,0.3,1.9,0.6,3.2,0.8
	c3.8,0.7,7.7,0.6,10.9,1.2c0.8,0.1,2.2,0.5,2.2,0.4c0.1-0.2-0.7-0.9-2-1.4c-3.4-0.6-12.7-1.2-14-2.7
	C217.3,75.9,218.4,74.7,218.8,74.3L218.8,74.3z M199.1,82.8c0.2-1.3,1.5-2.5,2.1-3.3c0.7,0,4.2,1,4.6,1.3c-0.4,0.8-1.6,1.5-2.7,1.8
	C201.6,83.1,200.8,83,199.1,82.8L199.1,82.8z M176.3,78.8c1.8-1,0.9-1,1.6-2.6c0.6-1.5,5.2-7,5.3-7.1c-0.5,2.7-1.4,5.2-2,7.9
	c-0.2,0.8-0.1,2.2-2,2.9c-0.8,0.3-1.1,0.6-1.7,0C177,79.5,176.7,79.1,176.3,78.8L176.3,78.8z M241.2,75.2c0.8-0.7,7.6-2.4,8.8-2.8
	c0.8-0.2,2.2-0.9,2.7-1c0.2,1.4,1,2.8,0.8,4.2c-0.2,1.5-1.1,2.4-1.5,3.5l-8.3-2.9C243.3,76,243.4,75.2,241.2,75.2L241.2,75.2z
	 M182.2,78.3c0.4-2.3,1.2-5.6,1.9-8.1c0.5-1.9,0.7-3,1.3-3.5c1.2-1,1.5,0.6,2.2,1.3c-1.5,3.7-1.6,5.5,1.7,7.4
	c-0.2,0.8-0.4,0.6-1.9,1.3c-1.3,0.6-2.3,1-3.4,1.7C183.3,77.7,183.3,77.9,182.2,78.3L182.2,78.3z M167.6,69.7c0.6-1.6,0.7-2.2,1-3
	c0.6-1.7-0.9-0.4,0.7-3.1c0.7-1.1,0.4-0.9,2.2-1.9L183,57c1.2-0.7,2.4-0.6,2.5,0.6l-0.9,5.3c-0.3,1.8-1.1,3.3-2,4.6
	c-1.7,2.5-5.3,6.4-6,8c-0.3,0.7-0.2,1.1-0.4,1.6c-0.3,0.9-1.7,0.8-2.8,0.7l0.8-1.3c0.7-1.2,1.4-2.9,1.8-4.2c2.3-7.7,2.4-8.7-4.1-6.2
	C169.4,67.1,168.7,67.4,167.6,69.7L167.6,69.7z M167.1,76.3c-0.5,0-0.7-0.1-0.5-0.9c0.1-0.8,0.6-3.5,0.6-3.5
	C167.3,72.8,167.3,75.5,167.1,76.3L167.1,76.3z M190.5,75.1c0-0.1,0-0.6,2.1-2.5c1.9-1.7,3.1-1.5,4.6-1.3c0.6,0.1,2.2,0.5,3.8,0.7
	c1.6,0.2,3.5,0.8,4.9,0.9c0.7-1.6,1.7-1.4,2.4-1.5c0.5-1.2,2.3-4.8,3.1-5.4c1.2-0.6,1.5-0.7,2.4-0.4c-1.5,0.8-2.5,2.1-2.8,2.5
	c-0.5,0.9-2.6,4.9-2.6,5.3c1,0.2,2.3,0.3,3.4,0.2c-1.2-5.1,1-8,5.2-9c3.1-0.7,3-0.3,4.1,2.8c1.4,3.9-0.7,3.7-1.5,5.3l6.5-0.2
	c-0.3-0.3-3.1-1.3-0.6-2.7c0.9-0.5,0.8-0.4,1-0.9c-1.6-0.3-2.4,1.2-3.5,0.6c-0.3-0.9,0.2-0.7,0.4-1.6c0.4-1.3,0.5-1.7,1.3-2.8
	c0.4-0.5,0.7-0.6,0.9-1.3c-0.7-0.4-1.7-1-2.6-1.4c-2.7-1.3-1.3-0.5-2.1-2c-0.5,0.3-2.8,2.6-3.7,3.3c-0.5,0.4-0.9,0.7-1.5,0.4
	c-0.4-1.3,2-4.2,2.7-4.6c-0.3-2.3-0.9-1.3-2.7-3.7c-1-1.5-1.4-2.8-2.8-3.7c-0.3,0.4-0.6,1.1-1.4,0.7c-0.5-0.3,0.1-0.5-1.6,0
	c0,0-0.1,0-0.1,0c-0.4,0.7-0.7,1.5-1.2,2c-0.9,0.8-1.6-0.1-1.8-1l-1.1-0.1c0,2.7-2,2.9-2.3,2.7c-0.5-0.3-0.2-2.1-4.1-1.8
	c-3.6,0.3-9.3,3.8-11.2,6.7c1.3,0.9,3.1,0.4,2.6,2.7c-0.3,1.3-0.8,3.3-1.8,3.8c-0.3,0.2-0.3-0.1-0.8,1.7c-0.2,0.8-0.4,1.7-0.1,2.5
	c0.2,0.7,0.8,1.1,1.4,1.4C190.7,74.8,190.3,74.7,190.5,75.1C190.5,75.2,190.5,75.2,190.5,75.1C190.5,75.2,190.5,75.2,190.5,75.1
	L190.5,75.1z M243.3,71.2c0.6-0.8,1.2-1.2,3.2-2.2c0.4-0.2,10.6-5.4,12.7-6.5c2.6-1.4,2.9-1.9,5.6-2.1c-0.1,0.9-2.6,4.4-3.3,5.4
	c-0.4,0.6-0.9,1.3-1.4,1.8c-2.6-0.4-4.7,0.7-5.5,2.4c-0.9-0.1-0.6,0-1.3,0.2c-0.5-2.7-2.7-2.1-4.9-1.3
	C246.8,69.4,244.6,70.9,243.3,71.2L243.3,71.2z M163.9,67.8c2.8-2,0.3-2.7,3.7-2.5c0.3,0.4,0.3,0.7,0.2,1c-0.1,0.2-0.5,1.6-0.7,2.2
	c-1,0.1-1.3,0.2-2.1,0.4L163.9,67.8L163.9,67.8z M169.3,60.8c0.6-1.1,1.1-0.9,2-0.1c0,0-0.5,0.4-0.6,0.4c-0.3,0.2-0.4,0.2-0.7,0.4
	C169.8,61.4,169.3,60.8,169.3,60.8L169.3,60.8z M185.1,55.6c0.6-0.3,1.5-1.2,2-1.7c0.7-0.6,1.1-1.3,2-1.7c-0.2,0.8-0.7,1.3-0.6,2.4
	c0.1,1.1,0.6,1.2,1.4,1.5c-0.5,0.9-2.3,2.5-3.5,3c0.1-0.8,0.3-1.6,0-2.4C186,56.1,185.1,55.6,185.1,55.6L185.1,55.6z M189.5,54.8
	c-0.2-1.2,0.5-2.5,1.1-3.1c0.6-0.5,0.6-0.5,1.2-1c0.9-0.7,6.2-5,7.1-5.6c0,0,2.1-1.6,2.5-1.9c0.9-0.7,3.2-1.8,4-2.3
	c0.5-0.3,1.9-0.6,3.1-0.9c-0.3,0.4-0.4,0.5-0.6,1c-0.9,2-0.4,7.7-0.5,7.9c-0.2,0.8-1.2,1.2-2,1.6c-0.6,0.2-0.7,0.3-1.2,0.5l-3.7,1.4
	c-2.2,0.7-3.3,1.2-6,1c0.6-0.5,1-0.8,1.4-1.2c2.2-1.7,5.1-3.8,7.7-4.6c1.3-0.4,1.8-1.5,2-2.9l-0.9-0.2c-0.3,0.7-0.5,1.7-1.2,2.1
	c-0.6,0.3-1.6,0.5-2.3,0.9c-3,1.5-5.2,3.6-7.7,5.2c-1,0.7-1.4,0.1-3.4,1.6C189.6,54.8,189.7,54.9,189.5,54.8L189.5,54.8z
	 M213.8,50.1c0.9,0,1.8,0,2.2-0.4c-0.3,0.8-1.8,1.2-2.7,1.4C213.5,50.7,213.6,50.4,213.8,50.1L213.8,50.1z M181.8,47.2
	c0.8-0.7,1.5-1.2,2.3-1.7c1.7-1.1,1.2-1.1,2.1-1.8c0.6,2,2.5,4.5,4.1,5.8l0.7,0.6c-0.7,1-1.1,0.7-2.3,0.4c-2.3-0.7-2.8-0.8-4.9-1.9
	C183.8,48.6,181.9,47.4,181.8,47.2L181.8,47.2z M219.4,42c1.9-0.5,3.1-0.9,4.3-1.5c1.1-0.6,1.1-0.9,1.6-1.3c0.3-0.2,1.4-1.1,1.7-1.1
	c1.3-0.2,3.9,0.5,4.8,0.9c3.5,1.7,3.5,6.4,2.1,7.7c-0.6,0.6-3.1,1.2-4.2,1.5c-3.4,0.8-7,1.1-10.7,1C220.3,46.6,219.7,44.8,219.4,42
	L219.4,42z M218.5,42.3c0.3,1.8,1.3,7.7-1.9,6.2c0-3.3-1.6-4.9-1.5-5.7L218.5,42.3L218.5,42.3z M191.8,40.5c1.5,1.4,3.3,2.7,5.4,3.3
	c-1.4,0.3-3.4-0.8-4.2-1.5c-0.8-0.7-1.5-1.4-2.1-2.3c-0.3-0.4-0.5-0.5-0.3-1C190.9,39.4,191.3,40.1,191.8,40.5L191.8,40.5z
	 M197.9,32.7c-1.1-1.9-1.2-1.3-0.6-2.9c1.3,0.5,4.2,4.5,5.3,6c0.6,0.8,2.2,3.5,2.5,4.3c-0.7,0.4-1.3,0.7-2.2,1.2
	c-0.7-1.2-2.7-4.5-3.3-5.7C198.9,34.6,198.4,33.6,197.9,32.7L197.9,32.7z M209,33.4c-1.2-0.3-1.8-0.5-3-0.9c-1.2-0.3-5-1.7-5.9-2.3
	c0.9-0.2,0.7-0.2,1.5,0.2c1.3,0.5,3.5,1.2,4.5,1.5c2,0.6,4.5,1.2,6.7,0.9C211.9,33.9,210.3,33.7,209,33.4L209,33.4z M199.1,20.6
	l2.3-2.8c0.5-0.6,1.6-2,2.4-2c1,0,1.5,1,3,1.4c-1.1-0.9-2.6-1.4-2.8-2.2l-0.1-0.5c-0.7,0.9-1.8,1.6-3.1,3.3
	c-0.1,0.1-0.2,0.2-0.3,0.3v0c-0.6,0.8-1.6,2.3-2.1,3.2l-2,3.1l-0.8,1.1c-0.4,0.5-0.4,0.4-0.9,0.8c0.2,0.3,1.6,1.4,2,1.6
	c0.7,0.5,1.8,0.9,2.8,1.2c1.4,0.4,1.6,0.6,3,0.1c1.1-0.4,1.4-1.2,1.2-2.6c-0.6,0.9-0.3,1.1-1.5,1.6c-1.9,0.7-5.4-1.9-5.5-2.3
	c-0.4-1-0.2-1.2,0.2-2l0,0L199.1,20.6L199.1,20.6z M207.2,17.2c0.6,0.1,0.8,0,1.3-0.1c-0.2,1.9,0.4,4.2-0.5,5.9
	c-0.8,1.7-2,2-4.2,2.3l-0.2,0.7c-0.9-3.3,2.1-1.4,3-3.3c0.2-0.5,0.5-2,0.7-2.6C207.5,18.9,207.7,18.2,207.2,17.2L207.2,17.2z
	 M205,14.7c0.2-0.5,0.4-1.3,0.5-1.7c0.2-1.5,0.9-3.2-0.5-5.8c1,0.4,2,1.6,2.6,2.4c1.2,1.5,1.4,1.8,1.4,3.6c0,2-0.3,2.7-1.2,3.2
	C207.1,16.3,205.5,15.5,205,14.7L205,14.7z"/>
<path class="st0" d="M310.2,163.3c-2.5,8.8-6.3,15.8-11.4,21.1c-5.6,5.7-12,8.5-19.4,8.5H263c-8,0-13.5-3.3-16.5-9.9
	c-1.6-3.4-2.4-7.5-2.4-12.2c0-3.5,0.4-7.4,1.3-11.6c2.1-9.8,5.8-17.7,11.1-23.8c5.8-6.6,12.7-9.9,20.7-9.9h16.4
	c7.4,0,12.7,2.8,15.8,8.5c2,3.7,3,8.2,3,13.5c0,2.4-0.2,4.9-0.6,7.6h-28l2.7-12.9c0.1-0.5,0.2-0.9,0.2-1.3c0-0.9-0.3-1.8-0.8-2.5
	c-0.7-1.1-1.7-1.6-3-1.6c-1.3,0-2.6,0.5-3.7,1.6c-1.1,1.1-1.9,2.4-2.2,3.9l-7.2,33.9c-0.1,0.5-0.2,0.9-0.2,1.4
	c0,0.9,0.2,1.8,0.7,2.5c0.7,1.1,1.7,1.6,3,1.6c1.3,0,2.6-0.5,3.7-1.6c1.2-1.1,1.9-2.4,2.2-3.9l2.8-12.9H310.2L310.2,163.3z"/>
</svg>
