<svg width="17" height="17" viewBox="0 0 17 17" fill="none" xmlns="http://www.w3.org/2000/svg">
<path d="M4.64018 3.74163C4.40943 3.51069 4.03505 3.51069 3.8043 3.74163C2.94754 4.59838 2.52644 5.7919 2.64881 7.01635C2.67935 7.32138 2.93632 7.54876 3.23641 7.54876C3.25613 7.54876 3.27601 7.54776 3.29573 7.54579C3.62067 7.51329 3.8577 7.22341 3.8252 6.89869C3.73811 6.02852 4.03527 5.18242 4.64018 4.57748C4.87112 4.34676 4.87112 3.97235 4.64018 3.74163Z" fill="#FFFFFF"/>
<path d="M6.98117 0.100403C3.25441 0.100403 0.222473 3.13234 0.222473 6.8591C0.222473 10.5859 3.25441 13.6178 6.98117 13.6178C10.7079 13.6178 13.7399 10.5859 13.7399 6.8591C13.7399 3.13234 10.7079 0.100403 6.98117 0.100403ZM6.98117 12.4355C3.90626 12.4355 1.40477 9.93401 1.40477 6.8591C1.40477 3.78419 3.90626 1.2827 6.98117 1.2827C10.0559 1.2827 12.5576 3.78419 12.5576 6.8591C12.5576 9.93401 10.0561 12.4355 6.98117 12.4355Z" fill="#FFFFFF"/>
<path d="M16.0494 15.0915L11.7537 10.7959C11.5228 10.5649 11.1488 10.5649 10.9178 10.7959C10.6869 11.0266 10.6869 11.401 10.9178 11.6317L15.2135 15.9273C15.3289 16.0428 15.4801 16.1005 15.6314 16.1005C15.7828 16.1005 15.9339 16.0428 16.0494 15.9273C16.2803 15.6966 16.2803 15.3222 16.0494 15.0915Z" fill="#FFFFFF"/>
</svg>
