<svg width="4" height="17" viewBox="0 0 4 17" fill="none" xmlns="http://www.w3.org/2000/svg">
<path d="M2 4.16553C3.1 4.16553 4 3.26553 4 2.16553C4 1.06553 3.1 0.165527 2 0.165527C0.9 0.165527 0 1.06553 0 2.16553C0 3.26553 0.9 4.16553 2 4.16553ZM2 6.16553C0.9 6.16553 0 7.06553 0 8.16553C0 9.26553 0.9 10.1655 2 10.1655C3.1 10.1655 4 9.26553 4 8.16553C4 7.06553 3.1 6.16553 2 6.16553ZM2 12.1655C0.9 12.1655 0 13.0655 0 14.1655C0 15.2655 0.9 16.1655 2 16.1655C3.1 16.1655 4 15.2655 4 14.1655C4 13.0655 3.1 12.1655 2 12.1655Z" fill="black"/>
</svg>
