<svg width="28" height="28" viewBox="0 0 28 28" fill="none" xmlns="http://www.w3.org/2000/svg">
<path d="M13.9642 6.72875C10.1166 6.72875 7.0131 9.84347 7.0131 13.705C7.0131 17.5665 10.1166 20.6813 13.9642 20.6813C17.8117 20.6813 20.9152 17.5665 20.9152 13.705C20.9152 9.84347 17.8117 6.72875 13.9642 6.72875ZM13.9642 18.2405C11.4778 18.2405 9.44507 16.2065 9.44507 13.705C9.44507 11.2035 11.4717 9.16953 13.9642 9.16953C16.4566 9.16953 18.4833 11.2035 18.4833 13.705C18.4833 16.2065 16.4506 18.2405 13.9642 18.2405ZM22.8209 6.44339C22.8209 7.34805 22.0949 8.07057 21.1995 8.07057C20.2981 8.07057 19.5782 7.34198 19.5782 6.44339C19.5782 5.54479 20.3042 4.8162 21.1995 4.8162C22.0949 4.8162 22.8209 5.54479 22.8209 6.44339ZM27.4246 8.09486C27.3218 5.91516 26.8257 3.98439 25.2347 2.39364C23.6497 0.802883 21.7259 0.305014 19.554 0.195725C17.3157 0.0682218 10.6066 0.0682218 8.36823 0.195725C6.20245 0.298942 4.27866 0.796812 2.6876 2.38757C1.09654 3.97832 0.60652 5.90909 0.497626 8.08879C0.370583 10.3353 0.370583 17.0687 0.497626 19.3151C0.60047 21.4948 1.09654 23.4256 2.6876 25.0164C4.27866 26.6071 6.1964 27.105 8.36823 27.2143C10.6066 27.3418 17.3157 27.3418 19.554 27.2143C21.7259 27.1111 23.6497 26.6132 25.2347 25.0164C26.8197 23.4256 27.3158 21.4948 27.4246 19.3151C27.5517 17.0687 27.5517 10.3413 27.4246 8.09486ZM24.5329 21.7256C24.061 22.9156 23.1475 23.8324 21.9558 24.3121C20.1711 25.0224 15.9363 24.8585 13.9642 24.8585C11.992 24.8585 7.75116 25.0164 5.97256 24.3121C4.78683 23.8385 3.87333 22.9217 3.39541 21.7256C2.6876 19.9344 2.85094 15.6843 2.85094 13.705C2.85094 11.7257 2.69365 7.46948 3.39541 5.68444C3.86728 4.49441 4.78078 3.5776 5.97256 3.09794C7.75721 2.38757 11.992 2.5515 13.9642 2.5515C15.9363 2.5515 20.1772 2.39364 21.9558 3.09794C23.1415 3.57153 24.055 4.48834 24.5329 5.68444C25.2407 7.47556 25.0774 11.7257 25.0774 13.705C25.0774 15.6843 25.2407 19.9405 24.5329 21.7256Z" fill="#BFBFBF"/>
</svg>
