<svg width="33" height="16" viewBox="0 0 33 16" fill="none" xmlns="http://www.w3.org/2000/svg">
<path d="M31.4964 1.17172C31.712 0.558926 31.4964 0.10791 30.4594 0.10791H27.0278C26.1539 0.10791 25.7519 0.495196 25.5364 0.926603C25.5364 0.926603 23.7886 4.51022 21.3183 6.83394C20.5201 7.50556 20.1531 7.72126 19.7161 7.72126C19.5006 7.72126 19.1685 7.50556 19.1685 6.89277V1.17172C19.1685 0.436368 18.9238 0.10791 18.2014 0.10791H12.8065C12.2588 0.10791 11.9326 0.451075 11.9326 0.769728C11.9326 1.46586 13.1677 1.62764 13.2959 3.58858V7.84382C13.2959 8.77527 13.0978 8.94685 12.6608 8.94685C11.4956 8.94685 8.66415 5.34853 6.98625 1.23055C6.64834 0.431466 6.31626 0.10791 5.43652 0.10791H2.00499C1.02621 0.10791 0.828125 0.495196 0.828125 0.926603C0.828125 1.69137 1.99333 5.49069 6.25217 10.5107C9.08945 13.9374 13.0861 15.7954 16.7216 15.7954C18.9063 15.7954 19.1743 15.3836 19.1743 14.6728C19.1743 11.398 18.9762 11.0892 20.0715 11.0892C20.5784 11.0892 21.4523 11.3049 23.4914 12.957C25.8218 14.9179 26.2064 15.7954 27.5114 15.7954H30.9429C31.9217 15.7954 32.4169 15.3836 32.1314 14.5698C31.4789 12.8589 27.0686 9.33904 26.8705 9.10373C26.3637 8.55466 26.5093 8.30955 26.8705 7.81931C26.8764 7.81441 31.0653 2.85323 31.4964 1.17172Z" fill="#BFBFBF"/>
</svg>
