<svg width="25" height="18" viewBox="0 0 25 18" fill="none" xmlns="http://www.w3.org/2000/svg">
<path d="M24.0969 3.39747C23.8162 2.40419 22.9891 1.62191 21.9389 1.35643C20.0354 0.874023 12.4026 0.874023 12.4026 0.874023C12.4026 0.874023 4.76983 0.874023 2.86628 1.35643C1.81611 1.62195 0.989008 2.40419 0.708287 3.39747C0.198242 5.19786 0.198242 8.9542 0.198242 8.9542C0.198242 8.9542 0.198242 12.7105 0.708287 14.5109C0.989008 15.5042 1.81611 16.2539 2.86628 16.5194C4.76983 17.0018 12.4026 17.0018 12.4026 17.0018C12.4026 17.0018 20.0354 17.0018 21.9389 16.5194C22.9891 16.2539 23.8162 15.5042 24.0969 14.5109C24.607 12.7105 24.607 8.9542 24.607 8.9542C24.607 8.9542 24.607 5.19786 24.0969 3.39747ZM9.90625 12.3647V5.54373L16.2858 8.95429L9.90625 12.3647Z" fill="#BFBFBF"/>
</svg>
