<svg width="22" height="28" viewBox="0 0 22 28" fill="none" xmlns="http://www.w3.org/2000/svg">
<path d="M5.21325 25.6926C5.91162 25.9777 6.47436 26.6088 6.72495 27.389H5.21325V25.6926ZM16.7868 27.389H15.275C15.5256 26.6088 16.0884 25.9777 16.7868 25.6926V27.389ZM20.3759 20.8352C21.2215 21.2957 21.7468 22.2216 21.7468 23.2516V27.389H18.4401V22.8264C18.4401 22.329 18.07 21.9259 17.6134 21.9259C17.1568 21.9259 16.7868 22.329 16.7868 22.8264V23.8191C15.1726 24.1835 13.8878 25.6119 13.5618 27.389H11.8267V18.3238H14.3067C14.435 18.3238 14.5616 18.2912 14.6764 18.2288L15.1334 17.9798L20.3759 20.8352ZM5.159 15.0362L4.94328 12.905L8.10425 14.6267C8.219 14.6893 8.34558 14.7217 8.47389 14.7217H13.5261C13.6544 14.7217 13.781 14.6891 13.8957 14.6267L17.0567 12.905L16.841 15.0362L14.1117 16.5227H7.88833L5.159 15.0362ZM5.85392 2.96008L7.32343 3.76047C7.73289 3.98325 8.2289 3.80151 8.43256 3.35781C8.63686 2.91295 8.47131 2.37193 8.06292 2.14962L7.11913 1.63534C8.01534 0.921721 9.06699 0.464191 10.1733 0.310822V2.95492C10.1733 3.45232 10.5434 3.85544 11 3.85544C11.4566 3.85544 11.8267 3.45232 11.8267 2.95492V0.310822C12.933 0.464191 13.9847 0.921721 14.8809 1.63534L13.9371 2.14962C13.5287 2.37193 13.3631 2.91295 13.5674 3.35781C13.7715 3.80268 14.2682 3.98278 14.6764 3.76047L16.1461 2.96008C16.7288 3.75953 17.1435 4.68069 17.3704 5.65648H4.62962C4.85653 4.68069 5.27116 3.75953 5.85392 2.96008ZM17.5721 7.45752C17.5708 7.70587 17.5577 7.95515 17.5321 8.2042L17.2722 10.774L13.3308 12.9207H8.66915L4.72779 10.774L4.46773 8.2035C4.44233 7.95468 4.42919 7.70563 4.4279 7.45752H17.5721ZM0.253174 23.2516C0.253174 22.2216 0.77846 21.2957 1.62408 20.8352L6.8666 17.9798L7.32364 18.2288C7.43839 18.2914 7.56498 18.3238 7.69328 18.3238H10.1733V27.389H8.43815C8.11265 25.6138 6.82936 24.184 5.21325 23.8191V22.8264C5.21325 22.329 4.84318 21.9259 4.38657 21.9259C3.92996 21.9259 3.55989 22.329 3.55989 22.8264V27.389H0.253174V23.2516Z" fill="white"/>
</svg>
