<svg width="44" height="23" viewBox="0 0 44 23" fill="none" xmlns="http://www.w3.org/2000/svg">
<path d="M42.1221 2.00511C42.4138 1.14289 42.1221 0.508301 40.7186 0.508301H36.0746C34.8919 0.508301 34.3479 1.05322 34.0562 1.66022C34.0562 1.66022 31.6908 6.70247 28.3477 9.97199C27.2675 10.917 26.7708 11.2205 26.1795 11.2205C25.8877 11.2205 25.4383 10.917 25.4383 10.0548V2.00511C25.4383 0.970449 25.1072 0.508301 24.1295 0.508301H16.8284C16.0872 0.508301 15.6457 0.991142 15.6457 1.4395C15.6457 2.41897 17.3172 2.6466 17.4907 5.40569V11.3929C17.4907 12.7035 17.2226 12.9449 16.6313 12.9449C15.0543 12.9449 11.2224 7.88198 8.95167 2.08788C8.49437 0.963551 8.04495 0.508301 6.85438 0.508301H2.21036C0.885751 0.508301 0.617676 1.05322 0.617676 1.66022C0.617676 2.73627 2.19459 8.08202 7.95822 15.1453C11.798 19.9668 17.2068 22.5811 22.1268 22.5811C25.0835 22.5811 25.4462 22.0016 25.4462 21.0015C25.4462 16.3938 25.1781 15.9592 26.6604 15.9592C27.3464 15.9592 28.5291 16.2627 31.2887 18.5873C34.4425 21.3464 34.9629 22.5811 36.729 22.5811H41.3731C42.6977 22.5811 43.3679 22.0016 42.9815 20.8566C42.0984 18.4493 36.1298 13.4967 35.8617 13.1656C35.1758 12.3931 35.3729 12.0482 35.8617 11.3584C35.8696 11.3515 41.5386 4.37103 42.1221 2.00511V2.00511Z" fill="#6C6C6C"/>
</svg>
